<?xml version="1.0" encoding="utf-8" standalone="no"?>
<!DOCTYPE svg PUBLIC "-//W3C//DTD SVG 1.1//EN"
  "http://www.w3.org/Graphics/SVG/1.1/DTD/svg11.dtd">
<!-- Created with matplotlib (https://matplotlib.org/) -->
<svg height="360pt" version="1.1" viewBox="0 0 504 360" width="504pt" xmlns="http://www.w3.org/2000/svg" xmlns:xlink="http://www.w3.org/1999/xlink">
 <defs>
  <style type="text/css">
*{stroke-linecap:butt;stroke-linejoin:round;}
  </style>
 </defs>
 <g id="figure_1">
  <g id="patch_1">
   <path d="M 0 360 
L 504 360 
L 504 0 
L 0 0 
z
" style="fill:#ffffff;"/>
  </g>
  <g id="axes_1">
   <g id="patch_2">
    <path d="M 32.56 317.32 
L 482.04 317.32 
L 482.04 14.76 
L 32.56 14.76 
z
" style="fill:#ffffff;"/>
   </g>
   <g id="matplotlib.axis_1">
    <g id="xtick_1">
     <g id="line2d_1">
      <path clip-path="url(#p986853058b)" d="M 32.56 317.32 
L 32.56 14.76 
" style="fill:none;stroke:#666666;stroke-linecap:square;stroke-width:0.8;"/>
     </g>
     <g id="line2d_2">
      <defs>
       <path d="M 0 0 
L 0 3.5 
" id="maa59b4d04d" style="stroke:#000000;stroke-width:0.8;"/>
      </defs>
      <g>
       <use style="stroke:#000000;stroke-width:0.8;" x="32.56" xlink:href="#maa59b4d04d" y="317.32"/>
      </g>
     </g>
     <g id="text_1">
      <!-- 0.00 -->
      <defs>
       <path d="M 31.78125 66.40625 
Q 24.171875 66.40625 20.328125 58.90625 
Q 16.5 51.421875 16.5 36.375 
Q 16.5 21.390625 20.328125 13.890625 
Q 24.171875 6.390625 31.78125 6.390625 
Q 39.453125 6.390625 43.28125 13.890625 
Q 47.125 21.390625 47.125 36.375 
Q 47.125 51.421875 43.28125 58.90625 
Q 39.453125 66.40625 31.78125 66.40625 
z
M 31.78125 74.21875 
Q 44.046875 74.21875 50.515625 64.515625 
Q 56.984375 54.828125 56.984375 36.375 
Q 56.984375 17.96875 50.515625 8.265625 
Q 44.046875 -1.421875 31.78125 -1.421875 
Q 19.53125 -1.421875 13.0625 8.265625 
Q 6.59375 17.96875 6.59375 36.375 
Q 6.59375 54.828125 13.0625 64.515625 
Q 19.53125 74.21875 31.78125 74.21875 
z
" id="DejaVuSans-48"/>
       <path d="M 10.6875 12.40625 
L 21 12.40625 
L 21 0 
L 10.6875 0 
z
" id="DejaVuSans-46"/>
      </defs>
      <g transform="translate(21.427188 331.918437)scale(0.1 -0.1)">
       <use xlink:href="#DejaVuSans-48"/>
       <use x="63.623047" xlink:href="#DejaVuSans-46"/>
       <use x="95.410156" xlink:href="#DejaVuSans-48"/>
       <use x="159.033203" xlink:href="#DejaVuSans-48"/>
      </g>
     </g>
    </g>
    <g id="xtick_2">
     <g id="line2d_3">
      <path clip-path="url(#p986853058b)" d="M 88.745 317.32 
L 88.745 14.76 
" style="fill:none;stroke:#666666;stroke-linecap:square;stroke-width:0.8;"/>
     </g>
     <g id="line2d_4">
      <g>
       <use style="stroke:#000000;stroke-width:0.8;" x="88.745" xlink:href="#maa59b4d04d" y="317.32"/>
      </g>
     </g>
     <g id="text_2">
      <!-- 0.25 -->
      <defs>
       <path d="M 19.1875 8.296875 
L 53.609375 8.296875 
L 53.609375 0 
L 7.328125 0 
L 7.328125 8.296875 
Q 12.9375 14.109375 22.625 23.890625 
Q 32.328125 33.6875 34.8125 36.53125 
Q 39.546875 41.84375 41.421875 45.53125 
Q 43.3125 49.21875 43.3125 52.78125 
Q 43.3125 58.59375 39.234375 62.25 
Q 35.15625 65.921875 28.609375 65.921875 
Q 23.96875 65.921875 18.8125 64.3125 
Q 13.671875 62.703125 7.8125 59.421875 
L 7.8125 69.390625 
Q 13.765625 71.78125 18.9375 73 
Q 24.125 74.21875 28.421875 74.21875 
Q 39.75 74.21875 46.484375 68.546875 
Q 53.21875 62.890625 53.21875 53.421875 
Q 53.21875 48.921875 51.53125 44.890625 
Q 49.859375 40.875 45.40625 35.40625 
Q 44.1875 33.984375 37.640625 27.21875 
Q 31.109375 20.453125 19.1875 8.296875 
z
" id="DejaVuSans-50"/>
       <path d="M 10.796875 72.90625 
L 49.515625 72.90625 
L 49.515625 64.59375 
L 19.828125 64.59375 
L 19.828125 46.734375 
Q 21.96875 47.46875 24.109375 47.828125 
Q 26.265625 48.1875 28.421875 48.1875 
Q 40.625 48.1875 47.75 41.5 
Q 54.890625 34.8125 54.890625 23.390625 
Q 54.890625 11.625 47.5625 5.09375 
Q 40.234375 -1.421875 26.90625 -1.421875 
Q 22.3125 -1.421875 17.546875 -0.640625 
Q 12.796875 0.140625 7.71875 1.703125 
L 7.71875 11.625 
Q 12.109375 9.234375 16.796875 8.0625 
Q 21.484375 6.890625 26.703125 6.890625 
Q 35.15625 6.890625 40.078125 11.328125 
Q 45.015625 15.765625 45.015625 23.390625 
Q 45.015625 31 40.078125 35.4375 
Q 35.15625 39.890625 26.703125 39.890625 
Q 22.75 39.890625 18.8125 39.015625 
Q 14.890625 38.140625 10.796875 36.28125 
z
" id="DejaVuSans-53"/>
      </defs>
      <g transform="translate(77.612188 331.918437)scale(0.1 -0.1)">
       <use xlink:href="#DejaVuSans-48"/>
       <use x="63.623047" xlink:href="#DejaVuSans-46"/>
       <use x="95.410156" xlink:href="#DejaVuSans-50"/>
       <use x="159.033203" xlink:href="#DejaVuSans-53"/>
      </g>
     </g>
    </g>
    <g id="xtick_3">
     <g id="line2d_5">
      <path clip-path="url(#p986853058b)" d="M 144.93 317.32 
L 144.93 14.76 
" style="fill:none;stroke:#666666;stroke-linecap:square;stroke-width:0.8;"/>
     </g>
     <g id="line2d_6">
      <g>
       <use style="stroke:#000000;stroke-width:0.8;" x="144.93" xlink:href="#maa59b4d04d" y="317.32"/>
      </g>
     </g>
     <g id="text_3">
      <!-- 0.50 -->
      <g transform="translate(133.797188 331.918437)scale(0.1 -0.1)">
       <use xlink:href="#DejaVuSans-48"/>
       <use x="63.623047" xlink:href="#DejaVuSans-46"/>
       <use x="95.410156" xlink:href="#DejaVuSans-53"/>
       <use x="159.033203" xlink:href="#DejaVuSans-48"/>
      </g>
     </g>
    </g>
    <g id="xtick_4">
     <g id="line2d_7">
      <path clip-path="url(#p986853058b)" d="M 201.115 317.32 
L 201.115 14.76 
" style="fill:none;stroke:#666666;stroke-linecap:square;stroke-width:0.8;"/>
     </g>
     <g id="line2d_8">
      <g>
       <use style="stroke:#000000;stroke-width:0.8;" x="201.115" xlink:href="#maa59b4d04d" y="317.32"/>
      </g>
     </g>
     <g id="text_4">
      <!-- 0.75 -->
      <defs>
       <path d="M 8.203125 72.90625 
L 55.078125 72.90625 
L 55.078125 68.703125 
L 28.609375 0 
L 18.3125 0 
L 43.21875 64.59375 
L 8.203125 64.59375 
z
" id="DejaVuSans-55"/>
      </defs>
      <g transform="translate(189.982187 331.918437)scale(0.1 -0.1)">
       <use xlink:href="#DejaVuSans-48"/>
       <use x="63.623047" xlink:href="#DejaVuSans-46"/>
       <use x="95.410156" xlink:href="#DejaVuSans-55"/>
       <use x="159.033203" xlink:href="#DejaVuSans-53"/>
      </g>
     </g>
    </g>
    <g id="xtick_5">
     <g id="line2d_9">
      <path clip-path="url(#p986853058b)" d="M 257.3 317.32 
L 257.3 14.76 
" style="fill:none;stroke:#666666;stroke-linecap:square;stroke-width:0.8;"/>
     </g>
     <g id="line2d_10">
      <g>
       <use style="stroke:#000000;stroke-width:0.8;" x="257.3" xlink:href="#maa59b4d04d" y="317.32"/>
      </g>
     </g>
     <g id="text_5">
      <!-- 1.00 -->
      <defs>
       <path d="M 12.40625 8.296875 
L 28.515625 8.296875 
L 28.515625 63.921875 
L 10.984375 60.40625 
L 10.984375 69.390625 
L 28.421875 72.90625 
L 38.28125 72.90625 
L 38.28125 8.296875 
L 54.390625 8.296875 
L 54.390625 0 
L 12.40625 0 
z
" id="DejaVuSans-49"/>
      </defs>
      <g transform="translate(246.167188 331.918437)scale(0.1 -0.1)">
       <use xlink:href="#DejaVuSans-49"/>
       <use x="63.623047" xlink:href="#DejaVuSans-46"/>
       <use x="95.410156" xlink:href="#DejaVuSans-48"/>
       <use x="159.033203" xlink:href="#DejaVuSans-48"/>
      </g>
     </g>
    </g>
    <g id="xtick_6">
     <g id="line2d_11">
      <path clip-path="url(#p986853058b)" d="M 313.485 317.32 
L 313.485 14.76 
" style="fill:none;stroke:#666666;stroke-linecap:square;stroke-width:0.8;"/>
     </g>
     <g id="line2d_12">
      <g>
       <use style="stroke:#000000;stroke-width:0.8;" x="313.485" xlink:href="#maa59b4d04d" y="317.32"/>
      </g>
     </g>
     <g id="text_6">
      <!-- 1.25 -->
      <g transform="translate(302.352187 331.918437)scale(0.1 -0.1)">
       <use xlink:href="#DejaVuSans-49"/>
       <use x="63.623047" xlink:href="#DejaVuSans-46"/>
       <use x="95.410156" xlink:href="#DejaVuSans-50"/>
       <use x="159.033203" xlink:href="#DejaVuSans-53"/>
      </g>
     </g>
    </g>
    <g id="xtick_7">
     <g id="line2d_13">
      <path clip-path="url(#p986853058b)" d="M 369.67 317.32 
L 369.67 14.76 
" style="fill:none;stroke:#666666;stroke-linecap:square;stroke-width:0.8;"/>
     </g>
     <g id="line2d_14">
      <g>
       <use style="stroke:#000000;stroke-width:0.8;" x="369.67" xlink:href="#maa59b4d04d" y="317.32"/>
      </g>
     </g>
     <g id="text_7">
      <!-- 1.50 -->
      <g transform="translate(358.537187 331.918437)scale(0.1 -0.1)">
       <use xlink:href="#DejaVuSans-49"/>
       <use x="63.623047" xlink:href="#DejaVuSans-46"/>
       <use x="95.410156" xlink:href="#DejaVuSans-53"/>
       <use x="159.033203" xlink:href="#DejaVuSans-48"/>
      </g>
     </g>
    </g>
    <g id="xtick_8">
     <g id="line2d_15">
      <path clip-path="url(#p986853058b)" d="M 425.855 317.32 
L 425.855 14.76 
" style="fill:none;stroke:#666666;stroke-linecap:square;stroke-width:0.8;"/>
     </g>
     <g id="line2d_16">
      <g>
       <use style="stroke:#000000;stroke-width:0.8;" x="425.855" xlink:href="#maa59b4d04d" y="317.32"/>
      </g>
     </g>
     <g id="text_8">
      <!-- 1.75 -->
      <g transform="translate(414.722187 331.918437)scale(0.1 -0.1)">
       <use xlink:href="#DejaVuSans-49"/>
       <use x="63.623047" xlink:href="#DejaVuSans-46"/>
       <use x="95.410156" xlink:href="#DejaVuSans-55"/>
       <use x="159.033203" xlink:href="#DejaVuSans-53"/>
      </g>
     </g>
    </g>
    <g id="xtick_9">
     <g id="line2d_17">
      <path clip-path="url(#p986853058b)" d="M 482.04 317.32 
L 482.04 14.76 
" style="fill:none;stroke:#666666;stroke-linecap:square;stroke-width:0.8;"/>
     </g>
     <g id="line2d_18">
      <g>
       <use style="stroke:#000000;stroke-width:0.8;" x="482.04" xlink:href="#maa59b4d04d" y="317.32"/>
      </g>
     </g>
     <g id="text_9">
      <!-- 2.00 -->
      <g transform="translate(470.907187 331.918437)scale(0.1 -0.1)">
       <use xlink:href="#DejaVuSans-50"/>
       <use x="63.623047" xlink:href="#DejaVuSans-46"/>
       <use x="95.410156" xlink:href="#DejaVuSans-48"/>
       <use x="159.033203" xlink:href="#DejaVuSans-48"/>
      </g>
     </g>
    </g>
    <g id="xtick_10">
     <g id="line2d_19">
      <path clip-path="url(#p986853058b)" d="M 43.797 317.32 
L 43.797 14.76 
" style="fill:none;stroke:#bbbbbb;stroke-linecap:square;stroke-width:0.8;"/>
     </g>
     <g id="line2d_20">
      <defs>
       <path d="M 0 0 
L 0 2 
" id="m772cf14564" style="stroke:#000000;stroke-width:0.6;"/>
      </defs>
      <g>
       <use style="stroke:#000000;stroke-width:0.6;" x="43.797" xlink:href="#m772cf14564" y="317.32"/>
      </g>
     </g>
    </g>
    <g id="xtick_11">
     <g id="line2d_21">
      <path clip-path="url(#p986853058b)" d="M 55.034 317.32 
L 55.034 14.76 
" style="fill:none;stroke:#bbbbbb;stroke-linecap:square;stroke-width:0.8;"/>
     </g>
     <g id="line2d_22">
      <g>
       <use style="stroke:#000000;stroke-width:0.6;" x="55.034" xlink:href="#m772cf14564" y="317.32"/>
      </g>
     </g>
    </g>
    <g id="xtick_12">
     <g id="line2d_23">
      <path clip-path="url(#p986853058b)" d="M 66.271 317.32 
L 66.271 14.76 
" style="fill:none;stroke:#bbbbbb;stroke-linecap:square;stroke-width:0.8;"/>
     </g>
     <g id="line2d_24">
      <g>
       <use style="stroke:#000000;stroke-width:0.6;" x="66.271" xlink:href="#m772cf14564" y="317.32"/>
      </g>
     </g>
    </g>
    <g id="xtick_13">
     <g id="line2d_25">
      <path clip-path="url(#p986853058b)" d="M 77.508 317.32 
L 77.508 14.76 
" style="fill:none;stroke:#bbbbbb;stroke-linecap:square;stroke-width:0.8;"/>
     </g>
     <g id="line2d_26">
      <g>
       <use style="stroke:#000000;stroke-width:0.6;" x="77.508" xlink:href="#m772cf14564" y="317.32"/>
      </g>
     </g>
    </g>
    <g id="xtick_14">
     <g id="line2d_27">
      <path clip-path="url(#p986853058b)" d="M 99.982 317.32 
L 99.982 14.76 
" style="fill:none;stroke:#bbbbbb;stroke-linecap:square;stroke-width:0.8;"/>
     </g>
     <g id="line2d_28">
      <g>
       <use style="stroke:#000000;stroke-width:0.6;" x="99.982" xlink:href="#m772cf14564" y="317.32"/>
      </g>
     </g>
    </g>
    <g id="xtick_15">
     <g id="line2d_29">
      <path clip-path="url(#p986853058b)" d="M 111.219 317.32 
L 111.219 14.76 
" style="fill:none;stroke:#bbbbbb;stroke-linecap:square;stroke-width:0.8;"/>
     </g>
     <g id="line2d_30">
      <g>
       <use style="stroke:#000000;stroke-width:0.6;" x="111.219" xlink:href="#m772cf14564" y="317.32"/>
      </g>
     </g>
    </g>
    <g id="xtick_16">
     <g id="line2d_31">
      <path clip-path="url(#p986853058b)" d="M 122.456 317.32 
L 122.456 14.76 
" style="fill:none;stroke:#bbbbbb;stroke-linecap:square;stroke-width:0.8;"/>
     </g>
     <g id="line2d_32">
      <g>
       <use style="stroke:#000000;stroke-width:0.6;" x="122.456" xlink:href="#m772cf14564" y="317.32"/>
      </g>
     </g>
    </g>
    <g id="xtick_17">
     <g id="line2d_33">
      <path clip-path="url(#p986853058b)" d="M 133.693 317.32 
L 133.693 14.76 
" style="fill:none;stroke:#bbbbbb;stroke-linecap:square;stroke-width:0.8;"/>
     </g>
     <g id="line2d_34">
      <g>
       <use style="stroke:#000000;stroke-width:0.6;" x="133.693" xlink:href="#m772cf14564" y="317.32"/>
      </g>
     </g>
    </g>
    <g id="xtick_18">
     <g id="line2d_35">
      <path clip-path="url(#p986853058b)" d="M 156.167 317.32 
L 156.167 14.76 
" style="fill:none;stroke:#bbbbbb;stroke-linecap:square;stroke-width:0.8;"/>
     </g>
     <g id="line2d_36">
      <g>
       <use style="stroke:#000000;stroke-width:0.6;" x="156.167" xlink:href="#m772cf14564" y="317.32"/>
      </g>
     </g>
    </g>
    <g id="xtick_19">
     <g id="line2d_37">
      <path clip-path="url(#p986853058b)" d="M 167.404 317.32 
L 167.404 14.76 
" style="fill:none;stroke:#bbbbbb;stroke-linecap:square;stroke-width:0.8;"/>
     </g>
     <g id="line2d_38">
      <g>
       <use style="stroke:#000000;stroke-width:0.6;" x="167.404" xlink:href="#m772cf14564" y="317.32"/>
      </g>
     </g>
    </g>
    <g id="xtick_20">
     <g id="line2d_39">
      <path clip-path="url(#p986853058b)" d="M 178.641 317.32 
L 178.641 14.76 
" style="fill:none;stroke:#bbbbbb;stroke-linecap:square;stroke-width:0.8;"/>
     </g>
     <g id="line2d_40">
      <g>
       <use style="stroke:#000000;stroke-width:0.6;" x="178.641" xlink:href="#m772cf14564" y="317.32"/>
      </g>
     </g>
    </g>
    <g id="xtick_21">
     <g id="line2d_41">
      <path clip-path="url(#p986853058b)" d="M 189.878 317.32 
L 189.878 14.76 
" style="fill:none;stroke:#bbbbbb;stroke-linecap:square;stroke-width:0.8;"/>
     </g>
     <g id="line2d_42">
      <g>
       <use style="stroke:#000000;stroke-width:0.6;" x="189.878" xlink:href="#m772cf14564" y="317.32"/>
      </g>
     </g>
    </g>
    <g id="xtick_22">
     <g id="line2d_43">
      <path clip-path="url(#p986853058b)" d="M 212.352 317.32 
L 212.352 14.76 
" style="fill:none;stroke:#bbbbbb;stroke-linecap:square;stroke-width:0.8;"/>
     </g>
     <g id="line2d_44">
      <g>
       <use style="stroke:#000000;stroke-width:0.6;" x="212.352" xlink:href="#m772cf14564" y="317.32"/>
      </g>
     </g>
    </g>
    <g id="xtick_23">
     <g id="line2d_45">
      <path clip-path="url(#p986853058b)" d="M 223.589 317.32 
L 223.589 14.76 
" style="fill:none;stroke:#bbbbbb;stroke-linecap:square;stroke-width:0.8;"/>
     </g>
     <g id="line2d_46">
      <g>
       <use style="stroke:#000000;stroke-width:0.6;" x="223.589" xlink:href="#m772cf14564" y="317.32"/>
      </g>
     </g>
    </g>
    <g id="xtick_24">
     <g id="line2d_47">
      <path clip-path="url(#p986853058b)" d="M 234.826 317.32 
L 234.826 14.76 
" style="fill:none;stroke:#bbbbbb;stroke-linecap:square;stroke-width:0.8;"/>
     </g>
     <g id="line2d_48">
      <g>
       <use style="stroke:#000000;stroke-width:0.6;" x="234.826" xlink:href="#m772cf14564" y="317.32"/>
      </g>
     </g>
    </g>
    <g id="xtick_25">
     <g id="line2d_49">
      <path clip-path="url(#p986853058b)" d="M 246.063 317.32 
L 246.063 14.76 
" style="fill:none;stroke:#bbbbbb;stroke-linecap:square;stroke-width:0.8;"/>
     </g>
     <g id="line2d_50">
      <g>
       <use style="stroke:#000000;stroke-width:0.6;" x="246.063" xlink:href="#m772cf14564" y="317.32"/>
      </g>
     </g>
    </g>
    <g id="xtick_26">
     <g id="line2d_51">
      <path clip-path="url(#p986853058b)" d="M 268.537 317.32 
L 268.537 14.76 
" style="fill:none;stroke:#bbbbbb;stroke-linecap:square;stroke-width:0.8;"/>
     </g>
     <g id="line2d_52">
      <g>
       <use style="stroke:#000000;stroke-width:0.6;" x="268.537" xlink:href="#m772cf14564" y="317.32"/>
      </g>
     </g>
    </g>
    <g id="xtick_27">
     <g id="line2d_53">
      <path clip-path="url(#p986853058b)" d="M 279.774 317.32 
L 279.774 14.76 
" style="fill:none;stroke:#bbbbbb;stroke-linecap:square;stroke-width:0.8;"/>
     </g>
     <g id="line2d_54">
      <g>
       <use style="stroke:#000000;stroke-width:0.6;" x="279.774" xlink:href="#m772cf14564" y="317.32"/>
      </g>
     </g>
    </g>
    <g id="xtick_28">
     <g id="line2d_55">
      <path clip-path="url(#p986853058b)" d="M 291.011 317.32 
L 291.011 14.76 
" style="fill:none;stroke:#bbbbbb;stroke-linecap:square;stroke-width:0.8;"/>
     </g>
     <g id="line2d_56">
      <g>
       <use style="stroke:#000000;stroke-width:0.6;" x="291.011" xlink:href="#m772cf14564" y="317.32"/>
      </g>
     </g>
    </g>
    <g id="xtick_29">
     <g id="line2d_57">
      <path clip-path="url(#p986853058b)" d="M 302.248 317.32 
L 302.248 14.76 
" style="fill:none;stroke:#bbbbbb;stroke-linecap:square;stroke-width:0.8;"/>
     </g>
     <g id="line2d_58">
      <g>
       <use style="stroke:#000000;stroke-width:0.6;" x="302.248" xlink:href="#m772cf14564" y="317.32"/>
      </g>
     </g>
    </g>
    <g id="xtick_30">
     <g id="line2d_59">
      <path clip-path="url(#p986853058b)" d="M 324.722 317.32 
L 324.722 14.76 
" style="fill:none;stroke:#bbbbbb;stroke-linecap:square;stroke-width:0.8;"/>
     </g>
     <g id="line2d_60">
      <g>
       <use style="stroke:#000000;stroke-width:0.6;" x="324.722" xlink:href="#m772cf14564" y="317.32"/>
      </g>
     </g>
    </g>
    <g id="xtick_31">
     <g id="line2d_61">
      <path clip-path="url(#p986853058b)" d="M 335.959 317.32 
L 335.959 14.76 
" style="fill:none;stroke:#bbbbbb;stroke-linecap:square;stroke-width:0.8;"/>
     </g>
     <g id="line2d_62">
      <g>
       <use style="stroke:#000000;stroke-width:0.6;" x="335.959" xlink:href="#m772cf14564" y="317.32"/>
      </g>
     </g>
    </g>
    <g id="xtick_32">
     <g id="line2d_63">
      <path clip-path="url(#p986853058b)" d="M 347.196 317.32 
L 347.196 14.76 
" style="fill:none;stroke:#bbbbbb;stroke-linecap:square;stroke-width:0.8;"/>
     </g>
     <g id="line2d_64">
      <g>
       <use style="stroke:#000000;stroke-width:0.6;" x="347.196" xlink:href="#m772cf14564" y="317.32"/>
      </g>
     </g>
    </g>
    <g id="xtick_33">
     <g id="line2d_65">
      <path clip-path="url(#p986853058b)" d="M 358.433 317.32 
L 358.433 14.76 
" style="fill:none;stroke:#bbbbbb;stroke-linecap:square;stroke-width:0.8;"/>
     </g>
     <g id="line2d_66">
      <g>
       <use style="stroke:#000000;stroke-width:0.6;" x="358.433" xlink:href="#m772cf14564" y="317.32"/>
      </g>
     </g>
    </g>
    <g id="xtick_34">
     <g id="line2d_67">
      <path clip-path="url(#p986853058b)" d="M 380.907 317.32 
L 380.907 14.76 
" style="fill:none;stroke:#bbbbbb;stroke-linecap:square;stroke-width:0.8;"/>
     </g>
     <g id="line2d_68">
      <g>
       <use style="stroke:#000000;stroke-width:0.6;" x="380.907" xlink:href="#m772cf14564" y="317.32"/>
      </g>
     </g>
    </g>
    <g id="xtick_35">
     <g id="line2d_69">
      <path clip-path="url(#p986853058b)" d="M 392.144 317.32 
L 392.144 14.76 
" style="fill:none;stroke:#bbbbbb;stroke-linecap:square;stroke-width:0.8;"/>
     </g>
     <g id="line2d_70">
      <g>
       <use style="stroke:#000000;stroke-width:0.6;" x="392.144" xlink:href="#m772cf14564" y="317.32"/>
      </g>
     </g>
    </g>
    <g id="xtick_36">
     <g id="line2d_71">
      <path clip-path="url(#p986853058b)" d="M 403.381 317.32 
L 403.381 14.76 
" style="fill:none;stroke:#bbbbbb;stroke-linecap:square;stroke-width:0.8;"/>
     </g>
     <g id="line2d_72">
      <g>
       <use style="stroke:#000000;stroke-width:0.6;" x="403.381" xlink:href="#m772cf14564" y="317.32"/>
      </g>
     </g>
    </g>
    <g id="xtick_37">
     <g id="line2d_73">
      <path clip-path="url(#p986853058b)" d="M 414.618 317.32 
L 414.618 14.76 
" style="fill:none;stroke:#bbbbbb;stroke-linecap:square;stroke-width:0.8;"/>
     </g>
     <g id="line2d_74">
      <g>
       <use style="stroke:#000000;stroke-width:0.6;" x="414.618" xlink:href="#m772cf14564" y="317.32"/>
      </g>
     </g>
    </g>
    <g id="xtick_38">
     <g id="line2d_75">
      <path clip-path="url(#p986853058b)" d="M 437.092 317.32 
L 437.092 14.76 
" style="fill:none;stroke:#bbbbbb;stroke-linecap:square;stroke-width:0.8;"/>
     </g>
     <g id="line2d_76">
      <g>
       <use style="stroke:#000000;stroke-width:0.6;" x="437.092" xlink:href="#m772cf14564" y="317.32"/>
      </g>
     </g>
    </g>
    <g id="xtick_39">
     <g id="line2d_77">
      <path clip-path="url(#p986853058b)" d="M 448.329 317.32 
L 448.329 14.76 
" style="fill:none;stroke:#bbbbbb;stroke-linecap:square;stroke-width:0.8;"/>
     </g>
     <g id="line2d_78">
      <g>
       <use style="stroke:#000000;stroke-width:0.6;" x="448.329" xlink:href="#m772cf14564" y="317.32"/>
      </g>
     </g>
    </g>
    <g id="xtick_40">
     <g id="line2d_79">
      <path clip-path="url(#p986853058b)" d="M 459.566 317.32 
L 459.566 14.76 
" style="fill:none;stroke:#bbbbbb;stroke-linecap:square;stroke-width:0.8;"/>
     </g>
     <g id="line2d_80">
      <g>
       <use style="stroke:#000000;stroke-width:0.6;" x="459.566" xlink:href="#m772cf14564" y="317.32"/>
      </g>
     </g>
    </g>
    <g id="xtick_41">
     <g id="line2d_81">
      <path clip-path="url(#p986853058b)" d="M 470.803 317.32 
L 470.803 14.76 
" style="fill:none;stroke:#bbbbbb;stroke-linecap:square;stroke-width:0.8;"/>
     </g>
     <g id="line2d_82">
      <g>
       <use style="stroke:#000000;stroke-width:0.6;" x="470.803" xlink:href="#m772cf14564" y="317.32"/>
      </g>
     </g>
    </g>
    <g id="text_10">
     <!-- $t$ in ms -->
     <defs>
      <path d="M 42.28125 54.6875 
L 40.921875 47.703125 
L 23 47.703125 
L 17.1875 18.015625 
Q 16.890625 16.359375 16.75 15.234375 
Q 16.609375 14.109375 16.609375 13.484375 
Q 16.609375 10.359375 18.484375 8.9375 
Q 20.359375 7.515625 24.515625 7.515625 
L 33.59375 7.515625 
L 32.078125 0 
L 23.484375 0 
Q 15.484375 0 11.546875 3.125 
Q 7.625 6.25 7.625 12.59375 
Q 7.625 13.71875 7.765625 15.0625 
Q 7.90625 16.40625 8.203125 18.015625 
L 14.015625 47.703125 
L 6.390625 47.703125 
L 7.8125 54.6875 
L 15.28125 54.6875 
L 18.3125 70.21875 
L 27.296875 70.21875 
L 24.3125 54.6875 
z
" id="DejaVuSans-Oblique-116"/>
      <path id="DejaVuSans-32"/>
      <path d="M 9.421875 54.6875 
L 18.40625 54.6875 
L 18.40625 0 
L 9.421875 0 
z
M 9.421875 75.984375 
L 18.40625 75.984375 
L 18.40625 64.59375 
L 9.421875 64.59375 
z
" id="DejaVuSans-105"/>
      <path d="M 54.890625 33.015625 
L 54.890625 0 
L 45.90625 0 
L 45.90625 32.71875 
Q 45.90625 40.484375 42.875 44.328125 
Q 39.84375 48.1875 33.796875 48.1875 
Q 26.515625 48.1875 22.3125 43.546875 
Q 18.109375 38.921875 18.109375 30.90625 
L 18.109375 0 
L 9.078125 0 
L 9.078125 54.6875 
L 18.109375 54.6875 
L 18.109375 46.1875 
Q 21.34375 51.125 25.703125 53.5625 
Q 30.078125 56 35.796875 56 
Q 45.21875 56 50.046875 50.171875 
Q 54.890625 44.34375 54.890625 33.015625 
z
" id="DejaVuSans-110"/>
      <path d="M 52 44.1875 
Q 55.375 50.25 60.0625 53.125 
Q 64.75 56 71.09375 56 
Q 79.640625 56 84.28125 50.015625 
Q 88.921875 44.046875 88.921875 33.015625 
L 88.921875 0 
L 79.890625 0 
L 79.890625 32.71875 
Q 79.890625 40.578125 77.09375 44.375 
Q 74.3125 48.1875 68.609375 48.1875 
Q 61.625 48.1875 57.5625 43.546875 
Q 53.515625 38.921875 53.515625 30.90625 
L 53.515625 0 
L 44.484375 0 
L 44.484375 32.71875 
Q 44.484375 40.625 41.703125 44.40625 
Q 38.921875 48.1875 33.109375 48.1875 
Q 26.21875 48.1875 22.15625 43.53125 
Q 18.109375 38.875 18.109375 30.90625 
L 18.109375 0 
L 9.078125 0 
L 9.078125 54.6875 
L 18.109375 54.6875 
L 18.109375 46.1875 
Q 21.1875 51.21875 25.484375 53.609375 
Q 29.78125 56 35.6875 56 
Q 41.65625 56 45.828125 52.96875 
Q 50 49.953125 52 44.1875 
z
" id="DejaVuSans-109"/>
      <path d="M 44.28125 53.078125 
L 44.28125 44.578125 
Q 40.484375 46.53125 36.375 47.5 
Q 32.28125 48.484375 27.875 48.484375 
Q 21.1875 48.484375 17.84375 46.4375 
Q 14.5 44.390625 14.5 40.28125 
Q 14.5 37.15625 16.890625 35.375 
Q 19.28125 33.59375 26.515625 31.984375 
L 29.59375 31.296875 
Q 39.15625 29.25 43.1875 25.515625 
Q 47.21875 21.78125 47.21875 15.09375 
Q 47.21875 7.46875 41.1875 3.015625 
Q 35.15625 -1.421875 24.609375 -1.421875 
Q 20.21875 -1.421875 15.453125 -0.5625 
Q 10.6875 0.296875 5.421875 2 
L 5.421875 11.28125 
Q 10.40625 8.6875 15.234375 7.390625 
Q 20.0625 6.109375 24.8125 6.109375 
Q 31.15625 6.109375 34.5625 8.28125 
Q 37.984375 10.453125 37.984375 14.40625 
Q 37.984375 18.0625 35.515625 20.015625 
Q 33.0625 21.96875 24.703125 23.78125 
L 21.578125 24.515625 
Q 13.234375 26.265625 9.515625 29.90625 
Q 5.8125 33.546875 5.8125 39.890625 
Q 5.8125 47.609375 11.28125 51.796875 
Q 16.75 56 26.8125 56 
Q 31.78125 56 36.171875 55.265625 
Q 40.578125 54.546875 44.28125 53.078125 
z
" id="DejaVuSans-115"/>
     </defs>
     <g transform="translate(240.1 345.596563)scale(0.1 -0.1)">
      <use transform="translate(0 0.015625)" xlink:href="#DejaVuSans-Oblique-116"/>
      <use transform="translate(39.208984 0.015625)" xlink:href="#DejaVuSans-32"/>
      <use transform="translate(70.996094 0.015625)" xlink:href="#DejaVuSans-105"/>
      <use transform="translate(98.779297 0.015625)" xlink:href="#DejaVuSans-110"/>
      <use transform="translate(162.158203 0.015625)" xlink:href="#DejaVuSans-32"/>
      <use transform="translate(193.945312 0.015625)" xlink:href="#DejaVuSans-109"/>
      <use transform="translate(291.357422 0.015625)" xlink:href="#DejaVuSans-115"/>
     </g>
    </g>
   </g>
   <g id="matplotlib.axis_2">
    <g id="ytick_1">
     <g id="line2d_83">
      <path clip-path="url(#p986853058b)" d="M 32.56 317.32 
L 482.04 317.32 
" style="fill:none;stroke:#666666;stroke-linecap:square;stroke-width:0.8;"/>
     </g>
     <g id="line2d_84">
      <defs>
       <path d="M 0 0 
L -3.5 0 
" id="mc563f240cf" style="stroke:#000000;stroke-width:0.8;"/>
      </defs>
      <g>
       <use style="stroke:#000000;stroke-width:0.8;" x="32.56" xlink:href="#mc563f240cf" y="317.32"/>
      </g>
     </g>
     <g id="text_11">
      <!-- −3 -->
      <defs>
       <path d="M 10.59375 35.5 
L 73.1875 35.5 
L 73.1875 27.203125 
L 10.59375 27.203125 
z
" id="DejaVuSans-8722"/>
       <path d="M 40.578125 39.3125 
Q 47.65625 37.796875 51.625 33 
Q 55.609375 28.21875 55.609375 21.1875 
Q 55.609375 10.40625 48.1875 4.484375 
Q 40.765625 -1.421875 27.09375 -1.421875 
Q 22.515625 -1.421875 17.65625 -0.515625 
Q 12.796875 0.390625 7.625 2.203125 
L 7.625 11.71875 
Q 11.71875 9.328125 16.59375 8.109375 
Q 21.484375 6.890625 26.8125 6.890625 
Q 36.078125 6.890625 40.9375 10.546875 
Q 45.796875 14.203125 45.796875 21.1875 
Q 45.796875 27.640625 41.28125 31.265625 
Q 36.765625 34.90625 28.71875 34.90625 
L 20.21875 34.90625 
L 20.21875 43.015625 
L 29.109375 43.015625 
Q 36.375 43.015625 40.234375 45.921875 
Q 44.09375 48.828125 44.09375 54.296875 
Q 44.09375 59.90625 40.109375 62.90625 
Q 36.140625 65.921875 28.71875 65.921875 
Q 24.65625 65.921875 20.015625 65.03125 
Q 15.375 64.15625 9.8125 62.3125 
L 9.8125 71.09375 
Q 15.4375 72.65625 20.34375 73.4375 
Q 25.25 74.21875 29.59375 74.21875 
Q 40.828125 74.21875 47.359375 69.109375 
Q 53.90625 64.015625 53.90625 55.328125 
Q 53.90625 49.265625 50.4375 45.09375 
Q 46.96875 40.921875 40.578125 39.3125 
z
" id="DejaVuSans-51"/>
      </defs>
      <g transform="translate(10.817813 321.119219)scale(0.1 -0.1)">
       <use xlink:href="#DejaVuSans-8722"/>
       <use x="83.789062" xlink:href="#DejaVuSans-51"/>
      </g>
     </g>
    </g>
    <g id="ytick_2">
     <g id="line2d_85">
      <path clip-path="url(#p986853058b)" d="M 32.56 266.893333 
L 482.04 266.893333 
" style="fill:none;stroke:#666666;stroke-linecap:square;stroke-width:0.8;"/>
     </g>
     <g id="line2d_86">
      <g>
       <use style="stroke:#000000;stroke-width:0.8;" x="32.56" xlink:href="#mc563f240cf" y="266.893333"/>
      </g>
     </g>
     <g id="text_12">
      <!-- −2 -->
      <g transform="translate(10.817813 270.692552)scale(0.1 -0.1)">
       <use xlink:href="#DejaVuSans-8722"/>
       <use x="83.789062" xlink:href="#DejaVuSans-50"/>
      </g>
     </g>
    </g>
    <g id="ytick_3">
     <g id="line2d_87">
      <path clip-path="url(#p986853058b)" d="M 32.56 216.466667 
L 482.04 216.466667 
" style="fill:none;stroke:#666666;stroke-linecap:square;stroke-width:0.8;"/>
     </g>
     <g id="line2d_88">
      <g>
       <use style="stroke:#000000;stroke-width:0.8;" x="32.56" xlink:href="#mc563f240cf" y="216.466667"/>
      </g>
     </g>
     <g id="text_13">
      <!-- −1 -->
      <g transform="translate(10.817813 220.265885)scale(0.1 -0.1)">
       <use xlink:href="#DejaVuSans-8722"/>
       <use x="83.789062" xlink:href="#DejaVuSans-49"/>
      </g>
     </g>
    </g>
    <g id="ytick_4">
     <g id="line2d_89">
      <path clip-path="url(#p986853058b)" d="M 32.56 166.04 
L 482.04 166.04 
" style="fill:none;stroke:#666666;stroke-linecap:square;stroke-width:0.8;"/>
     </g>
     <g id="line2d_90">
      <g>
       <use style="stroke:#000000;stroke-width:0.8;" x="32.56" xlink:href="#mc563f240cf" y="166.04"/>
      </g>
     </g>
     <g id="text_14">
      <!-- 0 -->
      <g transform="translate(19.1975 169.839219)scale(0.1 -0.1)">
       <use xlink:href="#DejaVuSans-48"/>
      </g>
     </g>
    </g>
    <g id="ytick_5">
     <g id="line2d_91">
      <path clip-path="url(#p986853058b)" d="M 32.56 115.613333 
L 482.04 115.613333 
" style="fill:none;stroke:#666666;stroke-linecap:square;stroke-width:0.8;"/>
     </g>
     <g id="line2d_92">
      <g>
       <use style="stroke:#000000;stroke-width:0.8;" x="32.56" xlink:href="#mc563f240cf" y="115.613333"/>
      </g>
     </g>
     <g id="text_15">
      <!-- 1 -->
      <g transform="translate(19.1975 119.412552)scale(0.1 -0.1)">
       <use xlink:href="#DejaVuSans-49"/>
      </g>
     </g>
    </g>
    <g id="ytick_6">
     <g id="line2d_93">
      <path clip-path="url(#p986853058b)" d="M 32.56 65.186667 
L 482.04 65.186667 
" style="fill:none;stroke:#666666;stroke-linecap:square;stroke-width:0.8;"/>
     </g>
     <g id="line2d_94">
      <g>
       <use style="stroke:#000000;stroke-width:0.8;" x="32.56" xlink:href="#mc563f240cf" y="65.186667"/>
      </g>
     </g>
     <g id="text_16">
      <!-- 2 -->
      <g transform="translate(19.1975 68.985885)scale(0.1 -0.1)">
       <use xlink:href="#DejaVuSans-50"/>
      </g>
     </g>
    </g>
    <g id="ytick_7">
     <g id="line2d_95">
      <path clip-path="url(#p986853058b)" d="M 32.56 14.76 
L 482.04 14.76 
" style="fill:none;stroke:#666666;stroke-linecap:square;stroke-width:0.8;"/>
     </g>
     <g id="line2d_96">
      <g>
       <use style="stroke:#000000;stroke-width:0.8;" x="32.56" xlink:href="#mc563f240cf" y="14.76"/>
      </g>
     </g>
     <g id="text_17">
      <!-- 3 -->
      <g transform="translate(19.1975 18.559219)scale(0.1 -0.1)">
       <use xlink:href="#DejaVuSans-51"/>
      </g>
     </g>
    </g>
    <g id="ytick_8">
     <g id="line2d_97">
      <path clip-path="url(#p986853058b)" d="M 32.56 307.234667 
L 482.04 307.234667 
" style="fill:none;stroke:#bbbbbb;stroke-linecap:square;stroke-width:0.8;"/>
     </g>
     <g id="line2d_98">
      <defs>
       <path d="M 0 0 
L -2 0 
" id="m333ff44b24" style="stroke:#000000;stroke-width:0.6;"/>
      </defs>
      <g>
       <use style="stroke:#000000;stroke-width:0.6;" x="32.56" xlink:href="#m333ff44b24" y="307.234667"/>
      </g>
     </g>
    </g>
    <g id="ytick_9">
     <g id="line2d_99">
      <path clip-path="url(#p986853058b)" d="M 32.56 297.149333 
L 482.04 297.149333 
" style="fill:none;stroke:#bbbbbb;stroke-linecap:square;stroke-width:0.8;"/>
     </g>
     <g id="line2d_100">
      <g>
       <use style="stroke:#000000;stroke-width:0.6;" x="32.56" xlink:href="#m333ff44b24" y="297.149333"/>
      </g>
     </g>
    </g>
    <g id="ytick_10">
     <g id="line2d_101">
      <path clip-path="url(#p986853058b)" d="M 32.56 287.064 
L 482.04 287.064 
" style="fill:none;stroke:#bbbbbb;stroke-linecap:square;stroke-width:0.8;"/>
     </g>
     <g id="line2d_102">
      <g>
       <use style="stroke:#000000;stroke-width:0.6;" x="32.56" xlink:href="#m333ff44b24" y="287.064"/>
      </g>
     </g>
    </g>
    <g id="ytick_11">
     <g id="line2d_103">
      <path clip-path="url(#p986853058b)" d="M 32.56 276.978667 
L 482.04 276.978667 
" style="fill:none;stroke:#bbbbbb;stroke-linecap:square;stroke-width:0.8;"/>
     </g>
     <g id="line2d_104">
      <g>
       <use style="stroke:#000000;stroke-width:0.6;" x="32.56" xlink:href="#m333ff44b24" y="276.978667"/>
      </g>
     </g>
    </g>
    <g id="ytick_12">
     <g id="line2d_105">
      <path clip-path="url(#p986853058b)" d="M 32.56 256.808 
L 482.04 256.808 
" style="fill:none;stroke:#bbbbbb;stroke-linecap:square;stroke-width:0.8;"/>
     </g>
     <g id="line2d_106">
      <g>
       <use style="stroke:#000000;stroke-width:0.6;" x="32.56" xlink:href="#m333ff44b24" y="256.808"/>
      </g>
     </g>
    </g>
    <g id="ytick_13">
     <g id="line2d_107">
      <path clip-path="url(#p986853058b)" d="M 32.56 246.722667 
L 482.04 246.722667 
" style="fill:none;stroke:#bbbbbb;stroke-linecap:square;stroke-width:0.8;"/>
     </g>
     <g id="line2d_108">
      <g>
       <use style="stroke:#000000;stroke-width:0.6;" x="32.56" xlink:href="#m333ff44b24" y="246.722667"/>
      </g>
     </g>
    </g>
    <g id="ytick_14">
     <g id="line2d_109">
      <path clip-path="url(#p986853058b)" d="M 32.56 236.637333 
L 482.04 236.637333 
" style="fill:none;stroke:#bbbbbb;stroke-linecap:square;stroke-width:0.8;"/>
     </g>
     <g id="line2d_110">
      <g>
       <use style="stroke:#000000;stroke-width:0.6;" x="32.56" xlink:href="#m333ff44b24" y="236.637333"/>
      </g>
     </g>
    </g>
    <g id="ytick_15">
     <g id="line2d_111">
      <path clip-path="url(#p986853058b)" d="M 32.56 226.552 
L 482.04 226.552 
" style="fill:none;stroke:#bbbbbb;stroke-linecap:square;stroke-width:0.8;"/>
     </g>
     <g id="line2d_112">
      <g>
       <use style="stroke:#000000;stroke-width:0.6;" x="32.56" xlink:href="#m333ff44b24" y="226.552"/>
      </g>
     </g>
    </g>
    <g id="ytick_16">
     <g id="line2d_113">
      <path clip-path="url(#p986853058b)" d="M 32.56 206.381333 
L 482.04 206.381333 
" style="fill:none;stroke:#bbbbbb;stroke-linecap:square;stroke-width:0.8;"/>
     </g>
     <g id="line2d_114">
      <g>
       <use style="stroke:#000000;stroke-width:0.6;" x="32.56" xlink:href="#m333ff44b24" y="206.381333"/>
      </g>
     </g>
    </g>
    <g id="ytick_17">
     <g id="line2d_115">
      <path clip-path="url(#p986853058b)" d="M 32.56 196.296 
L 482.04 196.296 
" style="fill:none;stroke:#bbbbbb;stroke-linecap:square;stroke-width:0.8;"/>
     </g>
     <g id="line2d_116">
      <g>
       <use style="stroke:#000000;stroke-width:0.6;" x="32.56" xlink:href="#m333ff44b24" y="196.296"/>
      </g>
     </g>
    </g>
    <g id="ytick_18">
     <g id="line2d_117">
      <path clip-path="url(#p986853058b)" d="M 32.56 186.210667 
L 482.04 186.210667 
" style="fill:none;stroke:#bbbbbb;stroke-linecap:square;stroke-width:0.8;"/>
     </g>
     <g id="line2d_118">
      <g>
       <use style="stroke:#000000;stroke-width:0.6;" x="32.56" xlink:href="#m333ff44b24" y="186.210667"/>
      </g>
     </g>
    </g>
    <g id="ytick_19">
     <g id="line2d_119">
      <path clip-path="url(#p986853058b)" d="M 32.56 176.125333 
L 482.04 176.125333 
" style="fill:none;stroke:#bbbbbb;stroke-linecap:square;stroke-width:0.8;"/>
     </g>
     <g id="line2d_120">
      <g>
       <use style="stroke:#000000;stroke-width:0.6;" x="32.56" xlink:href="#m333ff44b24" y="176.125333"/>
      </g>
     </g>
    </g>
    <g id="ytick_20">
     <g id="line2d_121">
      <path clip-path="url(#p986853058b)" d="M 32.56 155.954667 
L 482.04 155.954667 
" style="fill:none;stroke:#bbbbbb;stroke-linecap:square;stroke-width:0.8;"/>
     </g>
     <g id="line2d_122">
      <g>
       <use style="stroke:#000000;stroke-width:0.6;" x="32.56" xlink:href="#m333ff44b24" y="155.954667"/>
      </g>
     </g>
    </g>
    <g id="ytick_21">
     <g id="line2d_123">
      <path clip-path="url(#p986853058b)" d="M 32.56 145.869333 
L 482.04 145.869333 
" style="fill:none;stroke:#bbbbbb;stroke-linecap:square;stroke-width:0.8;"/>
     </g>
     <g id="line2d_124">
      <g>
       <use style="stroke:#000000;stroke-width:0.6;" x="32.56" xlink:href="#m333ff44b24" y="145.869333"/>
      </g>
     </g>
    </g>
    <g id="ytick_22">
     <g id="line2d_125">
      <path clip-path="url(#p986853058b)" d="M 32.56 135.784 
L 482.04 135.784 
" style="fill:none;stroke:#bbbbbb;stroke-linecap:square;stroke-width:0.8;"/>
     </g>
     <g id="line2d_126">
      <g>
       <use style="stroke:#000000;stroke-width:0.6;" x="32.56" xlink:href="#m333ff44b24" y="135.784"/>
      </g>
     </g>
    </g>
    <g id="ytick_23">
     <g id="line2d_127">
      <path clip-path="url(#p986853058b)" d="M 32.56 125.698667 
L 482.04 125.698667 
" style="fill:none;stroke:#bbbbbb;stroke-linecap:square;stroke-width:0.8;"/>
     </g>
     <g id="line2d_128">
      <g>
       <use style="stroke:#000000;stroke-width:0.6;" x="32.56" xlink:href="#m333ff44b24" y="125.698667"/>
      </g>
     </g>
    </g>
    <g id="ytick_24">
     <g id="line2d_129">
      <path clip-path="url(#p986853058b)" d="M 32.56 105.528 
L 482.04 105.528 
" style="fill:none;stroke:#bbbbbb;stroke-linecap:square;stroke-width:0.8;"/>
     </g>
     <g id="line2d_130">
      <g>
       <use style="stroke:#000000;stroke-width:0.6;" x="32.56" xlink:href="#m333ff44b24" y="105.528"/>
      </g>
     </g>
    </g>
    <g id="ytick_25">
     <g id="line2d_131">
      <path clip-path="url(#p986853058b)" d="M 32.56 95.442667 
L 482.04 95.442667 
" style="fill:none;stroke:#bbbbbb;stroke-linecap:square;stroke-width:0.8;"/>
     </g>
     <g id="line2d_132">
      <g>
       <use style="stroke:#000000;stroke-width:0.6;" x="32.56" xlink:href="#m333ff44b24" y="95.442667"/>
      </g>
     </g>
    </g>
    <g id="ytick_26">
     <g id="line2d_133">
      <path clip-path="url(#p986853058b)" d="M 32.56 85.357333 
L 482.04 85.357333 
" style="fill:none;stroke:#bbbbbb;stroke-linecap:square;stroke-width:0.8;"/>
     </g>
     <g id="line2d_134">
      <g>
       <use style="stroke:#000000;stroke-width:0.6;" x="32.56" xlink:href="#m333ff44b24" y="85.357333"/>
      </g>
     </g>
    </g>
    <g id="ytick_27">
     <g id="line2d_135">
      <path clip-path="url(#p986853058b)" d="M 32.56 75.272 
L 482.04 75.272 
" style="fill:none;stroke:#bbbbbb;stroke-linecap:square;stroke-width:0.8;"/>
     </g>
     <g id="line2d_136">
      <g>
       <use style="stroke:#000000;stroke-width:0.6;" x="32.56" xlink:href="#m333ff44b24" y="75.272"/>
      </g>
     </g>
    </g>
    <g id="ytick_28">
     <g id="line2d_137">
      <path clip-path="url(#p986853058b)" d="M 32.56 55.101333 
L 482.04 55.101333 
" style="fill:none;stroke:#bbbbbb;stroke-linecap:square;stroke-width:0.8;"/>
     </g>
     <g id="line2d_138">
      <g>
       <use style="stroke:#000000;stroke-width:0.6;" x="32.56" xlink:href="#m333ff44b24" y="55.101333"/>
      </g>
     </g>
    </g>
    <g id="ytick_29">
     <g id="line2d_139">
      <path clip-path="url(#p986853058b)" d="M 32.56 45.016 
L 482.04 45.016 
" style="fill:none;stroke:#bbbbbb;stroke-linecap:square;stroke-width:0.8;"/>
     </g>
     <g id="line2d_140">
      <g>
       <use style="stroke:#000000;stroke-width:0.6;" x="32.56" xlink:href="#m333ff44b24" y="45.016"/>
      </g>
     </g>
    </g>
    <g id="ytick_30">
     <g id="line2d_141">
      <path clip-path="url(#p986853058b)" d="M 32.56 34.930667 
L 482.04 34.930667 
" style="fill:none;stroke:#bbbbbb;stroke-linecap:square;stroke-width:0.8;"/>
     </g>
     <g id="line2d_142">
      <g>
       <use style="stroke:#000000;stroke-width:0.6;" x="32.56" xlink:href="#m333ff44b24" y="34.930667"/>
      </g>
     </g>
    </g>
    <g id="ytick_31">
     <g id="line2d_143">
      <path clip-path="url(#p986853058b)" d="M 32.56 24.845333 
L 482.04 24.845333 
" style="fill:none;stroke:#bbbbbb;stroke-linecap:square;stroke-width:0.8;"/>
     </g>
     <g id="line2d_144">
      <g>
       <use style="stroke:#000000;stroke-width:0.6;" x="32.56" xlink:href="#m333ff44b24" y="24.845333"/>
      </g>
     </g>
    </g>
   </g>
   <g id="line2d_145">
    <path clip-path="url(#p986853058b)" d="M 32.56 166.04 
L 39.308949 147.291146 
L 42.908388 137.864806 
L 46.057898 130.185433 
L 48.757477 124.13812 
L 51.457057 118.667601 
L 53.706707 114.598276 
L 55.956356 111.008847 
L 57.756076 108.500656 
L 59.555796 106.326896 
L 61.355516 104.495213 
L 63.155235 103.010456 
L 64.954955 101.87466 
L 66.304745 101.251464 
L 67.654535 100.82284 
L 69.004324 100.586587 
L 70.354114 100.539658 
L 71.703904 100.678193 
L 73.053694 100.997542 
L 74.853413 101.695155 
L 76.653133 102.689726 
L 78.452853 103.964351 
L 80.252573 105.500209 
L 82.502222 107.75596 
L 84.751872 110.34436 
L 87.451451 113.824241 
L 90.600961 118.293055 
L 94.65033 124.473942 
L 105.898579 141.944028 
L 109.498018 146.985386 
L 112.647528 150.984488 
L 115.347107 154.054425 
L 118.046687 156.764251 
L 120.296336 158.735496 
L 122.545986 160.442476 
L 124.795636 161.887959 
L 127.045285 163.080231 
L 129.294935 164.032839 
L 131.544585 164.76425 
L 134.244164 165.382581 
L 136.943744 165.762835 
L 140.093253 165.977941 
L 145.042482 166.040001 
L 150.441642 166.131705 
L 153.591151 166.392761 
L 156.290731 166.827711 
L 158.99031 167.513232 
L 161.23996 168.308786 
L 163.48961 169.331571 
L 165.739259 170.598617 
L 167.988909 172.121927 
L 170.238559 173.908151 
L 172.488208 175.95837 
L 175.187788 178.760182 
L 177.887367 181.916269 
L 180.586947 185.396003 
L 183.736456 189.808271 
L 187.785826 195.906107 
L 201.283724 216.70397 
L 203.983303 220.331059 
L 206.682883 223.580394 
L 208.932533 225.940636 
L 211.182182 227.937547 
L 212.981902 229.245893 
L 214.781622 230.276436 
L 216.581341 231.012023 
L 217.931131 231.361002 
L 219.280921 231.530016 
L 220.630711 231.514288 
L 221.980501 231.309822 
L 223.33029 230.913437 
L 224.68008 230.322786 
L 226.02987 229.536381 
L 227.82959 228.182397 
L 229.629309 226.480394 
L 231.429029 224.434167 
L 233.228749 222.050315 
L 235.028468 219.338214 
L 237.278118 215.505163 
L 239.527768 211.207687 
L 242.227347 205.488012 
L 244.926927 199.222856 
L 248.076436 191.334425 
L 252.125806 180.50248 
L 258.874755 161.603383 
L 264.723844 145.480601 
L 268.323283 136.168915 
L 271.472793 128.62363 
L 274.172372 122.713593 
L 276.422022 118.239951 
L 278.671672 114.217255 
L 280.921321 110.677363 
L 282.721041 108.210463 
L 284.520761 106.079102 
L 286.32048 104.290577 
L 288.1202 102.849387 
L 289.91992 101.757214 
L 291.26971 101.166563 
L 292.619499 100.770178 
L 293.969289 100.565712 
L 295.319079 100.549984 
L 296.668869 100.718998 
L 298.018659 101.067977 
L 299.818378 101.803564 
L 301.618098 102.834107 
L 303.417818 104.142453 
L 305.217538 105.709554 
L 307.467187 108.000573 
L 309.716837 110.619736 
L 312.416416 114.130234 
L 315.565926 118.625737 
L 319.615295 124.82642 
L 330.413614 141.614832 
L 334.013053 146.683997 
L 337.162563 150.71319 
L 339.862142 153.812046 
L 342.561722 156.552654 
L 344.811371 158.55026 
L 347.061021 160.283635 
L 349.310671 161.754984 
L 351.56032 162.972052 
L 353.80997 163.947874 
L 356.05962 164.700441 
L 358.759199 165.340847 
L 361.458779 165.738961 
L 364.608288 165.968904 
L 369.107588 166.039902 
L 375.406607 166.143347 
L 378.556116 166.420674 
L 381.255696 166.874591 
L 383.505345 167.445378 
L 385.754995 168.219328 
L 388.004645 169.218543 
L 390.254294 170.460538 
L 392.503944 171.957831 
L 394.753594 173.717623 
L 397.003243 175.741555 
L 399.702823 178.512828 
L 402.402402 181.640402 
L 405.101982 185.094614 
L 408.251491 189.482101 
L 412.300861 195.557992 
L 420.3996 208.308941 
L 424.448969 214.44752 
L 427.598478 218.860851 
L 430.298058 222.277748 
L 432.547708 224.803236 
L 434.797357 226.98715 
L 436.597077 228.459562 
L 438.396797 229.665867 
L 440.196517 230.587703 
L 441.996236 231.208679 
L 443.346026 231.468321 
L 444.695816 231.545513 
L 446.045606 231.435866 
L 447.395395 231.135786 
L 448.745185 230.642508 
L 450.094975 229.954112 
L 451.444765 229.069544 
L 453.244484 227.584787 
L 455.044204 225.753104 
L 456.843924 223.579344 
L 458.643644 221.071153 
L 460.893293 217.481724 
L 463.142943 213.412399 
L 465.392593 208.895646 
L 468.092172 202.939317 
L 471.241682 195.348628 
L 474.841121 185.997826 
L 479.34042 173.633725 
L 482.04 166.04 
L 482.04 166.04 
" style="fill:none;stroke:#114da1;stroke-linecap:square;stroke-width:1.5;"/>
   </g>
   <g id="line2d_146">
    <path clip-path="url(#p986853058b)" d="M 32.56 166.04 
L 37.059299 173.764084 
L 39.308949 177.246713 
L 41.108669 179.719701 
L 42.908388 181.841599 
L 44.258178 183.165821 
L 45.607968 184.23522 
L 46.957758 185.029275 
L 48.307548 185.530175 
L 49.657337 185.722994 
L 51.007127 185.595847 
L 52.356917 185.140017 
L 53.706707 184.350046 
L 55.056496 183.223802 
L 56.406286 181.76251 
L 57.756076 179.970758 
L 59.105866 177.856463 
L 60.905586 174.555465 
L 62.705305 170.736558 
L 64.505025 166.444482 
L 66.754675 160.496327 
L 69.454254 152.66648 
L 73.053694 141.453558 
L 80.252573 118.811994 
L 82.952152 111.113803 
L 85.201802 105.34059 
L 87.001522 101.244158 
L 88.801241 97.682178 
L 90.151031 95.395903 
L 91.500821 93.463167 
L 92.850611 91.901815 
L 94.2004 90.726564 
L 95.55019 89.948862 
L 96.45005 89.655378 
L 97.34991 89.543771 
L 98.24977 89.614882 
L 99.14963 89.86885 
L 100.049489 90.305117 
L 100.949349 90.922421 
L 102.299139 92.183352 
L 103.648929 93.837544 
L 104.998719 95.872077 
L 106.348509 98.270723 
L 108.148228 102.001364 
L 109.947948 106.290328 
L 112.197598 112.340292 
L 114.447247 119.024926 
L 117.596757 129.153912 
L 127.945145 163.281304 
L 130.194795 169.764903 
L 132.444444 175.578132 
L 134.244164 179.662647 
L 136.043884 183.185847 
L 137.393674 185.433479 
L 138.743463 187.326481 
L 140.093253 188.854021 
L 141.443043 190.008897 
L 142.792833 190.78762 
L 143.692693 191.097775 
L 144.592553 191.241812 
L 145.492412 191.221489 
L 146.392272 191.039307 
L 147.742062 190.469814 
L 149.091852 189.557516 
L 150.441642 188.31988 
L 151.791431 186.777769 
L 153.591151 184.290034 
L 155.390871 181.369412 
L 157.640521 177.222917 
L 160.3401 171.73292 
L 167.988909 155.745703 
L 170.238559 151.686511 
L 172.038278 148.876174 
L 173.388068 147.079644 
L 174.737858 145.587268 
L 176.087648 144.430059 
L 177.437437 143.636252 
L 178.337297 143.3215 
L 179.237157 143.186157 
L 180.137017 143.236172 
L 181.036877 143.476775 
L 181.936737 143.912442 
L 182.836597 144.546877 
L 183.736456 145.38299 
L 185.086246 147.019658 
L 186.436036 149.118172 
L 187.785826 151.677801 
L 189.135616 154.693483 
L 190.935335 159.406915 
L 192.735055 164.879645 
L 194.534775 171.064088 
L 196.784424 179.702255 
L 199.034074 189.212683 
L 201.733654 201.53377 
L 205.783023 221.152663 
L 211.632112 249.486677 
L 214.331692 261.54385 
L 216.581341 270.680058 
L 218.381061 277.229732 
L 220.180781 282.987353 
L 221.530571 286.725686 
L 222.88036 289.924121 
L 224.23015 292.547829 
L 225.57994 294.565763 
L 226.4798 295.561014 
L 227.37966 296.268015 
L 228.27952 296.68071 
L 229.179379 296.793954 
L 230.079239 296.60353 
L 230.979099 296.106173 
L 231.878959 295.299587 
L 232.778819 294.182454 
L 233.678679 292.754446 
L 235.028468 290.031279 
L 236.378258 286.616843 
L 237.728048 282.52263 
L 239.077838 277.765105 
L 240.877558 270.42749 
L 242.677277 262.012751 
L 244.476997 252.598693 
L 246.726647 239.565678 
L 249.426226 222.34286 
L 252.575736 200.576508 
L 257.524965 164.374971 
L 262.924124 125.137331 
L 266.073634 103.825759 
L 268.773213 87.143357 
L 271.022863 74.654755 
L 272.822583 65.729779 
L 274.622302 57.844743 
L 276.422022 51.070465 
L 277.771812 46.753075 
L 279.121602 43.110523 
L 280.471391 40.155966 
L 281.821181 37.897546 
L 282.721041 36.780413 
L 283.620901 35.973827 
L 284.520761 35.47647 
L 285.420621 35.286046 
L 286.32048 35.39929 
L 287.22034 35.811985 
L 288.1202 36.518986 
L 289.02006 37.514237 
L 289.91992 38.7908 
L 291.26971 41.215837 
L 292.619499 44.226386 
L 293.969289 47.788844 
L 295.769009 53.332573 
L 297.568729 59.694029 
L 299.818378 68.63399 
L 302.517958 80.516554 
L 306.117397 97.65029 
L 314.216136 136.812603 
L 316.915716 148.669221 
L 319.165365 157.675199 
L 321.415015 165.718821 
L 323.214735 171.374453 
L 325.014454 176.281447 
L 326.364244 179.447269 
L 327.714034 182.159693 
L 329.063824 184.412206 
L 330.413614 186.202638 
L 331.763403 187.533123 
L 332.663263 188.167558 
L 333.563123 188.603225 
L 334.462983 188.843828 
L 335.362843 188.893843 
L 336.262703 188.7585 
L 337.162563 188.443748 
L 338.062422 187.95623 
L 339.412212 186.917163 
L 340.762002 185.533195 
L 342.111792 183.834445 
L 343.911512 181.136614 
L 345.711231 178.021055 
L 347.960881 173.675336 
L 351.56032 166.112379 
L 356.50955 155.739878 
L 358.759199 151.499912 
L 360.558919 148.482282 
L 362.358639 145.879858 
L 363.708428 144.241451 
L 365.058218 142.899843 
L 366.408008 141.876987 
L 367.757798 141.1915 
L 368.657658 140.929555 
L 369.557518 140.827944 
L 370.457377 140.889534 
L 371.357237 141.116457 
L 372.257097 141.510099 
L 373.606887 142.414362 
L 374.956677 143.694031 
L 376.306466 145.344374 
L 377.656256 147.356966 
L 379.006046 149.719789 
L 380.805766 153.387771 
L 382.605485 157.604683 
L 384.855135 163.562473 
L 387.104785 170.163689 
L 390.254294 180.207895 
L 401.502543 217.13368 
L 403.752192 223.455127 
L 406.001842 229.056425 
L 407.801562 232.932077 
L 409.601281 236.207923 
L 410.951071 238.242456 
L 412.300861 239.896648 
L 413.650651 241.157579 
L 415.00044 242.015741 
L 415.9003 242.360973 
L 416.80016 242.523538 
L 417.70002 242.503229 
L 418.59988 242.300535 
L 419.49974 241.916645 
L 420.3996 241.353436 
L 421.749389 240.178185 
L 423.099179 238.616833 
L 424.448969 236.684097 
L 425.798759 234.397822 
L 427.598478 230.835842 
L 429.398198 226.73941 
L 431.647848 220.966197 
L 434.347427 213.268006 
L 437.946867 202.135916 
L 445.595676 178.065136 
L 448.295255 170.347225 
L 450.544905 164.520925 
L 452.794555 159.371831 
L 454.594274 155.806865 
L 456.393994 152.778655 
L 457.743784 150.878346 
L 459.093574 149.306226 
L 460.443363 148.067996 
L 461.793153 147.166005 
L 463.142943 146.599238 
L 464.492733 146.36334 
L 465.842523 146.45067 
L 467.192312 146.850387 
L 468.542102 147.548564 
L 469.891892 148.528332 
L 471.241682 149.770052 
L 473.041401 151.794424 
L 474.841121 154.185687 
L 477.090771 157.590517 
L 479.79035 162.101245 
L 482.04 166.04 
L 482.04 166.04 
" style="fill:none;stroke:#b33333;stroke-linecap:square;stroke-width:1.5;"/>
   </g>
   <g id="patch_3">
    <path d="M 32.56 317.32 
L 32.56 14.76 
" style="fill:none;stroke:#000000;stroke-linecap:square;stroke-linejoin:miter;stroke-width:0.8;"/>
   </g>
   <g id="patch_4">
    <path d="M 482.04 317.32 
L 482.04 14.76 
" style="fill:none;stroke:#000000;stroke-linecap:square;stroke-linejoin:miter;stroke-width:0.8;"/>
   </g>
   <g id="patch_5">
    <path d="M 32.56 317.32 
L 482.04 317.32 
" style="fill:none;stroke:#000000;stroke-linecap:square;stroke-linejoin:miter;stroke-width:0.8;"/>
   </g>
   <g id="patch_6">
    <path d="M 32.56 14.76 
L 482.04 14.76 
" style="fill:none;stroke:#000000;stroke-linecap:square;stroke-linejoin:miter;stroke-width:0.8;"/>
   </g>
   <g id="legend_1">
    <g id="patch_7">
     <path d="M 388.84 57.76 
L 475.04 57.76 
Q 477.04 57.76 477.04 55.76 
L 477.04 21.76 
Q 477.04 19.76 475.04 19.76 
L 388.84 19.76 
Q 386.84 19.76 386.84 21.76 
L 386.84 55.76 
Q 386.84 57.76 388.84 57.76 
z
" style="fill:#ffffff;opacity:0.8;stroke:#cccccc;stroke-linejoin:miter;"/>
    </g>
    <g id="line2d_147">
     <path d="M 390.84 30.680313 
L 410.84 30.680313 
" style="fill:none;stroke:#114da1;stroke-linecap:square;stroke-width:1.5;"/>
    </g>
    <g id="line2d_148"/>
    <g id="text_18">
     <!-- $x(t)$ in $\sqrt{\mathrm{W}}$ -->
     <defs>
      <path d="M 60.015625 54.6875 
L 34.90625 27.875 
L 50.296875 0 
L 39.984375 0 
L 28.421875 21.6875 
L 8.296875 0 
L -2.59375 0 
L 24.3125 28.8125 
L 10.015625 54.6875 
L 20.3125 54.6875 
L 30.8125 34.90625 
L 49.125 54.6875 
z
" id="DejaVuSans-Oblique-120"/>
      <path d="M 31 75.875 
Q 24.46875 64.65625 21.28125 53.65625 
Q 18.109375 42.671875 18.109375 31.390625 
Q 18.109375 20.125 21.3125 9.0625 
Q 24.515625 -2 31 -13.1875 
L 23.1875 -13.1875 
Q 15.875 -1.703125 12.234375 9.375 
Q 8.59375 20.453125 8.59375 31.390625 
Q 8.59375 42.28125 12.203125 53.3125 
Q 15.828125 64.359375 23.1875 75.875 
z
" id="DejaVuSans-40"/>
      <path d="M 8.015625 75.875 
L 15.828125 75.875 
Q 23.140625 64.359375 26.78125 53.3125 
Q 30.421875 42.28125 30.421875 31.390625 
Q 30.421875 20.453125 26.78125 9.375 
Q 23.140625 -1.703125 15.828125 -13.1875 
L 8.015625 -13.1875 
Q 14.5 -2 17.703125 9.0625 
Q 20.90625 20.125 20.90625 31.390625 
Q 20.90625 42.671875 17.703125 53.65625 
Q 14.5 64.65625 8.015625 75.875 
z
" id="DejaVuSans-41"/>
      <path d="M 108.90625 155.203125 
L 52.703125 -29.5 
L 48.5 -29.5 
L 25.40625 45.59375 
Q 24.296875 49.203125 22.890625 50.796875 
Q 21.5 52.40625 19.203125 52.40625 
Q 15.796875 52.40625 12.40625 49.703125 
L 11.203125 51.703125 
L 27.59375 64.296875 
L 30.09375 64.296875 
L 52.796875 -9.40625 
L 53.203125 -9.40625 
L 103.203125 155.203125 
z
" id="STIXSizeOneSym-Regular-8730"/>
      <path d="M 3.328125 72.90625 
L 13.28125 72.90625 
L 28.609375 11.28125 
L 43.890625 72.90625 
L 54.984375 72.90625 
L 70.3125 11.28125 
L 85.59375 72.90625 
L 95.609375 72.90625 
L 77.296875 0 
L 64.890625 0 
L 49.515625 63.28125 
L 33.984375 0 
L 21.578125 0 
z
" id="DejaVuSans-87"/>
     </defs>
     <g transform="translate(418.84 34.180313)scale(0.1 -0.1)">
      <use transform="translate(0 0.84375)" xlink:href="#DejaVuSans-Oblique-120"/>
      <use transform="translate(59.179688 0.84375)" xlink:href="#DejaVuSans-40"/>
      <use transform="translate(98.193359 0.84375)" xlink:href="#DejaVuSans-Oblique-116"/>
      <use transform="translate(137.402344 0.84375)" xlink:href="#DejaVuSans-41"/>
      <use transform="translate(176.416016 0.84375)" xlink:href="#DejaVuSans-32"/>
      <use transform="translate(208.203125 0.84375)" xlink:href="#DejaVuSans-105"/>
      <use transform="translate(235.986328 0.84375)" xlink:href="#DejaVuSans-110"/>
      <use transform="translate(299.365234 0.84375)" xlink:href="#DejaVuSans-32"/>
      <use transform="translate(331.152344 17.484375)scale(0.563912)" xlink:href="#STIXSizeOneSym-Regular-8730"/>
      <use transform="translate(403.257217 0.84375)" xlink:href="#DejaVuSans-87"/>
      <path d="M 390.757217 98.5 
L 390.757217 104.75 
L 514.634171 104.75 
L 514.634171 98.5 
L 390.757217 98.5 
z
"/>
     </g>
    </g>
    <g id="line2d_149">
     <path d="M 390.84 48.180313 
L 410.84 48.180313 
" style="fill:none;stroke:#b33333;stroke-linecap:square;stroke-width:1.5;"/>
    </g>
    <g id="line2d_150"/>
    <g id="text_19">
     <!-- $x^\prime(t)$ in $\sqrt{\mathrm{W}}$ -->
     <defs>
      <path d="M 3.515625 5.421875 
Q 2.875 5.609375 2.875 6.390625 
L 15.09375 51.8125 
Q 15.671875 53.65625 17.078125 54.78125 
Q 18.5 55.90625 20.3125 55.90625 
Q 22.65625 55.90625 24.4375 54.359375 
Q 26.21875 52.828125 26.21875 50.484375 
Q 26.21875 49.46875 25.6875 48.1875 
L 7.625 4.984375 
Q 7.28125 4.296875 6.6875 4.296875 
Q 6.15625 4.296875 5 4.78125 
Q 3.859375 5.28125 3.515625 5.421875 
z
" id="Cmsy10-48"/>
     </defs>
     <g transform="translate(418.84 51.680313)scale(0.1 -0.1)">
      <use transform="translate(0 0.84375)" xlink:href="#DejaVuSans-Oblique-120"/>
      <use transform="translate(63.645833 39.125)scale(0.7)" xlink:href="#Cmsy10-48"/>
      <use transform="translate(85.623372 0.84375)" xlink:href="#DejaVuSans-40"/>
      <use transform="translate(124.637044 0.84375)" xlink:href="#DejaVuSans-Oblique-116"/>
      <use transform="translate(163.846029 0.84375)" xlink:href="#DejaVuSans-41"/>
      <use transform="translate(202.859701 0.84375)" xlink:href="#DejaVuSans-32"/>
      <use transform="translate(234.64681 0.84375)" xlink:href="#DejaVuSans-105"/>
      <use transform="translate(262.430013 0.84375)" xlink:href="#DejaVuSans-110"/>
      <use transform="translate(325.808919 0.84375)" xlink:href="#DejaVuSans-32"/>
      <use transform="translate(357.596029 17.484375)scale(0.563912)" xlink:href="#STIXSizeOneSym-Regular-8730"/>
      <use transform="translate(429.700902 0.84375)" xlink:href="#DejaVuSans-87"/>
      <path d="M 417.200902 98.5 
L 417.200902 104.75 
L 541.077855 104.75 
L 541.077855 98.5 
L 417.200902 98.5 
z
"/>
     </g>
    </g>
   </g>
  </g>
 </g>
 <defs>
  <clipPath id="p986853058b">
   <rect height="302.56" width="449.48" x="32.56" y="14.76"/>
  </clipPath>
 </defs>
</svg>
