<?xml version="1.0" encoding="utf-8" standalone="no"?>
<!DOCTYPE svg PUBLIC "-//W3C//DTD SVG 1.1//EN"
  "http://www.w3.org/Graphics/SVG/1.1/DTD/svg11.dtd">
<!-- Created with matplotlib (https://matplotlib.org/) -->
<svg height="360pt" version="1.1" viewBox="0 0 504 360" width="504pt" xmlns="http://www.w3.org/2000/svg" xmlns:xlink="http://www.w3.org/1999/xlink">
 <defs>
  <style type="text/css">
*{stroke-linecap:butt;stroke-linejoin:round;}
  </style>
 </defs>
 <g id="figure_1">
  <g id="patch_1">
   <path d="M 0 360 
L 504 360 
L 504 0 
L 0 0 
z
" style="fill:#ffffff;"/>
  </g>
  <g id="axes_1">
   <g id="patch_2">
    <path d="M 61.1 317.32 
L 490.005 317.32 
L 490.005 10.8 
L 61.1 10.8 
z
" style="fill:#ffffff;"/>
   </g>
   <g id="PolyCollection_1">
    <defs>
     <path d="M 262.149219 -169.515862 
L 262.149219 -169.515862 
L 275.5525 -275.212414 
L 275.5525 -169.515862 
L 275.5525 -169.515862 
L 262.149219 -169.515862 
z
" id="mf3de1bccc7" style="stroke:#b33333;stroke-opacity:0.12549;"/>
    </defs>
    <g clip-path="url(#pb1dea14b4a)">
     <use style="fill:#b33333;fill-opacity:0.12549;stroke:#b33333;stroke-opacity:0.12549;" x="0" xlink:href="#mf3de1bccc7" y="360"/>
    </g>
   </g>
   <g id="matplotlib.axis_1">
    <g id="xtick_1">
     <g id="line2d_1">
      <path clip-path="url(#pb1dea14b4a)" d="M 61.1 317.32 
L 61.1 10.8 
" style="fill:none;stroke:#666666;stroke-linecap:square;stroke-width:0.8;"/>
     </g>
     <g id="line2d_2">
      <defs>
       <path d="M 0 0 
L 0 3.5 
" id="mc0e1819fc7" style="stroke:#000000;stroke-width:0.8;"/>
      </defs>
      <g>
       <use style="stroke:#000000;stroke-width:0.8;" x="61.1" xlink:href="#mc0e1819fc7" y="317.32"/>
      </g>
     </g>
     <g id="text_1">
      <!-- −4 -->
      <defs>
       <path d="M 10.59375 35.5 
L 73.1875 35.5 
L 73.1875 27.203125 
L 10.59375 27.203125 
z
" id="DejaVuSans-8722"/>
       <path d="M 37.796875 64.3125 
L 12.890625 25.390625 
L 37.796875 25.390625 
z
M 35.203125 72.90625 
L 47.609375 72.90625 
L 47.609375 25.390625 
L 58.015625 25.390625 
L 58.015625 17.1875 
L 47.609375 17.1875 
L 47.609375 0 
L 37.796875 0 
L 37.796875 17.1875 
L 4.890625 17.1875 
L 4.890625 26.703125 
z
" id="DejaVuSans-52"/>
      </defs>
      <g transform="translate(53.728906 331.918437)scale(0.1 -0.1)">
       <use xlink:href="#DejaVuSans-8722"/>
       <use x="83.789062" xlink:href="#DejaVuSans-52"/>
      </g>
     </g>
    </g>
    <g id="xtick_2">
     <g id="line2d_3">
      <path clip-path="url(#pb1dea14b4a)" d="M 114.713125 317.32 
L 114.713125 10.8 
" style="fill:none;stroke:#666666;stroke-linecap:square;stroke-width:0.8;"/>
     </g>
     <g id="line2d_4">
      <g>
       <use style="stroke:#000000;stroke-width:0.8;" x="114.713125" xlink:href="#mc0e1819fc7" y="317.32"/>
      </g>
     </g>
     <g id="text_2">
      <!-- −3 -->
      <defs>
       <path d="M 40.578125 39.3125 
Q 47.65625 37.796875 51.625 33 
Q 55.609375 28.21875 55.609375 21.1875 
Q 55.609375 10.40625 48.1875 4.484375 
Q 40.765625 -1.421875 27.09375 -1.421875 
Q 22.515625 -1.421875 17.65625 -0.515625 
Q 12.796875 0.390625 7.625 2.203125 
L 7.625 11.71875 
Q 11.71875 9.328125 16.59375 8.109375 
Q 21.484375 6.890625 26.8125 6.890625 
Q 36.078125 6.890625 40.9375 10.546875 
Q 45.796875 14.203125 45.796875 21.1875 
Q 45.796875 27.640625 41.28125 31.265625 
Q 36.765625 34.90625 28.71875 34.90625 
L 20.21875 34.90625 
L 20.21875 43.015625 
L 29.109375 43.015625 
Q 36.375 43.015625 40.234375 45.921875 
Q 44.09375 48.828125 44.09375 54.296875 
Q 44.09375 59.90625 40.109375 62.90625 
Q 36.140625 65.921875 28.71875 65.921875 
Q 24.65625 65.921875 20.015625 65.03125 
Q 15.375 64.15625 9.8125 62.3125 
L 9.8125 71.09375 
Q 15.4375 72.65625 20.34375 73.4375 
Q 25.25 74.21875 29.59375 74.21875 
Q 40.828125 74.21875 47.359375 69.109375 
Q 53.90625 64.015625 53.90625 55.328125 
Q 53.90625 49.265625 50.4375 45.09375 
Q 46.96875 40.921875 40.578125 39.3125 
z
" id="DejaVuSans-51"/>
      </defs>
      <g transform="translate(107.342031 331.918437)scale(0.1 -0.1)">
       <use xlink:href="#DejaVuSans-8722"/>
       <use x="83.789062" xlink:href="#DejaVuSans-51"/>
      </g>
     </g>
    </g>
    <g id="xtick_3">
     <g id="line2d_5">
      <path clip-path="url(#pb1dea14b4a)" d="M 168.32625 317.32 
L 168.32625 10.8 
" style="fill:none;stroke:#666666;stroke-linecap:square;stroke-width:0.8;"/>
     </g>
     <g id="line2d_6">
      <g>
       <use style="stroke:#000000;stroke-width:0.8;" x="168.32625" xlink:href="#mc0e1819fc7" y="317.32"/>
      </g>
     </g>
     <g id="text_3">
      <!-- −2 -->
      <defs>
       <path d="M 19.1875 8.296875 
L 53.609375 8.296875 
L 53.609375 0 
L 7.328125 0 
L 7.328125 8.296875 
Q 12.9375 14.109375 22.625 23.890625 
Q 32.328125 33.6875 34.8125 36.53125 
Q 39.546875 41.84375 41.421875 45.53125 
Q 43.3125 49.21875 43.3125 52.78125 
Q 43.3125 58.59375 39.234375 62.25 
Q 35.15625 65.921875 28.609375 65.921875 
Q 23.96875 65.921875 18.8125 64.3125 
Q 13.671875 62.703125 7.8125 59.421875 
L 7.8125 69.390625 
Q 13.765625 71.78125 18.9375 73 
Q 24.125 74.21875 28.421875 74.21875 
Q 39.75 74.21875 46.484375 68.546875 
Q 53.21875 62.890625 53.21875 53.421875 
Q 53.21875 48.921875 51.53125 44.890625 
Q 49.859375 40.875 45.40625 35.40625 
Q 44.1875 33.984375 37.640625 27.21875 
Q 31.109375 20.453125 19.1875 8.296875 
z
" id="DejaVuSans-50"/>
      </defs>
      <g transform="translate(160.955156 331.918437)scale(0.1 -0.1)">
       <use xlink:href="#DejaVuSans-8722"/>
       <use x="83.789062" xlink:href="#DejaVuSans-50"/>
      </g>
     </g>
    </g>
    <g id="xtick_4">
     <g id="line2d_7">
      <path clip-path="url(#pb1dea14b4a)" d="M 221.939375 317.32 
L 221.939375 10.8 
" style="fill:none;stroke:#666666;stroke-linecap:square;stroke-width:0.8;"/>
     </g>
     <g id="line2d_8">
      <g>
       <use style="stroke:#000000;stroke-width:0.8;" x="221.939375" xlink:href="#mc0e1819fc7" y="317.32"/>
      </g>
     </g>
     <g id="text_4">
      <!-- −1 -->
      <defs>
       <path d="M 12.40625 8.296875 
L 28.515625 8.296875 
L 28.515625 63.921875 
L 10.984375 60.40625 
L 10.984375 69.390625 
L 28.421875 72.90625 
L 38.28125 72.90625 
L 38.28125 8.296875 
L 54.390625 8.296875 
L 54.390625 0 
L 12.40625 0 
z
" id="DejaVuSans-49"/>
      </defs>
      <g transform="translate(214.568281 331.918437)scale(0.1 -0.1)">
       <use xlink:href="#DejaVuSans-8722"/>
       <use x="83.789062" xlink:href="#DejaVuSans-49"/>
      </g>
     </g>
    </g>
    <g id="xtick_5">
     <g id="line2d_9">
      <path clip-path="url(#pb1dea14b4a)" d="M 275.5525 317.32 
L 275.5525 10.8 
" style="fill:none;stroke:#666666;stroke-linecap:square;stroke-width:0.8;"/>
     </g>
     <g id="line2d_10">
      <g>
       <use style="stroke:#000000;stroke-width:0.8;" x="275.5525" xlink:href="#mc0e1819fc7" y="317.32"/>
      </g>
     </g>
     <g id="text_5">
      <!-- 0 -->
      <defs>
       <path d="M 31.78125 66.40625 
Q 24.171875 66.40625 20.328125 58.90625 
Q 16.5 51.421875 16.5 36.375 
Q 16.5 21.390625 20.328125 13.890625 
Q 24.171875 6.390625 31.78125 6.390625 
Q 39.453125 6.390625 43.28125 13.890625 
Q 47.125 21.390625 47.125 36.375 
Q 47.125 51.421875 43.28125 58.90625 
Q 39.453125 66.40625 31.78125 66.40625 
z
M 31.78125 74.21875 
Q 44.046875 74.21875 50.515625 64.515625 
Q 56.984375 54.828125 56.984375 36.375 
Q 56.984375 17.96875 50.515625 8.265625 
Q 44.046875 -1.421875 31.78125 -1.421875 
Q 19.53125 -1.421875 13.0625 8.265625 
Q 6.59375 17.96875 6.59375 36.375 
Q 6.59375 54.828125 13.0625 64.515625 
Q 19.53125 74.21875 31.78125 74.21875 
z
" id="DejaVuSans-48"/>
      </defs>
      <g transform="translate(272.37125 331.918437)scale(0.1 -0.1)">
       <use xlink:href="#DejaVuSans-48"/>
      </g>
     </g>
    </g>
    <g id="xtick_6">
     <g id="line2d_11">
      <path clip-path="url(#pb1dea14b4a)" d="M 329.165625 317.32 
L 329.165625 10.8 
" style="fill:none;stroke:#666666;stroke-linecap:square;stroke-width:0.8;"/>
     </g>
     <g id="line2d_12">
      <g>
       <use style="stroke:#000000;stroke-width:0.8;" x="329.165625" xlink:href="#mc0e1819fc7" y="317.32"/>
      </g>
     </g>
     <g id="text_6">
      <!-- 1 -->
      <g transform="translate(325.984375 331.918437)scale(0.1 -0.1)">
       <use xlink:href="#DejaVuSans-49"/>
      </g>
     </g>
    </g>
    <g id="xtick_7">
     <g id="line2d_13">
      <path clip-path="url(#pb1dea14b4a)" d="M 382.77875 317.32 
L 382.77875 10.8 
" style="fill:none;stroke:#666666;stroke-linecap:square;stroke-width:0.8;"/>
     </g>
     <g id="line2d_14">
      <g>
       <use style="stroke:#000000;stroke-width:0.8;" x="382.77875" xlink:href="#mc0e1819fc7" y="317.32"/>
      </g>
     </g>
     <g id="text_7">
      <!-- 2 -->
      <g transform="translate(379.5975 331.918437)scale(0.1 -0.1)">
       <use xlink:href="#DejaVuSans-50"/>
      </g>
     </g>
    </g>
    <g id="xtick_8">
     <g id="line2d_15">
      <path clip-path="url(#pb1dea14b4a)" d="M 436.391875 317.32 
L 436.391875 10.8 
" style="fill:none;stroke:#666666;stroke-linecap:square;stroke-width:0.8;"/>
     </g>
     <g id="line2d_16">
      <g>
       <use style="stroke:#000000;stroke-width:0.8;" x="436.391875" xlink:href="#mc0e1819fc7" y="317.32"/>
      </g>
     </g>
     <g id="text_8">
      <!-- 3 -->
      <g transform="translate(433.210625 331.918437)scale(0.1 -0.1)">
       <use xlink:href="#DejaVuSans-51"/>
      </g>
     </g>
    </g>
    <g id="xtick_9">
     <g id="line2d_17">
      <path clip-path="url(#pb1dea14b4a)" d="M 490.005 317.32 
L 490.005 10.8 
" style="fill:none;stroke:#666666;stroke-linecap:square;stroke-width:0.8;"/>
     </g>
     <g id="line2d_18">
      <g>
       <use style="stroke:#000000;stroke-width:0.8;" x="490.005" xlink:href="#mc0e1819fc7" y="317.32"/>
      </g>
     </g>
     <g id="text_9">
      <!-- 4 -->
      <g transform="translate(486.82375 331.918437)scale(0.1 -0.1)">
       <use xlink:href="#DejaVuSans-52"/>
      </g>
     </g>
    </g>
    <g id="xtick_10">
     <g id="line2d_19">
      <path clip-path="url(#pb1dea14b4a)" d="M 71.822625 317.32 
L 71.822625 10.8 
" style="fill:none;stroke:#bbbbbb;stroke-linecap:square;stroke-width:0.8;"/>
     </g>
     <g id="line2d_20">
      <defs>
       <path d="M 0 0 
L 0 2 
" id="m276d3428d1" style="stroke:#000000;stroke-width:0.6;"/>
      </defs>
      <g>
       <use style="stroke:#000000;stroke-width:0.6;" x="71.822625" xlink:href="#m276d3428d1" y="317.32"/>
      </g>
     </g>
    </g>
    <g id="xtick_11">
     <g id="line2d_21">
      <path clip-path="url(#pb1dea14b4a)" d="M 82.54525 317.32 
L 82.54525 10.8 
" style="fill:none;stroke:#bbbbbb;stroke-linecap:square;stroke-width:0.8;"/>
     </g>
     <g id="line2d_22">
      <g>
       <use style="stroke:#000000;stroke-width:0.6;" x="82.54525" xlink:href="#m276d3428d1" y="317.32"/>
      </g>
     </g>
    </g>
    <g id="xtick_12">
     <g id="line2d_23">
      <path clip-path="url(#pb1dea14b4a)" d="M 93.267875 317.32 
L 93.267875 10.8 
" style="fill:none;stroke:#bbbbbb;stroke-linecap:square;stroke-width:0.8;"/>
     </g>
     <g id="line2d_24">
      <g>
       <use style="stroke:#000000;stroke-width:0.6;" x="93.267875" xlink:href="#m276d3428d1" y="317.32"/>
      </g>
     </g>
    </g>
    <g id="xtick_13">
     <g id="line2d_25">
      <path clip-path="url(#pb1dea14b4a)" d="M 103.9905 317.32 
L 103.9905 10.8 
" style="fill:none;stroke:#bbbbbb;stroke-linecap:square;stroke-width:0.8;"/>
     </g>
     <g id="line2d_26">
      <g>
       <use style="stroke:#000000;stroke-width:0.6;" x="103.9905" xlink:href="#m276d3428d1" y="317.32"/>
      </g>
     </g>
    </g>
    <g id="xtick_14">
     <g id="line2d_27">
      <path clip-path="url(#pb1dea14b4a)" d="M 125.43575 317.32 
L 125.43575 10.8 
" style="fill:none;stroke:#bbbbbb;stroke-linecap:square;stroke-width:0.8;"/>
     </g>
     <g id="line2d_28">
      <g>
       <use style="stroke:#000000;stroke-width:0.6;" x="125.43575" xlink:href="#m276d3428d1" y="317.32"/>
      </g>
     </g>
    </g>
    <g id="xtick_15">
     <g id="line2d_29">
      <path clip-path="url(#pb1dea14b4a)" d="M 136.158375 317.32 
L 136.158375 10.8 
" style="fill:none;stroke:#bbbbbb;stroke-linecap:square;stroke-width:0.8;"/>
     </g>
     <g id="line2d_30">
      <g>
       <use style="stroke:#000000;stroke-width:0.6;" x="136.158375" xlink:href="#m276d3428d1" y="317.32"/>
      </g>
     </g>
    </g>
    <g id="xtick_16">
     <g id="line2d_31">
      <path clip-path="url(#pb1dea14b4a)" d="M 146.881 317.32 
L 146.881 10.8 
" style="fill:none;stroke:#bbbbbb;stroke-linecap:square;stroke-width:0.8;"/>
     </g>
     <g id="line2d_32">
      <g>
       <use style="stroke:#000000;stroke-width:0.6;" x="146.881" xlink:href="#m276d3428d1" y="317.32"/>
      </g>
     </g>
    </g>
    <g id="xtick_17">
     <g id="line2d_33">
      <path clip-path="url(#pb1dea14b4a)" d="M 157.603625 317.32 
L 157.603625 10.8 
" style="fill:none;stroke:#bbbbbb;stroke-linecap:square;stroke-width:0.8;"/>
     </g>
     <g id="line2d_34">
      <g>
       <use style="stroke:#000000;stroke-width:0.6;" x="157.603625" xlink:href="#m276d3428d1" y="317.32"/>
      </g>
     </g>
    </g>
    <g id="xtick_18">
     <g id="line2d_35">
      <path clip-path="url(#pb1dea14b4a)" d="M 179.048875 317.32 
L 179.048875 10.8 
" style="fill:none;stroke:#bbbbbb;stroke-linecap:square;stroke-width:0.8;"/>
     </g>
     <g id="line2d_36">
      <g>
       <use style="stroke:#000000;stroke-width:0.6;" x="179.048875" xlink:href="#m276d3428d1" y="317.32"/>
      </g>
     </g>
    </g>
    <g id="xtick_19">
     <g id="line2d_37">
      <path clip-path="url(#pb1dea14b4a)" d="M 189.7715 317.32 
L 189.7715 10.8 
" style="fill:none;stroke:#bbbbbb;stroke-linecap:square;stroke-width:0.8;"/>
     </g>
     <g id="line2d_38">
      <g>
       <use style="stroke:#000000;stroke-width:0.6;" x="189.7715" xlink:href="#m276d3428d1" y="317.32"/>
      </g>
     </g>
    </g>
    <g id="xtick_20">
     <g id="line2d_39">
      <path clip-path="url(#pb1dea14b4a)" d="M 200.494125 317.32 
L 200.494125 10.8 
" style="fill:none;stroke:#bbbbbb;stroke-linecap:square;stroke-width:0.8;"/>
     </g>
     <g id="line2d_40">
      <g>
       <use style="stroke:#000000;stroke-width:0.6;" x="200.494125" xlink:href="#m276d3428d1" y="317.32"/>
      </g>
     </g>
    </g>
    <g id="xtick_21">
     <g id="line2d_41">
      <path clip-path="url(#pb1dea14b4a)" d="M 211.21675 317.32 
L 211.21675 10.8 
" style="fill:none;stroke:#bbbbbb;stroke-linecap:square;stroke-width:0.8;"/>
     </g>
     <g id="line2d_42">
      <g>
       <use style="stroke:#000000;stroke-width:0.6;" x="211.21675" xlink:href="#m276d3428d1" y="317.32"/>
      </g>
     </g>
    </g>
    <g id="xtick_22">
     <g id="line2d_43">
      <path clip-path="url(#pb1dea14b4a)" d="M 232.662 317.32 
L 232.662 10.8 
" style="fill:none;stroke:#bbbbbb;stroke-linecap:square;stroke-width:0.8;"/>
     </g>
     <g id="line2d_44">
      <g>
       <use style="stroke:#000000;stroke-width:0.6;" x="232.662" xlink:href="#m276d3428d1" y="317.32"/>
      </g>
     </g>
    </g>
    <g id="xtick_23">
     <g id="line2d_45">
      <path clip-path="url(#pb1dea14b4a)" d="M 243.384625 317.32 
L 243.384625 10.8 
" style="fill:none;stroke:#bbbbbb;stroke-linecap:square;stroke-width:0.8;"/>
     </g>
     <g id="line2d_46">
      <g>
       <use style="stroke:#000000;stroke-width:0.6;" x="243.384625" xlink:href="#m276d3428d1" y="317.32"/>
      </g>
     </g>
    </g>
    <g id="xtick_24">
     <g id="line2d_47">
      <path clip-path="url(#pb1dea14b4a)" d="M 254.10725 317.32 
L 254.10725 10.8 
" style="fill:none;stroke:#bbbbbb;stroke-linecap:square;stroke-width:0.8;"/>
     </g>
     <g id="line2d_48">
      <g>
       <use style="stroke:#000000;stroke-width:0.6;" x="254.10725" xlink:href="#m276d3428d1" y="317.32"/>
      </g>
     </g>
    </g>
    <g id="xtick_25">
     <g id="line2d_49">
      <path clip-path="url(#pb1dea14b4a)" d="M 264.829875 317.32 
L 264.829875 10.8 
" style="fill:none;stroke:#bbbbbb;stroke-linecap:square;stroke-width:0.8;"/>
     </g>
     <g id="line2d_50">
      <g>
       <use style="stroke:#000000;stroke-width:0.6;" x="264.829875" xlink:href="#m276d3428d1" y="317.32"/>
      </g>
     </g>
    </g>
    <g id="xtick_26">
     <g id="line2d_51">
      <path clip-path="url(#pb1dea14b4a)" d="M 286.275125 317.32 
L 286.275125 10.8 
" style="fill:none;stroke:#bbbbbb;stroke-linecap:square;stroke-width:0.8;"/>
     </g>
     <g id="line2d_52">
      <g>
       <use style="stroke:#000000;stroke-width:0.6;" x="286.275125" xlink:href="#m276d3428d1" y="317.32"/>
      </g>
     </g>
    </g>
    <g id="xtick_27">
     <g id="line2d_53">
      <path clip-path="url(#pb1dea14b4a)" d="M 296.99775 317.32 
L 296.99775 10.8 
" style="fill:none;stroke:#bbbbbb;stroke-linecap:square;stroke-width:0.8;"/>
     </g>
     <g id="line2d_54">
      <g>
       <use style="stroke:#000000;stroke-width:0.6;" x="296.99775" xlink:href="#m276d3428d1" y="317.32"/>
      </g>
     </g>
    </g>
    <g id="xtick_28">
     <g id="line2d_55">
      <path clip-path="url(#pb1dea14b4a)" d="M 307.720375 317.32 
L 307.720375 10.8 
" style="fill:none;stroke:#bbbbbb;stroke-linecap:square;stroke-width:0.8;"/>
     </g>
     <g id="line2d_56">
      <g>
       <use style="stroke:#000000;stroke-width:0.6;" x="307.720375" xlink:href="#m276d3428d1" y="317.32"/>
      </g>
     </g>
    </g>
    <g id="xtick_29">
     <g id="line2d_57">
      <path clip-path="url(#pb1dea14b4a)" d="M 318.443 317.32 
L 318.443 10.8 
" style="fill:none;stroke:#bbbbbb;stroke-linecap:square;stroke-width:0.8;"/>
     </g>
     <g id="line2d_58">
      <g>
       <use style="stroke:#000000;stroke-width:0.6;" x="318.443" xlink:href="#m276d3428d1" y="317.32"/>
      </g>
     </g>
    </g>
    <g id="xtick_30">
     <g id="line2d_59">
      <path clip-path="url(#pb1dea14b4a)" d="M 339.88825 317.32 
L 339.88825 10.8 
" style="fill:none;stroke:#bbbbbb;stroke-linecap:square;stroke-width:0.8;"/>
     </g>
     <g id="line2d_60">
      <g>
       <use style="stroke:#000000;stroke-width:0.6;" x="339.88825" xlink:href="#m276d3428d1" y="317.32"/>
      </g>
     </g>
    </g>
    <g id="xtick_31">
     <g id="line2d_61">
      <path clip-path="url(#pb1dea14b4a)" d="M 350.610875 317.32 
L 350.610875 10.8 
" style="fill:none;stroke:#bbbbbb;stroke-linecap:square;stroke-width:0.8;"/>
     </g>
     <g id="line2d_62">
      <g>
       <use style="stroke:#000000;stroke-width:0.6;" x="350.610875" xlink:href="#m276d3428d1" y="317.32"/>
      </g>
     </g>
    </g>
    <g id="xtick_32">
     <g id="line2d_63">
      <path clip-path="url(#pb1dea14b4a)" d="M 361.3335 317.32 
L 361.3335 10.8 
" style="fill:none;stroke:#bbbbbb;stroke-linecap:square;stroke-width:0.8;"/>
     </g>
     <g id="line2d_64">
      <g>
       <use style="stroke:#000000;stroke-width:0.6;" x="361.3335" xlink:href="#m276d3428d1" y="317.32"/>
      </g>
     </g>
    </g>
    <g id="xtick_33">
     <g id="line2d_65">
      <path clip-path="url(#pb1dea14b4a)" d="M 372.056125 317.32 
L 372.056125 10.8 
" style="fill:none;stroke:#bbbbbb;stroke-linecap:square;stroke-width:0.8;"/>
     </g>
     <g id="line2d_66">
      <g>
       <use style="stroke:#000000;stroke-width:0.6;" x="372.056125" xlink:href="#m276d3428d1" y="317.32"/>
      </g>
     </g>
    </g>
    <g id="xtick_34">
     <g id="line2d_67">
      <path clip-path="url(#pb1dea14b4a)" d="M 393.501375 317.32 
L 393.501375 10.8 
" style="fill:none;stroke:#bbbbbb;stroke-linecap:square;stroke-width:0.8;"/>
     </g>
     <g id="line2d_68">
      <g>
       <use style="stroke:#000000;stroke-width:0.6;" x="393.501375" xlink:href="#m276d3428d1" y="317.32"/>
      </g>
     </g>
    </g>
    <g id="xtick_35">
     <g id="line2d_69">
      <path clip-path="url(#pb1dea14b4a)" d="M 404.224 317.32 
L 404.224 10.8 
" style="fill:none;stroke:#bbbbbb;stroke-linecap:square;stroke-width:0.8;"/>
     </g>
     <g id="line2d_70">
      <g>
       <use style="stroke:#000000;stroke-width:0.6;" x="404.224" xlink:href="#m276d3428d1" y="317.32"/>
      </g>
     </g>
    </g>
    <g id="xtick_36">
     <g id="line2d_71">
      <path clip-path="url(#pb1dea14b4a)" d="M 414.946625 317.32 
L 414.946625 10.8 
" style="fill:none;stroke:#bbbbbb;stroke-linecap:square;stroke-width:0.8;"/>
     </g>
     <g id="line2d_72">
      <g>
       <use style="stroke:#000000;stroke-width:0.6;" x="414.946625" xlink:href="#m276d3428d1" y="317.32"/>
      </g>
     </g>
    </g>
    <g id="xtick_37">
     <g id="line2d_73">
      <path clip-path="url(#pb1dea14b4a)" d="M 425.66925 317.32 
L 425.66925 10.8 
" style="fill:none;stroke:#bbbbbb;stroke-linecap:square;stroke-width:0.8;"/>
     </g>
     <g id="line2d_74">
      <g>
       <use style="stroke:#000000;stroke-width:0.6;" x="425.66925" xlink:href="#m276d3428d1" y="317.32"/>
      </g>
     </g>
    </g>
    <g id="xtick_38">
     <g id="line2d_75">
      <path clip-path="url(#pb1dea14b4a)" d="M 447.1145 317.32 
L 447.1145 10.8 
" style="fill:none;stroke:#bbbbbb;stroke-linecap:square;stroke-width:0.8;"/>
     </g>
     <g id="line2d_76">
      <g>
       <use style="stroke:#000000;stroke-width:0.6;" x="447.1145" xlink:href="#m276d3428d1" y="317.32"/>
      </g>
     </g>
    </g>
    <g id="xtick_39">
     <g id="line2d_77">
      <path clip-path="url(#pb1dea14b4a)" d="M 457.837125 317.32 
L 457.837125 10.8 
" style="fill:none;stroke:#bbbbbb;stroke-linecap:square;stroke-width:0.8;"/>
     </g>
     <g id="line2d_78">
      <g>
       <use style="stroke:#000000;stroke-width:0.6;" x="457.837125" xlink:href="#m276d3428d1" y="317.32"/>
      </g>
     </g>
    </g>
    <g id="xtick_40">
     <g id="line2d_79">
      <path clip-path="url(#pb1dea14b4a)" d="M 468.55975 317.32 
L 468.55975 10.8 
" style="fill:none;stroke:#bbbbbb;stroke-linecap:square;stroke-width:0.8;"/>
     </g>
     <g id="line2d_80">
      <g>
       <use style="stroke:#000000;stroke-width:0.6;" x="468.55975" xlink:href="#m276d3428d1" y="317.32"/>
      </g>
     </g>
    </g>
    <g id="xtick_41">
     <g id="line2d_81">
      <path clip-path="url(#pb1dea14b4a)" d="M 479.282375 317.32 
L 479.282375 10.8 
" style="fill:none;stroke:#bbbbbb;stroke-linecap:square;stroke-width:0.8;"/>
     </g>
     <g id="line2d_82">
      <g>
       <use style="stroke:#000000;stroke-width:0.6;" x="479.282375" xlink:href="#m276d3428d1" y="317.32"/>
      </g>
     </g>
    </g>
    <g id="text_10">
     <!-- $t/T$ -->
     <defs>
      <path d="M 42.28125 54.6875 
L 40.921875 47.703125 
L 23 47.703125 
L 17.1875 18.015625 
Q 16.890625 16.359375 16.75 15.234375 
Q 16.609375 14.109375 16.609375 13.484375 
Q 16.609375 10.359375 18.484375 8.9375 
Q 20.359375 7.515625 24.515625 7.515625 
L 33.59375 7.515625 
L 32.078125 0 
L 23.484375 0 
Q 15.484375 0 11.546875 3.125 
Q 7.625 6.25 7.625 12.59375 
Q 7.625 13.71875 7.765625 15.0625 
Q 7.90625 16.40625 8.203125 18.015625 
L 14.015625 47.703125 
L 6.390625 47.703125 
L 7.8125 54.6875 
L 15.28125 54.6875 
L 18.3125 70.21875 
L 27.296875 70.21875 
L 24.3125 54.6875 
z
" id="DejaVuSans-Oblique-116"/>
      <path d="M 25.390625 72.90625 
L 33.6875 72.90625 
L 8.296875 -9.28125 
L 0 -9.28125 
z
" id="DejaVuSans-47"/>
      <path d="M 5.90625 72.90625 
L 67.578125 72.90625 
L 66.015625 64.59375 
L 39.984375 64.59375 
L 27.484375 0 
L 17.578125 0 
L 30.078125 64.59375 
L 4.296875 64.59375 
z
" id="DejaVuSans-Oblique-84"/>
     </defs>
     <g transform="translate(268.8525 345.596563)scale(0.1 -0.1)">
      <use transform="translate(0 0.09375)" xlink:href="#DejaVuSans-Oblique-116"/>
      <use transform="translate(39.208984 0.09375)" xlink:href="#DejaVuSans-47"/>
      <use transform="translate(72.900391 0.09375)" xlink:href="#DejaVuSans-Oblique-84"/>
     </g>
    </g>
   </g>
   <g id="matplotlib.axis_2">
    <g id="ytick_1">
     <g id="line2d_83">
      <path clip-path="url(#pb1dea14b4a)" d="M 61.1 296.18069 
L 490.005 296.18069 
" style="fill:none;stroke:#666666;stroke-linecap:square;stroke-width:0.8;"/>
     </g>
     <g id="line2d_84">
      <defs>
       <path d="M 0 0 
L -3.5 0 
" id="mf278700ff2" style="stroke:#000000;stroke-width:0.8;"/>
      </defs>
      <g>
       <use style="stroke:#000000;stroke-width:0.8;" x="61.1" xlink:href="#mf278700ff2" y="296.18069"/>
      </g>
     </g>
     <g id="text_11">
      <!-- −1.0 -->
      <defs>
       <path d="M 10.6875 12.40625 
L 21 12.40625 
L 21 0 
L 10.6875 0 
z
" id="DejaVuSans-46"/>
      </defs>
      <g transform="translate(29.817188 299.979908)scale(0.1 -0.1)">
       <use xlink:href="#DejaVuSans-8722"/>
       <use x="83.789062" xlink:href="#DejaVuSans-49"/>
       <use x="147.412109" xlink:href="#DejaVuSans-46"/>
       <use x="179.199219" xlink:href="#DejaVuSans-48"/>
      </g>
     </g>
    </g>
    <g id="ytick_2">
     <g id="line2d_85">
      <path clip-path="url(#pb1dea14b4a)" d="M 61.1 243.332414 
L 490.005 243.332414 
" style="fill:none;stroke:#666666;stroke-linecap:square;stroke-width:0.8;"/>
     </g>
     <g id="line2d_86">
      <g>
       <use style="stroke:#000000;stroke-width:0.8;" x="61.1" xlink:href="#mf278700ff2" y="243.332414"/>
      </g>
     </g>
     <g id="text_12">
      <!-- −0.5 -->
      <defs>
       <path d="M 10.796875 72.90625 
L 49.515625 72.90625 
L 49.515625 64.59375 
L 19.828125 64.59375 
L 19.828125 46.734375 
Q 21.96875 47.46875 24.109375 47.828125 
Q 26.265625 48.1875 28.421875 48.1875 
Q 40.625 48.1875 47.75 41.5 
Q 54.890625 34.8125 54.890625 23.390625 
Q 54.890625 11.625 47.5625 5.09375 
Q 40.234375 -1.421875 26.90625 -1.421875 
Q 22.3125 -1.421875 17.546875 -0.640625 
Q 12.796875 0.140625 7.71875 1.703125 
L 7.71875 11.625 
Q 12.109375 9.234375 16.796875 8.0625 
Q 21.484375 6.890625 26.703125 6.890625 
Q 35.15625 6.890625 40.078125 11.328125 
Q 45.015625 15.765625 45.015625 23.390625 
Q 45.015625 31 40.078125 35.4375 
Q 35.15625 39.890625 26.703125 39.890625 
Q 22.75 39.890625 18.8125 39.015625 
Q 14.890625 38.140625 10.796875 36.28125 
z
" id="DejaVuSans-53"/>
      </defs>
      <g transform="translate(29.817188 247.131633)scale(0.1 -0.1)">
       <use xlink:href="#DejaVuSans-8722"/>
       <use x="83.789062" xlink:href="#DejaVuSans-48"/>
       <use x="147.412109" xlink:href="#DejaVuSans-46"/>
       <use x="179.199219" xlink:href="#DejaVuSans-53"/>
      </g>
     </g>
    </g>
    <g id="ytick_3">
     <g id="line2d_87">
      <path clip-path="url(#pb1dea14b4a)" d="M 61.1 190.484138 
L 490.005 190.484138 
" style="fill:none;stroke:#666666;stroke-linecap:square;stroke-width:0.8;"/>
     </g>
     <g id="line2d_88">
      <g>
       <use style="stroke:#000000;stroke-width:0.8;" x="61.1" xlink:href="#mf278700ff2" y="190.484138"/>
      </g>
     </g>
     <g id="text_13">
      <!-- 0.0 -->
      <g transform="translate(38.196875 194.283357)scale(0.1 -0.1)">
       <use xlink:href="#DejaVuSans-48"/>
       <use x="63.623047" xlink:href="#DejaVuSans-46"/>
       <use x="95.410156" xlink:href="#DejaVuSans-48"/>
      </g>
     </g>
    </g>
    <g id="ytick_4">
     <g id="line2d_89">
      <path clip-path="url(#pb1dea14b4a)" d="M 61.1 137.635862 
L 490.005 137.635862 
" style="fill:none;stroke:#666666;stroke-linecap:square;stroke-width:0.8;"/>
     </g>
     <g id="line2d_90">
      <g>
       <use style="stroke:#000000;stroke-width:0.8;" x="61.1" xlink:href="#mf278700ff2" y="137.635862"/>
      </g>
     </g>
     <g id="text_14">
      <!-- 0.5 -->
      <g transform="translate(38.196875 141.435081)scale(0.1 -0.1)">
       <use xlink:href="#DejaVuSans-48"/>
       <use x="63.623047" xlink:href="#DejaVuSans-46"/>
       <use x="95.410156" xlink:href="#DejaVuSans-53"/>
      </g>
     </g>
    </g>
    <g id="ytick_5">
     <g id="line2d_91">
      <path clip-path="url(#pb1dea14b4a)" d="M 61.1 84.787586 
L 490.005 84.787586 
" style="fill:none;stroke:#666666;stroke-linecap:square;stroke-width:0.8;"/>
     </g>
     <g id="line2d_92">
      <g>
       <use style="stroke:#000000;stroke-width:0.8;" x="61.1" xlink:href="#mf278700ff2" y="84.787586"/>
      </g>
     </g>
     <g id="text_15">
      <!-- 1.0 -->
      <g transform="translate(38.196875 88.586805)scale(0.1 -0.1)">
       <use xlink:href="#DejaVuSans-49"/>
       <use x="63.623047" xlink:href="#DejaVuSans-46"/>
       <use x="95.410156" xlink:href="#DejaVuSans-48"/>
      </g>
     </g>
    </g>
    <g id="ytick_6">
     <g id="line2d_93">
      <path clip-path="url(#pb1dea14b4a)" d="M 61.1 31.93931 
L 490.005 31.93931 
" style="fill:none;stroke:#666666;stroke-linecap:square;stroke-width:0.8;"/>
     </g>
     <g id="line2d_94">
      <g>
       <use style="stroke:#000000;stroke-width:0.8;" x="61.1" xlink:href="#mf278700ff2" y="31.93931"/>
      </g>
     </g>
     <g id="text_16">
      <!-- 1.5 -->
      <g transform="translate(38.196875 35.738529)scale(0.1 -0.1)">
       <use xlink:href="#DejaVuSans-49"/>
       <use x="63.623047" xlink:href="#DejaVuSans-46"/>
       <use x="95.410156" xlink:href="#DejaVuSans-53"/>
      </g>
     </g>
    </g>
    <g id="ytick_7">
     <g id="line2d_95">
      <path clip-path="url(#pb1dea14b4a)" d="M 61.1 306.750345 
L 490.005 306.750345 
" style="fill:none;stroke:#bbbbbb;stroke-linecap:square;stroke-width:0.8;"/>
     </g>
     <g id="line2d_96">
      <defs>
       <path d="M 0 0 
L -2 0 
" id="m2b5edffeeb" style="stroke:#000000;stroke-width:0.6;"/>
      </defs>
      <g>
       <use style="stroke:#000000;stroke-width:0.6;" x="61.1" xlink:href="#m2b5edffeeb" y="306.750345"/>
      </g>
     </g>
    </g>
    <g id="ytick_8">
     <g id="line2d_97">
      <path clip-path="url(#pb1dea14b4a)" d="M 61.1 285.611034 
L 490.005 285.611034 
" style="fill:none;stroke:#bbbbbb;stroke-linecap:square;stroke-width:0.8;"/>
     </g>
     <g id="line2d_98">
      <g>
       <use style="stroke:#000000;stroke-width:0.6;" x="61.1" xlink:href="#m2b5edffeeb" y="285.611034"/>
      </g>
     </g>
    </g>
    <g id="ytick_9">
     <g id="line2d_99">
      <path clip-path="url(#pb1dea14b4a)" d="M 61.1 275.041379 
L 490.005 275.041379 
" style="fill:none;stroke:#bbbbbb;stroke-linecap:square;stroke-width:0.8;"/>
     </g>
     <g id="line2d_100">
      <g>
       <use style="stroke:#000000;stroke-width:0.6;" x="61.1" xlink:href="#m2b5edffeeb" y="275.041379"/>
      </g>
     </g>
    </g>
    <g id="ytick_10">
     <g id="line2d_101">
      <path clip-path="url(#pb1dea14b4a)" d="M 61.1 264.471724 
L 490.005 264.471724 
" style="fill:none;stroke:#bbbbbb;stroke-linecap:square;stroke-width:0.8;"/>
     </g>
     <g id="line2d_102">
      <g>
       <use style="stroke:#000000;stroke-width:0.6;" x="61.1" xlink:href="#m2b5edffeeb" y="264.471724"/>
      </g>
     </g>
    </g>
    <g id="ytick_11">
     <g id="line2d_103">
      <path clip-path="url(#pb1dea14b4a)" d="M 61.1 253.902069 
L 490.005 253.902069 
" style="fill:none;stroke:#bbbbbb;stroke-linecap:square;stroke-width:0.8;"/>
     </g>
     <g id="line2d_104">
      <g>
       <use style="stroke:#000000;stroke-width:0.6;" x="61.1" xlink:href="#m2b5edffeeb" y="253.902069"/>
      </g>
     </g>
    </g>
    <g id="ytick_12">
     <g id="line2d_105">
      <path clip-path="url(#pb1dea14b4a)" d="M 61.1 232.762759 
L 490.005 232.762759 
" style="fill:none;stroke:#bbbbbb;stroke-linecap:square;stroke-width:0.8;"/>
     </g>
     <g id="line2d_106">
      <g>
       <use style="stroke:#000000;stroke-width:0.6;" x="61.1" xlink:href="#m2b5edffeeb" y="232.762759"/>
      </g>
     </g>
    </g>
    <g id="ytick_13">
     <g id="line2d_107">
      <path clip-path="url(#pb1dea14b4a)" d="M 61.1 222.193103 
L 490.005 222.193103 
" style="fill:none;stroke:#bbbbbb;stroke-linecap:square;stroke-width:0.8;"/>
     </g>
     <g id="line2d_108">
      <g>
       <use style="stroke:#000000;stroke-width:0.6;" x="61.1" xlink:href="#m2b5edffeeb" y="222.193103"/>
      </g>
     </g>
    </g>
    <g id="ytick_14">
     <g id="line2d_109">
      <path clip-path="url(#pb1dea14b4a)" d="M 61.1 211.623448 
L 490.005 211.623448 
" style="fill:none;stroke:#bbbbbb;stroke-linecap:square;stroke-width:0.8;"/>
     </g>
     <g id="line2d_110">
      <g>
       <use style="stroke:#000000;stroke-width:0.6;" x="61.1" xlink:href="#m2b5edffeeb" y="211.623448"/>
      </g>
     </g>
    </g>
    <g id="ytick_15">
     <g id="line2d_111">
      <path clip-path="url(#pb1dea14b4a)" d="M 61.1 201.053793 
L 490.005 201.053793 
" style="fill:none;stroke:#bbbbbb;stroke-linecap:square;stroke-width:0.8;"/>
     </g>
     <g id="line2d_112">
      <g>
       <use style="stroke:#000000;stroke-width:0.6;" x="61.1" xlink:href="#m2b5edffeeb" y="201.053793"/>
      </g>
     </g>
    </g>
    <g id="ytick_16">
     <g id="line2d_113">
      <path clip-path="url(#pb1dea14b4a)" d="M 61.1 179.914483 
L 490.005 179.914483 
" style="fill:none;stroke:#bbbbbb;stroke-linecap:square;stroke-width:0.8;"/>
     </g>
     <g id="line2d_114">
      <g>
       <use style="stroke:#000000;stroke-width:0.6;" x="61.1" xlink:href="#m2b5edffeeb" y="179.914483"/>
      </g>
     </g>
    </g>
    <g id="ytick_17">
     <g id="line2d_115">
      <path clip-path="url(#pb1dea14b4a)" d="M 61.1 169.344828 
L 490.005 169.344828 
" style="fill:none;stroke:#bbbbbb;stroke-linecap:square;stroke-width:0.8;"/>
     </g>
     <g id="line2d_116">
      <g>
       <use style="stroke:#000000;stroke-width:0.6;" x="61.1" xlink:href="#m2b5edffeeb" y="169.344828"/>
      </g>
     </g>
    </g>
    <g id="ytick_18">
     <g id="line2d_117">
      <path clip-path="url(#pb1dea14b4a)" d="M 61.1 158.775172 
L 490.005 158.775172 
" style="fill:none;stroke:#bbbbbb;stroke-linecap:square;stroke-width:0.8;"/>
     </g>
     <g id="line2d_118">
      <g>
       <use style="stroke:#000000;stroke-width:0.6;" x="61.1" xlink:href="#m2b5edffeeb" y="158.775172"/>
      </g>
     </g>
    </g>
    <g id="ytick_19">
     <g id="line2d_119">
      <path clip-path="url(#pb1dea14b4a)" d="M 61.1 148.205517 
L 490.005 148.205517 
" style="fill:none;stroke:#bbbbbb;stroke-linecap:square;stroke-width:0.8;"/>
     </g>
     <g id="line2d_120">
      <g>
       <use style="stroke:#000000;stroke-width:0.6;" x="61.1" xlink:href="#m2b5edffeeb" y="148.205517"/>
      </g>
     </g>
    </g>
    <g id="ytick_20">
     <g id="line2d_121">
      <path clip-path="url(#pb1dea14b4a)" d="M 61.1 127.066207 
L 490.005 127.066207 
" style="fill:none;stroke:#bbbbbb;stroke-linecap:square;stroke-width:0.8;"/>
     </g>
     <g id="line2d_122">
      <g>
       <use style="stroke:#000000;stroke-width:0.6;" x="61.1" xlink:href="#m2b5edffeeb" y="127.066207"/>
      </g>
     </g>
    </g>
    <g id="ytick_21">
     <g id="line2d_123">
      <path clip-path="url(#pb1dea14b4a)" d="M 61.1 116.496552 
L 490.005 116.496552 
" style="fill:none;stroke:#bbbbbb;stroke-linecap:square;stroke-width:0.8;"/>
     </g>
     <g id="line2d_124">
      <g>
       <use style="stroke:#000000;stroke-width:0.6;" x="61.1" xlink:href="#m2b5edffeeb" y="116.496552"/>
      </g>
     </g>
    </g>
    <g id="ytick_22">
     <g id="line2d_125">
      <path clip-path="url(#pb1dea14b4a)" d="M 61.1 105.926897 
L 490.005 105.926897 
" style="fill:none;stroke:#bbbbbb;stroke-linecap:square;stroke-width:0.8;"/>
     </g>
     <g id="line2d_126">
      <g>
       <use style="stroke:#000000;stroke-width:0.6;" x="61.1" xlink:href="#m2b5edffeeb" y="105.926897"/>
      </g>
     </g>
    </g>
    <g id="ytick_23">
     <g id="line2d_127">
      <path clip-path="url(#pb1dea14b4a)" d="M 61.1 95.357241 
L 490.005 95.357241 
" style="fill:none;stroke:#bbbbbb;stroke-linecap:square;stroke-width:0.8;"/>
     </g>
     <g id="line2d_128">
      <g>
       <use style="stroke:#000000;stroke-width:0.6;" x="61.1" xlink:href="#m2b5edffeeb" y="95.357241"/>
      </g>
     </g>
    </g>
    <g id="ytick_24">
     <g id="line2d_129">
      <path clip-path="url(#pb1dea14b4a)" d="M 61.1 74.217931 
L 490.005 74.217931 
" style="fill:none;stroke:#bbbbbb;stroke-linecap:square;stroke-width:0.8;"/>
     </g>
     <g id="line2d_130">
      <g>
       <use style="stroke:#000000;stroke-width:0.6;" x="61.1" xlink:href="#m2b5edffeeb" y="74.217931"/>
      </g>
     </g>
    </g>
    <g id="ytick_25">
     <g id="line2d_131">
      <path clip-path="url(#pb1dea14b4a)" d="M 61.1 63.648276 
L 490.005 63.648276 
" style="fill:none;stroke:#bbbbbb;stroke-linecap:square;stroke-width:0.8;"/>
     </g>
     <g id="line2d_132">
      <g>
       <use style="stroke:#000000;stroke-width:0.6;" x="61.1" xlink:href="#m2b5edffeeb" y="63.648276"/>
      </g>
     </g>
    </g>
    <g id="ytick_26">
     <g id="line2d_133">
      <path clip-path="url(#pb1dea14b4a)" d="M 61.1 53.078621 
L 490.005 53.078621 
" style="fill:none;stroke:#bbbbbb;stroke-linecap:square;stroke-width:0.8;"/>
     </g>
     <g id="line2d_134">
      <g>
       <use style="stroke:#000000;stroke-width:0.6;" x="61.1" xlink:href="#m2b5edffeeb" y="53.078621"/>
      </g>
     </g>
    </g>
    <g id="ytick_27">
     <g id="line2d_135">
      <path clip-path="url(#pb1dea14b4a)" d="M 61.1 42.508966 
L 490.005 42.508966 
" style="fill:none;stroke:#bbbbbb;stroke-linecap:square;stroke-width:0.8;"/>
     </g>
     <g id="line2d_136">
      <g>
       <use style="stroke:#000000;stroke-width:0.6;" x="61.1" xlink:href="#m2b5edffeeb" y="42.508966"/>
      </g>
     </g>
    </g>
    <g id="ytick_28">
     <g id="line2d_137">
      <path clip-path="url(#pb1dea14b4a)" d="M 61.1 21.369655 
L 490.005 21.369655 
" style="fill:none;stroke:#bbbbbb;stroke-linecap:square;stroke-width:0.8;"/>
     </g>
     <g id="line2d_138">
      <g>
       <use style="stroke:#000000;stroke-width:0.6;" x="61.1" xlink:href="#m2b5edffeeb" y="21.369655"/>
      </g>
     </g>
    </g>
    <g id="ytick_29">
     <g id="line2d_139">
      <path clip-path="url(#pb1dea14b4a)" d="M 61.1 10.8 
L 490.005 10.8 
" style="fill:none;stroke:#bbbbbb;stroke-linecap:square;stroke-width:0.8;"/>
     </g>
     <g id="line2d_140">
      <g>
       <use style="stroke:#000000;stroke-width:0.6;" x="61.1" xlink:href="#m2b5edffeeb" y="10.8"/>
      </g>
     </g>
    </g>
    <g id="text_17">
     <!-- $s(t)$ in $\sqrt{\mathrm{W}}$ -->
     <defs>
      <path d="M 50 53.078125 
L 48.296875 44.578125 
Q 44.734375 46.53125 40.765625 47.5 
Q 36.8125 48.484375 32.625 48.484375 
Q 25.53125 48.484375 21.453125 46.0625 
Q 17.390625 43.65625 17.390625 39.5 
Q 17.390625 34.671875 26.859375 32.078125 
Q 27.59375 31.890625 27.9375 31.78125 
L 30.8125 30.90625 
Q 39.796875 28.421875 42.796875 25.6875 
Q 45.796875 22.953125 45.796875 18.21875 
Q 45.796875 9.515625 38.890625 4.046875 
Q 31.984375 -1.421875 20.796875 -1.421875 
Q 16.453125 -1.421875 11.671875 -0.578125 
Q 6.890625 0.25 1.125 2 
L 2.875 11.28125 
Q 7.8125 8.734375 12.59375 7.421875 
Q 17.390625 6.109375 21.78125 6.109375 
Q 28.375 6.109375 32.5 8.9375 
Q 36.625 11.765625 36.625 16.109375 
Q 36.625 20.796875 25.78125 23.6875 
L 24.859375 23.921875 
L 21.78125 24.703125 
Q 14.9375 26.515625 11.765625 29.46875 
Q 8.59375 32.421875 8.59375 37.015625 
Q 8.59375 45.75 15.15625 50.875 
Q 21.734375 56 33.015625 56 
Q 37.453125 56 41.671875 55.265625 
Q 45.90625 54.546875 50 53.078125 
z
" id="DejaVuSans-Oblique-115"/>
      <path d="M 31 75.875 
Q 24.46875 64.65625 21.28125 53.65625 
Q 18.109375 42.671875 18.109375 31.390625 
Q 18.109375 20.125 21.3125 9.0625 
Q 24.515625 -2 31 -13.1875 
L 23.1875 -13.1875 
Q 15.875 -1.703125 12.234375 9.375 
Q 8.59375 20.453125 8.59375 31.390625 
Q 8.59375 42.28125 12.203125 53.3125 
Q 15.828125 64.359375 23.1875 75.875 
z
" id="DejaVuSans-40"/>
      <path d="M 8.015625 75.875 
L 15.828125 75.875 
Q 23.140625 64.359375 26.78125 53.3125 
Q 30.421875 42.28125 30.421875 31.390625 
Q 30.421875 20.453125 26.78125 9.375 
Q 23.140625 -1.703125 15.828125 -13.1875 
L 8.015625 -13.1875 
Q 14.5 -2 17.703125 9.0625 
Q 20.90625 20.125 20.90625 31.390625 
Q 20.90625 42.671875 17.703125 53.65625 
Q 14.5 64.65625 8.015625 75.875 
z
" id="DejaVuSans-41"/>
      <path id="DejaVuSans-32"/>
      <path d="M 9.421875 54.6875 
L 18.40625 54.6875 
L 18.40625 0 
L 9.421875 0 
z
M 9.421875 75.984375 
L 18.40625 75.984375 
L 18.40625 64.59375 
L 9.421875 64.59375 
z
" id="DejaVuSans-105"/>
      <path d="M 54.890625 33.015625 
L 54.890625 0 
L 45.90625 0 
L 45.90625 32.71875 
Q 45.90625 40.484375 42.875 44.328125 
Q 39.84375 48.1875 33.796875 48.1875 
Q 26.515625 48.1875 22.3125 43.546875 
Q 18.109375 38.921875 18.109375 30.90625 
L 18.109375 0 
L 9.078125 0 
L 9.078125 54.6875 
L 18.109375 54.6875 
L 18.109375 46.1875 
Q 21.34375 51.125 25.703125 53.5625 
Q 30.078125 56 35.796875 56 
Q 45.21875 56 50.046875 50.171875 
Q 54.890625 44.34375 54.890625 33.015625 
z
" id="DejaVuSans-110"/>
      <path d="M 108.90625 155.203125 
L 52.703125 -29.5 
L 48.5 -29.5 
L 25.40625 45.59375 
Q 24.296875 49.203125 22.890625 50.796875 
Q 21.5 52.40625 19.203125 52.40625 
Q 15.796875 52.40625 12.40625 49.703125 
L 11.203125 51.703125 
L 27.59375 64.296875 
L 30.09375 64.296875 
L 52.796875 -9.40625 
L 53.203125 -9.40625 
L 103.203125 155.203125 
z
" id="STIXSizeOneSym-Regular-8730"/>
      <path d="M 3.328125 72.90625 
L 13.28125 72.90625 
L 28.609375 11.28125 
L 43.890625 72.90625 
L 54.984375 72.90625 
L 70.3125 11.28125 
L 85.59375 72.90625 
L 95.609375 72.90625 
L 77.296875 0 
L 64.890625 0 
L 49.515625 63.28125 
L 33.984375 0 
L 21.578125 0 
z
" id="DejaVuSans-87"/>
     </defs>
     <g transform="translate(23.7375 189.46)rotate(-90)scale(0.1 -0.1)">
      <use transform="translate(0 0.84375)" xlink:href="#DejaVuSans-Oblique-115"/>
      <use transform="translate(52.099609 0.84375)" xlink:href="#DejaVuSans-40"/>
      <use transform="translate(91.113281 0.84375)" xlink:href="#DejaVuSans-Oblique-116"/>
      <use transform="translate(130.322266 0.84375)" xlink:href="#DejaVuSans-41"/>
      <use transform="translate(169.335938 0.84375)" xlink:href="#DejaVuSans-32"/>
      <use transform="translate(201.123047 0.84375)" xlink:href="#DejaVuSans-105"/>
      <use transform="translate(228.90625 0.84375)" xlink:href="#DejaVuSans-110"/>
      <use transform="translate(292.285156 0.84375)" xlink:href="#DejaVuSans-32"/>
      <use transform="translate(324.072266 17.484375)scale(0.563912)" xlink:href="#STIXSizeOneSym-Regular-8730"/>
      <use transform="translate(396.177139 0.84375)" xlink:href="#DejaVuSans-87"/>
      <path d="M 383.677139 98.5 
L 383.677139 104.75 
L 507.554092 104.75 
L 507.554092 98.5 
L 383.677139 98.5 
z
"/>
     </g>
    </g>
   </g>
   <g id="line2d_141">
    <path clip-path="url(#pb1dea14b4a)" d="M 61.1 190.484138 
L 87.906563 243.332414 
L 168.32625 84.787586 
L 248.745938 243.332414 
L 275.5525 190.484138 
" style="fill:none;stroke:#b33333;stroke-dasharray:5.55,2.4;stroke-dashoffset:0;stroke-width:1.5;"/>
   </g>
   <g id="line2d_142">
    <path clip-path="url(#pb1dea14b4a)" d="M 114.713125 190.484138 
L 141.519688 137.635862 
L 221.939375 296.18069 
L 302.359062 137.635862 
L 329.165625 190.484138 
" style="fill:none;stroke:#114da1;stroke-dasharray:5.55,2.4;stroke-dashoffset:0;stroke-width:1.5;"/>
   </g>
   <g id="line2d_143">
    <path clip-path="url(#pb1dea14b4a)" d="M 168.32625 190.484138 
L 195.132812 243.332414 
L 275.5525 84.787586 
L 355.972188 243.332414 
L 382.77875 190.484138 
" style="fill:none;stroke:#33a333;stroke-dasharray:5.55,2.4;stroke-dashoffset:0;stroke-width:1.5;"/>
   </g>
   <g id="line2d_144">
    <path clip-path="url(#pb1dea14b4a)" d="M 221.939375 190.484138 
L 248.745938 243.332414 
L 329.165625 84.787586 
L 409.585312 243.332414 
L 436.391875 190.484138 
" style="fill:none;stroke:#f0b37e;stroke-dasharray:5.55,2.4;stroke-dashoffset:0;stroke-width:1.5;"/>
   </g>
   <g id="line2d_145">
    <path clip-path="url(#pb1dea14b4a)" d="M 61.1 190.484138 
L 87.906563 243.332414 
L 114.713125 190.484138 
L 141.519688 84.787586 
L 168.32625 84.787586 
L 195.132812 243.332414 
L 221.939375 296.18069 
L 248.745938 296.18069 
L 275.5525 84.787586 
L 302.359062 31.93931 
L 329.165625 84.787586 
L 355.972188 190.484138 
L 382.77875 190.484138 
L 409.585312 243.332414 
L 436.391875 190.484138 
" style="fill:none;stroke:#b33333;stroke-linecap:square;stroke-width:2;"/>
   </g>
   <g id="patch_3">
    <path d="M 61.1 317.32 
L 61.1 10.8 
" style="fill:none;stroke:#000000;stroke-linecap:square;stroke-linejoin:miter;stroke-width:0.8;"/>
   </g>
   <g id="patch_4">
    <path d="M 490.005 317.32 
L 490.005 10.8 
" style="fill:none;stroke:#000000;stroke-linecap:square;stroke-linejoin:miter;stroke-width:0.8;"/>
   </g>
   <g id="patch_5">
    <path d="M 61.1 317.32 
L 490.005 317.32 
" style="fill:none;stroke:#000000;stroke-linecap:square;stroke-linejoin:miter;stroke-width:0.8;"/>
   </g>
   <g id="patch_6">
    <path d="M 61.1 10.8 
L 490.005 10.8 
" style="fill:none;stroke:#000000;stroke-linecap:square;stroke-linejoin:miter;stroke-width:0.8;"/>
   </g>
   <g id="legend_1">
    <g id="patch_7">
     <path d="M 424.905 33.478125 
L 483.005 33.478125 
Q 485.005 33.478125 485.005 31.478125 
L 485.005 17.8 
Q 485.005 15.8 483.005 15.8 
L 424.905 15.8 
Q 422.905 15.8 422.905 17.8 
L 422.905 31.478125 
Q 422.905 33.478125 424.905 33.478125 
z
" style="fill:#ffffff;opacity:0.8;stroke:#cccccc;stroke-linejoin:miter;"/>
    </g>
    <g id="line2d_146">
     <path d="M 426.905 23.898438 
L 446.905 23.898438 
" style="fill:none;stroke:#b33333;stroke-linecap:square;stroke-width:2;"/>
    </g>
    <g id="line2d_147"/>
    <g id="text_18">
     <!-- $01{\bf 0}0$ -->
     <defs>
      <path d="M 46 36.53125 
Q 46 50.203125 43.4375 55.78125 
Q 40.875 61.375 34.8125 61.375 
Q 28.765625 61.375 26.171875 55.78125 
Q 23.578125 50.203125 23.578125 36.53125 
Q 23.578125 22.703125 26.171875 17.03125 
Q 28.765625 11.375 34.8125 11.375 
Q 40.828125 11.375 43.40625 17.03125 
Q 46 22.703125 46 36.53125 
z
M 64.796875 36.375 
Q 64.796875 18.265625 56.984375 8.421875 
Q 49.171875 -1.421875 34.8125 -1.421875 
Q 20.40625 -1.421875 12.59375 8.421875 
Q 4.78125 18.265625 4.78125 36.375 
Q 4.78125 54.546875 12.59375 64.375 
Q 20.40625 74.21875 34.8125 74.21875 
Q 49.171875 74.21875 56.984375 64.375 
Q 64.796875 54.546875 64.796875 36.375 
z
" id="DejaVuSans-Bold-48"/>
     </defs>
     <g transform="translate(454.905 27.398438)scale(0.1 -0.1)">
      <use transform="translate(0 0.78125)" xlink:href="#DejaVuSans-48"/>
      <use transform="translate(63.623047 0.78125)" xlink:href="#DejaVuSans-49"/>
      <use transform="translate(127.246094 0.78125)" xlink:href="#DejaVuSans-Bold-48"/>
      <use transform="translate(196.826172 0.78125)" xlink:href="#DejaVuSans-48"/>
     </g>
    </g>
   </g>
  </g>
 </g>
 <defs>
  <clipPath id="pb1dea14b4a">
   <rect height="306.52" width="428.905" x="61.1" y="10.8"/>
  </clipPath>
 </defs>
</svg>
