<?xml version="1.0" encoding="utf-8" standalone="no"?>
<!DOCTYPE svg PUBLIC "-//W3C//DTD SVG 1.1//EN"
  "http://www.w3.org/Graphics/SVG/1.1/DTD/svg11.dtd">
<!-- Created with matplotlib (https://matplotlib.org/) -->
<svg height="360pt" version="1.1" viewBox="0 0 504 360" width="504pt" xmlns="http://www.w3.org/2000/svg" xmlns:xlink="http://www.w3.org/1999/xlink">
 <defs>
  <style type="text/css">
*{stroke-linecap:butt;stroke-linejoin:round;}
  </style>
 </defs>
 <g id="figure_1">
  <g id="patch_1">
   <path d="M 0 360 
L 504 360 
L 504 0 
L 0 0 
z
" style="fill:#ffffff;"/>
  </g>
  <g id="axes_1">
   <g id="patch_2">
    <path d="M 61.468346 141.892 
L 486.81 141.892 
L 486.81 14.76 
L 61.468346 14.76 
z
" style="fill:#ffffff;"/>
   </g>
   <g id="matplotlib.axis_1">
    <g id="xtick_1">
     <g id="line2d_1">
      <path clip-path="url(#p2a1c74a285)" d="M 61.468346 141.892 
L 61.468346 14.76 
" style="fill:none;stroke:#666666;stroke-linecap:square;stroke-width:0.8;"/>
     </g>
     <g id="line2d_2">
      <defs>
       <path d="M 0 0 
L 0 3.5 
" id="mac6e191f90" style="stroke:#000000;stroke-width:0.8;"/>
      </defs>
      <g>
       <use style="stroke:#000000;stroke-width:0.8;" x="61.468346" xlink:href="#mac6e191f90" y="141.892"/>
      </g>
     </g>
     <g id="text_1">
      <!-- 0 -->
      <defs>
       <path d="M 31.78125 66.40625 
Q 24.171875 66.40625 20.328125 58.90625 
Q 16.5 51.421875 16.5 36.375 
Q 16.5 21.390625 20.328125 13.890625 
Q 24.171875 6.390625 31.78125 6.390625 
Q 39.453125 6.390625 43.28125 13.890625 
Q 47.125 21.390625 47.125 36.375 
Q 47.125 51.421875 43.28125 58.90625 
Q 39.453125 66.40625 31.78125 66.40625 
z
M 31.78125 74.21875 
Q 44.046875 74.21875 50.515625 64.515625 
Q 56.984375 54.828125 56.984375 36.375 
Q 56.984375 17.96875 50.515625 8.265625 
Q 44.046875 -1.421875 31.78125 -1.421875 
Q 19.53125 -1.421875 13.0625 8.265625 
Q 6.59375 17.96875 6.59375 36.375 
Q 6.59375 54.828125 13.0625 64.515625 
Q 19.53125 74.21875 31.78125 74.21875 
z
" id="DejaVuSans-48"/>
      </defs>
      <g transform="translate(58.287096 156.490437)scale(0.1 -0.1)">
       <use xlink:href="#DejaVuSans-48"/>
      </g>
     </g>
    </g>
    <g id="xtick_2">
     <g id="line2d_3">
      <path clip-path="url(#p2a1c74a285)" d="M 146.536677 141.892 
L 146.536677 14.76 
" style="fill:none;stroke:#666666;stroke-linecap:square;stroke-width:0.8;"/>
     </g>
     <g id="line2d_4">
      <g>
       <use style="stroke:#000000;stroke-width:0.8;" x="146.536677" xlink:href="#mac6e191f90" y="141.892"/>
      </g>
     </g>
     <g id="text_2">
      <!-- 2 -->
      <defs>
       <path d="M 19.1875 8.296875 
L 53.609375 8.296875 
L 53.609375 0 
L 7.328125 0 
L 7.328125 8.296875 
Q 12.9375 14.109375 22.625 23.890625 
Q 32.328125 33.6875 34.8125 36.53125 
Q 39.546875 41.84375 41.421875 45.53125 
Q 43.3125 49.21875 43.3125 52.78125 
Q 43.3125 58.59375 39.234375 62.25 
Q 35.15625 65.921875 28.609375 65.921875 
Q 23.96875 65.921875 18.8125 64.3125 
Q 13.671875 62.703125 7.8125 59.421875 
L 7.8125 69.390625 
Q 13.765625 71.78125 18.9375 73 
Q 24.125 74.21875 28.421875 74.21875 
Q 39.75 74.21875 46.484375 68.546875 
Q 53.21875 62.890625 53.21875 53.421875 
Q 53.21875 48.921875 51.53125 44.890625 
Q 49.859375 40.875 45.40625 35.40625 
Q 44.1875 33.984375 37.640625 27.21875 
Q 31.109375 20.453125 19.1875 8.296875 
z
" id="DejaVuSans-50"/>
      </defs>
      <g transform="translate(143.355427 156.490437)scale(0.1 -0.1)">
       <use xlink:href="#DejaVuSans-50"/>
      </g>
     </g>
    </g>
    <g id="xtick_3">
     <g id="line2d_5">
      <path clip-path="url(#p2a1c74a285)" d="M 231.605008 141.892 
L 231.605008 14.76 
" style="fill:none;stroke:#666666;stroke-linecap:square;stroke-width:0.8;"/>
     </g>
     <g id="line2d_6">
      <g>
       <use style="stroke:#000000;stroke-width:0.8;" x="231.605008" xlink:href="#mac6e191f90" y="141.892"/>
      </g>
     </g>
     <g id="text_3">
      <!-- 4 -->
      <defs>
       <path d="M 37.796875 64.3125 
L 12.890625 25.390625 
L 37.796875 25.390625 
z
M 35.203125 72.90625 
L 47.609375 72.90625 
L 47.609375 25.390625 
L 58.015625 25.390625 
L 58.015625 17.1875 
L 47.609375 17.1875 
L 47.609375 0 
L 37.796875 0 
L 37.796875 17.1875 
L 4.890625 17.1875 
L 4.890625 26.703125 
z
" id="DejaVuSans-52"/>
      </defs>
      <g transform="translate(228.423758 156.490437)scale(0.1 -0.1)">
       <use xlink:href="#DejaVuSans-52"/>
      </g>
     </g>
    </g>
    <g id="xtick_4">
     <g id="line2d_7">
      <path clip-path="url(#p2a1c74a285)" d="M 316.673338 141.892 
L 316.673338 14.76 
" style="fill:none;stroke:#666666;stroke-linecap:square;stroke-width:0.8;"/>
     </g>
     <g id="line2d_8">
      <g>
       <use style="stroke:#000000;stroke-width:0.8;" x="316.673338" xlink:href="#mac6e191f90" y="141.892"/>
      </g>
     </g>
     <g id="text_4">
      <!-- 6 -->
      <defs>
       <path d="M 33.015625 40.375 
Q 26.375 40.375 22.484375 35.828125 
Q 18.609375 31.296875 18.609375 23.390625 
Q 18.609375 15.53125 22.484375 10.953125 
Q 26.375 6.390625 33.015625 6.390625 
Q 39.65625 6.390625 43.53125 10.953125 
Q 47.40625 15.53125 47.40625 23.390625 
Q 47.40625 31.296875 43.53125 35.828125 
Q 39.65625 40.375 33.015625 40.375 
z
M 52.59375 71.296875 
L 52.59375 62.3125 
Q 48.875 64.0625 45.09375 64.984375 
Q 41.3125 65.921875 37.59375 65.921875 
Q 27.828125 65.921875 22.671875 59.328125 
Q 17.53125 52.734375 16.796875 39.40625 
Q 19.671875 43.65625 24.015625 45.921875 
Q 28.375 48.1875 33.59375 48.1875 
Q 44.578125 48.1875 50.953125 41.515625 
Q 57.328125 34.859375 57.328125 23.390625 
Q 57.328125 12.15625 50.6875 5.359375 
Q 44.046875 -1.421875 33.015625 -1.421875 
Q 20.359375 -1.421875 13.671875 8.265625 
Q 6.984375 17.96875 6.984375 36.375 
Q 6.984375 53.65625 15.1875 63.9375 
Q 23.390625 74.21875 37.203125 74.21875 
Q 40.921875 74.21875 44.703125 73.484375 
Q 48.484375 72.75 52.59375 71.296875 
z
" id="DejaVuSans-54"/>
      </defs>
      <g transform="translate(313.492088 156.490437)scale(0.1 -0.1)">
       <use xlink:href="#DejaVuSans-54"/>
      </g>
     </g>
    </g>
    <g id="xtick_5">
     <g id="line2d_9">
      <path clip-path="url(#p2a1c74a285)" d="M 401.741669 141.892 
L 401.741669 14.76 
" style="fill:none;stroke:#666666;stroke-linecap:square;stroke-width:0.8;"/>
     </g>
     <g id="line2d_10">
      <g>
       <use style="stroke:#000000;stroke-width:0.8;" x="401.741669" xlink:href="#mac6e191f90" y="141.892"/>
      </g>
     </g>
     <g id="text_5">
      <!-- 8 -->
      <defs>
       <path d="M 31.78125 34.625 
Q 24.75 34.625 20.71875 30.859375 
Q 16.703125 27.09375 16.703125 20.515625 
Q 16.703125 13.921875 20.71875 10.15625 
Q 24.75 6.390625 31.78125 6.390625 
Q 38.8125 6.390625 42.859375 10.171875 
Q 46.921875 13.96875 46.921875 20.515625 
Q 46.921875 27.09375 42.890625 30.859375 
Q 38.875 34.625 31.78125 34.625 
z
M 21.921875 38.8125 
Q 15.578125 40.375 12.03125 44.71875 
Q 8.5 49.078125 8.5 55.328125 
Q 8.5 64.0625 14.71875 69.140625 
Q 20.953125 74.21875 31.78125 74.21875 
Q 42.671875 74.21875 48.875 69.140625 
Q 55.078125 64.0625 55.078125 55.328125 
Q 55.078125 49.078125 51.53125 44.71875 
Q 48 40.375 41.703125 38.8125 
Q 48.828125 37.15625 52.796875 32.3125 
Q 56.78125 27.484375 56.78125 20.515625 
Q 56.78125 9.90625 50.3125 4.234375 
Q 43.84375 -1.421875 31.78125 -1.421875 
Q 19.734375 -1.421875 13.25 4.234375 
Q 6.78125 9.90625 6.78125 20.515625 
Q 6.78125 27.484375 10.78125 32.3125 
Q 14.796875 37.15625 21.921875 38.8125 
z
M 18.3125 54.390625 
Q 18.3125 48.734375 21.84375 45.5625 
Q 25.390625 42.390625 31.78125 42.390625 
Q 38.140625 42.390625 41.71875 45.5625 
Q 45.3125 48.734375 45.3125 54.390625 
Q 45.3125 60.0625 41.71875 63.234375 
Q 38.140625 66.40625 31.78125 66.40625 
Q 25.390625 66.40625 21.84375 63.234375 
Q 18.3125 60.0625 18.3125 54.390625 
z
" id="DejaVuSans-56"/>
      </defs>
      <g transform="translate(398.560419 156.490437)scale(0.1 -0.1)">
       <use xlink:href="#DejaVuSans-56"/>
      </g>
     </g>
    </g>
    <g id="xtick_6">
     <g id="line2d_11">
      <path clip-path="url(#p2a1c74a285)" d="M 486.81 141.892 
L 486.81 14.76 
" style="fill:none;stroke:#666666;stroke-linecap:square;stroke-width:0.8;"/>
     </g>
     <g id="line2d_12">
      <g>
       <use style="stroke:#000000;stroke-width:0.8;" x="486.81" xlink:href="#mac6e191f90" y="141.892"/>
      </g>
     </g>
     <g id="text_6">
      <!-- 10 -->
      <defs>
       <path d="M 12.40625 8.296875 
L 28.515625 8.296875 
L 28.515625 63.921875 
L 10.984375 60.40625 
L 10.984375 69.390625 
L 28.421875 72.90625 
L 38.28125 72.90625 
L 38.28125 8.296875 
L 54.390625 8.296875 
L 54.390625 0 
L 12.40625 0 
z
" id="DejaVuSans-49"/>
      </defs>
      <g transform="translate(480.4475 156.490437)scale(0.1 -0.1)">
       <use xlink:href="#DejaVuSans-49"/>
       <use x="63.623047" xlink:href="#DejaVuSans-48"/>
      </g>
     </g>
    </g>
    <g id="xtick_7">
     <g id="line2d_13">
      <path clip-path="url(#p2a1c74a285)" d="M 82.735429 141.892 
L 82.735429 14.76 
" style="fill:none;stroke:#bbbbbb;stroke-linecap:square;stroke-width:0.8;"/>
     </g>
     <g id="line2d_14">
      <defs>
       <path d="M 0 0 
L 0 2 
" id="mf6a63f0981" style="stroke:#000000;stroke-width:0.6;"/>
      </defs>
      <g>
       <use style="stroke:#000000;stroke-width:0.6;" x="82.735429" xlink:href="#mf6a63f0981" y="141.892"/>
      </g>
     </g>
    </g>
    <g id="xtick_8">
     <g id="line2d_15">
      <path clip-path="url(#p2a1c74a285)" d="M 104.002512 141.892 
L 104.002512 14.76 
" style="fill:none;stroke:#bbbbbb;stroke-linecap:square;stroke-width:0.8;"/>
     </g>
     <g id="line2d_16">
      <g>
       <use style="stroke:#000000;stroke-width:0.6;" x="104.002512" xlink:href="#mf6a63f0981" y="141.892"/>
      </g>
     </g>
    </g>
    <g id="xtick_9">
     <g id="line2d_17">
      <path clip-path="url(#p2a1c74a285)" d="M 125.269594 141.892 
L 125.269594 14.76 
" style="fill:none;stroke:#bbbbbb;stroke-linecap:square;stroke-width:0.8;"/>
     </g>
     <g id="line2d_18">
      <g>
       <use style="stroke:#000000;stroke-width:0.6;" x="125.269594" xlink:href="#mf6a63f0981" y="141.892"/>
      </g>
     </g>
    </g>
    <g id="xtick_10">
     <g id="line2d_19">
      <path clip-path="url(#p2a1c74a285)" d="M 167.80376 141.892 
L 167.80376 14.76 
" style="fill:none;stroke:#bbbbbb;stroke-linecap:square;stroke-width:0.8;"/>
     </g>
     <g id="line2d_20">
      <g>
       <use style="stroke:#000000;stroke-width:0.6;" x="167.80376" xlink:href="#mf6a63f0981" y="141.892"/>
      </g>
     </g>
    </g>
    <g id="xtick_11">
     <g id="line2d_21">
      <path clip-path="url(#p2a1c74a285)" d="M 189.070842 141.892 
L 189.070842 14.76 
" style="fill:none;stroke:#bbbbbb;stroke-linecap:square;stroke-width:0.8;"/>
     </g>
     <g id="line2d_22">
      <g>
       <use style="stroke:#000000;stroke-width:0.6;" x="189.070842" xlink:href="#mf6a63f0981" y="141.892"/>
      </g>
     </g>
    </g>
    <g id="xtick_12">
     <g id="line2d_23">
      <path clip-path="url(#p2a1c74a285)" d="M 210.337925 141.892 
L 210.337925 14.76 
" style="fill:none;stroke:#bbbbbb;stroke-linecap:square;stroke-width:0.8;"/>
     </g>
     <g id="line2d_24">
      <g>
       <use style="stroke:#000000;stroke-width:0.6;" x="210.337925" xlink:href="#mf6a63f0981" y="141.892"/>
      </g>
     </g>
    </g>
    <g id="xtick_13">
     <g id="line2d_25">
      <path clip-path="url(#p2a1c74a285)" d="M 252.87209 141.892 
L 252.87209 14.76 
" style="fill:none;stroke:#bbbbbb;stroke-linecap:square;stroke-width:0.8;"/>
     </g>
     <g id="line2d_26">
      <g>
       <use style="stroke:#000000;stroke-width:0.6;" x="252.87209" xlink:href="#mf6a63f0981" y="141.892"/>
      </g>
     </g>
    </g>
    <g id="xtick_14">
     <g id="line2d_27">
      <path clip-path="url(#p2a1c74a285)" d="M 274.139173 141.892 
L 274.139173 14.76 
" style="fill:none;stroke:#bbbbbb;stroke-linecap:square;stroke-width:0.8;"/>
     </g>
     <g id="line2d_28">
      <g>
       <use style="stroke:#000000;stroke-width:0.6;" x="274.139173" xlink:href="#mf6a63f0981" y="141.892"/>
      </g>
     </g>
    </g>
    <g id="xtick_15">
     <g id="line2d_29">
      <path clip-path="url(#p2a1c74a285)" d="M 295.406256 141.892 
L 295.406256 14.76 
" style="fill:none;stroke:#bbbbbb;stroke-linecap:square;stroke-width:0.8;"/>
     </g>
     <g id="line2d_30">
      <g>
       <use style="stroke:#000000;stroke-width:0.6;" x="295.406256" xlink:href="#mf6a63f0981" y="141.892"/>
      </g>
     </g>
    </g>
    <g id="xtick_16">
     <g id="line2d_31">
      <path clip-path="url(#p2a1c74a285)" d="M 337.940421 141.892 
L 337.940421 14.76 
" style="fill:none;stroke:#bbbbbb;stroke-linecap:square;stroke-width:0.8;"/>
     </g>
     <g id="line2d_32">
      <g>
       <use style="stroke:#000000;stroke-width:0.6;" x="337.940421" xlink:href="#mf6a63f0981" y="141.892"/>
      </g>
     </g>
    </g>
    <g id="xtick_17">
     <g id="line2d_33">
      <path clip-path="url(#p2a1c74a285)" d="M 359.207504 141.892 
L 359.207504 14.76 
" style="fill:none;stroke:#bbbbbb;stroke-linecap:square;stroke-width:0.8;"/>
     </g>
     <g id="line2d_34">
      <g>
       <use style="stroke:#000000;stroke-width:0.6;" x="359.207504" xlink:href="#mf6a63f0981" y="141.892"/>
      </g>
     </g>
    </g>
    <g id="xtick_18">
     <g id="line2d_35">
      <path clip-path="url(#p2a1c74a285)" d="M 380.474587 141.892 
L 380.474587 14.76 
" style="fill:none;stroke:#bbbbbb;stroke-linecap:square;stroke-width:0.8;"/>
     </g>
     <g id="line2d_36">
      <g>
       <use style="stroke:#000000;stroke-width:0.6;" x="380.474587" xlink:href="#mf6a63f0981" y="141.892"/>
      </g>
     </g>
    </g>
    <g id="xtick_19">
     <g id="line2d_37">
      <path clip-path="url(#p2a1c74a285)" d="M 423.008752 141.892 
L 423.008752 14.76 
" style="fill:none;stroke:#bbbbbb;stroke-linecap:square;stroke-width:0.8;"/>
     </g>
     <g id="line2d_38">
      <g>
       <use style="stroke:#000000;stroke-width:0.6;" x="423.008752" xlink:href="#mf6a63f0981" y="141.892"/>
      </g>
     </g>
    </g>
    <g id="xtick_20">
     <g id="line2d_39">
      <path clip-path="url(#p2a1c74a285)" d="M 444.275835 141.892 
L 444.275835 14.76 
" style="fill:none;stroke:#bbbbbb;stroke-linecap:square;stroke-width:0.8;"/>
     </g>
     <g id="line2d_40">
      <g>
       <use style="stroke:#000000;stroke-width:0.6;" x="444.275835" xlink:href="#mf6a63f0981" y="141.892"/>
      </g>
     </g>
    </g>
    <g id="xtick_21">
     <g id="line2d_41">
      <path clip-path="url(#p2a1c74a285)" d="M 465.542917 141.892 
L 465.542917 14.76 
" style="fill:none;stroke:#bbbbbb;stroke-linecap:square;stroke-width:0.8;"/>
     </g>
     <g id="line2d_42">
      <g>
       <use style="stroke:#000000;stroke-width:0.6;" x="465.542917" xlink:href="#mf6a63f0981" y="141.892"/>
      </g>
     </g>
    </g>
    <g id="text_7">
     <!-- $t$ in ms -->
     <defs>
      <path d="M 42.28125 54.6875 
L 40.921875 47.703125 
L 23 47.703125 
L 17.1875 18.015625 
Q 16.890625 16.359375 16.75 15.234375 
Q 16.609375 14.109375 16.609375 13.484375 
Q 16.609375 10.359375 18.484375 8.9375 
Q 20.359375 7.515625 24.515625 7.515625 
L 33.59375 7.515625 
L 32.078125 0 
L 23.484375 0 
Q 15.484375 0 11.546875 3.125 
Q 7.625 6.25 7.625 12.59375 
Q 7.625 13.71875 7.765625 15.0625 
Q 7.90625 16.40625 8.203125 18.015625 
L 14.015625 47.703125 
L 6.390625 47.703125 
L 7.8125 54.6875 
L 15.28125 54.6875 
L 18.3125 70.21875 
L 27.296875 70.21875 
L 24.3125 54.6875 
z
" id="DejaVuSans-Oblique-116"/>
      <path id="DejaVuSans-32"/>
      <path d="M 9.421875 54.6875 
L 18.40625 54.6875 
L 18.40625 0 
L 9.421875 0 
z
M 9.421875 75.984375 
L 18.40625 75.984375 
L 18.40625 64.59375 
L 9.421875 64.59375 
z
" id="DejaVuSans-105"/>
      <path d="M 54.890625 33.015625 
L 54.890625 0 
L 45.90625 0 
L 45.90625 32.71875 
Q 45.90625 40.484375 42.875 44.328125 
Q 39.84375 48.1875 33.796875 48.1875 
Q 26.515625 48.1875 22.3125 43.546875 
Q 18.109375 38.921875 18.109375 30.90625 
L 18.109375 0 
L 9.078125 0 
L 9.078125 54.6875 
L 18.109375 54.6875 
L 18.109375 46.1875 
Q 21.34375 51.125 25.703125 53.5625 
Q 30.078125 56 35.796875 56 
Q 45.21875 56 50.046875 50.171875 
Q 54.890625 44.34375 54.890625 33.015625 
z
" id="DejaVuSans-110"/>
      <path d="M 52 44.1875 
Q 55.375 50.25 60.0625 53.125 
Q 64.75 56 71.09375 56 
Q 79.640625 56 84.28125 50.015625 
Q 88.921875 44.046875 88.921875 33.015625 
L 88.921875 0 
L 79.890625 0 
L 79.890625 32.71875 
Q 79.890625 40.578125 77.09375 44.375 
Q 74.3125 48.1875 68.609375 48.1875 
Q 61.625 48.1875 57.5625 43.546875 
Q 53.515625 38.921875 53.515625 30.90625 
L 53.515625 0 
L 44.484375 0 
L 44.484375 32.71875 
Q 44.484375 40.625 41.703125 44.40625 
Q 38.921875 48.1875 33.109375 48.1875 
Q 26.21875 48.1875 22.15625 43.53125 
Q 18.109375 38.875 18.109375 30.90625 
L 18.109375 0 
L 9.078125 0 
L 9.078125 54.6875 
L 18.109375 54.6875 
L 18.109375 46.1875 
Q 21.1875 51.21875 25.484375 53.609375 
Q 29.78125 56 35.6875 56 
Q 41.65625 56 45.828125 52.96875 
Q 50 49.953125 52 44.1875 
z
" id="DejaVuSans-109"/>
      <path d="M 44.28125 53.078125 
L 44.28125 44.578125 
Q 40.484375 46.53125 36.375 47.5 
Q 32.28125 48.484375 27.875 48.484375 
Q 21.1875 48.484375 17.84375 46.4375 
Q 14.5 44.390625 14.5 40.28125 
Q 14.5 37.15625 16.890625 35.375 
Q 19.28125 33.59375 26.515625 31.984375 
L 29.59375 31.296875 
Q 39.15625 29.25 43.1875 25.515625 
Q 47.21875 21.78125 47.21875 15.09375 
Q 47.21875 7.46875 41.1875 3.015625 
Q 35.15625 -1.421875 24.609375 -1.421875 
Q 20.21875 -1.421875 15.453125 -0.5625 
Q 10.6875 0.296875 5.421875 2 
L 5.421875 11.28125 
Q 10.40625 8.6875 15.234375 7.390625 
Q 20.0625 6.109375 24.8125 6.109375 
Q 31.15625 6.109375 34.5625 8.28125 
Q 37.984375 10.453125 37.984375 14.40625 
Q 37.984375 18.0625 35.515625 20.015625 
Q 33.0625 21.96875 24.703125 23.78125 
L 21.578125 24.515625 
Q 13.234375 26.265625 9.515625 29.90625 
Q 5.8125 33.546875 5.8125 39.890625 
Q 5.8125 47.609375 11.28125 51.796875 
Q 16.75 56 26.8125 56 
Q 31.78125 56 36.171875 55.265625 
Q 40.578125 54.546875 44.28125 53.078125 
z
" id="DejaVuSans-115"/>
     </defs>
     <g transform="translate(256.939173 170.168562)scale(0.1 -0.1)">
      <use transform="translate(0 0.015625)" xlink:href="#DejaVuSans-Oblique-116"/>
      <use transform="translate(39.208984 0.015625)" xlink:href="#DejaVuSans-32"/>
      <use transform="translate(70.996094 0.015625)" xlink:href="#DejaVuSans-105"/>
      <use transform="translate(98.779297 0.015625)" xlink:href="#DejaVuSans-110"/>
      <use transform="translate(162.158203 0.015625)" xlink:href="#DejaVuSans-32"/>
      <use transform="translate(193.945312 0.015625)" xlink:href="#DejaVuSans-109"/>
      <use transform="translate(291.357422 0.015625)" xlink:href="#DejaVuSans-115"/>
     </g>
    </g>
   </g>
   <g id="matplotlib.axis_2">
    <g id="ytick_1">
     <g id="line2d_43">
      <path clip-path="url(#p2a1c74a285)" d="M 61.468346 141.892 
L 486.81 141.892 
" style="fill:none;stroke:#666666;stroke-linecap:square;stroke-width:0.8;"/>
     </g>
     <g id="line2d_44">
      <defs>
       <path d="M 0 0 
L -3.5 0 
" id="m8a038eef13" style="stroke:#000000;stroke-width:0.8;"/>
      </defs>
      <g>
       <use style="stroke:#000000;stroke-width:0.8;" x="61.468346" xlink:href="#m8a038eef13" y="141.892"/>
      </g>
     </g>
     <g id="text_8">
      <!-- −1.0 -->
      <defs>
       <path d="M 10.59375 35.5 
L 73.1875 35.5 
L 73.1875 27.203125 
L 10.59375 27.203125 
z
" id="DejaVuSans-8722"/>
       <path d="M 10.6875 12.40625 
L 21 12.40625 
L 21 0 
L 10.6875 0 
z
" id="DejaVuSans-46"/>
      </defs>
      <g transform="translate(30.185534 145.691219)scale(0.1 -0.1)">
       <use xlink:href="#DejaVuSans-8722"/>
       <use x="83.789062" xlink:href="#DejaVuSans-49"/>
       <use x="147.412109" xlink:href="#DejaVuSans-46"/>
       <use x="179.199219" xlink:href="#DejaVuSans-48"/>
      </g>
     </g>
    </g>
    <g id="ytick_2">
     <g id="line2d_45">
      <path clip-path="url(#p2a1c74a285)" d="M 61.468346 110.109 
L 486.81 110.109 
" style="fill:none;stroke:#666666;stroke-linecap:square;stroke-width:0.8;"/>
     </g>
     <g id="line2d_46">
      <g>
       <use style="stroke:#000000;stroke-width:0.8;" x="61.468346" xlink:href="#m8a038eef13" y="110.109"/>
      </g>
     </g>
     <g id="text_9">
      <!-- −0.5 -->
      <defs>
       <path d="M 10.796875 72.90625 
L 49.515625 72.90625 
L 49.515625 64.59375 
L 19.828125 64.59375 
L 19.828125 46.734375 
Q 21.96875 47.46875 24.109375 47.828125 
Q 26.265625 48.1875 28.421875 48.1875 
Q 40.625 48.1875 47.75 41.5 
Q 54.890625 34.8125 54.890625 23.390625 
Q 54.890625 11.625 47.5625 5.09375 
Q 40.234375 -1.421875 26.90625 -1.421875 
Q 22.3125 -1.421875 17.546875 -0.640625 
Q 12.796875 0.140625 7.71875 1.703125 
L 7.71875 11.625 
Q 12.109375 9.234375 16.796875 8.0625 
Q 21.484375 6.890625 26.703125 6.890625 
Q 35.15625 6.890625 40.078125 11.328125 
Q 45.015625 15.765625 45.015625 23.390625 
Q 45.015625 31 40.078125 35.4375 
Q 35.15625 39.890625 26.703125 39.890625 
Q 22.75 39.890625 18.8125 39.015625 
Q 14.890625 38.140625 10.796875 36.28125 
z
" id="DejaVuSans-53"/>
      </defs>
      <g transform="translate(30.185534 113.908219)scale(0.1 -0.1)">
       <use xlink:href="#DejaVuSans-8722"/>
       <use x="83.789062" xlink:href="#DejaVuSans-48"/>
       <use x="147.412109" xlink:href="#DejaVuSans-46"/>
       <use x="179.199219" xlink:href="#DejaVuSans-53"/>
      </g>
     </g>
    </g>
    <g id="ytick_3">
     <g id="line2d_47">
      <path clip-path="url(#p2a1c74a285)" d="M 61.468346 78.326 
L 486.81 78.326 
" style="fill:none;stroke:#666666;stroke-linecap:square;stroke-width:0.8;"/>
     </g>
     <g id="line2d_48">
      <g>
       <use style="stroke:#000000;stroke-width:0.8;" x="61.468346" xlink:href="#m8a038eef13" y="78.326"/>
      </g>
     </g>
     <g id="text_10">
      <!-- 0.0 -->
      <g transform="translate(38.565221 82.125219)scale(0.1 -0.1)">
       <use xlink:href="#DejaVuSans-48"/>
       <use x="63.623047" xlink:href="#DejaVuSans-46"/>
       <use x="95.410156" xlink:href="#DejaVuSans-48"/>
      </g>
     </g>
    </g>
    <g id="ytick_4">
     <g id="line2d_49">
      <path clip-path="url(#p2a1c74a285)" d="M 61.468346 46.543 
L 486.81 46.543 
" style="fill:none;stroke:#666666;stroke-linecap:square;stroke-width:0.8;"/>
     </g>
     <g id="line2d_50">
      <g>
       <use style="stroke:#000000;stroke-width:0.8;" x="61.468346" xlink:href="#m8a038eef13" y="46.543"/>
      </g>
     </g>
     <g id="text_11">
      <!-- 0.5 -->
      <g transform="translate(38.565221 50.342219)scale(0.1 -0.1)">
       <use xlink:href="#DejaVuSans-48"/>
       <use x="63.623047" xlink:href="#DejaVuSans-46"/>
       <use x="95.410156" xlink:href="#DejaVuSans-53"/>
      </g>
     </g>
    </g>
    <g id="ytick_5">
     <g id="line2d_51">
      <path clip-path="url(#p2a1c74a285)" d="M 61.468346 14.76 
L 486.81 14.76 
" style="fill:none;stroke:#666666;stroke-linecap:square;stroke-width:0.8;"/>
     </g>
     <g id="line2d_52">
      <g>
       <use style="stroke:#000000;stroke-width:0.8;" x="61.468346" xlink:href="#m8a038eef13" y="14.76"/>
      </g>
     </g>
     <g id="text_12">
      <!-- 1.0 -->
      <g transform="translate(38.565221 18.559219)scale(0.1 -0.1)">
       <use xlink:href="#DejaVuSans-49"/>
       <use x="63.623047" xlink:href="#DejaVuSans-46"/>
       <use x="95.410156" xlink:href="#DejaVuSans-48"/>
      </g>
     </g>
    </g>
    <g id="ytick_6">
     <g id="line2d_53">
      <path clip-path="url(#p2a1c74a285)" d="M 61.468346 135.5354 
L 486.81 135.5354 
" style="fill:none;stroke:#bbbbbb;stroke-linecap:square;stroke-width:0.8;"/>
     </g>
     <g id="line2d_54">
      <defs>
       <path d="M 0 0 
L -2 0 
" id="m978e7e24e2" style="stroke:#000000;stroke-width:0.6;"/>
      </defs>
      <g>
       <use style="stroke:#000000;stroke-width:0.6;" x="61.468346" xlink:href="#m978e7e24e2" y="135.5354"/>
      </g>
     </g>
    </g>
    <g id="ytick_7">
     <g id="line2d_55">
      <path clip-path="url(#p2a1c74a285)" d="M 61.468346 129.1788 
L 486.81 129.1788 
" style="fill:none;stroke:#bbbbbb;stroke-linecap:square;stroke-width:0.8;"/>
     </g>
     <g id="line2d_56">
      <g>
       <use style="stroke:#000000;stroke-width:0.6;" x="61.468346" xlink:href="#m978e7e24e2" y="129.1788"/>
      </g>
     </g>
    </g>
    <g id="ytick_8">
     <g id="line2d_57">
      <path clip-path="url(#p2a1c74a285)" d="M 61.468346 122.8222 
L 486.81 122.8222 
" style="fill:none;stroke:#bbbbbb;stroke-linecap:square;stroke-width:0.8;"/>
     </g>
     <g id="line2d_58">
      <g>
       <use style="stroke:#000000;stroke-width:0.6;" x="61.468346" xlink:href="#m978e7e24e2" y="122.8222"/>
      </g>
     </g>
    </g>
    <g id="ytick_9">
     <g id="line2d_59">
      <path clip-path="url(#p2a1c74a285)" d="M 61.468346 116.4656 
L 486.81 116.4656 
" style="fill:none;stroke:#bbbbbb;stroke-linecap:square;stroke-width:0.8;"/>
     </g>
     <g id="line2d_60">
      <g>
       <use style="stroke:#000000;stroke-width:0.6;" x="61.468346" xlink:href="#m978e7e24e2" y="116.4656"/>
      </g>
     </g>
    </g>
    <g id="ytick_10">
     <g id="line2d_61">
      <path clip-path="url(#p2a1c74a285)" d="M 61.468346 103.7524 
L 486.81 103.7524 
" style="fill:none;stroke:#bbbbbb;stroke-linecap:square;stroke-width:0.8;"/>
     </g>
     <g id="line2d_62">
      <g>
       <use style="stroke:#000000;stroke-width:0.6;" x="61.468346" xlink:href="#m978e7e24e2" y="103.7524"/>
      </g>
     </g>
    </g>
    <g id="ytick_11">
     <g id="line2d_63">
      <path clip-path="url(#p2a1c74a285)" d="M 61.468346 97.3958 
L 486.81 97.3958 
" style="fill:none;stroke:#bbbbbb;stroke-linecap:square;stroke-width:0.8;"/>
     </g>
     <g id="line2d_64">
      <g>
       <use style="stroke:#000000;stroke-width:0.6;" x="61.468346" xlink:href="#m978e7e24e2" y="97.3958"/>
      </g>
     </g>
    </g>
    <g id="ytick_12">
     <g id="line2d_65">
      <path clip-path="url(#p2a1c74a285)" d="M 61.468346 91.0392 
L 486.81 91.0392 
" style="fill:none;stroke:#bbbbbb;stroke-linecap:square;stroke-width:0.8;"/>
     </g>
     <g id="line2d_66">
      <g>
       <use style="stroke:#000000;stroke-width:0.6;" x="61.468346" xlink:href="#m978e7e24e2" y="91.0392"/>
      </g>
     </g>
    </g>
    <g id="ytick_13">
     <g id="line2d_67">
      <path clip-path="url(#p2a1c74a285)" d="M 61.468346 84.6826 
L 486.81 84.6826 
" style="fill:none;stroke:#bbbbbb;stroke-linecap:square;stroke-width:0.8;"/>
     </g>
     <g id="line2d_68">
      <g>
       <use style="stroke:#000000;stroke-width:0.6;" x="61.468346" xlink:href="#m978e7e24e2" y="84.6826"/>
      </g>
     </g>
    </g>
    <g id="ytick_14">
     <g id="line2d_69">
      <path clip-path="url(#p2a1c74a285)" d="M 61.468346 71.9694 
L 486.81 71.9694 
" style="fill:none;stroke:#bbbbbb;stroke-linecap:square;stroke-width:0.8;"/>
     </g>
     <g id="line2d_70">
      <g>
       <use style="stroke:#000000;stroke-width:0.6;" x="61.468346" xlink:href="#m978e7e24e2" y="71.9694"/>
      </g>
     </g>
    </g>
    <g id="ytick_15">
     <g id="line2d_71">
      <path clip-path="url(#p2a1c74a285)" d="M 61.468346 65.6128 
L 486.81 65.6128 
" style="fill:none;stroke:#bbbbbb;stroke-linecap:square;stroke-width:0.8;"/>
     </g>
     <g id="line2d_72">
      <g>
       <use style="stroke:#000000;stroke-width:0.6;" x="61.468346" xlink:href="#m978e7e24e2" y="65.6128"/>
      </g>
     </g>
    </g>
    <g id="ytick_16">
     <g id="line2d_73">
      <path clip-path="url(#p2a1c74a285)" d="M 61.468346 59.2562 
L 486.81 59.2562 
" style="fill:none;stroke:#bbbbbb;stroke-linecap:square;stroke-width:0.8;"/>
     </g>
     <g id="line2d_74">
      <g>
       <use style="stroke:#000000;stroke-width:0.6;" x="61.468346" xlink:href="#m978e7e24e2" y="59.2562"/>
      </g>
     </g>
    </g>
    <g id="ytick_17">
     <g id="line2d_75">
      <path clip-path="url(#p2a1c74a285)" d="M 61.468346 52.8996 
L 486.81 52.8996 
" style="fill:none;stroke:#bbbbbb;stroke-linecap:square;stroke-width:0.8;"/>
     </g>
     <g id="line2d_76">
      <g>
       <use style="stroke:#000000;stroke-width:0.6;" x="61.468346" xlink:href="#m978e7e24e2" y="52.8996"/>
      </g>
     </g>
    </g>
    <g id="ytick_18">
     <g id="line2d_77">
      <path clip-path="url(#p2a1c74a285)" d="M 61.468346 40.1864 
L 486.81 40.1864 
" style="fill:none;stroke:#bbbbbb;stroke-linecap:square;stroke-width:0.8;"/>
     </g>
     <g id="line2d_78">
      <g>
       <use style="stroke:#000000;stroke-width:0.6;" x="61.468346" xlink:href="#m978e7e24e2" y="40.1864"/>
      </g>
     </g>
    </g>
    <g id="ytick_19">
     <g id="line2d_79">
      <path clip-path="url(#p2a1c74a285)" d="M 61.468346 33.8298 
L 486.81 33.8298 
" style="fill:none;stroke:#bbbbbb;stroke-linecap:square;stroke-width:0.8;"/>
     </g>
     <g id="line2d_80">
      <g>
       <use style="stroke:#000000;stroke-width:0.6;" x="61.468346" xlink:href="#m978e7e24e2" y="33.8298"/>
      </g>
     </g>
    </g>
    <g id="ytick_20">
     <g id="line2d_81">
      <path clip-path="url(#p2a1c74a285)" d="M 61.468346 27.4732 
L 486.81 27.4732 
" style="fill:none;stroke:#bbbbbb;stroke-linecap:square;stroke-width:0.8;"/>
     </g>
     <g id="line2d_82">
      <g>
       <use style="stroke:#000000;stroke-width:0.6;" x="61.468346" xlink:href="#m978e7e24e2" y="27.4732"/>
      </g>
     </g>
    </g>
    <g id="ytick_21">
     <g id="line2d_83">
      <path clip-path="url(#p2a1c74a285)" d="M 61.468346 21.1166 
L 486.81 21.1166 
" style="fill:none;stroke:#bbbbbb;stroke-linecap:square;stroke-width:0.8;"/>
     </g>
     <g id="line2d_84">
      <g>
       <use style="stroke:#000000;stroke-width:0.6;" x="61.468346" xlink:href="#m978e7e24e2" y="21.1166"/>
      </g>
     </g>
    </g>
    <g id="text_13">
     <!-- $x(t)$ in $\sqrt{\mathrm{W}}$ -->
     <defs>
      <path d="M 60.015625 54.6875 
L 34.90625 27.875 
L 50.296875 0 
L 39.984375 0 
L 28.421875 21.6875 
L 8.296875 0 
L -2.59375 0 
L 24.3125 28.8125 
L 10.015625 54.6875 
L 20.3125 54.6875 
L 30.8125 34.90625 
L 49.125 54.6875 
z
" id="DejaVuSans-Oblique-120"/>
      <path d="M 31 75.875 
Q 24.46875 64.65625 21.28125 53.65625 
Q 18.109375 42.671875 18.109375 31.390625 
Q 18.109375 20.125 21.3125 9.0625 
Q 24.515625 -2 31 -13.1875 
L 23.1875 -13.1875 
Q 15.875 -1.703125 12.234375 9.375 
Q 8.59375 20.453125 8.59375 31.390625 
Q 8.59375 42.28125 12.203125 53.3125 
Q 15.828125 64.359375 23.1875 75.875 
z
" id="DejaVuSans-40"/>
      <path d="M 8.015625 75.875 
L 15.828125 75.875 
Q 23.140625 64.359375 26.78125 53.3125 
Q 30.421875 42.28125 30.421875 31.390625 
Q 30.421875 20.453125 26.78125 9.375 
Q 23.140625 -1.703125 15.828125 -13.1875 
L 8.015625 -13.1875 
Q 14.5 -2 17.703125 9.0625 
Q 20.90625 20.125 20.90625 31.390625 
Q 20.90625 42.671875 17.703125 53.65625 
Q 14.5 64.65625 8.015625 75.875 
z
" id="DejaVuSans-41"/>
      <path d="M 108.90625 155.203125 
L 52.703125 -29.5 
L 48.5 -29.5 
L 25.40625 45.59375 
Q 24.296875 49.203125 22.890625 50.796875 
Q 21.5 52.40625 19.203125 52.40625 
Q 15.796875 52.40625 12.40625 49.703125 
L 11.203125 51.703125 
L 27.59375 64.296875 
L 30.09375 64.296875 
L 52.796875 -9.40625 
L 53.203125 -9.40625 
L 103.203125 155.203125 
z
" id="STIXSizeOneSym-Regular-8730"/>
      <path d="M 3.328125 72.90625 
L 13.28125 72.90625 
L 28.609375 11.28125 
L 43.890625 72.90625 
L 54.984375 72.90625 
L 70.3125 11.28125 
L 85.59375 72.90625 
L 95.609375 72.90625 
L 77.296875 0 
L 64.890625 0 
L 49.515625 63.28125 
L 33.984375 0 
L 21.578125 0 
z
" id="DejaVuSans-87"/>
     </defs>
     <g transform="translate(24.105846 104.076)rotate(-90)scale(0.1 -0.1)">
      <use transform="translate(0 0.84375)" xlink:href="#DejaVuSans-Oblique-120"/>
      <use transform="translate(59.179688 0.84375)" xlink:href="#DejaVuSans-40"/>
      <use transform="translate(98.193359 0.84375)" xlink:href="#DejaVuSans-Oblique-116"/>
      <use transform="translate(137.402344 0.84375)" xlink:href="#DejaVuSans-41"/>
      <use transform="translate(176.416016 0.84375)" xlink:href="#DejaVuSans-32"/>
      <use transform="translate(208.203125 0.84375)" xlink:href="#DejaVuSans-105"/>
      <use transform="translate(235.986328 0.84375)" xlink:href="#DejaVuSans-110"/>
      <use transform="translate(299.365234 0.84375)" xlink:href="#DejaVuSans-32"/>
      <use transform="translate(331.152344 17.484375)scale(0.563912)" xlink:href="#STIXSizeOneSym-Regular-8730"/>
      <use transform="translate(403.257217 0.84375)" xlink:href="#DejaVuSans-87"/>
      <path d="M 390.757217 98.5 
L 390.757217 104.75 
L 514.634171 104.75 
L 514.634171 98.5 
L 390.757217 98.5 
z
"/>
     </g>
    </g>
   </g>
   <g id="line2d_85">
    <path clip-path="url(#p2a1c74a285)" d="M 60.501661 62.095316 
L 62.435032 69.133057 
L 63.401717 71.069401 
L 64.368403 70.493511 
L 65.335088 67.143322 
L 66.301774 61.631805 
L 67.26846 55.360196 
L 68.235145 50.21722 
L 69.201831 48.112199 
L 70.168516 50.472226 
L 71.135202 57.810321 
L 72.101887 69.495332 
L 74.035259 98.148191 
L 75.001944 109.7589 
L 75.96863 116.145608 
L 76.935315 115.756024 
L 77.902001 108.349399 
L 78.868687 95.113532 
L 80.802058 61.538181 
L 81.768743 47.606827 
L 82.735429 39.332135 
L 83.702114 38.246919 
L 84.6688 44.440794 
L 85.635486 56.569437 
L 88.535542 101.622994 
L 89.502228 110.211969 
L 90.468913 112.753115 
L 91.435599 109.343577 
L 92.402285 101.252521 
L 94.335656 79.633021 
L 95.302341 70.613204 
L 96.269027 64.944995 
L 97.235712 63.139376 
L 98.202398 64.751016 
L 99.169084 68.587042 
L 100.135769 73.069138 
L 101.102455 76.661745 
L 102.06914 78.250799 
L 103.035826 77.395531 
L 104.002512 74.394518 
L 105.935883 65.961709 
L 106.902568 63.053709 
L 107.869254 62.371746 
L 108.835939 64.279153 
L 109.802625 68.47513 
L 111.735996 79.772479 
L 112.702682 84.231898 
L 113.669367 86.308924 
L 114.636053 85.353762 
L 115.602738 81.352404 
L 116.569424 74.928724 
L 118.502795 59.624565 
L 119.469481 53.536888 
L 120.436166 50.04679 
L 121.402852 49.739054 
L 122.369537 52.583602 
L 123.336223 57.961512 
L 125.269594 71.772705 
L 126.23628 77.610789 
L 127.202965 81.297452 
L 128.169651 82.281207 
L 129.136337 80.56236 
L 130.103022 76.678922 
L 132.036393 66.451915 
L 133.003079 62.433784 
L 133.969764 60.434168 
L 134.93645 60.927016 
L 135.903136 63.859155 
L 136.869821 68.658074 
L 138.803192 79.690311 
L 139.769878 83.514133 
L 140.736563 84.855109 
L 141.703249 83.194491 
L 142.669935 78.560773 
L 143.63662 71.535342 
L 145.569991 54.740792 
L 146.536677 47.634465 
L 147.503362 42.984024 
L 148.470048 41.528219 
L 149.436734 43.473462 
L 150.403419 48.473469 
L 151.370105 55.702287 
L 153.303476 72.210841 
L 154.270162 79.148408 
L 155.236847 84.038173 
L 156.203533 86.501395 
L 157.170218 86.607567 
L 158.136904 84.805614 
L 159.103589 81.79392 
L 161.036961 75.167306 
L 162.003646 72.714667 
L 162.970332 71.182923 
L 163.937017 70.48539 
L 164.903703 70.331996 
L 165.870388 70.341338 
L 166.837074 70.171516 
L 167.80376 69.623226 
L 168.770445 68.701246 
L 169.737131 67.611007 
L 170.703816 66.702208 
L 171.670502 66.363423 
L 172.637187 66.906456 
L 173.603873 68.459549 
L 174.570559 70.910606 
L 176.50393 76.912225 
L 177.470615 79.333784 
L 178.437301 80.650523 
L 179.403987 80.550673 
L 180.370672 79.022524 
L 181.337358 76.377263 
L 183.270729 70.238154 
L 184.237414 68.215629 
L 185.2041 67.682671 
L 186.170786 68.861225 
L 187.137471 71.577312 
L 189.070842 79.113663 
L 190.037528 82.16999 
L 191.004213 83.624707 
L 191.970899 82.975257 
L 192.937585 80.165855 
L 193.90427 75.628447 
L 195.837641 64.991607 
L 196.804327 61.06809 
L 197.771012 59.278714 
L 198.737698 60.022013 
L 199.704384 63.143814 
L 200.671069 67.969489 
L 202.60444 78.386043 
L 203.571126 81.757818 
L 204.537812 82.926719 
L 205.504497 81.821315 
L 206.471183 78.957865 
L 207.437868 75.320341 
L 208.404554 72.123649 
L 209.371239 70.506562 
L 210.337925 71.241597 
L 211.304611 74.521343 
L 212.271296 79.89083 
L 214.204667 92.511882 
L 215.171353 97.07189 
L 216.138038 98.992135 
L 217.104724 97.835042 
L 218.07141 93.871736 
L 220.971466 76.346253 
L 221.938152 73.27943 
L 222.904837 73.22338 
L 223.871523 76.21165 
L 224.838209 81.566215 
L 226.77158 94.252128 
L 227.738265 98.752419 
L 228.704951 100.619465 
L 229.671637 99.524105 
L 230.638322 95.80181 
L 233.538379 79.013214 
L 234.505064 75.286815 
L 235.47175 73.634444 
L 236.438436 74.006147 
L 237.405121 75.90766 
L 239.338492 81.279307 
L 240.305178 83.387965 
L 241.271863 84.641822 
L 242.238549 85.099223 
L 245.138606 84.96418 
L 248.038662 85.915408 
L 249.005348 85.472952 
L 249.972034 84.127327 
L 250.938719 81.886012 
L 252.87209 76.327715 
L 253.838776 74.339718 
L 254.805462 73.726688 
L 255.772147 74.762059 
L 256.738833 77.244546 
L 258.672204 83.476939 
L 259.638889 85.099085 
L 260.605575 84.499754 
L 261.572261 81.355115 
L 262.538946 76.037346 
L 264.472317 63.542389 
L 265.439003 59.475588 
L 266.405688 58.651578 
L 267.372374 61.59608 
L 268.33906 67.888703 
L 270.272431 84.42339 
L 271.239116 90.412333 
L 272.205802 92.258714 
L 273.172487 88.930373 
L 274.139173 80.565107 
L 275.105859 68.508593 
L 277.03923 42.961322 
L 278.005915 34.766087 
L 278.972601 32.224534 
L 279.939287 35.857647 
L 280.905972 44.81458 
L 283.806029 80.432487 
L 284.772714 86.562713 
L 285.7394 87.166812 
L 286.706086 82.487673 
L 287.672771 74.005071 
L 289.606142 55.163634 
L 290.572828 49.577343 
L 291.539513 48.595349 
L 292.506199 52.380155 
L 293.472885 59.972166 
L 295.406256 79.159496 
L 296.372941 86.786852 
L 297.339627 91.271609 
L 298.306312 92.312715 
L 299.272998 90.495035 
L 301.206369 83.37206 
L 302.173055 80.725361 
L 303.13974 79.758233 
L 304.106426 80.419989 
L 306.039797 83.454627 
L 307.006483 83.650958 
L 307.973168 81.858576 
L 308.939854 77.939127 
L 311.839911 61.11172 
L 312.806596 57.778681 
L 313.773282 57.083139 
L 314.739967 59.063655 
L 315.706653 63.089411 
L 317.640024 72.685189 
L 318.60671 75.926063 
L 319.573395 77.218202 
L 320.540081 76.658351 
L 322.473452 73.152427 
L 323.440137 72.395665 
L 324.406823 73.46991 
L 325.373509 76.592144 
L 326.340194 81.304691 
L 327.30688 86.585661 
L 328.273565 91.113691 
L 329.240251 93.645096 
L 330.206937 93.368649 
L 331.173622 90.155731 
L 332.140308 84.622101 
L 334.073679 71.79426 
L 335.040364 67.474768 
L 336.00705 66.027129 
L 336.973736 67.742664 
L 337.940421 72.148085 
L 339.873792 84.246431 
L 340.840478 89.056929 
L 341.807163 91.503179 
L 342.773849 91.124327 
L 343.740535 88.126745 
L 344.70722 83.275192 
L 346.640591 72.331253 
L 347.607277 68.152502 
L 348.573962 65.499497 
L 349.540648 64.294352 
L 350.507334 64.099696 
L 352.440705 64.451728 
L 353.40739 64.222729 
L 355.340762 63.303426 
L 356.307447 63.507544 
L 357.274133 64.795668 
L 358.240818 67.398537 
L 359.207504 71.19311 
L 361.140875 80.216831 
L 362.107561 83.966713 
L 363.074246 86.355648 
L 364.040932 87.117999 
L 365.007617 86.393817 
L 365.974303 84.684691 
L 366.940988 82.701505 
L 367.907674 81.159735 
L 368.87436 80.572991 
L 369.841045 81.112445 
L 370.807731 82.579118 
L 372.741102 86.19374 
L 373.707787 87.179842 
L 374.674473 87.135121 
L 375.641159 86.082881 
L 378.541215 80.791728 
L 379.507901 79.747509 
L 380.474587 79.273639 
L 381.441272 79.044002 
L 382.407958 78.531079 
L 383.374643 77.202624 
L 384.341329 74.742305 
L 385.308014 71.219915 
L 387.241386 63.414686 
L 388.208071 61.034131 
L 389.174757 60.884562 
L 390.141442 63.404027 
L 391.108128 68.391434 
L 393.041499 81.768239 
L 394.008185 87.162726 
L 394.97487 89.748434 
L 395.941556 88.687532 
L 396.908241 83.976546 
L 397.874927 76.505498 
L 399.808298 60.127205 
L 400.774984 55.087451 
L 401.741669 54.089772 
L 402.708355 57.555787 
L 403.67504 64.894741 
L 406.575097 93.34515 
L 407.541783 98.664051 
L 408.508468 99.956656 
L 409.475154 97.368874 
L 410.441839 91.897377 
L 412.375211 78.581135 
L 413.341896 73.70247 
L 414.308582 71.104596 
L 415.275267 70.659515 
L 416.241953 71.559642 
L 417.208638 72.620025 
L 418.175324 72.682083 
L 419.14201 71.010752 
L 420.108695 67.553631 
L 422.042066 58.637435 
L 423.008752 55.945023 
L 423.975437 56.211587 
L 424.942123 60.106209 
L 425.908809 67.427842 
L 428.808865 95.889521 
L 429.775551 101.098745 
L 430.742237 101.667261 
L 431.708922 97.347306 
L 432.675608 88.937706 
L 434.608979 67.044633 
L 435.575664 57.916768 
L 436.54235 52.443301 
L 437.509036 51.516211 
L 438.475721 55.050141 
L 439.442407 62.066033 
L 441.375778 79.919091 
L 442.342463 87.302142 
L 443.309149 92.000546 
L 444.275835 93.594489 
L 445.24252 92.344892 
L 446.209206 89.02697 
L 449.109262 76.360504 
L 450.075948 73.450507 
L 451.042634 71.414625 
L 452.009319 69.958352 
L 455.876062 65.057108 
L 456.842747 64.505541 
L 457.809433 64.908354 
L 458.776118 66.505583 
L 459.742804 69.261458 
L 462.642861 79.740909 
L 463.609546 81.677521 
L 464.576232 81.936265 
L 465.542917 80.451381 
L 466.509603 77.562293 
L 468.442974 70.423396 
L 469.40966 67.844576 
L 470.376345 66.817815 
L 471.343031 67.618447 
L 472.309716 70.140804 
L 473.276402 73.953675 
L 476.176459 86.865409 
L 477.143144 89.995335 
L 478.10983 92.259441 
L 479.076515 93.824786 
L 480.043201 94.957959 
L 481.976572 96.738473 
L 482.943258 97.393175 
L 483.909943 97.594245 
L 484.876629 96.980842 
L 485.843314 95.227283 
L 486.81 92.16202 
L 487.776686 87.865747 
L 487.776686 87.865747 
" style="fill:none;stroke:#114da1;stroke-linecap:square;stroke-width:1.5;"/>
   </g>
   <g id="patch_3">
    <path d="M 61.468346 141.892 
L 61.468346 14.76 
" style="fill:none;stroke:#000000;stroke-linecap:square;stroke-linejoin:miter;stroke-width:0.8;"/>
   </g>
   <g id="patch_4">
    <path d="M 486.81 141.892 
L 486.81 14.76 
" style="fill:none;stroke:#000000;stroke-linecap:square;stroke-linejoin:miter;stroke-width:0.8;"/>
   </g>
   <g id="patch_5">
    <path d="M 61.468346 141.892 
L 486.81 141.892 
" style="fill:none;stroke:#000000;stroke-linecap:square;stroke-linejoin:miter;stroke-width:0.8;"/>
   </g>
   <g id="patch_6">
    <path d="M 61.468346 14.76 
L 486.81 14.76 
" style="fill:none;stroke:#000000;stroke-linecap:square;stroke-linejoin:miter;stroke-width:0.8;"/>
   </g>
  </g>
  <g id="axes_2">
   <g id="patch_7">
    <path d="M 61.468346 317.32 
L 486.81 317.32 
L 486.81 190.188 
L 61.468346 190.188 
z
" style="fill:#ffffff;"/>
   </g>
   <g id="matplotlib.axis_3">
    <g id="xtick_22">
     <g id="line2d_86">
      <path clip-path="url(#pd1102cef09)" d="M 61.468346 317.32 
L 61.468346 190.188 
" style="fill:none;stroke:#666666;stroke-linecap:square;stroke-width:0.8;"/>
     </g>
     <g id="line2d_87">
      <g>
       <use style="stroke:#000000;stroke-width:0.8;" x="61.468346" xlink:href="#mac6e191f90" y="317.32"/>
      </g>
     </g>
     <g id="text_14">
      <!-- 0 -->
      <g transform="translate(58.287096 331.918437)scale(0.1 -0.1)">
       <use xlink:href="#DejaVuSans-48"/>
      </g>
     </g>
    </g>
    <g id="xtick_23">
     <g id="line2d_88">
      <path clip-path="url(#pd1102cef09)" d="M 146.536677 317.32 
L 146.536677 190.188 
" style="fill:none;stroke:#666666;stroke-linecap:square;stroke-width:0.8;"/>
     </g>
     <g id="line2d_89">
      <g>
       <use style="stroke:#000000;stroke-width:0.8;" x="146.536677" xlink:href="#mac6e191f90" y="317.32"/>
      </g>
     </g>
     <g id="text_15">
      <!-- 1 -->
      <g transform="translate(143.355427 331.918437)scale(0.1 -0.1)">
       <use xlink:href="#DejaVuSans-49"/>
      </g>
     </g>
    </g>
    <g id="xtick_24">
     <g id="line2d_90">
      <path clip-path="url(#pd1102cef09)" d="M 231.605008 317.32 
L 231.605008 190.188 
" style="fill:none;stroke:#666666;stroke-linecap:square;stroke-width:0.8;"/>
     </g>
     <g id="line2d_91">
      <g>
       <use style="stroke:#000000;stroke-width:0.8;" x="231.605008" xlink:href="#mac6e191f90" y="317.32"/>
      </g>
     </g>
     <g id="text_16">
      <!-- 2 -->
      <g transform="translate(228.423758 331.918437)scale(0.1 -0.1)">
       <use xlink:href="#DejaVuSans-50"/>
      </g>
     </g>
    </g>
    <g id="xtick_25">
     <g id="line2d_92">
      <path clip-path="url(#pd1102cef09)" d="M 316.673338 317.32 
L 316.673338 190.188 
" style="fill:none;stroke:#666666;stroke-linecap:square;stroke-width:0.8;"/>
     </g>
     <g id="line2d_93">
      <g>
       <use style="stroke:#000000;stroke-width:0.8;" x="316.673338" xlink:href="#mac6e191f90" y="317.32"/>
      </g>
     </g>
     <g id="text_17">
      <!-- 3 -->
      <defs>
       <path d="M 40.578125 39.3125 
Q 47.65625 37.796875 51.625 33 
Q 55.609375 28.21875 55.609375 21.1875 
Q 55.609375 10.40625 48.1875 4.484375 
Q 40.765625 -1.421875 27.09375 -1.421875 
Q 22.515625 -1.421875 17.65625 -0.515625 
Q 12.796875 0.390625 7.625 2.203125 
L 7.625 11.71875 
Q 11.71875 9.328125 16.59375 8.109375 
Q 21.484375 6.890625 26.8125 6.890625 
Q 36.078125 6.890625 40.9375 10.546875 
Q 45.796875 14.203125 45.796875 21.1875 
Q 45.796875 27.640625 41.28125 31.265625 
Q 36.765625 34.90625 28.71875 34.90625 
L 20.21875 34.90625 
L 20.21875 43.015625 
L 29.109375 43.015625 
Q 36.375 43.015625 40.234375 45.921875 
Q 44.09375 48.828125 44.09375 54.296875 
Q 44.09375 59.90625 40.109375 62.90625 
Q 36.140625 65.921875 28.71875 65.921875 
Q 24.65625 65.921875 20.015625 65.03125 
Q 15.375 64.15625 9.8125 62.3125 
L 9.8125 71.09375 
Q 15.4375 72.65625 20.34375 73.4375 
Q 25.25 74.21875 29.59375 74.21875 
Q 40.828125 74.21875 47.359375 69.109375 
Q 53.90625 64.015625 53.90625 55.328125 
Q 53.90625 49.265625 50.4375 45.09375 
Q 46.96875 40.921875 40.578125 39.3125 
z
" id="DejaVuSans-51"/>
      </defs>
      <g transform="translate(313.492088 331.918437)scale(0.1 -0.1)">
       <use xlink:href="#DejaVuSans-51"/>
      </g>
     </g>
    </g>
    <g id="xtick_26">
     <g id="line2d_94">
      <path clip-path="url(#pd1102cef09)" d="M 401.741669 317.32 
L 401.741669 190.188 
" style="fill:none;stroke:#666666;stroke-linecap:square;stroke-width:0.8;"/>
     </g>
     <g id="line2d_95">
      <g>
       <use style="stroke:#000000;stroke-width:0.8;" x="401.741669" xlink:href="#mac6e191f90" y="317.32"/>
      </g>
     </g>
     <g id="text_18">
      <!-- 4 -->
      <g transform="translate(398.560419 331.918437)scale(0.1 -0.1)">
       <use xlink:href="#DejaVuSans-52"/>
      </g>
     </g>
    </g>
    <g id="xtick_27">
     <g id="line2d_96">
      <path clip-path="url(#pd1102cef09)" d="M 486.81 317.32 
L 486.81 190.188 
" style="fill:none;stroke:#666666;stroke-linecap:square;stroke-width:0.8;"/>
     </g>
     <g id="line2d_97">
      <g>
       <use style="stroke:#000000;stroke-width:0.8;" x="486.81" xlink:href="#mac6e191f90" y="317.32"/>
      </g>
     </g>
     <g id="text_19">
      <!-- 5 -->
      <g transform="translate(483.62875 331.918437)scale(0.1 -0.1)">
       <use xlink:href="#DejaVuSans-53"/>
      </g>
     </g>
    </g>
    <g id="xtick_28">
     <g id="line2d_98">
      <path clip-path="url(#pd1102cef09)" d="M 78.482012 317.32 
L 78.482012 190.188 
" style="fill:none;stroke:#bbbbbb;stroke-linecap:square;stroke-width:0.8;"/>
     </g>
     <g id="line2d_99">
      <g>
       <use style="stroke:#000000;stroke-width:0.6;" x="78.482012" xlink:href="#mf6a63f0981" y="317.32"/>
      </g>
     </g>
    </g>
    <g id="xtick_29">
     <g id="line2d_100">
      <path clip-path="url(#pd1102cef09)" d="M 95.495678 317.32 
L 95.495678 190.188 
" style="fill:none;stroke:#bbbbbb;stroke-linecap:square;stroke-width:0.8;"/>
     </g>
     <g id="line2d_101">
      <g>
       <use style="stroke:#000000;stroke-width:0.6;" x="95.495678" xlink:href="#mf6a63f0981" y="317.32"/>
      </g>
     </g>
    </g>
    <g id="xtick_30">
     <g id="line2d_102">
      <path clip-path="url(#pd1102cef09)" d="M 112.509345 317.32 
L 112.509345 190.188 
" style="fill:none;stroke:#bbbbbb;stroke-linecap:square;stroke-width:0.8;"/>
     </g>
     <g id="line2d_103">
      <g>
       <use style="stroke:#000000;stroke-width:0.6;" x="112.509345" xlink:href="#mf6a63f0981" y="317.32"/>
      </g>
     </g>
    </g>
    <g id="xtick_31">
     <g id="line2d_104">
      <path clip-path="url(#pd1102cef09)" d="M 129.523011 317.32 
L 129.523011 190.188 
" style="fill:none;stroke:#bbbbbb;stroke-linecap:square;stroke-width:0.8;"/>
     </g>
     <g id="line2d_105">
      <g>
       <use style="stroke:#000000;stroke-width:0.6;" x="129.523011" xlink:href="#mf6a63f0981" y="317.32"/>
      </g>
     </g>
    </g>
    <g id="xtick_32">
     <g id="line2d_106">
      <path clip-path="url(#pd1102cef09)" d="M 163.550343 317.32 
L 163.550343 190.188 
" style="fill:none;stroke:#bbbbbb;stroke-linecap:square;stroke-width:0.8;"/>
     </g>
     <g id="line2d_107">
      <g>
       <use style="stroke:#000000;stroke-width:0.6;" x="163.550343" xlink:href="#mf6a63f0981" y="317.32"/>
      </g>
     </g>
    </g>
    <g id="xtick_33">
     <g id="line2d_108">
      <path clip-path="url(#pd1102cef09)" d="M 180.564009 317.32 
L 180.564009 190.188 
" style="fill:none;stroke:#bbbbbb;stroke-linecap:square;stroke-width:0.8;"/>
     </g>
     <g id="line2d_109">
      <g>
       <use style="stroke:#000000;stroke-width:0.6;" x="180.564009" xlink:href="#mf6a63f0981" y="317.32"/>
      </g>
     </g>
    </g>
    <g id="xtick_34">
     <g id="line2d_110">
      <path clip-path="url(#pd1102cef09)" d="M 197.577675 317.32 
L 197.577675 190.188 
" style="fill:none;stroke:#bbbbbb;stroke-linecap:square;stroke-width:0.8;"/>
     </g>
     <g id="line2d_111">
      <g>
       <use style="stroke:#000000;stroke-width:0.6;" x="197.577675" xlink:href="#mf6a63f0981" y="317.32"/>
      </g>
     </g>
    </g>
    <g id="xtick_35">
     <g id="line2d_112">
      <path clip-path="url(#pd1102cef09)" d="M 214.591342 317.32 
L 214.591342 190.188 
" style="fill:none;stroke:#bbbbbb;stroke-linecap:square;stroke-width:0.8;"/>
     </g>
     <g id="line2d_113">
      <g>
       <use style="stroke:#000000;stroke-width:0.6;" x="214.591342" xlink:href="#mf6a63f0981" y="317.32"/>
      </g>
     </g>
    </g>
    <g id="xtick_36">
     <g id="line2d_114">
      <path clip-path="url(#pd1102cef09)" d="M 248.618674 317.32 
L 248.618674 190.188 
" style="fill:none;stroke:#bbbbbb;stroke-linecap:square;stroke-width:0.8;"/>
     </g>
     <g id="line2d_115">
      <g>
       <use style="stroke:#000000;stroke-width:0.6;" x="248.618674" xlink:href="#mf6a63f0981" y="317.32"/>
      </g>
     </g>
    </g>
    <g id="xtick_37">
     <g id="line2d_116">
      <path clip-path="url(#pd1102cef09)" d="M 265.63234 317.32 
L 265.63234 190.188 
" style="fill:none;stroke:#bbbbbb;stroke-linecap:square;stroke-width:0.8;"/>
     </g>
     <g id="line2d_117">
      <g>
       <use style="stroke:#000000;stroke-width:0.6;" x="265.63234" xlink:href="#mf6a63f0981" y="317.32"/>
      </g>
     </g>
    </g>
    <g id="xtick_38">
     <g id="line2d_118">
      <path clip-path="url(#pd1102cef09)" d="M 282.646006 317.32 
L 282.646006 190.188 
" style="fill:none;stroke:#bbbbbb;stroke-linecap:square;stroke-width:0.8;"/>
     </g>
     <g id="line2d_119">
      <g>
       <use style="stroke:#000000;stroke-width:0.6;" x="282.646006" xlink:href="#mf6a63f0981" y="317.32"/>
      </g>
     </g>
    </g>
    <g id="xtick_39">
     <g id="line2d_120">
      <path clip-path="url(#pd1102cef09)" d="M 299.659672 317.32 
L 299.659672 190.188 
" style="fill:none;stroke:#bbbbbb;stroke-linecap:square;stroke-width:0.8;"/>
     </g>
     <g id="line2d_121">
      <g>
       <use style="stroke:#000000;stroke-width:0.6;" x="299.659672" xlink:href="#mf6a63f0981" y="317.32"/>
      </g>
     </g>
    </g>
    <g id="xtick_40">
     <g id="line2d_122">
      <path clip-path="url(#pd1102cef09)" d="M 333.687005 317.32 
L 333.687005 190.188 
" style="fill:none;stroke:#bbbbbb;stroke-linecap:square;stroke-width:0.8;"/>
     </g>
     <g id="line2d_123">
      <g>
       <use style="stroke:#000000;stroke-width:0.6;" x="333.687005" xlink:href="#mf6a63f0981" y="317.32"/>
      </g>
     </g>
    </g>
    <g id="xtick_41">
     <g id="line2d_124">
      <path clip-path="url(#pd1102cef09)" d="M 350.700671 317.32 
L 350.700671 190.188 
" style="fill:none;stroke:#bbbbbb;stroke-linecap:square;stroke-width:0.8;"/>
     </g>
     <g id="line2d_125">
      <g>
       <use style="stroke:#000000;stroke-width:0.6;" x="350.700671" xlink:href="#mf6a63f0981" y="317.32"/>
      </g>
     </g>
    </g>
    <g id="xtick_42">
     <g id="line2d_126">
      <path clip-path="url(#pd1102cef09)" d="M 367.714337 317.32 
L 367.714337 190.188 
" style="fill:none;stroke:#bbbbbb;stroke-linecap:square;stroke-width:0.8;"/>
     </g>
     <g id="line2d_127">
      <g>
       <use style="stroke:#000000;stroke-width:0.6;" x="367.714337" xlink:href="#mf6a63f0981" y="317.32"/>
      </g>
     </g>
    </g>
    <g id="xtick_43">
     <g id="line2d_128">
      <path clip-path="url(#pd1102cef09)" d="M 384.728003 317.32 
L 384.728003 190.188 
" style="fill:none;stroke:#bbbbbb;stroke-linecap:square;stroke-width:0.8;"/>
     </g>
     <g id="line2d_129">
      <g>
       <use style="stroke:#000000;stroke-width:0.6;" x="384.728003" xlink:href="#mf6a63f0981" y="317.32"/>
      </g>
     </g>
    </g>
    <g id="xtick_44">
     <g id="line2d_130">
      <path clip-path="url(#pd1102cef09)" d="M 418.755335 317.32 
L 418.755335 190.188 
" style="fill:none;stroke:#bbbbbb;stroke-linecap:square;stroke-width:0.8;"/>
     </g>
     <g id="line2d_131">
      <g>
       <use style="stroke:#000000;stroke-width:0.6;" x="418.755335" xlink:href="#mf6a63f0981" y="317.32"/>
      </g>
     </g>
    </g>
    <g id="xtick_45">
     <g id="line2d_132">
      <path clip-path="url(#pd1102cef09)" d="M 435.769002 317.32 
L 435.769002 190.188 
" style="fill:none;stroke:#bbbbbb;stroke-linecap:square;stroke-width:0.8;"/>
     </g>
     <g id="line2d_133">
      <g>
       <use style="stroke:#000000;stroke-width:0.6;" x="435.769002" xlink:href="#mf6a63f0981" y="317.32"/>
      </g>
     </g>
    </g>
    <g id="xtick_46">
     <g id="line2d_134">
      <path clip-path="url(#pd1102cef09)" d="M 452.782668 317.32 
L 452.782668 190.188 
" style="fill:none;stroke:#bbbbbb;stroke-linecap:square;stroke-width:0.8;"/>
     </g>
     <g id="line2d_135">
      <g>
       <use style="stroke:#000000;stroke-width:0.6;" x="452.782668" xlink:href="#mf6a63f0981" y="317.32"/>
      </g>
     </g>
    </g>
    <g id="xtick_47">
     <g id="line2d_136">
      <path clip-path="url(#pd1102cef09)" d="M 469.796334 317.32 
L 469.796334 190.188 
" style="fill:none;stroke:#bbbbbb;stroke-linecap:square;stroke-width:0.8;"/>
     </g>
     <g id="line2d_137">
      <g>
       <use style="stroke:#000000;stroke-width:0.6;" x="469.796334" xlink:href="#mf6a63f0981" y="317.32"/>
      </g>
     </g>
    </g>
    <g id="text_20">
     <!-- $f$ in kHz -->
     <defs>
      <path d="M 47.796875 75.984375 
L 46.390625 68.5 
L 37.796875 68.5 
Q 32.90625 68.5 30.6875 66.578125 
Q 28.46875 64.65625 27.390625 59.515625 
L 26.421875 54.6875 
L 41.21875 54.6875 
L 39.890625 47.703125 
L 25.09375 47.703125 
L 15.828125 0 
L 6.78125 0 
L 16.109375 47.703125 
L 7.515625 47.703125 
L 8.796875 54.6875 
L 17.390625 54.6875 
L 18.109375 58.5 
Q 19.96875 68.171875 24.625 72.078125 
Q 29.296875 75.984375 39.3125 75.984375 
z
" id="DejaVuSans-Oblique-102"/>
      <path d="M 9.078125 75.984375 
L 18.109375 75.984375 
L 18.109375 31.109375 
L 44.921875 54.6875 
L 56.390625 54.6875 
L 27.390625 29.109375 
L 57.625 0 
L 45.90625 0 
L 18.109375 26.703125 
L 18.109375 0 
L 9.078125 0 
z
" id="DejaVuSans-107"/>
      <path d="M 9.8125 72.90625 
L 19.671875 72.90625 
L 19.671875 43.015625 
L 55.515625 43.015625 
L 55.515625 72.90625 
L 65.375 72.90625 
L 65.375 0 
L 55.515625 0 
L 55.515625 34.71875 
L 19.671875 34.71875 
L 19.671875 0 
L 9.8125 0 
z
" id="DejaVuSans-72"/>
      <path d="M 5.515625 54.6875 
L 48.1875 54.6875 
L 48.1875 46.484375 
L 14.40625 7.171875 
L 48.1875 7.171875 
L 48.1875 0 
L 4.296875 0 
L 4.296875 8.203125 
L 38.09375 47.515625 
L 5.515625 47.515625 
z
" id="DejaVuSans-122"/>
     </defs>
     <g transform="translate(255.339173 345.596562)scale(0.1 -0.1)">
      <use transform="translate(0 0.015625)" xlink:href="#DejaVuSans-Oblique-102"/>
      <use transform="translate(35.205078 0.015625)" xlink:href="#DejaVuSans-32"/>
      <use transform="translate(66.992188 0.015625)" xlink:href="#DejaVuSans-105"/>
      <use transform="translate(94.775391 0.015625)" xlink:href="#DejaVuSans-110"/>
      <use transform="translate(158.154297 0.015625)" xlink:href="#DejaVuSans-32"/>
      <use transform="translate(189.941406 0.015625)" xlink:href="#DejaVuSans-107"/>
      <use transform="translate(247.851562 0.015625)" xlink:href="#DejaVuSans-72"/>
      <use transform="translate(323.046875 0.015625)" xlink:href="#DejaVuSans-122"/>
     </g>
    </g>
   </g>
   <g id="matplotlib.axis_4">
    <g id="ytick_22">
     <g id="line2d_138">
      <path clip-path="url(#pd1102cef09)" d="M 61.468346 317.32 
L 486.81 317.32 
" style="fill:none;stroke:#666666;stroke-linecap:square;stroke-width:0.8;"/>
     </g>
     <g id="line2d_139">
      <g>
       <use style="stroke:#000000;stroke-width:0.8;" x="61.468346" xlink:href="#m8a038eef13" y="317.32"/>
      </g>
     </g>
     <g id="text_21">
      <!-- $\mathdefault{10^{-7}}$ -->
      <defs>
       <path d="M 8.203125 72.90625 
L 55.078125 72.90625 
L 55.078125 68.703125 
L 28.609375 0 
L 18.3125 0 
L 43.21875 64.59375 
L 8.203125 64.59375 
z
" id="DejaVuSans-55"/>
      </defs>
      <g transform="translate(30.968346 321.119219)scale(0.1 -0.1)">
       <use transform="translate(0 0.684375)" xlink:href="#DejaVuSans-49"/>
       <use transform="translate(63.623047 0.684375)" xlink:href="#DejaVuSans-48"/>
       <use transform="translate(128.203125 38.965625)scale(0.7)" xlink:href="#DejaVuSans-8722"/>
       <use transform="translate(186.855469 38.965625)scale(0.7)" xlink:href="#DejaVuSans-55"/>
      </g>
     </g>
    </g>
    <g id="ytick_23">
     <g id="line2d_140">
      <path clip-path="url(#pd1102cef09)" d="M 61.468346 253.754 
L 486.81 253.754 
" style="fill:none;stroke:#666666;stroke-linecap:square;stroke-width:0.8;"/>
     </g>
     <g id="line2d_141">
      <g>
       <use style="stroke:#000000;stroke-width:0.8;" x="61.468346" xlink:href="#m8a038eef13" y="253.754"/>
      </g>
     </g>
     <g id="text_22">
      <!-- $\mathdefault{10^{-6}}$ -->
      <g transform="translate(30.968346 257.553219)scale(0.1 -0.1)">
       <use transform="translate(0 0.765625)" xlink:href="#DejaVuSans-49"/>
       <use transform="translate(63.623047 0.765625)" xlink:href="#DejaVuSans-48"/>
       <use transform="translate(128.203125 39.046875)scale(0.7)" xlink:href="#DejaVuSans-8722"/>
       <use transform="translate(186.855469 39.046875)scale(0.7)" xlink:href="#DejaVuSans-54"/>
      </g>
     </g>
    </g>
    <g id="ytick_24">
     <g id="line2d_142">
      <path clip-path="url(#pd1102cef09)" d="M 61.468346 190.188 
L 486.81 190.188 
" style="fill:none;stroke:#666666;stroke-linecap:square;stroke-width:0.8;"/>
     </g>
     <g id="line2d_143">
      <g>
       <use style="stroke:#000000;stroke-width:0.8;" x="61.468346" xlink:href="#m8a038eef13" y="190.188"/>
      </g>
     </g>
     <g id="text_23">
      <!-- $\mathdefault{10^{-5}}$ -->
      <g transform="translate(30.968346 193.987219)scale(0.1 -0.1)">
       <use transform="translate(0 0.684375)" xlink:href="#DejaVuSans-49"/>
       <use transform="translate(63.623047 0.684375)" xlink:href="#DejaVuSans-48"/>
       <use transform="translate(128.203125 38.965625)scale(0.7)" xlink:href="#DejaVuSans-8722"/>
       <use transform="translate(186.855469 38.965625)scale(0.7)" xlink:href="#DejaVuSans-53"/>
      </g>
     </g>
    </g>
    <g id="ytick_25">
     <g id="line2d_144">
      <path clip-path="url(#pd1102cef09)" d="M 61.468346 298.184727 
L 486.81 298.184727 
" style="fill:none;stroke:#bbbbbb;stroke-linecap:square;stroke-width:0.8;"/>
     </g>
     <g id="line2d_145">
      <g>
       <use style="stroke:#000000;stroke-width:0.6;" x="61.468346" xlink:href="#m978e7e24e2" y="298.184727"/>
      </g>
     </g>
    </g>
    <g id="ytick_26">
     <g id="line2d_146">
      <path clip-path="url(#pd1102cef09)" d="M 61.468346 286.99131 
L 486.81 286.99131 
" style="fill:none;stroke:#bbbbbb;stroke-linecap:square;stroke-width:0.8;"/>
     </g>
     <g id="line2d_147">
      <g>
       <use style="stroke:#000000;stroke-width:0.6;" x="61.468346" xlink:href="#m978e7e24e2" y="286.99131"/>
      </g>
     </g>
    </g>
    <g id="ytick_27">
     <g id="line2d_148">
      <path clip-path="url(#pd1102cef09)" d="M 61.468346 279.049455 
L 486.81 279.049455 
" style="fill:none;stroke:#bbbbbb;stroke-linecap:square;stroke-width:0.8;"/>
     </g>
     <g id="line2d_149">
      <g>
       <use style="stroke:#000000;stroke-width:0.6;" x="61.468346" xlink:href="#m978e7e24e2" y="279.049455"/>
      </g>
     </g>
    </g>
    <g id="ytick_28">
     <g id="line2d_150">
      <path clip-path="url(#pd1102cef09)" d="M 61.468346 272.889273 
L 486.81 272.889273 
" style="fill:none;stroke:#bbbbbb;stroke-linecap:square;stroke-width:0.8;"/>
     </g>
     <g id="line2d_151">
      <g>
       <use style="stroke:#000000;stroke-width:0.6;" x="61.468346" xlink:href="#m978e7e24e2" y="272.889273"/>
      </g>
     </g>
    </g>
    <g id="ytick_29">
     <g id="line2d_152">
      <path clip-path="url(#pd1102cef09)" d="M 61.468346 267.856038 
L 486.81 267.856038 
" style="fill:none;stroke:#bbbbbb;stroke-linecap:square;stroke-width:0.8;"/>
     </g>
     <g id="line2d_153">
      <g>
       <use style="stroke:#000000;stroke-width:0.6;" x="61.468346" xlink:href="#m978e7e24e2" y="267.856038"/>
      </g>
     </g>
    </g>
    <g id="ytick_30">
     <g id="line2d_154">
      <path clip-path="url(#pd1102cef09)" d="M 61.468346 263.600498 
L 486.81 263.600498 
" style="fill:none;stroke:#bbbbbb;stroke-linecap:square;stroke-width:0.8;"/>
     </g>
     <g id="line2d_155">
      <g>
       <use style="stroke:#000000;stroke-width:0.6;" x="61.468346" xlink:href="#m978e7e24e2" y="263.600498"/>
      </g>
     </g>
    </g>
    <g id="ytick_31">
     <g id="line2d_156">
      <path clip-path="url(#pd1102cef09)" d="M 61.468346 259.914182 
L 486.81 259.914182 
" style="fill:none;stroke:#bbbbbb;stroke-linecap:square;stroke-width:0.8;"/>
     </g>
     <g id="line2d_157">
      <g>
       <use style="stroke:#000000;stroke-width:0.6;" x="61.468346" xlink:href="#m978e7e24e2" y="259.914182"/>
      </g>
     </g>
    </g>
    <g id="ytick_32">
     <g id="line2d_158">
      <path clip-path="url(#pd1102cef09)" d="M 61.468346 256.662621 
L 486.81 256.662621 
" style="fill:none;stroke:#bbbbbb;stroke-linecap:square;stroke-width:0.8;"/>
     </g>
     <g id="line2d_159">
      <g>
       <use style="stroke:#000000;stroke-width:0.6;" x="61.468346" xlink:href="#m978e7e24e2" y="256.662621"/>
      </g>
     </g>
    </g>
    <g id="ytick_33">
     <g id="line2d_160">
      <path clip-path="url(#pd1102cef09)" d="M 61.468346 234.618727 
L 486.81 234.618727 
" style="fill:none;stroke:#bbbbbb;stroke-linecap:square;stroke-width:0.8;"/>
     </g>
     <g id="line2d_161">
      <g>
       <use style="stroke:#000000;stroke-width:0.6;" x="61.468346" xlink:href="#m978e7e24e2" y="234.618727"/>
      </g>
     </g>
    </g>
    <g id="ytick_34">
     <g id="line2d_162">
      <path clip-path="url(#pd1102cef09)" d="M 61.468346 223.42531 
L 486.81 223.42531 
" style="fill:none;stroke:#bbbbbb;stroke-linecap:square;stroke-width:0.8;"/>
     </g>
     <g id="line2d_163">
      <g>
       <use style="stroke:#000000;stroke-width:0.6;" x="61.468346" xlink:href="#m978e7e24e2" y="223.42531"/>
      </g>
     </g>
    </g>
    <g id="ytick_35">
     <g id="line2d_164">
      <path clip-path="url(#pd1102cef09)" d="M 61.468346 215.483455 
L 486.81 215.483455 
" style="fill:none;stroke:#bbbbbb;stroke-linecap:square;stroke-width:0.8;"/>
     </g>
     <g id="line2d_165">
      <g>
       <use style="stroke:#000000;stroke-width:0.6;" x="61.468346" xlink:href="#m978e7e24e2" y="215.483455"/>
      </g>
     </g>
    </g>
    <g id="ytick_36">
     <g id="line2d_166">
      <path clip-path="url(#pd1102cef09)" d="M 61.468346 209.323273 
L 486.81 209.323273 
" style="fill:none;stroke:#bbbbbb;stroke-linecap:square;stroke-width:0.8;"/>
     </g>
     <g id="line2d_167">
      <g>
       <use style="stroke:#000000;stroke-width:0.6;" x="61.468346" xlink:href="#m978e7e24e2" y="209.323273"/>
      </g>
     </g>
    </g>
    <g id="ytick_37">
     <g id="line2d_168">
      <path clip-path="url(#pd1102cef09)" d="M 61.468346 204.290038 
L 486.81 204.290038 
" style="fill:none;stroke:#bbbbbb;stroke-linecap:square;stroke-width:0.8;"/>
     </g>
     <g id="line2d_169">
      <g>
       <use style="stroke:#000000;stroke-width:0.6;" x="61.468346" xlink:href="#m978e7e24e2" y="204.290038"/>
      </g>
     </g>
    </g>
    <g id="ytick_38">
     <g id="line2d_170">
      <path clip-path="url(#pd1102cef09)" d="M 61.468346 200.034498 
L 486.81 200.034498 
" style="fill:none;stroke:#bbbbbb;stroke-linecap:square;stroke-width:0.8;"/>
     </g>
     <g id="line2d_171">
      <g>
       <use style="stroke:#000000;stroke-width:0.6;" x="61.468346" xlink:href="#m978e7e24e2" y="200.034498"/>
      </g>
     </g>
    </g>
    <g id="ytick_39">
     <g id="line2d_172">
      <path clip-path="url(#pd1102cef09)" d="M 61.468346 196.348182 
L 486.81 196.348182 
" style="fill:none;stroke:#bbbbbb;stroke-linecap:square;stroke-width:0.8;"/>
     </g>
     <g id="line2d_173">
      <g>
       <use style="stroke:#000000;stroke-width:0.6;" x="61.468346" xlink:href="#m978e7e24e2" y="196.348182"/>
      </g>
     </g>
    </g>
    <g id="ytick_40">
     <g id="line2d_174">
      <path clip-path="url(#pd1102cef09)" d="M 61.468346 193.096621 
L 486.81 193.096621 
" style="fill:none;stroke:#bbbbbb;stroke-linecap:square;stroke-width:0.8;"/>
     </g>
     <g id="line2d_175">
      <g>
       <use style="stroke:#000000;stroke-width:0.6;" x="61.468346" xlink:href="#m978e7e24e2" y="193.096621"/>
      </g>
     </g>
    </g>
    <g id="text_24">
     <!-- $\hat{\Phi}_x(f)$ in W/Hz -->
     <defs>
      <path d="M -28.609375 79.984375 
L -21.390625 79.984375 
L -9.421875 61.625 
L -16.21875 61.625 
L -25 73.578125 
L -33.796875 61.625 
L -40.578125 61.625 
z
M -25 56 
z
" id="DejaVuSans-770"/>
      <path d="M 34.46875 56.9375 
Q 27.15625 55.90625 22.359375 51.65625 
Q 16.015625 46.046875 16.015625 36.375 
Q 16.015625 26.765625 22.359375 21.140625 
Q 27.15625 16.890625 34.46875 15.875 
z
M 44.34375 15.875 
Q 51.65625 16.890625 56.453125 21.140625 
Q 62.703125 26.765625 62.703125 36.375 
Q 62.703125 46.046875 56.453125 51.65625 
Q 51.65625 55.90625 44.34375 56.9375 
z
M 34.46875 7.71875 
Q 22.5625 8.796875 14.84375 15.328125 
Q 5.609375 23.140625 5.609375 36.375 
Q 5.609375 49.609375 14.84375 57.46875 
Q 22.515625 64.0625 34.46875 65.140625 
L 34.46875 72.90625 
L 44.34375 72.90625 
L 44.34375 65.140625 
Q 56.25 64.015625 63.921875 57.46875 
Q 73.09375 49.609375 73.09375 36.375 
Q 73.09375 23.1875 63.921875 15.328125 
Q 56.25 8.796875 44.34375 7.671875 
L 44.34375 0 
L 34.46875 0 
z
" id="DejaVuSans-934"/>
      <path d="M 25.390625 72.90625 
L 33.6875 72.90625 
L 8.296875 -9.28125 
L 0 -9.28125 
z
" id="DejaVuSans-47"/>
     </defs>
     <g transform="translate(24.888659 286.404)rotate(-90)scale(0.1 -0.1)">
      <use transform="translate(74.255859 30.015625)" xlink:href="#DejaVuSans-770"/>
      <use transform="translate(0 0.609375)" xlink:href="#DejaVuSans-934"/>
      <use transform="translate(79.667969 -15.796875)scale(0.7)" xlink:href="#DejaVuSans-Oblique-120"/>
      <use transform="translate(123.828125 0.609375)" xlink:href="#DejaVuSans-40"/>
      <use transform="translate(162.841797 0.609375)" xlink:href="#DejaVuSans-Oblique-102"/>
      <use transform="translate(198.046875 0.609375)" xlink:href="#DejaVuSans-41"/>
      <use transform="translate(237.060547 0.609375)" xlink:href="#DejaVuSans-32"/>
      <use transform="translate(268.847656 0.609375)" xlink:href="#DejaVuSans-105"/>
      <use transform="translate(296.630859 0.609375)" xlink:href="#DejaVuSans-110"/>
      <use transform="translate(360.009766 0.609375)" xlink:href="#DejaVuSans-32"/>
      <use transform="translate(391.796875 0.609375)" xlink:href="#DejaVuSans-87"/>
      <use transform="translate(490.673828 0.609375)" xlink:href="#DejaVuSans-47"/>
      <use transform="translate(524.349609 0.609375)" xlink:href="#DejaVuSans-72"/>
      <use transform="translate(599.544922 0.609375)" xlink:href="#DejaVuSans-122"/>
     </g>
    </g>
   </g>
   <g id="line2d_176">
    <path clip-path="url(#pd1102cef09)" d="M 61.468346 239.783845 
L 76.089465 214.354999 
L 90.710585 208.826272 
L 105.331704 208.751415 
L 119.952824 209.769042 
L 134.573943 211.592446 
L 149.195062 209.671694 
L 163.816182 210.452141 
L 178.437301 210.54787 
L 193.05842 208.604772 
L 207.67954 210.050689 
L 222.300659 210.461832 
L 236.921778 208.442936 
L 251.542898 208.977485 
L 266.164017 209.00038 
L 280.785136 207.71216 
L 295.406256 209.504456 
L 310.027375 209.987077 
L 324.648494 210.691606 
L 339.269614 210.603807 
L 353.890733 210.785064 
L 368.511853 210.624198 
L 383.132972 212.544423 
L 397.754091 237.128 
L 412.375211 323.323606 
L 417.098558 361 
L 417.098558 361 
" style="fill:none;stroke:#114da1;stroke-linecap:square;stroke-width:1.5;"/>
   </g>
   <g id="patch_8">
    <path d="M 61.468346 317.32 
L 61.468346 190.188 
" style="fill:none;stroke:#000000;stroke-linecap:square;stroke-linejoin:miter;stroke-width:0.8;"/>
   </g>
   <g id="patch_9">
    <path d="M 486.81 317.32 
L 486.81 190.188 
" style="fill:none;stroke:#000000;stroke-linecap:square;stroke-linejoin:miter;stroke-width:0.8;"/>
   </g>
   <g id="patch_10">
    <path d="M 61.468346 317.32 
L 486.81 317.32 
" style="fill:none;stroke:#000000;stroke-linecap:square;stroke-linejoin:miter;stroke-width:0.8;"/>
   </g>
   <g id="patch_11">
    <path d="M 61.468346 190.188 
L 486.81 190.188 
" style="fill:none;stroke:#000000;stroke-linecap:square;stroke-linejoin:miter;stroke-width:0.8;"/>
   </g>
  </g>
 </g>
 <defs>
  <clipPath id="p2a1c74a285">
   <rect height="127.132" width="425.341654" x="61.468346" y="14.76"/>
  </clipPath>
  <clipPath id="pd1102cef09">
   <rect height="127.132" width="425.341654" x="61.468346" y="190.188"/>
  </clipPath>
 </defs>
</svg>
