<?xml version="1.0" encoding="utf-8" standalone="no"?>
<!DOCTYPE svg PUBLIC "-//W3C//DTD SVG 1.1//EN"
  "http://www.w3.org/Graphics/SVG/1.1/DTD/svg11.dtd">
<!-- Created with matplotlib (https://matplotlib.org/) -->
<svg height="360pt" version="1.1" viewBox="0 0 504 360" width="504pt" xmlns="http://www.w3.org/2000/svg" xmlns:xlink="http://www.w3.org/1999/xlink">
 <defs>
  <style type="text/css">
*{stroke-linecap:butt;stroke-linejoin:round;}
  </style>
 </defs>
 <g id="figure_1">
  <g id="patch_1">
   <path d="M 0 360 
L 504 360 
L 504 0 
L 0 0 
z
" style="fill:#ffffff;"/>
  </g>
  <g id="axes_1">
   <g id="patch_2">
    <path d="M 62.098346 142.72 
L 490.005 142.72 
L 490.005 10.8 
L 62.098346 10.8 
z
" style="fill:#ffffff;"/>
   </g>
   <g id="matplotlib.axis_1">
    <g id="xtick_1">
     <g id="line2d_1">
      <path clip-path="url(#p080d4cb075)" d="M 104.889012 142.72 
L 104.889012 10.8 
" style="fill:none;stroke:#666666;stroke-linecap:square;stroke-width:0.8;"/>
     </g>
     <g id="line2d_2">
      <defs>
       <path d="M 0 0 
L 0 3.5 
" id="m8d7a60f1d1" style="stroke:#000000;stroke-width:0.8;"/>
      </defs>
      <g>
       <use style="stroke:#000000;stroke-width:0.8;" x="104.889012" xlink:href="#m8d7a60f1d1" y="142.72"/>
      </g>
     </g>
     <g id="text_1">
      <!-- 16 -->
      <defs>
       <path d="M 12.40625 8.296875 
L 28.515625 8.296875 
L 28.515625 63.921875 
L 10.984375 60.40625 
L 10.984375 69.390625 
L 28.421875 72.90625 
L 38.28125 72.90625 
L 38.28125 8.296875 
L 54.390625 8.296875 
L 54.390625 0 
L 12.40625 0 
z
" id="DejaVuSans-49"/>
       <path d="M 33.015625 40.375 
Q 26.375 40.375 22.484375 35.828125 
Q 18.609375 31.296875 18.609375 23.390625 
Q 18.609375 15.53125 22.484375 10.953125 
Q 26.375 6.390625 33.015625 6.390625 
Q 39.65625 6.390625 43.53125 10.953125 
Q 47.40625 15.53125 47.40625 23.390625 
Q 47.40625 31.296875 43.53125 35.828125 
Q 39.65625 40.375 33.015625 40.375 
z
M 52.59375 71.296875 
L 52.59375 62.3125 
Q 48.875 64.0625 45.09375 64.984375 
Q 41.3125 65.921875 37.59375 65.921875 
Q 27.828125 65.921875 22.671875 59.328125 
Q 17.53125 52.734375 16.796875 39.40625 
Q 19.671875 43.65625 24.015625 45.921875 
Q 28.375 48.1875 33.59375 48.1875 
Q 44.578125 48.1875 50.953125 41.515625 
Q 57.328125 34.859375 57.328125 23.390625 
Q 57.328125 12.15625 50.6875 5.359375 
Q 44.046875 -1.421875 33.015625 -1.421875 
Q 20.359375 -1.421875 13.671875 8.265625 
Q 6.984375 17.96875 6.984375 36.375 
Q 6.984375 53.65625 15.1875 63.9375 
Q 23.390625 74.21875 37.203125 74.21875 
Q 40.921875 74.21875 44.703125 73.484375 
Q 48.484375 72.75 52.59375 71.296875 
z
" id="DejaVuSans-54"/>
      </defs>
      <g transform="translate(98.526512 157.318438)scale(0.1 -0.1)">
       <use xlink:href="#DejaVuSans-49"/>
       <use x="63.623047" xlink:href="#DejaVuSans-54"/>
      </g>
     </g>
    </g>
    <g id="xtick_2">
     <g id="line2d_3">
      <path clip-path="url(#p080d4cb075)" d="M 190.470342 142.72 
L 190.470342 10.8 
" style="fill:none;stroke:#666666;stroke-linecap:square;stroke-width:0.8;"/>
     </g>
     <g id="line2d_4">
      <g>
       <use style="stroke:#000000;stroke-width:0.8;" x="190.470342" xlink:href="#m8d7a60f1d1" y="142.72"/>
      </g>
     </g>
     <g id="text_2">
      <!-- 18 -->
      <defs>
       <path d="M 31.78125 34.625 
Q 24.75 34.625 20.71875 30.859375 
Q 16.703125 27.09375 16.703125 20.515625 
Q 16.703125 13.921875 20.71875 10.15625 
Q 24.75 6.390625 31.78125 6.390625 
Q 38.8125 6.390625 42.859375 10.171875 
Q 46.921875 13.96875 46.921875 20.515625 
Q 46.921875 27.09375 42.890625 30.859375 
Q 38.875 34.625 31.78125 34.625 
z
M 21.921875 38.8125 
Q 15.578125 40.375 12.03125 44.71875 
Q 8.5 49.078125 8.5 55.328125 
Q 8.5 64.0625 14.71875 69.140625 
Q 20.953125 74.21875 31.78125 74.21875 
Q 42.671875 74.21875 48.875 69.140625 
Q 55.078125 64.0625 55.078125 55.328125 
Q 55.078125 49.078125 51.53125 44.71875 
Q 48 40.375 41.703125 38.8125 
Q 48.828125 37.15625 52.796875 32.3125 
Q 56.78125 27.484375 56.78125 20.515625 
Q 56.78125 9.90625 50.3125 4.234375 
Q 43.84375 -1.421875 31.78125 -1.421875 
Q 19.734375 -1.421875 13.25 4.234375 
Q 6.78125 9.90625 6.78125 20.515625 
Q 6.78125 27.484375 10.78125 32.3125 
Q 14.796875 37.15625 21.921875 38.8125 
z
M 18.3125 54.390625 
Q 18.3125 48.734375 21.84375 45.5625 
Q 25.390625 42.390625 31.78125 42.390625 
Q 38.140625 42.390625 41.71875 45.5625 
Q 45.3125 48.734375 45.3125 54.390625 
Q 45.3125 60.0625 41.71875 63.234375 
Q 38.140625 66.40625 31.78125 66.40625 
Q 25.390625 66.40625 21.84375 63.234375 
Q 18.3125 60.0625 18.3125 54.390625 
z
" id="DejaVuSans-56"/>
      </defs>
      <g transform="translate(184.107842 157.318438)scale(0.1 -0.1)">
       <use xlink:href="#DejaVuSans-49"/>
       <use x="63.623047" xlink:href="#DejaVuSans-56"/>
      </g>
     </g>
    </g>
    <g id="xtick_3">
     <g id="line2d_5">
      <path clip-path="url(#p080d4cb075)" d="M 276.051673 142.72 
L 276.051673 10.8 
" style="fill:none;stroke:#666666;stroke-linecap:square;stroke-width:0.8;"/>
     </g>
     <g id="line2d_6">
      <g>
       <use style="stroke:#000000;stroke-width:0.8;" x="276.051673" xlink:href="#m8d7a60f1d1" y="142.72"/>
      </g>
     </g>
     <g id="text_3">
      <!-- 20 -->
      <defs>
       <path d="M 19.1875 8.296875 
L 53.609375 8.296875 
L 53.609375 0 
L 7.328125 0 
L 7.328125 8.296875 
Q 12.9375 14.109375 22.625 23.890625 
Q 32.328125 33.6875 34.8125 36.53125 
Q 39.546875 41.84375 41.421875 45.53125 
Q 43.3125 49.21875 43.3125 52.78125 
Q 43.3125 58.59375 39.234375 62.25 
Q 35.15625 65.921875 28.609375 65.921875 
Q 23.96875 65.921875 18.8125 64.3125 
Q 13.671875 62.703125 7.8125 59.421875 
L 7.8125 69.390625 
Q 13.765625 71.78125 18.9375 73 
Q 24.125 74.21875 28.421875 74.21875 
Q 39.75 74.21875 46.484375 68.546875 
Q 53.21875 62.890625 53.21875 53.421875 
Q 53.21875 48.921875 51.53125 44.890625 
Q 49.859375 40.875 45.40625 35.40625 
Q 44.1875 33.984375 37.640625 27.21875 
Q 31.109375 20.453125 19.1875 8.296875 
z
" id="DejaVuSans-50"/>
       <path d="M 31.78125 66.40625 
Q 24.171875 66.40625 20.328125 58.90625 
Q 16.5 51.421875 16.5 36.375 
Q 16.5 21.390625 20.328125 13.890625 
Q 24.171875 6.390625 31.78125 6.390625 
Q 39.453125 6.390625 43.28125 13.890625 
Q 47.125 21.390625 47.125 36.375 
Q 47.125 51.421875 43.28125 58.90625 
Q 39.453125 66.40625 31.78125 66.40625 
z
M 31.78125 74.21875 
Q 44.046875 74.21875 50.515625 64.515625 
Q 56.984375 54.828125 56.984375 36.375 
Q 56.984375 17.96875 50.515625 8.265625 
Q 44.046875 -1.421875 31.78125 -1.421875 
Q 19.53125 -1.421875 13.0625 8.265625 
Q 6.59375 17.96875 6.59375 36.375 
Q 6.59375 54.828125 13.0625 64.515625 
Q 19.53125 74.21875 31.78125 74.21875 
z
" id="DejaVuSans-48"/>
      </defs>
      <g transform="translate(269.689173 157.318438)scale(0.1 -0.1)">
       <use xlink:href="#DejaVuSans-50"/>
       <use x="63.623047" xlink:href="#DejaVuSans-48"/>
      </g>
     </g>
    </g>
    <g id="xtick_4">
     <g id="line2d_7">
      <path clip-path="url(#p080d4cb075)" d="M 361.633004 142.72 
L 361.633004 10.8 
" style="fill:none;stroke:#666666;stroke-linecap:square;stroke-width:0.8;"/>
     </g>
     <g id="line2d_8">
      <g>
       <use style="stroke:#000000;stroke-width:0.8;" x="361.633004" xlink:href="#m8d7a60f1d1" y="142.72"/>
      </g>
     </g>
     <g id="text_4">
      <!-- 22 -->
      <g transform="translate(355.270504 157.318438)scale(0.1 -0.1)">
       <use xlink:href="#DejaVuSans-50"/>
       <use x="63.623047" xlink:href="#DejaVuSans-50"/>
      </g>
     </g>
    </g>
    <g id="xtick_5">
     <g id="line2d_9">
      <path clip-path="url(#p080d4cb075)" d="M 447.214335 142.72 
L 447.214335 10.8 
" style="fill:none;stroke:#666666;stroke-linecap:square;stroke-width:0.8;"/>
     </g>
     <g id="line2d_10">
      <g>
       <use style="stroke:#000000;stroke-width:0.8;" x="447.214335" xlink:href="#m8d7a60f1d1" y="142.72"/>
      </g>
     </g>
     <g id="text_5">
      <!-- 24 -->
      <defs>
       <path d="M 37.796875 64.3125 
L 12.890625 25.390625 
L 37.796875 25.390625 
z
M 35.203125 72.90625 
L 47.609375 72.90625 
L 47.609375 25.390625 
L 58.015625 25.390625 
L 58.015625 17.1875 
L 47.609375 17.1875 
L 47.609375 0 
L 37.796875 0 
L 37.796875 17.1875 
L 4.890625 17.1875 
L 4.890625 26.703125 
z
" id="DejaVuSans-52"/>
      </defs>
      <g transform="translate(440.851835 157.318438)scale(0.1 -0.1)">
       <use xlink:href="#DejaVuSans-50"/>
       <use x="63.623047" xlink:href="#DejaVuSans-52"/>
      </g>
     </g>
    </g>
    <g id="xtick_6">
     <g id="line2d_11">
      <path clip-path="url(#p080d4cb075)" d="M 83.493679 142.72 
L 83.493679 10.8 
" style="fill:none;stroke:#bbbbbb;stroke-linecap:square;stroke-width:0.8;"/>
     </g>
     <g id="line2d_12">
      <defs>
       <path d="M 0 0 
L 0 2 
" id="m4b23b5cb1f" style="stroke:#000000;stroke-width:0.6;"/>
      </defs>
      <g>
       <use style="stroke:#000000;stroke-width:0.6;" x="83.493679" xlink:href="#m4b23b5cb1f" y="142.72"/>
      </g>
     </g>
    </g>
    <g id="xtick_7">
     <g id="line2d_13">
      <path clip-path="url(#p080d4cb075)" d="M 126.284344 142.72 
L 126.284344 10.8 
" style="fill:none;stroke:#bbbbbb;stroke-linecap:square;stroke-width:0.8;"/>
     </g>
     <g id="line2d_14">
      <g>
       <use style="stroke:#000000;stroke-width:0.6;" x="126.284344" xlink:href="#m4b23b5cb1f" y="142.72"/>
      </g>
     </g>
    </g>
    <g id="xtick_8">
     <g id="line2d_15">
      <path clip-path="url(#p080d4cb075)" d="M 147.679677 142.72 
L 147.679677 10.8 
" style="fill:none;stroke:#bbbbbb;stroke-linecap:square;stroke-width:0.8;"/>
     </g>
     <g id="line2d_16">
      <g>
       <use style="stroke:#000000;stroke-width:0.6;" x="147.679677" xlink:href="#m4b23b5cb1f" y="142.72"/>
      </g>
     </g>
    </g>
    <g id="xtick_9">
     <g id="line2d_17">
      <path clip-path="url(#p080d4cb075)" d="M 169.07501 142.72 
L 169.07501 10.8 
" style="fill:none;stroke:#bbbbbb;stroke-linecap:square;stroke-width:0.8;"/>
     </g>
     <g id="line2d_18">
      <g>
       <use style="stroke:#000000;stroke-width:0.6;" x="169.07501" xlink:href="#m4b23b5cb1f" y="142.72"/>
      </g>
     </g>
    </g>
    <g id="xtick_10">
     <g id="line2d_19">
      <path clip-path="url(#p080d4cb075)" d="M 211.865675 142.72 
L 211.865675 10.8 
" style="fill:none;stroke:#bbbbbb;stroke-linecap:square;stroke-width:0.8;"/>
     </g>
     <g id="line2d_20">
      <g>
       <use style="stroke:#000000;stroke-width:0.6;" x="211.865675" xlink:href="#m4b23b5cb1f" y="142.72"/>
      </g>
     </g>
    </g>
    <g id="xtick_11">
     <g id="line2d_21">
      <path clip-path="url(#p080d4cb075)" d="M 233.261008 142.72 
L 233.261008 10.8 
" style="fill:none;stroke:#bbbbbb;stroke-linecap:square;stroke-width:0.8;"/>
     </g>
     <g id="line2d_22">
      <g>
       <use style="stroke:#000000;stroke-width:0.6;" x="233.261008" xlink:href="#m4b23b5cb1f" y="142.72"/>
      </g>
     </g>
    </g>
    <g id="xtick_12">
     <g id="line2d_23">
      <path clip-path="url(#p080d4cb075)" d="M 254.65634 142.72 
L 254.65634 10.8 
" style="fill:none;stroke:#bbbbbb;stroke-linecap:square;stroke-width:0.8;"/>
     </g>
     <g id="line2d_24">
      <g>
       <use style="stroke:#000000;stroke-width:0.6;" x="254.65634" xlink:href="#m4b23b5cb1f" y="142.72"/>
      </g>
     </g>
    </g>
    <g id="xtick_13">
     <g id="line2d_25">
      <path clip-path="url(#p080d4cb075)" d="M 297.447006 142.72 
L 297.447006 10.8 
" style="fill:none;stroke:#bbbbbb;stroke-linecap:square;stroke-width:0.8;"/>
     </g>
     <g id="line2d_26">
      <g>
       <use style="stroke:#000000;stroke-width:0.6;" x="297.447006" xlink:href="#m4b23b5cb1f" y="142.72"/>
      </g>
     </g>
    </g>
    <g id="xtick_14">
     <g id="line2d_27">
      <path clip-path="url(#p080d4cb075)" d="M 318.842338 142.72 
L 318.842338 10.8 
" style="fill:none;stroke:#bbbbbb;stroke-linecap:square;stroke-width:0.8;"/>
     </g>
     <g id="line2d_28">
      <g>
       <use style="stroke:#000000;stroke-width:0.6;" x="318.842338" xlink:href="#m4b23b5cb1f" y="142.72"/>
      </g>
     </g>
    </g>
    <g id="xtick_15">
     <g id="line2d_29">
      <path clip-path="url(#p080d4cb075)" d="M 340.237671 142.72 
L 340.237671 10.8 
" style="fill:none;stroke:#bbbbbb;stroke-linecap:square;stroke-width:0.8;"/>
     </g>
     <g id="line2d_30">
      <g>
       <use style="stroke:#000000;stroke-width:0.6;" x="340.237671" xlink:href="#m4b23b5cb1f" y="142.72"/>
      </g>
     </g>
    </g>
    <g id="xtick_16">
     <g id="line2d_31">
      <path clip-path="url(#p080d4cb075)" d="M 383.028337 142.72 
L 383.028337 10.8 
" style="fill:none;stroke:#bbbbbb;stroke-linecap:square;stroke-width:0.8;"/>
     </g>
     <g id="line2d_32">
      <g>
       <use style="stroke:#000000;stroke-width:0.6;" x="383.028337" xlink:href="#m4b23b5cb1f" y="142.72"/>
      </g>
     </g>
    </g>
    <g id="xtick_17">
     <g id="line2d_33">
      <path clip-path="url(#p080d4cb075)" d="M 404.423669 142.72 
L 404.423669 10.8 
" style="fill:none;stroke:#bbbbbb;stroke-linecap:square;stroke-width:0.8;"/>
     </g>
     <g id="line2d_34">
      <g>
       <use style="stroke:#000000;stroke-width:0.6;" x="404.423669" xlink:href="#m4b23b5cb1f" y="142.72"/>
      </g>
     </g>
    </g>
    <g id="xtick_18">
     <g id="line2d_35">
      <path clip-path="url(#p080d4cb075)" d="M 425.819002 142.72 
L 425.819002 10.8 
" style="fill:none;stroke:#bbbbbb;stroke-linecap:square;stroke-width:0.8;"/>
     </g>
     <g id="line2d_36">
      <g>
       <use style="stroke:#000000;stroke-width:0.6;" x="425.819002" xlink:href="#m4b23b5cb1f" y="142.72"/>
      </g>
     </g>
    </g>
    <g id="xtick_19">
     <g id="line2d_37">
      <path clip-path="url(#p080d4cb075)" d="M 468.609667 142.72 
L 468.609667 10.8 
" style="fill:none;stroke:#bbbbbb;stroke-linecap:square;stroke-width:0.8;"/>
     </g>
     <g id="line2d_38">
      <g>
       <use style="stroke:#000000;stroke-width:0.6;" x="468.609667" xlink:href="#m4b23b5cb1f" y="142.72"/>
      </g>
     </g>
    </g>
    <g id="xtick_20">
     <g id="line2d_39">
      <path clip-path="url(#p080d4cb075)" d="M 490.005 142.72 
L 490.005 10.8 
" style="fill:none;stroke:#bbbbbb;stroke-linecap:square;stroke-width:0.8;"/>
     </g>
     <g id="line2d_40">
      <g>
       <use style="stroke:#000000;stroke-width:0.6;" x="490.005" xlink:href="#m4b23b5cb1f" y="142.72"/>
      </g>
     </g>
    </g>
    <g id="text_6">
     <!-- $t/T$ -->
     <defs>
      <path d="M 42.28125 54.6875 
L 40.921875 47.703125 
L 23 47.703125 
L 17.1875 18.015625 
Q 16.890625 16.359375 16.75 15.234375 
Q 16.609375 14.109375 16.609375 13.484375 
Q 16.609375 10.359375 18.484375 8.9375 
Q 20.359375 7.515625 24.515625 7.515625 
L 33.59375 7.515625 
L 32.078125 0 
L 23.484375 0 
Q 15.484375 0 11.546875 3.125 
Q 7.625 6.25 7.625 12.59375 
Q 7.625 13.71875 7.765625 15.0625 
Q 7.90625 16.40625 8.203125 18.015625 
L 14.015625 47.703125 
L 6.390625 47.703125 
L 7.8125 54.6875 
L 15.28125 54.6875 
L 18.3125 70.21875 
L 27.296875 70.21875 
L 24.3125 54.6875 
z
" id="DejaVuSans-Oblique-116"/>
      <path d="M 25.390625 72.90625 
L 33.6875 72.90625 
L 8.296875 -9.28125 
L 0 -9.28125 
z
" id="DejaVuSans-47"/>
      <path d="M 5.90625 72.90625 
L 67.578125 72.90625 
L 66.015625 64.59375 
L 39.984375 64.59375 
L 27.484375 0 
L 17.578125 0 
L 30.078125 64.59375 
L 4.296875 64.59375 
z
" id="DejaVuSans-Oblique-84"/>
     </defs>
     <g transform="translate(269.351673 170.996563)scale(0.1 -0.1)">
      <use transform="translate(0 0.09375)" xlink:href="#DejaVuSans-Oblique-116"/>
      <use transform="translate(39.208984 0.09375)" xlink:href="#DejaVuSans-47"/>
      <use transform="translate(72.900391 0.09375)" xlink:href="#DejaVuSans-Oblique-84"/>
     </g>
    </g>
   </g>
   <g id="matplotlib.axis_2">
    <g id="ytick_1">
     <g id="line2d_41">
      <path clip-path="url(#p080d4cb075)" d="M 62.098346 131.726667 
L 490.005 131.726667 
" style="fill:none;stroke:#666666;stroke-linecap:square;stroke-width:0.8;"/>
     </g>
     <g id="line2d_42">
      <defs>
       <path d="M 0 0 
L -3.5 0 
" id="m7a853be120" style="stroke:#000000;stroke-width:0.8;"/>
      </defs>
      <g>
       <use style="stroke:#000000;stroke-width:0.8;" x="62.098346" xlink:href="#m7a853be120" y="131.726667"/>
      </g>
     </g>
     <g id="text_7">
      <!-- −1.0 -->
      <defs>
       <path d="M 10.59375 35.5 
L 73.1875 35.5 
L 73.1875 27.203125 
L 10.59375 27.203125 
z
" id="DejaVuSans-8722"/>
       <path d="M 10.6875 12.40625 
L 21 12.40625 
L 21 0 
L 10.6875 0 
z
" id="DejaVuSans-46"/>
      </defs>
      <g transform="translate(30.815534 135.525885)scale(0.1 -0.1)">
       <use xlink:href="#DejaVuSans-8722"/>
       <use x="83.789062" xlink:href="#DejaVuSans-49"/>
       <use x="147.412109" xlink:href="#DejaVuSans-46"/>
       <use x="179.199219" xlink:href="#DejaVuSans-48"/>
      </g>
     </g>
    </g>
    <g id="ytick_2">
     <g id="line2d_43">
      <path clip-path="url(#p080d4cb075)" d="M 62.098346 104.243333 
L 490.005 104.243333 
" style="fill:none;stroke:#666666;stroke-linecap:square;stroke-width:0.8;"/>
     </g>
     <g id="line2d_44">
      <g>
       <use style="stroke:#000000;stroke-width:0.8;" x="62.098346" xlink:href="#m7a853be120" y="104.243333"/>
      </g>
     </g>
     <g id="text_8">
      <!-- −0.5 -->
      <defs>
       <path d="M 10.796875 72.90625 
L 49.515625 72.90625 
L 49.515625 64.59375 
L 19.828125 64.59375 
L 19.828125 46.734375 
Q 21.96875 47.46875 24.109375 47.828125 
Q 26.265625 48.1875 28.421875 48.1875 
Q 40.625 48.1875 47.75 41.5 
Q 54.890625 34.8125 54.890625 23.390625 
Q 54.890625 11.625 47.5625 5.09375 
Q 40.234375 -1.421875 26.90625 -1.421875 
Q 22.3125 -1.421875 17.546875 -0.640625 
Q 12.796875 0.140625 7.71875 1.703125 
L 7.71875 11.625 
Q 12.109375 9.234375 16.796875 8.0625 
Q 21.484375 6.890625 26.703125 6.890625 
Q 35.15625 6.890625 40.078125 11.328125 
Q 45.015625 15.765625 45.015625 23.390625 
Q 45.015625 31 40.078125 35.4375 
Q 35.15625 39.890625 26.703125 39.890625 
Q 22.75 39.890625 18.8125 39.015625 
Q 14.890625 38.140625 10.796875 36.28125 
z
" id="DejaVuSans-53"/>
      </defs>
      <g transform="translate(30.815534 108.042552)scale(0.1 -0.1)">
       <use xlink:href="#DejaVuSans-8722"/>
       <use x="83.789062" xlink:href="#DejaVuSans-48"/>
       <use x="147.412109" xlink:href="#DejaVuSans-46"/>
       <use x="179.199219" xlink:href="#DejaVuSans-53"/>
      </g>
     </g>
    </g>
    <g id="ytick_3">
     <g id="line2d_45">
      <path clip-path="url(#p080d4cb075)" d="M 62.098346 76.76 
L 490.005 76.76 
" style="fill:none;stroke:#666666;stroke-linecap:square;stroke-width:0.8;"/>
     </g>
     <g id="line2d_46">
      <g>
       <use style="stroke:#000000;stroke-width:0.8;" x="62.098346" xlink:href="#m7a853be120" y="76.76"/>
      </g>
     </g>
     <g id="text_9">
      <!-- 0.0 -->
      <g transform="translate(39.195221 80.559219)scale(0.1 -0.1)">
       <use xlink:href="#DejaVuSans-48"/>
       <use x="63.623047" xlink:href="#DejaVuSans-46"/>
       <use x="95.410156" xlink:href="#DejaVuSans-48"/>
      </g>
     </g>
    </g>
    <g id="ytick_4">
     <g id="line2d_47">
      <path clip-path="url(#p080d4cb075)" d="M 62.098346 49.276667 
L 490.005 49.276667 
" style="fill:none;stroke:#666666;stroke-linecap:square;stroke-width:0.8;"/>
     </g>
     <g id="line2d_48">
      <g>
       <use style="stroke:#000000;stroke-width:0.8;" x="62.098346" xlink:href="#m7a853be120" y="49.276667"/>
      </g>
     </g>
     <g id="text_10">
      <!-- 0.5 -->
      <g transform="translate(39.195221 53.075885)scale(0.1 -0.1)">
       <use xlink:href="#DejaVuSans-48"/>
       <use x="63.623047" xlink:href="#DejaVuSans-46"/>
       <use x="95.410156" xlink:href="#DejaVuSans-53"/>
      </g>
     </g>
    </g>
    <g id="ytick_5">
     <g id="line2d_49">
      <path clip-path="url(#p080d4cb075)" d="M 62.098346 21.793333 
L 490.005 21.793333 
" style="fill:none;stroke:#666666;stroke-linecap:square;stroke-width:0.8;"/>
     </g>
     <g id="line2d_50">
      <g>
       <use style="stroke:#000000;stroke-width:0.8;" x="62.098346" xlink:href="#m7a853be120" y="21.793333"/>
      </g>
     </g>
     <g id="text_11">
      <!-- 1.0 -->
      <g transform="translate(39.195221 25.592552)scale(0.1 -0.1)">
       <use xlink:href="#DejaVuSans-49"/>
       <use x="63.623047" xlink:href="#DejaVuSans-46"/>
       <use x="95.410156" xlink:href="#DejaVuSans-48"/>
      </g>
     </g>
    </g>
    <g id="ytick_6">
     <g id="line2d_51">
      <path clip-path="url(#p080d4cb075)" d="M 62.098346 137.223333 
L 490.005 137.223333 
" style="fill:none;stroke:#bbbbbb;stroke-linecap:square;stroke-width:0.8;"/>
     </g>
     <g id="line2d_52">
      <defs>
       <path d="M 0 0 
L -2 0 
" id="mc6f6d9c3c5" style="stroke:#000000;stroke-width:0.6;"/>
      </defs>
      <g>
       <use style="stroke:#000000;stroke-width:0.6;" x="62.098346" xlink:href="#mc6f6d9c3c5" y="137.223333"/>
      </g>
     </g>
    </g>
    <g id="ytick_7">
     <g id="line2d_53">
      <path clip-path="url(#p080d4cb075)" d="M 62.098346 126.23 
L 490.005 126.23 
" style="fill:none;stroke:#bbbbbb;stroke-linecap:square;stroke-width:0.8;"/>
     </g>
     <g id="line2d_54">
      <g>
       <use style="stroke:#000000;stroke-width:0.6;" x="62.098346" xlink:href="#mc6f6d9c3c5" y="126.23"/>
      </g>
     </g>
    </g>
    <g id="ytick_8">
     <g id="line2d_55">
      <path clip-path="url(#p080d4cb075)" d="M 62.098346 120.733333 
L 490.005 120.733333 
" style="fill:none;stroke:#bbbbbb;stroke-linecap:square;stroke-width:0.8;"/>
     </g>
     <g id="line2d_56">
      <g>
       <use style="stroke:#000000;stroke-width:0.6;" x="62.098346" xlink:href="#mc6f6d9c3c5" y="120.733333"/>
      </g>
     </g>
    </g>
    <g id="ytick_9">
     <g id="line2d_57">
      <path clip-path="url(#p080d4cb075)" d="M 62.098346 115.236667 
L 490.005 115.236667 
" style="fill:none;stroke:#bbbbbb;stroke-linecap:square;stroke-width:0.8;"/>
     </g>
     <g id="line2d_58">
      <g>
       <use style="stroke:#000000;stroke-width:0.6;" x="62.098346" xlink:href="#mc6f6d9c3c5" y="115.236667"/>
      </g>
     </g>
    </g>
    <g id="ytick_10">
     <g id="line2d_59">
      <path clip-path="url(#p080d4cb075)" d="M 62.098346 109.74 
L 490.005 109.74 
" style="fill:none;stroke:#bbbbbb;stroke-linecap:square;stroke-width:0.8;"/>
     </g>
     <g id="line2d_60">
      <g>
       <use style="stroke:#000000;stroke-width:0.6;" x="62.098346" xlink:href="#mc6f6d9c3c5" y="109.74"/>
      </g>
     </g>
    </g>
    <g id="ytick_11">
     <g id="line2d_61">
      <path clip-path="url(#p080d4cb075)" d="M 62.098346 98.746667 
L 490.005 98.746667 
" style="fill:none;stroke:#bbbbbb;stroke-linecap:square;stroke-width:0.8;"/>
     </g>
     <g id="line2d_62">
      <g>
       <use style="stroke:#000000;stroke-width:0.6;" x="62.098346" xlink:href="#mc6f6d9c3c5" y="98.746667"/>
      </g>
     </g>
    </g>
    <g id="ytick_12">
     <g id="line2d_63">
      <path clip-path="url(#p080d4cb075)" d="M 62.098346 93.25 
L 490.005 93.25 
" style="fill:none;stroke:#bbbbbb;stroke-linecap:square;stroke-width:0.8;"/>
     </g>
     <g id="line2d_64">
      <g>
       <use style="stroke:#000000;stroke-width:0.6;" x="62.098346" xlink:href="#mc6f6d9c3c5" y="93.25"/>
      </g>
     </g>
    </g>
    <g id="ytick_13">
     <g id="line2d_65">
      <path clip-path="url(#p080d4cb075)" d="M 62.098346 87.753333 
L 490.005 87.753333 
" style="fill:none;stroke:#bbbbbb;stroke-linecap:square;stroke-width:0.8;"/>
     </g>
     <g id="line2d_66">
      <g>
       <use style="stroke:#000000;stroke-width:0.6;" x="62.098346" xlink:href="#mc6f6d9c3c5" y="87.753333"/>
      </g>
     </g>
    </g>
    <g id="ytick_14">
     <g id="line2d_67">
      <path clip-path="url(#p080d4cb075)" d="M 62.098346 82.256667 
L 490.005 82.256667 
" style="fill:none;stroke:#bbbbbb;stroke-linecap:square;stroke-width:0.8;"/>
     </g>
     <g id="line2d_68">
      <g>
       <use style="stroke:#000000;stroke-width:0.6;" x="62.098346" xlink:href="#mc6f6d9c3c5" y="82.256667"/>
      </g>
     </g>
    </g>
    <g id="ytick_15">
     <g id="line2d_69">
      <path clip-path="url(#p080d4cb075)" d="M 62.098346 71.263333 
L 490.005 71.263333 
" style="fill:none;stroke:#bbbbbb;stroke-linecap:square;stroke-width:0.8;"/>
     </g>
     <g id="line2d_70">
      <g>
       <use style="stroke:#000000;stroke-width:0.6;" x="62.098346" xlink:href="#mc6f6d9c3c5" y="71.263333"/>
      </g>
     </g>
    </g>
    <g id="ytick_16">
     <g id="line2d_71">
      <path clip-path="url(#p080d4cb075)" d="M 62.098346 65.766667 
L 490.005 65.766667 
" style="fill:none;stroke:#bbbbbb;stroke-linecap:square;stroke-width:0.8;"/>
     </g>
     <g id="line2d_72">
      <g>
       <use style="stroke:#000000;stroke-width:0.6;" x="62.098346" xlink:href="#mc6f6d9c3c5" y="65.766667"/>
      </g>
     </g>
    </g>
    <g id="ytick_17">
     <g id="line2d_73">
      <path clip-path="url(#p080d4cb075)" d="M 62.098346 60.27 
L 490.005 60.27 
" style="fill:none;stroke:#bbbbbb;stroke-linecap:square;stroke-width:0.8;"/>
     </g>
     <g id="line2d_74">
      <g>
       <use style="stroke:#000000;stroke-width:0.6;" x="62.098346" xlink:href="#mc6f6d9c3c5" y="60.27"/>
      </g>
     </g>
    </g>
    <g id="ytick_18">
     <g id="line2d_75">
      <path clip-path="url(#p080d4cb075)" d="M 62.098346 54.773333 
L 490.005 54.773333 
" style="fill:none;stroke:#bbbbbb;stroke-linecap:square;stroke-width:0.8;"/>
     </g>
     <g id="line2d_76">
      <g>
       <use style="stroke:#000000;stroke-width:0.6;" x="62.098346" xlink:href="#mc6f6d9c3c5" y="54.773333"/>
      </g>
     </g>
    </g>
    <g id="ytick_19">
     <g id="line2d_77">
      <path clip-path="url(#p080d4cb075)" d="M 62.098346 43.78 
L 490.005 43.78 
" style="fill:none;stroke:#bbbbbb;stroke-linecap:square;stroke-width:0.8;"/>
     </g>
     <g id="line2d_78">
      <g>
       <use style="stroke:#000000;stroke-width:0.6;" x="62.098346" xlink:href="#mc6f6d9c3c5" y="43.78"/>
      </g>
     </g>
    </g>
    <g id="ytick_20">
     <g id="line2d_79">
      <path clip-path="url(#p080d4cb075)" d="M 62.098346 38.283333 
L 490.005 38.283333 
" style="fill:none;stroke:#bbbbbb;stroke-linecap:square;stroke-width:0.8;"/>
     </g>
     <g id="line2d_80">
      <g>
       <use style="stroke:#000000;stroke-width:0.6;" x="62.098346" xlink:href="#mc6f6d9c3c5" y="38.283333"/>
      </g>
     </g>
    </g>
    <g id="ytick_21">
     <g id="line2d_81">
      <path clip-path="url(#p080d4cb075)" d="M 62.098346 32.786667 
L 490.005 32.786667 
" style="fill:none;stroke:#bbbbbb;stroke-linecap:square;stroke-width:0.8;"/>
     </g>
     <g id="line2d_82">
      <g>
       <use style="stroke:#000000;stroke-width:0.6;" x="62.098346" xlink:href="#mc6f6d9c3c5" y="32.786667"/>
      </g>
     </g>
    </g>
    <g id="ytick_22">
     <g id="line2d_83">
      <path clip-path="url(#p080d4cb075)" d="M 62.098346 27.29 
L 490.005 27.29 
" style="fill:none;stroke:#bbbbbb;stroke-linecap:square;stroke-width:0.8;"/>
     </g>
     <g id="line2d_84">
      <g>
       <use style="stroke:#000000;stroke-width:0.6;" x="62.098346" xlink:href="#mc6f6d9c3c5" y="27.29"/>
      </g>
     </g>
    </g>
    <g id="ytick_23">
     <g id="line2d_85">
      <path clip-path="url(#p080d4cb075)" d="M 62.098346 16.296667 
L 490.005 16.296667 
" style="fill:none;stroke:#bbbbbb;stroke-linecap:square;stroke-width:0.8;"/>
     </g>
     <g id="line2d_86">
      <g>
       <use style="stroke:#000000;stroke-width:0.6;" x="62.098346" xlink:href="#mc6f6d9c3c5" y="16.296667"/>
      </g>
     </g>
    </g>
    <g id="ytick_24">
     <g id="line2d_87">
      <path clip-path="url(#p080d4cb075)" d="M 62.098346 10.8 
L 490.005 10.8 
" style="fill:none;stroke:#bbbbbb;stroke-linecap:square;stroke-width:0.8;"/>
     </g>
     <g id="line2d_88">
      <g>
       <use style="stroke:#000000;stroke-width:0.6;" x="62.098346" xlink:href="#mc6f6d9c3c5" y="10.8"/>
      </g>
     </g>
    </g>
    <g id="text_12">
     <!-- $s(t)$ in $\sqrt{\mathrm{W}}$ -->
     <defs>
      <path d="M 50 53.078125 
L 48.296875 44.578125 
Q 44.734375 46.53125 40.765625 47.5 
Q 36.8125 48.484375 32.625 48.484375 
Q 25.53125 48.484375 21.453125 46.0625 
Q 17.390625 43.65625 17.390625 39.5 
Q 17.390625 34.671875 26.859375 32.078125 
Q 27.59375 31.890625 27.9375 31.78125 
L 30.8125 30.90625 
Q 39.796875 28.421875 42.796875 25.6875 
Q 45.796875 22.953125 45.796875 18.21875 
Q 45.796875 9.515625 38.890625 4.046875 
Q 31.984375 -1.421875 20.796875 -1.421875 
Q 16.453125 -1.421875 11.671875 -0.578125 
Q 6.890625 0.25 1.125 2 
L 2.875 11.28125 
Q 7.8125 8.734375 12.59375 7.421875 
Q 17.390625 6.109375 21.78125 6.109375 
Q 28.375 6.109375 32.5 8.9375 
Q 36.625 11.765625 36.625 16.109375 
Q 36.625 20.796875 25.78125 23.6875 
L 24.859375 23.921875 
L 21.78125 24.703125 
Q 14.9375 26.515625 11.765625 29.46875 
Q 8.59375 32.421875 8.59375 37.015625 
Q 8.59375 45.75 15.15625 50.875 
Q 21.734375 56 33.015625 56 
Q 37.453125 56 41.671875 55.265625 
Q 45.90625 54.546875 50 53.078125 
z
" id="DejaVuSans-Oblique-115"/>
      <path d="M 31 75.875 
Q 24.46875 64.65625 21.28125 53.65625 
Q 18.109375 42.671875 18.109375 31.390625 
Q 18.109375 20.125 21.3125 9.0625 
Q 24.515625 -2 31 -13.1875 
L 23.1875 -13.1875 
Q 15.875 -1.703125 12.234375 9.375 
Q 8.59375 20.453125 8.59375 31.390625 
Q 8.59375 42.28125 12.203125 53.3125 
Q 15.828125 64.359375 23.1875 75.875 
z
" id="DejaVuSans-40"/>
      <path d="M 8.015625 75.875 
L 15.828125 75.875 
Q 23.140625 64.359375 26.78125 53.3125 
Q 30.421875 42.28125 30.421875 31.390625 
Q 30.421875 20.453125 26.78125 9.375 
Q 23.140625 -1.703125 15.828125 -13.1875 
L 8.015625 -13.1875 
Q 14.5 -2 17.703125 9.0625 
Q 20.90625 20.125 20.90625 31.390625 
Q 20.90625 42.671875 17.703125 53.65625 
Q 14.5 64.65625 8.015625 75.875 
z
" id="DejaVuSans-41"/>
      <path id="DejaVuSans-32"/>
      <path d="M 9.421875 54.6875 
L 18.40625 54.6875 
L 18.40625 0 
L 9.421875 0 
z
M 9.421875 75.984375 
L 18.40625 75.984375 
L 18.40625 64.59375 
L 9.421875 64.59375 
z
" id="DejaVuSans-105"/>
      <path d="M 54.890625 33.015625 
L 54.890625 0 
L 45.90625 0 
L 45.90625 32.71875 
Q 45.90625 40.484375 42.875 44.328125 
Q 39.84375 48.1875 33.796875 48.1875 
Q 26.515625 48.1875 22.3125 43.546875 
Q 18.109375 38.921875 18.109375 30.90625 
L 18.109375 0 
L 9.078125 0 
L 9.078125 54.6875 
L 18.109375 54.6875 
L 18.109375 46.1875 
Q 21.34375 51.125 25.703125 53.5625 
Q 30.078125 56 35.796875 56 
Q 45.21875 56 50.046875 50.171875 
Q 54.890625 44.34375 54.890625 33.015625 
z
" id="DejaVuSans-110"/>
      <path d="M 108.90625 155.203125 
L 52.703125 -29.5 
L 48.5 -29.5 
L 25.40625 45.59375 
Q 24.296875 49.203125 22.890625 50.796875 
Q 21.5 52.40625 19.203125 52.40625 
Q 15.796875 52.40625 12.40625 49.703125 
L 11.203125 51.703125 
L 27.59375 64.296875 
L 30.09375 64.296875 
L 52.796875 -9.40625 
L 53.203125 -9.40625 
L 103.203125 155.203125 
z
" id="STIXSizeOneSym-Regular-8730"/>
      <path d="M 3.328125 72.90625 
L 13.28125 72.90625 
L 28.609375 11.28125 
L 43.890625 72.90625 
L 54.984375 72.90625 
L 70.3125 11.28125 
L 85.59375 72.90625 
L 95.609375 72.90625 
L 77.296875 0 
L 64.890625 0 
L 49.515625 63.28125 
L 33.984375 0 
L 21.578125 0 
z
" id="DejaVuSans-87"/>
     </defs>
     <g transform="translate(24.735846 102.16)rotate(-90)scale(0.1 -0.1)">
      <use transform="translate(0 0.84375)" xlink:href="#DejaVuSans-Oblique-115"/>
      <use transform="translate(52.099609 0.84375)" xlink:href="#DejaVuSans-40"/>
      <use transform="translate(91.113281 0.84375)" xlink:href="#DejaVuSans-Oblique-116"/>
      <use transform="translate(130.322266 0.84375)" xlink:href="#DejaVuSans-41"/>
      <use transform="translate(169.335938 0.84375)" xlink:href="#DejaVuSans-32"/>
      <use transform="translate(201.123047 0.84375)" xlink:href="#DejaVuSans-105"/>
      <use transform="translate(228.90625 0.84375)" xlink:href="#DejaVuSans-110"/>
      <use transform="translate(292.285156 0.84375)" xlink:href="#DejaVuSans-32"/>
      <use transform="translate(324.072266 17.484375)scale(0.563912)" xlink:href="#STIXSizeOneSym-Regular-8730"/>
      <use transform="translate(396.177139 0.84375)" xlink:href="#DejaVuSans-87"/>
      <path d="M 383.677139 98.5 
L 383.677139 104.75 
L 507.554092 104.75 
L 507.554092 98.5 
L 383.677139 98.5 
z
"/>
     </g>
    </g>
   </g>
   <g id="line2d_89">
    <path clip-path="url(#p080d4cb075)" d="M 61.255353 88.750607 
L 63.822844 53.356332 
L 64.678675 43.070542 
L 65.534505 34.407455 
L 66.390336 27.784341 
L 67.246166 23.520212 
L 68.101997 21.820456 
L 68.957827 22.766944 
L 69.813657 26.314087 
L 70.669488 32.291033 
L 71.525318 40.409891 
L 73.236979 61.424789 
L 76.660301 107.65585 
L 77.516131 116.828976 
L 78.371962 124.07212 
L 79.227792 129.036407 
L 80.083623 131.482723 
L 80.939453 131.293238 
L 81.795283 128.47708 
L 82.651114 123.169892 
L 83.506944 115.627303 
L 84.362775 106.212613 
L 86.074435 83.64915 
L 88.641927 48.77969 
L 89.497757 39.132727 
L 90.353588 31.298138 
L 91.209418 25.653286 
L 92.065248 22.470064 
L 92.921079 21.901797 
L 93.776909 23.975857 
L 94.63274 28.592343 
L 95.48857 35.528895 
L 96.344401 44.451404 
L 98.056061 66.460274 
L 100.623553 101.714344 
L 101.479383 111.797072 
L 102.335214 120.192187 
L 103.191044 126.495327 
L 104.046874 130.402891 
L 104.902705 131.726667 
L 105.758535 130.402891 
L 106.614366 126.495327 
L 107.470196 120.192187 
L 108.326027 111.797072 
L 110.037687 90.429654 
L 112.605179 54.930104 
L 113.461009 44.451404 
L 114.316839 35.528895 
L 115.17267 28.592343 
L 116.0285 23.975857 
L 116.884331 21.901797 
L 117.740161 22.470064 
L 118.595992 25.653286 
L 119.451822 31.298138 
L 120.307652 39.132727 
L 121.163483 48.77969 
L 122.875144 71.58718 
L 125.442635 106.212613 
L 126.298465 115.627303 
L 127.154296 123.169892 
L 128.010126 128.47708 
L 128.865957 131.293238 
L 129.721787 131.482723 
L 130.577618 129.036407 
L 131.433448 124.07212 
L 132.289278 116.828976 
L 133.145109 107.65585 
L 134.85677 85.358681 
L 137.424261 50.279606 
L 138.280091 40.409891 
L 139.135922 32.291033 
L 139.991752 26.314087 
L 140.847583 22.766944 
L 141.703413 21.820456 
L 142.559243 23.520212 
L 143.415074 27.784341 
L 144.270904 34.407455 
L 145.126735 43.070542 
L 146.838396 64.769393 
L 147.694226 76.76 
L 149.405887 106.212613 
L 150.261717 117.991105 
L 151.117548 126.495327 
L 151.973378 131.049936 
L 152.829209 131.293238 
L 153.685039 127.205913 
L 154.540869 119.112545 
L 155.3967 107.65585 
L 157.108361 78.486545 
L 158.820022 48.77969 
L 159.675852 36.691024 
L 160.531682 27.784341 
L 161.387513 22.766944 
L 162.243343 22.037277 
L 163.099174 25.653286 
L 163.955004 33.327813 
L 164.810835 44.451404 
L 166.522495 73.308614 
L 168.234156 103.240394 
L 169.089987 115.627303 
L 169.945817 124.927657 
L 170.801647 130.402891 
L 171.657478 131.618203 
L 172.513308 128.47708 
L 173.369139 121.228967 
L 174.224969 110.449458 
L 175.93663 81.93282 
L 177.648291 51.805656 
L 178.504121 39.132727 
L 179.359952 29.44788 
L 180.215782 23.520212 
L 181.071613 21.820456 
L 181.927443 24.483593 
L 182.783273 31.298138 
L 183.639104 41.722928 
L 184.494934 54.930104 
L 187.918256 113.110109 
L 188.774086 123.169892 
L 189.629917 129.544143 
L 190.485747 131.726667 
L 191.341578 129.544143 
L 192.197408 123.169892 
L 193.053239 113.110109 
L 193.909069 100.163668 
L 197.332391 41.722928 
L 198.188221 31.298138 
L 199.044051 24.483593 
L 199.899882 21.820456 
L 200.755712 23.520212 
L 201.611543 29.44788 
L 202.467373 39.132727 
L 203.323204 51.805656 
L 206.746525 110.449458 
L 207.602356 121.228967 
L 208.458186 128.47708 
L 209.314017 131.618203 
L 210.169847 130.402891 
L 211.025677 124.927657 
L 211.881508 115.627303 
L 212.737338 103.240394 
L 216.16066 44.451404 
L 217.01649 33.327813 
L 217.872321 25.653286 
L 218.728151 22.037277 
L 219.583982 22.766944 
L 220.439812 27.784341 
L 221.295643 36.691024 
L 222.151473 48.77969 
L 223.863134 78.486545 
L 225.574795 107.65585 
L 226.430625 119.112545 
L 227.286455 127.205913 
L 228.142286 131.293238 
L 228.998116 131.049936 
L 229.853947 126.495327 
L 230.709777 117.991105 
L 231.565608 106.212613 
L 233.277268 76.76 
L 234.988929 47.307387 
L 235.84476 35.528895 
L 236.70059 27.024673 
L 237.556421 22.470064 
L 238.412251 22.226762 
L 239.268081 26.314087 
L 240.123912 34.407455 
L 240.979742 45.86415 
L 242.691403 75.033455 
L 244.403064 104.74031 
L 245.258894 116.828976 
L 246.114725 125.735659 
L 246.970555 130.753056 
L 247.826386 131.482723 
L 248.682216 127.866714 
L 249.538047 120.192187 
L 250.393877 109.068596 
L 252.105538 80.211386 
L 253.817199 50.279606 
L 254.673029 37.892697 
L 255.528859 28.592343 
L 256.38469 23.117109 
L 257.24052 21.901797 
L 258.096351 25.04292 
L 258.952181 32.291033 
L 259.808012 43.070542 
L 261.519672 71.58718 
L 263.231333 101.714344 
L 264.087164 114.387273 
L 264.942994 124.07212 
L 265.798825 129.999788 
L 266.654655 131.699544 
L 267.510485 129.036407 
L 268.366316 122.221862 
L 269.222146 111.797072 
L 270.077977 98.589896 
L 273.501298 40.409891 
L 274.357129 30.350108 
L 275.212959 23.975857 
L 276.06879 21.793333 
L 276.92462 23.975857 
L 277.780451 30.350108 
L 278.636281 40.409891 
L 279.492111 53.356332 
L 282.915433 111.797072 
L 283.771263 122.221862 
L 284.627094 129.036407 
L 285.482924 131.699544 
L 286.338755 129.999788 
L 287.194585 124.07212 
L 288.050416 114.387273 
L 288.906246 101.714344 
L 292.329568 43.070542 
L 293.185398 32.291033 
L 294.041229 25.04292 
L 294.897059 21.901797 
L 295.752889 23.117109 
L 296.60872 28.592343 
L 297.46455 37.892697 
L 298.320381 50.279606 
L 301.743702 109.068596 
L 302.599533 120.192187 
L 303.455363 127.866714 
L 304.311194 131.482723 
L 305.167024 130.753056 
L 306.022855 125.735659 
L 306.878685 116.828976 
L 307.734515 104.74031 
L 309.446176 75.033455 
L 311.157837 45.86415 
L 312.013668 34.407455 
L 312.869498 26.314087 
L 313.725328 22.226762 
L 314.581159 22.470064 
L 315.436989 27.024673 
L 316.29282 35.528895 
L 317.14865 47.307387 
L 318.860311 76.76 
L 320.571972 106.212613 
L 321.427802 117.991105 
L 322.283633 126.495327 
L 323.139463 131.049936 
L 323.995293 131.293238 
L 324.851124 127.205913 
L 325.706954 119.112545 
L 326.562785 107.65585 
L 328.274446 78.486545 
L 329.986106 48.77969 
L 330.841937 36.691024 
L 331.697767 27.784341 
L 332.553598 22.766944 
L 333.409428 22.037277 
L 334.265259 25.653286 
L 335.121089 33.327813 
L 335.976919 44.451404 
L 337.68858 73.308614 
L 339.400241 103.240394 
L 340.256072 115.627303 
L 341.111902 124.927657 
L 341.967732 130.402891 
L 342.823563 131.618203 
L 343.679393 128.47708 
L 344.535224 121.228967 
L 345.391054 110.449458 
L 347.102715 81.93282 
L 348.814376 51.805656 
L 349.670206 39.132727 
L 350.526037 29.44788 
L 351.381867 23.520212 
L 352.237697 21.820456 
L 353.093528 24.483593 
L 353.949358 31.298138 
L 354.805189 41.722928 
L 355.661019 54.930104 
L 359.084341 113.110109 
L 359.940171 123.169892 
L 360.796002 129.544143 
L 361.651832 131.726667 
L 362.507663 130.402891 
L 363.363493 126.495327 
L 364.219323 120.192187 
L 365.075154 111.797072 
L 366.786815 90.429654 
L 369.354306 54.930104 
L 370.210136 44.451404 
L 371.065967 35.528895 
L 371.921797 28.592343 
L 372.777628 23.975857 
L 373.633458 21.901797 
L 374.489288 22.470064 
L 375.345119 25.653286 
L 376.200949 31.298138 
L 377.05678 39.132727 
L 377.91261 48.77969 
L 379.624271 71.58718 
L 382.191762 106.212613 
L 383.047593 115.627303 
L 383.903423 123.169892 
L 384.759254 128.47708 
L 385.615084 131.293238 
L 386.470914 131.482723 
L 387.326745 129.036407 
L 388.182575 124.07212 
L 389.038406 116.828976 
L 389.894236 107.65585 
L 391.605897 85.358681 
L 394.173388 50.279606 
L 395.029219 40.409891 
L 395.885049 32.291033 
L 396.74088 26.314087 
L 397.59671 22.766944 
L 398.45254 21.820456 
L 399.308371 23.520212 
L 400.164201 27.784341 
L 401.020032 34.407455 
L 401.875862 43.070542 
L 403.587523 64.769393 
L 404.443353 76.76 
L 406.155014 106.212613 
L 407.010845 117.991105 
L 407.866675 126.495327 
L 408.722505 131.049936 
L 409.578336 131.293238 
L 410.434166 127.205913 
L 411.289997 119.112545 
L 412.145827 107.65585 
L 413.857488 78.486545 
L 415.569149 48.77969 
L 416.424979 36.691024 
L 417.28081 27.784341 
L 418.13664 22.766944 
L 418.992471 22.037277 
L 419.848301 25.653286 
L 420.704131 33.327813 
L 421.559962 44.451404 
L 423.271623 73.308614 
L 424.983284 103.240394 
L 425.839114 115.627303 
L 426.694944 124.927657 
L 427.550775 130.402891 
L 428.406605 131.618203 
L 429.262436 128.47708 
L 430.118266 121.228967 
L 430.974096 110.449458 
L 432.685757 81.93282 
L 434.397418 51.805656 
L 435.253249 39.132727 
L 436.109079 29.44788 
L 436.964909 23.520212 
L 437.82074 21.820456 
L 438.67657 24.483593 
L 439.532401 31.298138 
L 440.388231 41.722928 
L 441.244062 54.930104 
L 444.667383 113.110109 
L 445.523214 123.169892 
L 446.379044 129.544143 
L 447.234875 131.726667 
L 448.090705 130.402891 
L 448.946535 126.495327 
L 449.802366 120.192187 
L 450.658196 111.797072 
L 452.369857 90.429654 
L 454.937348 54.930104 
L 455.793179 44.451404 
L 456.649009 35.528895 
L 457.50484 28.592343 
L 458.36067 23.975857 
L 459.2165 21.901797 
L 460.072331 22.470064 
L 460.928161 25.653286 
L 461.783992 31.298138 
L 462.639822 39.132727 
L 463.495653 48.77969 
L 465.207313 71.58718 
L 467.774805 106.212613 
L 468.630635 115.627303 
L 469.486466 123.169892 
L 470.342296 128.47708 
L 471.198126 131.293238 
L 472.053957 131.482723 
L 472.909787 129.036407 
L 473.765618 124.07212 
L 474.621448 116.828976 
L 475.477279 107.65585 
L 477.188939 85.358681 
L 479.756431 50.279606 
L 480.612261 40.409891 
L 481.468092 32.291033 
L 482.323922 26.314087 
L 483.179752 22.766944 
L 484.035583 21.820456 
L 484.891413 23.520212 
L 485.747244 27.784341 
L 486.603074 34.407455 
L 487.458904 43.070542 
L 489.170565 64.769393 
L 490.026396 76.76 
L 490.026396 76.76 
" style="fill:none;stroke:#114da1;stroke-linecap:square;stroke-width:1.5;"/>
   </g>
   <g id="line2d_90">
    <path clip-path="url(#p080d4cb075)" d="M 61.255353 43.266784 
L 62.111184 33.464199 
L 62.967014 26.41308 
L 63.822844 22.522008 
L 64.678675 21.996266 
L 65.534505 24.830528 
L 66.390336 30.814732 
L 67.246166 39.552197 
L 68.101997 50.488381 
L 72.381149 112.771177 
L 73.236979 121.60784 
L 74.09281 127.85826 
L 74.94864 131.195412 
L 75.80447 131.461241 
L 76.660301 128.671401 
L 77.516131 123.010309 
L 78.371962 114.817171 
L 79.227792 104.564048 
L 80.939453 80.255182 
L 82.651114 55.334313 
L 83.506944 44.311204 
L 84.362775 35.034588 
L 85.218605 27.979105 
L 86.074435 23.497656 
L 86.930266 21.805338 
L 87.786096 22.970741 
L 88.641927 26.914802 
L 89.497757 33.417116 
L 90.353588 42.129178 
L 92.065248 64.269336 
L 94.63274 100.488636 
L 95.48857 110.930948 
L 96.344401 119.647219 
L 97.200231 126.209839 
L 98.056061 130.300735 
L 98.911892 131.725993 
L 99.767722 130.424308 
L 100.623553 126.468933 
L 101.479383 120.063095 
L 102.335214 111.529186 
L 104.046874 89.858936 
L 106.614366 54.123489 
L 107.470196 43.676513 
L 108.326027 34.84917 
L 109.181857 28.068554 
L 110.037687 23.661351 
L 110.893518 21.83841 
L 111.749348 22.684919 
L 112.605179 26.156648 
L 113.461009 32.082422 
L 114.316839 40.172664 
L 115.17267 50.03361 
L 116.884331 73.09069 
L 118.595992 96.840281 
L 119.451822 107.537706 
L 120.307652 116.745824 
L 121.163483 124.020405 
L 122.019313 129.010758 
L 122.875144 131.476546 
L 123.730974 131.299291 
L 124.586805 128.48802 
L 125.442635 123.178777 
L 126.298465 115.628047 
L 127.154296 106.200384 
L 128.865957 83.60315 
L 131.433448 48.694238 
L 132.289278 39.045906 
L 133.145109 31.219249 
L 134.000939 25.593232 
L 134.85677 22.440837 
L 135.7126 21.915802 
L 136.568431 24.045081 
L 137.424261 28.727378 
L 138.280091 35.737857 
L 139.135922 44.738789 
L 140.847583 66.897909 
L 143.415074 102.262597 
L 144.270904 112.322659 
L 145.126735 120.654261 
L 145.982565 126.848282 
L 146.838396 130.598533 
L 147.694226 131.717018 
L 148.550056 130.143563 
L 149.405887 125.949322 
L 150.261717 119.33399 
L 151.117548 110.616753 
L 152.829209 88.656195 
L 155.3967 52.760556 
L 156.25253 42.380782 
L 157.108361 33.706627 
L 157.964191 27.179582 
L 158.820022 23.13689 
L 159.675852 21.793698 
L 160.531682 23.231002 
L 161.387513 27.390076 
L 162.243343 34.073758 
L 163.099174 42.954665 
L 164.810835 65.442846 
L 167.378326 102.09195 
L 168.234156 112.540791 
L 169.089987 121.126147 
L 169.945817 127.37852 
L 170.801647 130.946066 
L 171.657478 131.615488 
L 172.513308 129.326135 
L 173.369139 124.176344 
L 174.224969 116.421443 
L 175.0808 106.463218 
L 176.79246 82.155913 
L 178.504121 56.50463 
L 179.359952 44.97986 
L 180.215782 35.232875 
L 181.071613 27.843513 
L 181.927443 23.265425 
L 182.783273 21.796405 
L 183.639104 23.556858 
L 184.494934 28.478015 
L 185.350765 36.301037 
L 186.206595 46.587539 
L 187.918256 72.040988 
L 189.629917 98.817208 
L 190.485747 110.624555 
L 191.341578 120.343726 
L 192.197408 127.334475 
L 193.053239 131.119369 
L 193.909069 131.419072 
L 194.764899 128.175842 
L 195.62073 121.563137 
L 196.47656 111.980096 
L 197.332391 100.030637 
L 200.755712 45.492821 
L 201.611543 34.824655 
L 202.467373 27.014905 
L 203.323204 22.633003 
L 204.179034 22.0167 
L 205.034864 25.243044 
L 205.890695 32.117364 
L 206.746525 42.181676 
L 208.458186 68.916804 
L 210.169847 98.001551 
L 211.025677 110.795788 
L 211.881508 121.126768 
L 212.737338 128.217044 
L 213.593169 131.521149 
L 214.448999 130.770033 
L 215.30483 125.995355 
L 216.16066 117.531304 
L 217.01649 105.993311 
L 218.728151 77.28517 
L 220.439812 48.339406 
L 221.295643 36.553195 
L 222.151473 27.824717 
L 223.007303 22.835502 
L 223.863134 21.983075 
L 224.718964 25.347663 
L 225.574795 32.683391 
L 226.430625 43.434953 
L 228.142286 71.685325 
L 229.853947 101.526956 
L 230.709777 114.133742 
L 231.565608 123.829779 
L 232.421438 129.850403 
L 233.277268 131.716979 
L 234.133099 129.275837 
L 234.988929 122.711673 
L 235.84476 112.534216 
L 236.70059 99.53908 
L 240.123912 41.377779 
L 240.979742 31.073026 
L 241.835573 24.3734 
L 242.691403 21.81129 
L 243.547234 23.592321 
L 244.403064 29.578528 
L 245.258894 39.298776 
L 246.114725 51.985677 
L 249.538047 110.546858 
L 250.393877 121.292718 
L 251.249707 128.509327 
L 252.105538 131.623394 
L 252.961368 130.386867 
L 253.817199 124.896808 
L 254.673029 115.587863 
L 255.528859 103.197904 
L 258.952181 44.429515 
L 259.808012 33.31357 
L 260.663842 25.645958 
L 261.519672 22.035678 
L 262.375503 22.769665 
L 263.231333 27.789945 
L 264.087164 36.698196 
L 264.942994 48.787333 
L 266.654655 78.492913 
L 268.366316 107.659659 
L 269.222146 119.115061 
L 270.077977 127.207269 
L 270.933807 131.293613 
L 271.789638 131.049519 
L 272.645468 126.494294 
L 273.501298 117.989613 
L 274.357129 106.210795 
L 276.06879 76.757896 
L 277.780451 47.305611 
L 278.636281 35.527504 
L 279.492111 27.023777 
L 280.347942 22.469735 
L 281.203772 22.227026 
L 282.059603 26.314923 
L 282.915433 34.408797 
L 283.771263 45.865891 
L 285.482924 75.035558 
L 287.194585 104.742121 
L 288.050416 116.830416 
L 288.906246 125.736614 
L 289.762076 130.75345 
L 290.617907 131.482525 
L 291.473737 127.86594 
L 292.329568 120.190898 
L 293.185398 109.066894 
L 294.897059 80.209286 
L 296.60872 50.277763 
L 297.46455 37.89121 
L 298.320381 28.591329 
L 299.176211 23.11665 
L 300.032042 21.90193 
L 300.887872 25.043633 
L 301.743702 32.292269 
L 302.599533 43.072205 
L 304.311194 71.589274 
L 306.022855 101.716219 
L 306.878685 114.388806 
L 307.734515 124.073191 
L 308.590346 130.000311 
L 309.446176 131.699478 
L 310.302007 129.035756 
L 311.157837 122.22068 
L 312.013668 111.795451 
L 312.869498 98.587965 
L 316.29282 40.408313 
L 317.14865 30.348981 
L 318.00448 23.97527 
L 318.860311 21.793333 
L 319.716141 23.976432 
L 320.571972 30.351165 
L 321.427802 40.41126 
L 322.283633 53.357793 
L 325.706954 111.797013 
L 326.562785 122.221425 
L 327.418615 129.035906 
L 328.274446 131.699461 
L 329.130276 130.000737 
L 329.986106 124.074776 
L 330.841937 114.392271 
L 331.697767 101.722153 
L 335.121089 43.086218 
L 335.976919 32.304964 
L 336.83275 25.052445 
L 337.68858 21.903887 
L 338.544411 23.108655 
L 339.400241 28.570547 
L 340.256072 37.855527 
L 341.111902 50.226296 
L 344.535224 108.983054 
L 345.391054 120.118245 
L 346.246884 127.81611 
L 347.102715 131.467867 
L 347.958545 130.785787 
L 348.814376 125.825735 
L 349.670206 116.982425 
L 350.526037 104.95778 
L 352.237697 75.352553 
L 353.949358 46.195953 
L 354.805189 34.693802 
L 355.661019 26.514185 
L 356.51685 22.299148 
L 357.37268 22.376871 
L 358.22851 26.736468 
L 359.084341 35.02969 
L 359.940171 46.5993 
L 361.651832 75.730147 
L 363.363493 105.147937 
L 364.219323 117.067091 
L 365.075154 125.83178 
L 365.930984 130.76512 
L 366.786815 131.491635 
L 367.642645 127.965037 
L 368.498476 120.470026 
L 369.354306 109.598155 
L 371.065967 81.316861 
L 372.777628 51.718668 
L 373.633458 39.27238 
L 374.489288 29.704664 
L 375.345119 23.733047 
L 376.200949 21.796007 
L 377.05678 24.022233 
L 377.91261 30.224026 
L 378.768441 39.914982 
L 379.624271 52.350183 
L 383.047593 109.253776 
L 383.903423 119.9609 
L 384.759254 127.484718 
L 385.615084 131.298212 
L 386.470914 131.150517 
L 387.326745 127.080723 
L 388.182575 119.410187 
L 389.038406 108.714477 
L 390.750067 81.532081 
L 392.461727 53.171554 
L 393.317558 41.029991 
L 394.173388 31.390061 
L 395.029219 24.891771 
L 395.885049 21.950571 
L 396.74088 22.733719 
L 397.59671 27.154241 
L 398.45254 34.882311 
L 399.308371 45.372639 
L 401.020032 71.637945 
L 402.731692 99.06524 
L 403.587523 110.989211 
L 404.443353 120.68395 
L 405.299184 127.55291 
L 406.155014 131.187389 
L 407.010845 131.388025 
L 407.866675 128.172688 
L 408.722505 121.770753 
L 409.578336 112.604601 
L 411.289997 88.446977 
L 413.857488 49.199716 
L 414.713318 38.473488 
L 415.569149 30.055459 
L 416.424979 24.431183 
L 417.28081 21.917276 
L 418.13664 22.645431 
L 418.992471 26.557208 
L 419.848301 33.409639 
L 420.704131 42.791103 
L 422.415792 66.809609 
L 424.983284 105.158762 
L 425.839114 115.589353 
L 426.694944 123.766126 
L 427.550775 129.215844 
L 428.406605 131.621523 
L 429.262436 130.840593 
L 430.118266 126.913443 
L 430.974096 120.061849 
L 431.829927 110.677267 
L 433.541588 86.587188 
L 436.109079 47.998413 
L 436.964909 37.523249 
L 437.82074 29.365238 
L 438.67657 24.024401 
L 439.532401 21.837672 
L 440.388231 22.956424 
L 441.244062 27.334523 
L 442.099892 34.727924 
L 442.955722 44.706159 
L 444.667383 69.912083 
L 446.379044 96.90538 
L 447.234875 108.976984 
L 448.090705 119.051349 
L 448.946535 126.476485 
L 449.802366 130.760856 
L 450.658196 131.607822 
L 451.514027 128.938269 
L 452.369857 122.899571 
L 453.225688 113.859868 
L 454.081518 102.387595 
L 458.36067 37.248348 
L 459.2165 28.784198 
L 460.072331 23.510637 
L 460.928161 21.795545 
L 461.783992 23.768679 
L 462.639822 29.310461 
L 463.495653 38.057994 
L 464.351483 49.428128 
L 466.063144 76.84759 
L 467.774805 104.266114 
L 468.630635 115.627303 
L 469.486466 124.34937 
L 470.342296 129.839517 
L 471.198126 131.726597 
L 472.053957 129.886417 
L 472.909787 124.449655 
L 473.765618 115.791899 
L 474.621448 104.506633 
L 476.333109 77.253063 
L 478.04477 49.933579 
L 478.9006 38.54791 
L 479.756431 29.72008 
L 480.612261 24.022699 
L 481.468092 21.815386 
L 482.323922 23.223545 
L 483.179752 28.13325 
L 484.035583 36.202211 
L 484.891413 46.88569 
L 486.603074 73.147406 
L 488.314735 100.203668 
L 489.170565 111.870914 
L 490.026396 121.295383 
L 490.026396 121.295383 
" style="fill:none;stroke:#b33333;stroke-linecap:square;stroke-width:1.5;"/>
   </g>
   <g id="patch_3">
    <path d="M 62.098346 142.72 
L 62.098346 10.8 
" style="fill:none;stroke:#000000;stroke-linecap:square;stroke-linejoin:miter;stroke-width:0.8;"/>
   </g>
   <g id="patch_4">
    <path d="M 490.005 142.72 
L 490.005 10.8 
" style="fill:none;stroke:#000000;stroke-linecap:square;stroke-linejoin:miter;stroke-width:0.8;"/>
   </g>
   <g id="patch_5">
    <path d="M 62.098346 142.72 
L 490.005 142.72 
" style="fill:none;stroke:#000000;stroke-linecap:square;stroke-linejoin:miter;stroke-width:0.8;"/>
   </g>
   <g id="patch_6">
    <path d="M 62.098346 10.8 
L 490.005 10.8 
" style="fill:none;stroke:#000000;stroke-linecap:square;stroke-linejoin:miter;stroke-width:0.8;"/>
   </g>
   <g id="legend_1">
    <g id="patch_7">
     <path d="M 421.722187 48.15625 
L 483.005 48.15625 
Q 485.005 48.15625 485.005 46.15625 
L 485.005 17.8 
Q 485.005 15.8 483.005 15.8 
L 421.722187 15.8 
Q 419.722187 15.8 419.722187 17.8 
L 419.722187 46.15625 
Q 419.722187 48.15625 421.722187 48.15625 
z
" style="fill:#ffffff;opacity:0.8;stroke:#cccccc;stroke-linejoin:miter;"/>
    </g>
    <g id="line2d_91">
     <path d="M 423.722187 23.898438 
L 443.722187 23.898438 
" style="fill:none;stroke:#114da1;stroke-linecap:square;stroke-width:1.5;"/>
    </g>
    <g id="line2d_92"/>
    <g id="text_13">
     <!-- MSK -->
     <defs>
      <path d="M 9.8125 72.90625 
L 24.515625 72.90625 
L 43.109375 23.296875 
L 61.8125 72.90625 
L 76.515625 72.90625 
L 76.515625 0 
L 66.890625 0 
L 66.890625 64.015625 
L 48.09375 14.015625 
L 38.1875 14.015625 
L 19.390625 64.015625 
L 19.390625 0 
L 9.8125 0 
z
" id="DejaVuSans-77"/>
      <path d="M 53.515625 70.515625 
L 53.515625 60.890625 
Q 47.90625 63.578125 42.921875 64.890625 
Q 37.9375 66.21875 33.296875 66.21875 
Q 25.25 66.21875 20.875 63.09375 
Q 16.5 59.96875 16.5 54.203125 
Q 16.5 49.359375 19.40625 46.890625 
Q 22.3125 44.4375 30.421875 42.921875 
L 36.375 41.703125 
Q 47.40625 39.59375 52.65625 34.296875 
Q 57.90625 29 57.90625 20.125 
Q 57.90625 9.515625 50.796875 4.046875 
Q 43.703125 -1.421875 29.984375 -1.421875 
Q 24.8125 -1.421875 18.96875 -0.25 
Q 13.140625 0.921875 6.890625 3.21875 
L 6.890625 13.375 
Q 12.890625 10.015625 18.65625 8.296875 
Q 24.421875 6.59375 29.984375 6.59375 
Q 38.421875 6.59375 43.015625 9.90625 
Q 47.609375 13.234375 47.609375 19.390625 
Q 47.609375 24.75 44.3125 27.78125 
Q 41.015625 30.8125 33.5 32.328125 
L 27.484375 33.5 
Q 16.453125 35.6875 11.515625 40.375 
Q 6.59375 45.0625 6.59375 53.421875 
Q 6.59375 63.09375 13.40625 68.65625 
Q 20.21875 74.21875 32.171875 74.21875 
Q 37.3125 74.21875 42.625 73.28125 
Q 47.953125 72.359375 53.515625 70.515625 
z
" id="DejaVuSans-83"/>
      <path d="M 9.8125 72.90625 
L 19.671875 72.90625 
L 19.671875 42.09375 
L 52.390625 72.90625 
L 65.09375 72.90625 
L 28.90625 38.921875 
L 67.671875 0 
L 54.6875 0 
L 19.671875 35.109375 
L 19.671875 0 
L 9.8125 0 
z
" id="DejaVuSans-75"/>
     </defs>
     <g transform="translate(451.722187 27.398438)scale(0.1 -0.1)">
      <use xlink:href="#DejaVuSans-77"/>
      <use x="86.279297" xlink:href="#DejaVuSans-83"/>
      <use x="149.755859" xlink:href="#DejaVuSans-75"/>
     </g>
    </g>
    <g id="line2d_93">
     <path d="M 423.722187 38.576563 
L 443.722187 38.576563 
" style="fill:none;stroke:#b33333;stroke-linecap:square;stroke-width:1.5;"/>
    </g>
    <g id="line2d_94"/>
    <g id="text_14">
     <!-- GMSK -->
     <defs>
      <path d="M 59.515625 10.40625 
L 59.515625 29.984375 
L 43.40625 29.984375 
L 43.40625 38.09375 
L 69.28125 38.09375 
L 69.28125 6.78125 
Q 63.578125 2.734375 56.6875 0.65625 
Q 49.8125 -1.421875 42 -1.421875 
Q 24.90625 -1.421875 15.25 8.5625 
Q 5.609375 18.5625 5.609375 36.375 
Q 5.609375 54.25 15.25 64.234375 
Q 24.90625 74.21875 42 74.21875 
Q 49.125 74.21875 55.546875 72.453125 
Q 61.96875 70.703125 67.390625 67.28125 
L 67.390625 56.78125 
Q 61.921875 61.421875 55.765625 63.765625 
Q 49.609375 66.109375 42.828125 66.109375 
Q 29.4375 66.109375 22.71875 58.640625 
Q 16.015625 51.171875 16.015625 36.375 
Q 16.015625 21.625 22.71875 14.15625 
Q 29.4375 6.6875 42.828125 6.6875 
Q 48.046875 6.6875 52.140625 7.59375 
Q 56.25 8.5 59.515625 10.40625 
z
" id="DejaVuSans-71"/>
     </defs>
     <g transform="translate(451.722187 42.076563)scale(0.1 -0.1)">
      <use xlink:href="#DejaVuSans-71"/>
      <use x="77.490234" xlink:href="#DejaVuSans-77"/>
      <use x="163.769531" xlink:href="#DejaVuSans-83"/>
      <use x="227.246094" xlink:href="#DejaVuSans-75"/>
     </g>
    </g>
   </g>
  </g>
  <g id="axes_2">
   <g id="patch_8">
    <path d="M 62.098346 317.32 
L 490.005 317.32 
L 490.005 185.4 
L 62.098346 185.4 
z
" style="fill:#ffffff;"/>
   </g>
   <g id="matplotlib.axis_3">
    <g id="xtick_21">
     <g id="line2d_95">
      <path clip-path="url(#p404b398447)" d="M 62.098346 317.32 
L 62.098346 185.4 
" style="fill:none;stroke:#666666;stroke-linecap:square;stroke-width:0.8;"/>
     </g>
     <g id="line2d_96">
      <g>
       <use style="stroke:#000000;stroke-width:0.8;" x="62.098346" xlink:href="#m8d7a60f1d1" y="317.32"/>
      </g>
     </g>
     <g id="text_15">
      <!-- 1 -->
      <g transform="translate(58.917096 331.918437)scale(0.1 -0.1)">
       <use xlink:href="#DejaVuSans-49"/>
      </g>
     </g>
    </g>
    <g id="xtick_22">
     <g id="line2d_97">
      <path clip-path="url(#p404b398447)" d="M 147.679677 317.32 
L 147.679677 185.4 
" style="fill:none;stroke:#666666;stroke-linecap:square;stroke-width:0.8;"/>
     </g>
     <g id="line2d_98">
      <g>
       <use style="stroke:#000000;stroke-width:0.8;" x="147.679677" xlink:href="#m8d7a60f1d1" y="317.32"/>
      </g>
     </g>
     <g id="text_16">
      <!-- 2 -->
      <g transform="translate(144.498427 331.918437)scale(0.1 -0.1)">
       <use xlink:href="#DejaVuSans-50"/>
      </g>
     </g>
    </g>
    <g id="xtick_23">
     <g id="line2d_99">
      <path clip-path="url(#p404b398447)" d="M 233.261008 317.32 
L 233.261008 185.4 
" style="fill:none;stroke:#666666;stroke-linecap:square;stroke-width:0.8;"/>
     </g>
     <g id="line2d_100">
      <g>
       <use style="stroke:#000000;stroke-width:0.8;" x="233.261008" xlink:href="#m8d7a60f1d1" y="317.32"/>
      </g>
     </g>
     <g id="text_17">
      <!-- 3 -->
      <defs>
       <path d="M 40.578125 39.3125 
Q 47.65625 37.796875 51.625 33 
Q 55.609375 28.21875 55.609375 21.1875 
Q 55.609375 10.40625 48.1875 4.484375 
Q 40.765625 -1.421875 27.09375 -1.421875 
Q 22.515625 -1.421875 17.65625 -0.515625 
Q 12.796875 0.390625 7.625 2.203125 
L 7.625 11.71875 
Q 11.71875 9.328125 16.59375 8.109375 
Q 21.484375 6.890625 26.8125 6.890625 
Q 36.078125 6.890625 40.9375 10.546875 
Q 45.796875 14.203125 45.796875 21.1875 
Q 45.796875 27.640625 41.28125 31.265625 
Q 36.765625 34.90625 28.71875 34.90625 
L 20.21875 34.90625 
L 20.21875 43.015625 
L 29.109375 43.015625 
Q 36.375 43.015625 40.234375 45.921875 
Q 44.09375 48.828125 44.09375 54.296875 
Q 44.09375 59.90625 40.109375 62.90625 
Q 36.140625 65.921875 28.71875 65.921875 
Q 24.65625 65.921875 20.015625 65.03125 
Q 15.375 64.15625 9.8125 62.3125 
L 9.8125 71.09375 
Q 15.4375 72.65625 20.34375 73.4375 
Q 25.25 74.21875 29.59375 74.21875 
Q 40.828125 74.21875 47.359375 69.109375 
Q 53.90625 64.015625 53.90625 55.328125 
Q 53.90625 49.265625 50.4375 45.09375 
Q 46.96875 40.921875 40.578125 39.3125 
z
" id="DejaVuSans-51"/>
      </defs>
      <g transform="translate(230.079758 331.918437)scale(0.1 -0.1)">
       <use xlink:href="#DejaVuSans-51"/>
      </g>
     </g>
    </g>
    <g id="xtick_24">
     <g id="line2d_101">
      <path clip-path="url(#p404b398447)" d="M 318.842338 317.32 
L 318.842338 185.4 
" style="fill:none;stroke:#666666;stroke-linecap:square;stroke-width:0.8;"/>
     </g>
     <g id="line2d_102">
      <g>
       <use style="stroke:#000000;stroke-width:0.8;" x="318.842338" xlink:href="#m8d7a60f1d1" y="317.32"/>
      </g>
     </g>
     <g id="text_18">
      <!-- 4 -->
      <g transform="translate(315.661088 331.918437)scale(0.1 -0.1)">
       <use xlink:href="#DejaVuSans-52"/>
      </g>
     </g>
    </g>
    <g id="xtick_25">
     <g id="line2d_103">
      <path clip-path="url(#p404b398447)" d="M 404.423669 317.32 
L 404.423669 185.4 
" style="fill:none;stroke:#666666;stroke-linecap:square;stroke-width:0.8;"/>
     </g>
     <g id="line2d_104">
      <g>
       <use style="stroke:#000000;stroke-width:0.8;" x="404.423669" xlink:href="#m8d7a60f1d1" y="317.32"/>
      </g>
     </g>
     <g id="text_19">
      <!-- 5 -->
      <g transform="translate(401.242419 331.918437)scale(0.1 -0.1)">
       <use xlink:href="#DejaVuSans-53"/>
      </g>
     </g>
    </g>
    <g id="xtick_26">
     <g id="line2d_105">
      <path clip-path="url(#p404b398447)" d="M 490.005 317.32 
L 490.005 185.4 
" style="fill:none;stroke:#666666;stroke-linecap:square;stroke-width:0.8;"/>
     </g>
     <g id="line2d_106">
      <g>
       <use style="stroke:#000000;stroke-width:0.8;" x="490.005" xlink:href="#m8d7a60f1d1" y="317.32"/>
      </g>
     </g>
     <g id="text_20">
      <!-- 6 -->
      <g transform="translate(486.82375 331.918437)scale(0.1 -0.1)">
       <use xlink:href="#DejaVuSans-54"/>
      </g>
     </g>
    </g>
    <g id="xtick_27">
     <g id="line2d_107">
      <path clip-path="url(#p404b398447)" d="M 79.214612 317.32 
L 79.214612 185.4 
" style="fill:none;stroke:#bbbbbb;stroke-linecap:square;stroke-width:0.8;"/>
     </g>
     <g id="line2d_108">
      <g>
       <use style="stroke:#000000;stroke-width:0.6;" x="79.214612" xlink:href="#m4b23b5cb1f" y="317.32"/>
      </g>
     </g>
    </g>
    <g id="xtick_28">
     <g id="line2d_109">
      <path clip-path="url(#p404b398447)" d="M 96.330878 317.32 
L 96.330878 185.4 
" style="fill:none;stroke:#bbbbbb;stroke-linecap:square;stroke-width:0.8;"/>
     </g>
     <g id="line2d_110">
      <g>
       <use style="stroke:#000000;stroke-width:0.6;" x="96.330878" xlink:href="#m4b23b5cb1f" y="317.32"/>
      </g>
     </g>
    </g>
    <g id="xtick_29">
     <g id="line2d_111">
      <path clip-path="url(#p404b398447)" d="M 113.447145 317.32 
L 113.447145 185.4 
" style="fill:none;stroke:#bbbbbb;stroke-linecap:square;stroke-width:0.8;"/>
     </g>
     <g id="line2d_112">
      <g>
       <use style="stroke:#000000;stroke-width:0.6;" x="113.447145" xlink:href="#m4b23b5cb1f" y="317.32"/>
      </g>
     </g>
    </g>
    <g id="xtick_30">
     <g id="line2d_113">
      <path clip-path="url(#p404b398447)" d="M 130.563411 317.32 
L 130.563411 185.4 
" style="fill:none;stroke:#bbbbbb;stroke-linecap:square;stroke-width:0.8;"/>
     </g>
     <g id="line2d_114">
      <g>
       <use style="stroke:#000000;stroke-width:0.6;" x="130.563411" xlink:href="#m4b23b5cb1f" y="317.32"/>
      </g>
     </g>
    </g>
    <g id="xtick_31">
     <g id="line2d_115">
      <path clip-path="url(#p404b398447)" d="M 164.795943 317.32 
L 164.795943 185.4 
" style="fill:none;stroke:#bbbbbb;stroke-linecap:square;stroke-width:0.8;"/>
     </g>
     <g id="line2d_116">
      <g>
       <use style="stroke:#000000;stroke-width:0.6;" x="164.795943" xlink:href="#m4b23b5cb1f" y="317.32"/>
      </g>
     </g>
    </g>
    <g id="xtick_32">
     <g id="line2d_117">
      <path clip-path="url(#p404b398447)" d="M 181.912209 317.32 
L 181.912209 185.4 
" style="fill:none;stroke:#bbbbbb;stroke-linecap:square;stroke-width:0.8;"/>
     </g>
     <g id="line2d_118">
      <g>
       <use style="stroke:#000000;stroke-width:0.6;" x="181.912209" xlink:href="#m4b23b5cb1f" y="317.32"/>
      </g>
     </g>
    </g>
    <g id="xtick_33">
     <g id="line2d_119">
      <path clip-path="url(#p404b398447)" d="M 199.028475 317.32 
L 199.028475 185.4 
" style="fill:none;stroke:#bbbbbb;stroke-linecap:square;stroke-width:0.8;"/>
     </g>
     <g id="line2d_120">
      <g>
       <use style="stroke:#000000;stroke-width:0.6;" x="199.028475" xlink:href="#m4b23b5cb1f" y="317.32"/>
      </g>
     </g>
    </g>
    <g id="xtick_34">
     <g id="line2d_121">
      <path clip-path="url(#p404b398447)" d="M 216.144742 317.32 
L 216.144742 185.4 
" style="fill:none;stroke:#bbbbbb;stroke-linecap:square;stroke-width:0.8;"/>
     </g>
     <g id="line2d_122">
      <g>
       <use style="stroke:#000000;stroke-width:0.6;" x="216.144742" xlink:href="#m4b23b5cb1f" y="317.32"/>
      </g>
     </g>
    </g>
    <g id="xtick_35">
     <g id="line2d_123">
      <path clip-path="url(#p404b398447)" d="M 250.377274 317.32 
L 250.377274 185.4 
" style="fill:none;stroke:#bbbbbb;stroke-linecap:square;stroke-width:0.8;"/>
     </g>
     <g id="line2d_124">
      <g>
       <use style="stroke:#000000;stroke-width:0.6;" x="250.377274" xlink:href="#m4b23b5cb1f" y="317.32"/>
      </g>
     </g>
    </g>
    <g id="xtick_36">
     <g id="line2d_125">
      <path clip-path="url(#p404b398447)" d="M 267.49354 317.32 
L 267.49354 185.4 
" style="fill:none;stroke:#bbbbbb;stroke-linecap:square;stroke-width:0.8;"/>
     </g>
     <g id="line2d_126">
      <g>
       <use style="stroke:#000000;stroke-width:0.6;" x="267.49354" xlink:href="#m4b23b5cb1f" y="317.32"/>
      </g>
     </g>
    </g>
    <g id="xtick_37">
     <g id="line2d_127">
      <path clip-path="url(#p404b398447)" d="M 284.609806 317.32 
L 284.609806 185.4 
" style="fill:none;stroke:#bbbbbb;stroke-linecap:square;stroke-width:0.8;"/>
     </g>
     <g id="line2d_128">
      <g>
       <use style="stroke:#000000;stroke-width:0.6;" x="284.609806" xlink:href="#m4b23b5cb1f" y="317.32"/>
      </g>
     </g>
    </g>
    <g id="xtick_38">
     <g id="line2d_129">
      <path clip-path="url(#p404b398447)" d="M 301.726072 317.32 
L 301.726072 185.4 
" style="fill:none;stroke:#bbbbbb;stroke-linecap:square;stroke-width:0.8;"/>
     </g>
     <g id="line2d_130">
      <g>
       <use style="stroke:#000000;stroke-width:0.6;" x="301.726072" xlink:href="#m4b23b5cb1f" y="317.32"/>
      </g>
     </g>
    </g>
    <g id="xtick_39">
     <g id="line2d_131">
      <path clip-path="url(#p404b398447)" d="M 335.958605 317.32 
L 335.958605 185.4 
" style="fill:none;stroke:#bbbbbb;stroke-linecap:square;stroke-width:0.8;"/>
     </g>
     <g id="line2d_132">
      <g>
       <use style="stroke:#000000;stroke-width:0.6;" x="335.958605" xlink:href="#m4b23b5cb1f" y="317.32"/>
      </g>
     </g>
    </g>
    <g id="xtick_40">
     <g id="line2d_133">
      <path clip-path="url(#p404b398447)" d="M 353.074871 317.32 
L 353.074871 185.4 
" style="fill:none;stroke:#bbbbbb;stroke-linecap:square;stroke-width:0.8;"/>
     </g>
     <g id="line2d_134">
      <g>
       <use style="stroke:#000000;stroke-width:0.6;" x="353.074871" xlink:href="#m4b23b5cb1f" y="317.32"/>
      </g>
     </g>
    </g>
    <g id="xtick_41">
     <g id="line2d_135">
      <path clip-path="url(#p404b398447)" d="M 370.191137 317.32 
L 370.191137 185.4 
" style="fill:none;stroke:#bbbbbb;stroke-linecap:square;stroke-width:0.8;"/>
     </g>
     <g id="line2d_136">
      <g>
       <use style="stroke:#000000;stroke-width:0.6;" x="370.191137" xlink:href="#m4b23b5cb1f" y="317.32"/>
      </g>
     </g>
    </g>
    <g id="xtick_42">
     <g id="line2d_137">
      <path clip-path="url(#p404b398447)" d="M 387.307403 317.32 
L 387.307403 185.4 
" style="fill:none;stroke:#bbbbbb;stroke-linecap:square;stroke-width:0.8;"/>
     </g>
     <g id="line2d_138">
      <g>
       <use style="stroke:#000000;stroke-width:0.6;" x="387.307403" xlink:href="#m4b23b5cb1f" y="317.32"/>
      </g>
     </g>
    </g>
    <g id="xtick_43">
     <g id="line2d_139">
      <path clip-path="url(#p404b398447)" d="M 421.539935 317.32 
L 421.539935 185.4 
" style="fill:none;stroke:#bbbbbb;stroke-linecap:square;stroke-width:0.8;"/>
     </g>
     <g id="line2d_140">
      <g>
       <use style="stroke:#000000;stroke-width:0.6;" x="421.539935" xlink:href="#m4b23b5cb1f" y="317.32"/>
      </g>
     </g>
    </g>
    <g id="xtick_44">
     <g id="line2d_141">
      <path clip-path="url(#p404b398447)" d="M 438.656202 317.32 
L 438.656202 185.4 
" style="fill:none;stroke:#bbbbbb;stroke-linecap:square;stroke-width:0.8;"/>
     </g>
     <g id="line2d_142">
      <g>
       <use style="stroke:#000000;stroke-width:0.6;" x="438.656202" xlink:href="#m4b23b5cb1f" y="317.32"/>
      </g>
     </g>
    </g>
    <g id="xtick_45">
     <g id="line2d_143">
      <path clip-path="url(#p404b398447)" d="M 455.772468 317.32 
L 455.772468 185.4 
" style="fill:none;stroke:#bbbbbb;stroke-linecap:square;stroke-width:0.8;"/>
     </g>
     <g id="line2d_144">
      <g>
       <use style="stroke:#000000;stroke-width:0.6;" x="455.772468" xlink:href="#m4b23b5cb1f" y="317.32"/>
      </g>
     </g>
    </g>
    <g id="xtick_46">
     <g id="line2d_145">
      <path clip-path="url(#p404b398447)" d="M 472.888734 317.32 
L 472.888734 185.4 
" style="fill:none;stroke:#bbbbbb;stroke-linecap:square;stroke-width:0.8;"/>
     </g>
     <g id="line2d_146">
      <g>
       <use style="stroke:#000000;stroke-width:0.6;" x="472.888734" xlink:href="#m4b23b5cb1f" y="317.32"/>
      </g>
     </g>
    </g>
    <g id="text_21">
     <!-- $fT$ -->
     <defs>
      <path d="M 47.796875 75.984375 
L 46.390625 68.5 
L 37.796875 68.5 
Q 32.90625 68.5 30.6875 66.578125 
Q 28.46875 64.65625 27.390625 59.515625 
L 26.421875 54.6875 
L 41.21875 54.6875 
L 39.890625 47.703125 
L 25.09375 47.703125 
L 15.828125 0 
L 6.78125 0 
L 16.109375 47.703125 
L 7.515625 47.703125 
L 8.796875 54.6875 
L 17.390625 54.6875 
L 18.109375 58.5 
Q 19.96875 68.171875 24.625 72.078125 
Q 29.296875 75.984375 39.3125 75.984375 
z
" id="DejaVuSans-Oblique-102"/>
     </defs>
     <g transform="translate(271.201673 345.596563)scale(0.1 -0.1)">
      <use transform="translate(0 0.015625)" xlink:href="#DejaVuSans-Oblique-102"/>
      <use transform="translate(35.205078 0.015625)" xlink:href="#DejaVuSans-Oblique-84"/>
     </g>
    </g>
   </g>
   <g id="matplotlib.axis_4">
    <g id="ytick_25">
     <g id="line2d_147">
      <path clip-path="url(#p404b398447)" d="M 62.098346 317.32 
L 490.005 317.32 
" style="fill:none;stroke:#666666;stroke-linecap:square;stroke-width:0.8;"/>
     </g>
     <g id="line2d_148">
      <g>
       <use style="stroke:#000000;stroke-width:0.8;" x="62.098346" xlink:href="#m7a853be120" y="317.32"/>
      </g>
     </g>
     <g id="text_22">
      <!-- $\mathdefault{10^{-7}}$ -->
      <defs>
       <path d="M 8.203125 72.90625 
L 55.078125 72.90625 
L 55.078125 68.703125 
L 28.609375 0 
L 18.3125 0 
L 43.21875 64.59375 
L 8.203125 64.59375 
z
" id="DejaVuSans-55"/>
      </defs>
      <g transform="translate(31.598346 321.119219)scale(0.1 -0.1)">
       <use transform="translate(0 0.684375)" xlink:href="#DejaVuSans-49"/>
       <use transform="translate(63.623047 0.684375)" xlink:href="#DejaVuSans-48"/>
       <use transform="translate(128.203125 38.965625)scale(0.7)" xlink:href="#DejaVuSans-8722"/>
       <use transform="translate(186.855469 38.965625)scale(0.7)" xlink:href="#DejaVuSans-55"/>
      </g>
     </g>
    </g>
    <g id="ytick_26">
     <g id="line2d_149">
      <path clip-path="url(#p404b398447)" d="M 62.098346 277.934841 
L 490.005 277.934841 
" style="fill:none;stroke:#666666;stroke-linecap:square;stroke-width:0.8;"/>
     </g>
     <g id="line2d_150">
      <g>
       <use style="stroke:#000000;stroke-width:0.8;" x="62.098346" xlink:href="#m7a853be120" y="277.934841"/>
      </g>
     </g>
     <g id="text_23">
      <!-- $\mathdefault{10^{-5}}$ -->
      <g transform="translate(31.598346 281.73406)scale(0.1 -0.1)">
       <use transform="translate(0 0.684375)" xlink:href="#DejaVuSans-49"/>
       <use transform="translate(63.623047 0.684375)" xlink:href="#DejaVuSans-48"/>
       <use transform="translate(128.203125 38.965625)scale(0.7)" xlink:href="#DejaVuSans-8722"/>
       <use transform="translate(186.855469 38.965625)scale(0.7)" xlink:href="#DejaVuSans-53"/>
      </g>
     </g>
    </g>
    <g id="ytick_27">
     <g id="line2d_151">
      <path clip-path="url(#p404b398447)" d="M 62.098346 238.549682 
L 490.005 238.549682 
" style="fill:none;stroke:#666666;stroke-linecap:square;stroke-width:0.8;"/>
     </g>
     <g id="line2d_152">
      <g>
       <use style="stroke:#000000;stroke-width:0.8;" x="62.098346" xlink:href="#m7a853be120" y="238.549682"/>
      </g>
     </g>
     <g id="text_24">
      <!-- $\mathdefault{10^{-3}}$ -->
      <g transform="translate(31.598346 242.3489)scale(0.1 -0.1)">
       <use transform="translate(0 0.765625)" xlink:href="#DejaVuSans-49"/>
       <use transform="translate(63.623047 0.765625)" xlink:href="#DejaVuSans-48"/>
       <use transform="translate(128.203125 39.046875)scale(0.7)" xlink:href="#DejaVuSans-8722"/>
       <use transform="translate(186.855469 39.046875)scale(0.7)" xlink:href="#DejaVuSans-51"/>
      </g>
     </g>
    </g>
    <g id="ytick_28">
     <g id="line2d_153">
      <path clip-path="url(#p404b398447)" d="M 62.098346 199.164522 
L 490.005 199.164522 
" style="fill:none;stroke:#666666;stroke-linecap:square;stroke-width:0.8;"/>
     </g>
     <g id="line2d_154">
      <g>
       <use style="stroke:#000000;stroke-width:0.8;" x="62.098346" xlink:href="#m7a853be120" y="199.164522"/>
      </g>
     </g>
     <g id="text_25">
      <!-- $\mathdefault{10^{-1}}$ -->
      <g transform="translate(31.598346 202.963741)scale(0.1 -0.1)">
       <use transform="translate(0 0.684375)" xlink:href="#DejaVuSans-49"/>
       <use transform="translate(63.623047 0.684375)" xlink:href="#DejaVuSans-48"/>
       <use transform="translate(128.203125 38.965625)scale(0.7)" xlink:href="#DejaVuSans-8722"/>
       <use transform="translate(186.855469 38.965625)scale(0.7)" xlink:href="#DejaVuSans-49"/>
      </g>
     </g>
    </g>
    <g id="text_26">
     <!-- $\hat{Phi}_s(f)$ in W/Hz -->
     <defs>
      <path d="M -28.609375 79.984375 
L -21.390625 79.984375 
L -9.421875 61.625 
L -16.21875 61.625 
L -25 73.578125 
L -33.796875 61.625 
L -40.578125 61.625 
z
M -25 56 
z
" id="DejaVuSans-770"/>
      <path d="M 16.890625 72.90625 
L 39.703125 72.90625 
Q 49.65625 72.90625 54.875 68.265625 
Q 60.109375 63.625 60.109375 54.6875 
Q 60.109375 42.671875 52.390625 35.984375 
Q 44.671875 29.296875 30.71875 29.296875 
L 18.3125 29.296875 
L 12.59375 0 
L 2.6875 0 
z
M 25.203125 64.796875 
L 19.921875 37.40625 
L 32.328125 37.40625 
Q 40.71875 37.40625 45.203125 41.703125 
Q 49.703125 46 49.703125 54 
Q 49.703125 59.125 46.65625 61.953125 
Q 43.609375 64.796875 38.09375 64.796875 
z
" id="DejaVuSans-Oblique-80"/>
      <path d="M 55.71875 33.015625 
L 49.3125 0 
L 40.28125 0 
L 46.6875 32.671875 
Q 47.125 34.96875 47.359375 36.71875 
Q 47.609375 38.484375 47.609375 39.5 
Q 47.609375 43.609375 45.015625 45.890625 
Q 42.4375 48.1875 37.796875 48.1875 
Q 30.5625 48.1875 25.265625 43.296875 
Q 19.96875 38.421875 18.40625 30.328125 
L 12.5 0 
L 3.515625 0 
L 18.3125 75.984375 
L 27.296875 75.984375 
L 21.484375 46.09375 
Q 24.90625 50.6875 30.21875 53.34375 
Q 35.546875 56 41.40625 56 
Q 48.640625 56 52.609375 52.09375 
Q 56.59375 48.1875 56.59375 41.109375 
Q 56.59375 39.359375 56.375 37.359375 
Q 56.15625 35.359375 55.71875 33.015625 
z
" id="DejaVuSans-Oblique-104"/>
      <path d="M 18.3125 75.984375 
L 27.296875 75.984375 
L 25.09375 64.59375 
L 16.109375 64.59375 
z
M 14.203125 54.6875 
L 23.1875 54.6875 
L 12.5 0 
L 3.515625 0 
z
" id="DejaVuSans-Oblique-105"/>
      <path d="M 9.8125 72.90625 
L 19.671875 72.90625 
L 19.671875 43.015625 
L 55.515625 43.015625 
L 55.515625 72.90625 
L 65.375 72.90625 
L 65.375 0 
L 55.515625 0 
L 55.515625 34.71875 
L 19.671875 34.71875 
L 19.671875 0 
L 9.8125 0 
z
" id="DejaVuSans-72"/>
      <path d="M 5.515625 54.6875 
L 48.1875 54.6875 
L 48.1875 46.484375 
L 14.40625 7.171875 
L 48.1875 7.171875 
L 48.1875 0 
L 4.296875 0 
L 4.296875 8.203125 
L 38.09375 47.515625 
L 5.515625 47.515625 
z
" id="DejaVuSans-122"/>
     </defs>
     <g transform="translate(25.518659 287.36)rotate(-90)scale(0.1 -0.1)">
      <use transform="translate(119.444336 33.015625)" xlink:href="#DejaVuSans-770"/>
      <use transform="translate(0 0.53125)" xlink:href="#DejaVuSans-Oblique-80"/>
      <use transform="translate(60.302734 0.53125)" xlink:href="#DejaVuSans-Oblique-104"/>
      <use transform="translate(123.681641 0.53125)" xlink:href="#DejaVuSans-Oblique-105"/>
      <use transform="translate(152.421875 -15.875)scale(0.7)" xlink:href="#DejaVuSans-Oblique-115"/>
      <use transform="translate(191.625977 0.53125)" xlink:href="#DejaVuSans-40"/>
      <use transform="translate(230.639648 0.53125)" xlink:href="#DejaVuSans-Oblique-102"/>
      <use transform="translate(265.844727 0.53125)" xlink:href="#DejaVuSans-41"/>
      <use transform="translate(304.858398 0.53125)" xlink:href="#DejaVuSans-32"/>
      <use transform="translate(336.645508 0.53125)" xlink:href="#DejaVuSans-105"/>
      <use transform="translate(364.428711 0.53125)" xlink:href="#DejaVuSans-110"/>
      <use transform="translate(427.807617 0.53125)" xlink:href="#DejaVuSans-32"/>
      <use transform="translate(459.594727 0.53125)" xlink:href="#DejaVuSans-87"/>
      <use transform="translate(558.47168 0.53125)" xlink:href="#DejaVuSans-47"/>
      <use transform="translate(592.147461 0.53125)" xlink:href="#DejaVuSans-72"/>
      <use transform="translate(667.342773 0.53125)" xlink:href="#DejaVuSans-122"/>
     </g>
    </g>
   </g>
   <g id="line2d_155">
    <path clip-path="url(#p404b398447)" d="M -1 250.641303 
L 9.947223 253.011578 
L 26.662326 250.480148 
L 43.37743 247.238949 
L 60.092534 236.654665 
L 76.807637 232.821873 
L 93.522741 213.729953 
L 110.237845 198.893312 
L 126.952948 190.685958 
L 143.668052 187.840433 
L 160.383156 189.638507 
L 177.098259 195.637872 
L 193.813363 205.896821 
L 210.528467 224.993888 
L 227.24357 235.474879 
L 243.958674 240.700117 
L 260.673778 251.399626 
L 277.388881 251.274279 
L 294.103985 260.12763 
L 327.534192 263.491567 
L 344.249296 271.088634 
L 360.9644 268.764613 
L 377.679503 275.3904 
L 394.394607 276.548253 
L 411.109711 276.261913 
L 427.824814 283.234134 
L 444.539918 280.108049 
L 461.255022 285.067914 
L 477.970125 286.950068 
L 494.685229 285.142316 
L 505 289.221551 
L 505 289.221551 
" style="fill:none;stroke:#114da1;stroke-linecap:square;stroke-width:1.5;"/>
   </g>
   <g id="line2d_156">
    <path clip-path="url(#p404b398447)" d="M -1 272.143081 
L 9.947223 311.006492 
L 26.662326 303.938889 
L 43.37743 293.446389 
L 60.092534 276.260181 
L 76.807637 258.561766 
L 93.522741 228.25984 
L 110.237845 204.50783 
L 126.952948 190.968689 
L 143.668052 185.926516 
L 160.383156 188.090975 
L 177.098259 198.111521 
L 193.813363 216.296082 
L 210.528467 244.620698 
L 227.24357 268.336089 
L 243.958674 285.707337 
L 260.673778 299.929599 
L 277.388881 308.623098 
L 294.103985 315.593723 
L 310.819089 321.6191 
L 327.534192 326.932509 
L 344.249296 331.724583 
L 360.9644 336.085673 
L 377.679503 340.088566 
L 394.394607 343.792372 
L 411.109711 347.236869 
L 427.824814 350.458923 
L 444.539918 353.478826 
L 461.255022 356.332736 
L 477.970125 359.028189 
L 490.88005 361 
" style="fill:none;stroke:#b33333;stroke-linecap:square;stroke-width:1.5;"/>
   </g>
   <g id="patch_9">
    <path d="M 62.098346 317.32 
L 62.098346 185.4 
" style="fill:none;stroke:#000000;stroke-linecap:square;stroke-linejoin:miter;stroke-width:0.8;"/>
   </g>
   <g id="patch_10">
    <path d="M 490.005 317.32 
L 490.005 185.4 
" style="fill:none;stroke:#000000;stroke-linecap:square;stroke-linejoin:miter;stroke-width:0.8;"/>
   </g>
   <g id="patch_11">
    <path d="M 62.098346 317.32 
L 490.005 317.32 
" style="fill:none;stroke:#000000;stroke-linecap:square;stroke-linejoin:miter;stroke-width:0.8;"/>
   </g>
   <g id="patch_12">
    <path d="M 62.098346 185.4 
L 490.005 185.4 
" style="fill:none;stroke:#000000;stroke-linecap:square;stroke-linejoin:miter;stroke-width:0.8;"/>
   </g>
   <g id="legend_2">
    <g id="patch_13">
     <path d="M 421.722187 222.75625 
L 483.005 222.75625 
Q 485.005 222.75625 485.005 220.75625 
L 485.005 192.4 
Q 485.005 190.4 483.005 190.4 
L 421.722187 190.4 
Q 419.722187 190.4 419.722187 192.4 
L 419.722187 220.75625 
Q 419.722187 222.75625 421.722187 222.75625 
z
" style="fill:#ffffff;opacity:0.8;stroke:#cccccc;stroke-linejoin:miter;"/>
    </g>
    <g id="line2d_157">
     <path d="M 423.722187 198.498438 
L 443.722187 198.498438 
" style="fill:none;stroke:#114da1;stroke-linecap:square;stroke-width:1.5;"/>
    </g>
    <g id="line2d_158"/>
    <g id="text_27">
     <!-- MSK -->
     <g transform="translate(451.722187 201.998438)scale(0.1 -0.1)">
      <use xlink:href="#DejaVuSans-77"/>
      <use x="86.279297" xlink:href="#DejaVuSans-83"/>
      <use x="149.755859" xlink:href="#DejaVuSans-75"/>
     </g>
    </g>
    <g id="line2d_159">
     <path d="M 423.722187 213.176563 
L 443.722187 213.176563 
" style="fill:none;stroke:#b33333;stroke-linecap:square;stroke-width:1.5;"/>
    </g>
    <g id="line2d_160"/>
    <g id="text_28">
     <!-- GMSK -->
     <g transform="translate(451.722187 216.676563)scale(0.1 -0.1)">
      <use xlink:href="#DejaVuSans-71"/>
      <use x="77.490234" xlink:href="#DejaVuSans-77"/>
      <use x="163.769531" xlink:href="#DejaVuSans-83"/>
      <use x="227.246094" xlink:href="#DejaVuSans-75"/>
     </g>
    </g>
   </g>
  </g>
 </g>
 <defs>
  <clipPath id="p080d4cb075">
   <rect height="131.92" width="427.906654" x="62.098346" y="10.8"/>
  </clipPath>
  <clipPath id="p404b398447">
   <rect height="131.92" width="427.906654" x="62.098346" y="185.4"/>
  </clipPath>
 </defs>
</svg>
