<?xml version="1.0" encoding="utf-8" standalone="no"?>
<!DOCTYPE svg PUBLIC "-//W3C//DTD SVG 1.1//EN"
  "http://www.w3.org/Graphics/SVG/1.1/DTD/svg11.dtd">
<!-- Created with matplotlib (https://matplotlib.org/) -->
<svg height="360pt" version="1.1" viewBox="0 0 504 360" width="504pt" xmlns="http://www.w3.org/2000/svg" xmlns:xlink="http://www.w3.org/1999/xlink">
 <defs>
  <style type="text/css">
*{stroke-linecap:butt;stroke-linejoin:round;}
  </style>
 </defs>
 <g id="figure_1">
  <g id="patch_1">
   <path d="M 0 360 
L 504 360 
L 504 0 
L 0 0 
z
" style="fill:#ffffff;"/>
  </g>
  <g id="axes_1">
   <g id="patch_2">
    <path d="M 42.1 317.32 
L 482.04 317.32 
L 482.04 14.76 
L 42.1 14.76 
z
" style="fill:#ffffff;"/>
   </g>
   <g id="matplotlib.axis_1">
    <g id="xtick_1">
     <g id="line2d_1">
      <path clip-path="url(#pf4dcde4af7)" d="M 42.1 317.32 
L 42.1 14.76 
" style="fill:none;stroke:#666666;stroke-linecap:square;stroke-width:0.8;"/>
     </g>
     <g id="line2d_2">
      <defs>
       <path d="M 0 0 
L 0 3.5 
" id="me256ca1347" style="stroke:#000000;stroke-width:0.8;"/>
      </defs>
      <g>
       <use style="stroke:#000000;stroke-width:0.8;" x="42.1" xlink:href="#me256ca1347" y="317.32"/>
      </g>
     </g>
     <g id="text_1">
      <!-- 0.00 -->
      <defs>
       <path d="M 31.78125 66.40625 
Q 24.171875 66.40625 20.328125 58.90625 
Q 16.5 51.421875 16.5 36.375 
Q 16.5 21.390625 20.328125 13.890625 
Q 24.171875 6.390625 31.78125 6.390625 
Q 39.453125 6.390625 43.28125 13.890625 
Q 47.125 21.390625 47.125 36.375 
Q 47.125 51.421875 43.28125 58.90625 
Q 39.453125 66.40625 31.78125 66.40625 
z
M 31.78125 74.21875 
Q 44.046875 74.21875 50.515625 64.515625 
Q 56.984375 54.828125 56.984375 36.375 
Q 56.984375 17.96875 50.515625 8.265625 
Q 44.046875 -1.421875 31.78125 -1.421875 
Q 19.53125 -1.421875 13.0625 8.265625 
Q 6.59375 17.96875 6.59375 36.375 
Q 6.59375 54.828125 13.0625 64.515625 
Q 19.53125 74.21875 31.78125 74.21875 
z
" id="DejaVuSans-48"/>
       <path d="M 10.6875 12.40625 
L 21 12.40625 
L 21 0 
L 10.6875 0 
z
" id="DejaVuSans-46"/>
      </defs>
      <g transform="translate(30.967188 331.918437)scale(0.1 -0.1)">
       <use xlink:href="#DejaVuSans-48"/>
       <use x="63.623047" xlink:href="#DejaVuSans-46"/>
       <use x="95.410156" xlink:href="#DejaVuSans-48"/>
       <use x="159.033203" xlink:href="#DejaVuSans-48"/>
      </g>
     </g>
    </g>
    <g id="xtick_2">
     <g id="line2d_3">
      <path clip-path="url(#pf4dcde4af7)" d="M 97.0925 317.32 
L 97.0925 14.76 
" style="fill:none;stroke:#666666;stroke-linecap:square;stroke-width:0.8;"/>
     </g>
     <g id="line2d_4">
      <g>
       <use style="stroke:#000000;stroke-width:0.8;" x="97.0925" xlink:href="#me256ca1347" y="317.32"/>
      </g>
     </g>
     <g id="text_2">
      <!-- 0.25 -->
      <defs>
       <path d="M 19.1875 8.296875 
L 53.609375 8.296875 
L 53.609375 0 
L 7.328125 0 
L 7.328125 8.296875 
Q 12.9375 14.109375 22.625 23.890625 
Q 32.328125 33.6875 34.8125 36.53125 
Q 39.546875 41.84375 41.421875 45.53125 
Q 43.3125 49.21875 43.3125 52.78125 
Q 43.3125 58.59375 39.234375 62.25 
Q 35.15625 65.921875 28.609375 65.921875 
Q 23.96875 65.921875 18.8125 64.3125 
Q 13.671875 62.703125 7.8125 59.421875 
L 7.8125 69.390625 
Q 13.765625 71.78125 18.9375 73 
Q 24.125 74.21875 28.421875 74.21875 
Q 39.75 74.21875 46.484375 68.546875 
Q 53.21875 62.890625 53.21875 53.421875 
Q 53.21875 48.921875 51.53125 44.890625 
Q 49.859375 40.875 45.40625 35.40625 
Q 44.1875 33.984375 37.640625 27.21875 
Q 31.109375 20.453125 19.1875 8.296875 
z
" id="DejaVuSans-50"/>
       <path d="M 10.796875 72.90625 
L 49.515625 72.90625 
L 49.515625 64.59375 
L 19.828125 64.59375 
L 19.828125 46.734375 
Q 21.96875 47.46875 24.109375 47.828125 
Q 26.265625 48.1875 28.421875 48.1875 
Q 40.625 48.1875 47.75 41.5 
Q 54.890625 34.8125 54.890625 23.390625 
Q 54.890625 11.625 47.5625 5.09375 
Q 40.234375 -1.421875 26.90625 -1.421875 
Q 22.3125 -1.421875 17.546875 -0.640625 
Q 12.796875 0.140625 7.71875 1.703125 
L 7.71875 11.625 
Q 12.109375 9.234375 16.796875 8.0625 
Q 21.484375 6.890625 26.703125 6.890625 
Q 35.15625 6.890625 40.078125 11.328125 
Q 45.015625 15.765625 45.015625 23.390625 
Q 45.015625 31 40.078125 35.4375 
Q 35.15625 39.890625 26.703125 39.890625 
Q 22.75 39.890625 18.8125 39.015625 
Q 14.890625 38.140625 10.796875 36.28125 
z
" id="DejaVuSans-53"/>
      </defs>
      <g transform="translate(85.959688 331.918437)scale(0.1 -0.1)">
       <use xlink:href="#DejaVuSans-48"/>
       <use x="63.623047" xlink:href="#DejaVuSans-46"/>
       <use x="95.410156" xlink:href="#DejaVuSans-50"/>
       <use x="159.033203" xlink:href="#DejaVuSans-53"/>
      </g>
     </g>
    </g>
    <g id="xtick_3">
     <g id="line2d_5">
      <path clip-path="url(#pf4dcde4af7)" d="M 152.085 317.32 
L 152.085 14.76 
" style="fill:none;stroke:#666666;stroke-linecap:square;stroke-width:0.8;"/>
     </g>
     <g id="line2d_6">
      <g>
       <use style="stroke:#000000;stroke-width:0.8;" x="152.085" xlink:href="#me256ca1347" y="317.32"/>
      </g>
     </g>
     <g id="text_3">
      <!-- 0.50 -->
      <g transform="translate(140.952187 331.918437)scale(0.1 -0.1)">
       <use xlink:href="#DejaVuSans-48"/>
       <use x="63.623047" xlink:href="#DejaVuSans-46"/>
       <use x="95.410156" xlink:href="#DejaVuSans-53"/>
       <use x="159.033203" xlink:href="#DejaVuSans-48"/>
      </g>
     </g>
    </g>
    <g id="xtick_4">
     <g id="line2d_7">
      <path clip-path="url(#pf4dcde4af7)" d="M 207.0775 317.32 
L 207.0775 14.76 
" style="fill:none;stroke:#666666;stroke-linecap:square;stroke-width:0.8;"/>
     </g>
     <g id="line2d_8">
      <g>
       <use style="stroke:#000000;stroke-width:0.8;" x="207.0775" xlink:href="#me256ca1347" y="317.32"/>
      </g>
     </g>
     <g id="text_4">
      <!-- 0.75 -->
      <defs>
       <path d="M 8.203125 72.90625 
L 55.078125 72.90625 
L 55.078125 68.703125 
L 28.609375 0 
L 18.3125 0 
L 43.21875 64.59375 
L 8.203125 64.59375 
z
" id="DejaVuSans-55"/>
      </defs>
      <g transform="translate(195.944687 331.918437)scale(0.1 -0.1)">
       <use xlink:href="#DejaVuSans-48"/>
       <use x="63.623047" xlink:href="#DejaVuSans-46"/>
       <use x="95.410156" xlink:href="#DejaVuSans-55"/>
       <use x="159.033203" xlink:href="#DejaVuSans-53"/>
      </g>
     </g>
    </g>
    <g id="xtick_5">
     <g id="line2d_9">
      <path clip-path="url(#pf4dcde4af7)" d="M 262.07 317.32 
L 262.07 14.76 
" style="fill:none;stroke:#666666;stroke-linecap:square;stroke-width:0.8;"/>
     </g>
     <g id="line2d_10">
      <g>
       <use style="stroke:#000000;stroke-width:0.8;" x="262.07" xlink:href="#me256ca1347" y="317.32"/>
      </g>
     </g>
     <g id="text_5">
      <!-- 1.00 -->
      <defs>
       <path d="M 12.40625 8.296875 
L 28.515625 8.296875 
L 28.515625 63.921875 
L 10.984375 60.40625 
L 10.984375 69.390625 
L 28.421875 72.90625 
L 38.28125 72.90625 
L 38.28125 8.296875 
L 54.390625 8.296875 
L 54.390625 0 
L 12.40625 0 
z
" id="DejaVuSans-49"/>
      </defs>
      <g transform="translate(250.937187 331.918437)scale(0.1 -0.1)">
       <use xlink:href="#DejaVuSans-49"/>
       <use x="63.623047" xlink:href="#DejaVuSans-46"/>
       <use x="95.410156" xlink:href="#DejaVuSans-48"/>
       <use x="159.033203" xlink:href="#DejaVuSans-48"/>
      </g>
     </g>
    </g>
    <g id="xtick_6">
     <g id="line2d_11">
      <path clip-path="url(#pf4dcde4af7)" d="M 317.0625 317.32 
L 317.0625 14.76 
" style="fill:none;stroke:#666666;stroke-linecap:square;stroke-width:0.8;"/>
     </g>
     <g id="line2d_12">
      <g>
       <use style="stroke:#000000;stroke-width:0.8;" x="317.0625" xlink:href="#me256ca1347" y="317.32"/>
      </g>
     </g>
     <g id="text_6">
      <!-- 1.25 -->
      <g transform="translate(305.929688 331.918437)scale(0.1 -0.1)">
       <use xlink:href="#DejaVuSans-49"/>
       <use x="63.623047" xlink:href="#DejaVuSans-46"/>
       <use x="95.410156" xlink:href="#DejaVuSans-50"/>
       <use x="159.033203" xlink:href="#DejaVuSans-53"/>
      </g>
     </g>
    </g>
    <g id="xtick_7">
     <g id="line2d_13">
      <path clip-path="url(#pf4dcde4af7)" d="M 372.055 317.32 
L 372.055 14.76 
" style="fill:none;stroke:#666666;stroke-linecap:square;stroke-width:0.8;"/>
     </g>
     <g id="line2d_14">
      <g>
       <use style="stroke:#000000;stroke-width:0.8;" x="372.055" xlink:href="#me256ca1347" y="317.32"/>
      </g>
     </g>
     <g id="text_7">
      <!-- 1.50 -->
      <g transform="translate(360.922187 331.918437)scale(0.1 -0.1)">
       <use xlink:href="#DejaVuSans-49"/>
       <use x="63.623047" xlink:href="#DejaVuSans-46"/>
       <use x="95.410156" xlink:href="#DejaVuSans-53"/>
       <use x="159.033203" xlink:href="#DejaVuSans-48"/>
      </g>
     </g>
    </g>
    <g id="xtick_8">
     <g id="line2d_15">
      <path clip-path="url(#pf4dcde4af7)" d="M 427.0475 317.32 
L 427.0475 14.76 
" style="fill:none;stroke:#666666;stroke-linecap:square;stroke-width:0.8;"/>
     </g>
     <g id="line2d_16">
      <g>
       <use style="stroke:#000000;stroke-width:0.8;" x="427.0475" xlink:href="#me256ca1347" y="317.32"/>
      </g>
     </g>
     <g id="text_8">
      <!-- 1.75 -->
      <g transform="translate(415.914687 331.918437)scale(0.1 -0.1)">
       <use xlink:href="#DejaVuSans-49"/>
       <use x="63.623047" xlink:href="#DejaVuSans-46"/>
       <use x="95.410156" xlink:href="#DejaVuSans-55"/>
       <use x="159.033203" xlink:href="#DejaVuSans-53"/>
      </g>
     </g>
    </g>
    <g id="xtick_9">
     <g id="line2d_17">
      <path clip-path="url(#pf4dcde4af7)" d="M 482.04 317.32 
L 482.04 14.76 
" style="fill:none;stroke:#666666;stroke-linecap:square;stroke-width:0.8;"/>
     </g>
     <g id="line2d_18">
      <g>
       <use style="stroke:#000000;stroke-width:0.8;" x="482.04" xlink:href="#me256ca1347" y="317.32"/>
      </g>
     </g>
     <g id="text_9">
      <!-- 2.00 -->
      <g transform="translate(470.907187 331.918437)scale(0.1 -0.1)">
       <use xlink:href="#DejaVuSans-50"/>
       <use x="63.623047" xlink:href="#DejaVuSans-46"/>
       <use x="95.410156" xlink:href="#DejaVuSans-48"/>
       <use x="159.033203" xlink:href="#DejaVuSans-48"/>
      </g>
     </g>
    </g>
    <g id="xtick_10">
     <g id="line2d_19">
      <path clip-path="url(#pf4dcde4af7)" d="M 53.0985 317.32 
L 53.0985 14.76 
" style="fill:none;stroke:#bbbbbb;stroke-linecap:square;stroke-width:0.8;"/>
     </g>
     <g id="line2d_20">
      <defs>
       <path d="M 0 0 
L 0 2 
" id="mcd57e674b0" style="stroke:#000000;stroke-width:0.6;"/>
      </defs>
      <g>
       <use style="stroke:#000000;stroke-width:0.6;" x="53.0985" xlink:href="#mcd57e674b0" y="317.32"/>
      </g>
     </g>
    </g>
    <g id="xtick_11">
     <g id="line2d_21">
      <path clip-path="url(#pf4dcde4af7)" d="M 64.097 317.32 
L 64.097 14.76 
" style="fill:none;stroke:#bbbbbb;stroke-linecap:square;stroke-width:0.8;"/>
     </g>
     <g id="line2d_22">
      <g>
       <use style="stroke:#000000;stroke-width:0.6;" x="64.097" xlink:href="#mcd57e674b0" y="317.32"/>
      </g>
     </g>
    </g>
    <g id="xtick_12">
     <g id="line2d_23">
      <path clip-path="url(#pf4dcde4af7)" d="M 75.0955 317.32 
L 75.0955 14.76 
" style="fill:none;stroke:#bbbbbb;stroke-linecap:square;stroke-width:0.8;"/>
     </g>
     <g id="line2d_24">
      <g>
       <use style="stroke:#000000;stroke-width:0.6;" x="75.0955" xlink:href="#mcd57e674b0" y="317.32"/>
      </g>
     </g>
    </g>
    <g id="xtick_13">
     <g id="line2d_25">
      <path clip-path="url(#pf4dcde4af7)" d="M 86.094 317.32 
L 86.094 14.76 
" style="fill:none;stroke:#bbbbbb;stroke-linecap:square;stroke-width:0.8;"/>
     </g>
     <g id="line2d_26">
      <g>
       <use style="stroke:#000000;stroke-width:0.6;" x="86.094" xlink:href="#mcd57e674b0" y="317.32"/>
      </g>
     </g>
    </g>
    <g id="xtick_14">
     <g id="line2d_27">
      <path clip-path="url(#pf4dcde4af7)" d="M 108.091 317.32 
L 108.091 14.76 
" style="fill:none;stroke:#bbbbbb;stroke-linecap:square;stroke-width:0.8;"/>
     </g>
     <g id="line2d_28">
      <g>
       <use style="stroke:#000000;stroke-width:0.6;" x="108.091" xlink:href="#mcd57e674b0" y="317.32"/>
      </g>
     </g>
    </g>
    <g id="xtick_15">
     <g id="line2d_29">
      <path clip-path="url(#pf4dcde4af7)" d="M 119.0895 317.32 
L 119.0895 14.76 
" style="fill:none;stroke:#bbbbbb;stroke-linecap:square;stroke-width:0.8;"/>
     </g>
     <g id="line2d_30">
      <g>
       <use style="stroke:#000000;stroke-width:0.6;" x="119.0895" xlink:href="#mcd57e674b0" y="317.32"/>
      </g>
     </g>
    </g>
    <g id="xtick_16">
     <g id="line2d_31">
      <path clip-path="url(#pf4dcde4af7)" d="M 130.088 317.32 
L 130.088 14.76 
" style="fill:none;stroke:#bbbbbb;stroke-linecap:square;stroke-width:0.8;"/>
     </g>
     <g id="line2d_32">
      <g>
       <use style="stroke:#000000;stroke-width:0.6;" x="130.088" xlink:href="#mcd57e674b0" y="317.32"/>
      </g>
     </g>
    </g>
    <g id="xtick_17">
     <g id="line2d_33">
      <path clip-path="url(#pf4dcde4af7)" d="M 141.0865 317.32 
L 141.0865 14.76 
" style="fill:none;stroke:#bbbbbb;stroke-linecap:square;stroke-width:0.8;"/>
     </g>
     <g id="line2d_34">
      <g>
       <use style="stroke:#000000;stroke-width:0.6;" x="141.0865" xlink:href="#mcd57e674b0" y="317.32"/>
      </g>
     </g>
    </g>
    <g id="xtick_18">
     <g id="line2d_35">
      <path clip-path="url(#pf4dcde4af7)" d="M 163.0835 317.32 
L 163.0835 14.76 
" style="fill:none;stroke:#bbbbbb;stroke-linecap:square;stroke-width:0.8;"/>
     </g>
     <g id="line2d_36">
      <g>
       <use style="stroke:#000000;stroke-width:0.6;" x="163.0835" xlink:href="#mcd57e674b0" y="317.32"/>
      </g>
     </g>
    </g>
    <g id="xtick_19">
     <g id="line2d_37">
      <path clip-path="url(#pf4dcde4af7)" d="M 174.082 317.32 
L 174.082 14.76 
" style="fill:none;stroke:#bbbbbb;stroke-linecap:square;stroke-width:0.8;"/>
     </g>
     <g id="line2d_38">
      <g>
       <use style="stroke:#000000;stroke-width:0.6;" x="174.082" xlink:href="#mcd57e674b0" y="317.32"/>
      </g>
     </g>
    </g>
    <g id="xtick_20">
     <g id="line2d_39">
      <path clip-path="url(#pf4dcde4af7)" d="M 185.0805 317.32 
L 185.0805 14.76 
" style="fill:none;stroke:#bbbbbb;stroke-linecap:square;stroke-width:0.8;"/>
     </g>
     <g id="line2d_40">
      <g>
       <use style="stroke:#000000;stroke-width:0.6;" x="185.0805" xlink:href="#mcd57e674b0" y="317.32"/>
      </g>
     </g>
    </g>
    <g id="xtick_21">
     <g id="line2d_41">
      <path clip-path="url(#pf4dcde4af7)" d="M 196.079 317.32 
L 196.079 14.76 
" style="fill:none;stroke:#bbbbbb;stroke-linecap:square;stroke-width:0.8;"/>
     </g>
     <g id="line2d_42">
      <g>
       <use style="stroke:#000000;stroke-width:0.6;" x="196.079" xlink:href="#mcd57e674b0" y="317.32"/>
      </g>
     </g>
    </g>
    <g id="xtick_22">
     <g id="line2d_43">
      <path clip-path="url(#pf4dcde4af7)" d="M 218.076 317.32 
L 218.076 14.76 
" style="fill:none;stroke:#bbbbbb;stroke-linecap:square;stroke-width:0.8;"/>
     </g>
     <g id="line2d_44">
      <g>
       <use style="stroke:#000000;stroke-width:0.6;" x="218.076" xlink:href="#mcd57e674b0" y="317.32"/>
      </g>
     </g>
    </g>
    <g id="xtick_23">
     <g id="line2d_45">
      <path clip-path="url(#pf4dcde4af7)" d="M 229.0745 317.32 
L 229.0745 14.76 
" style="fill:none;stroke:#bbbbbb;stroke-linecap:square;stroke-width:0.8;"/>
     </g>
     <g id="line2d_46">
      <g>
       <use style="stroke:#000000;stroke-width:0.6;" x="229.0745" xlink:href="#mcd57e674b0" y="317.32"/>
      </g>
     </g>
    </g>
    <g id="xtick_24">
     <g id="line2d_47">
      <path clip-path="url(#pf4dcde4af7)" d="M 240.073 317.32 
L 240.073 14.76 
" style="fill:none;stroke:#bbbbbb;stroke-linecap:square;stroke-width:0.8;"/>
     </g>
     <g id="line2d_48">
      <g>
       <use style="stroke:#000000;stroke-width:0.6;" x="240.073" xlink:href="#mcd57e674b0" y="317.32"/>
      </g>
     </g>
    </g>
    <g id="xtick_25">
     <g id="line2d_49">
      <path clip-path="url(#pf4dcde4af7)" d="M 251.0715 317.32 
L 251.0715 14.76 
" style="fill:none;stroke:#bbbbbb;stroke-linecap:square;stroke-width:0.8;"/>
     </g>
     <g id="line2d_50">
      <g>
       <use style="stroke:#000000;stroke-width:0.6;" x="251.0715" xlink:href="#mcd57e674b0" y="317.32"/>
      </g>
     </g>
    </g>
    <g id="xtick_26">
     <g id="line2d_51">
      <path clip-path="url(#pf4dcde4af7)" d="M 273.0685 317.32 
L 273.0685 14.76 
" style="fill:none;stroke:#bbbbbb;stroke-linecap:square;stroke-width:0.8;"/>
     </g>
     <g id="line2d_52">
      <g>
       <use style="stroke:#000000;stroke-width:0.6;" x="273.0685" xlink:href="#mcd57e674b0" y="317.32"/>
      </g>
     </g>
    </g>
    <g id="xtick_27">
     <g id="line2d_53">
      <path clip-path="url(#pf4dcde4af7)" d="M 284.067 317.32 
L 284.067 14.76 
" style="fill:none;stroke:#bbbbbb;stroke-linecap:square;stroke-width:0.8;"/>
     </g>
     <g id="line2d_54">
      <g>
       <use style="stroke:#000000;stroke-width:0.6;" x="284.067" xlink:href="#mcd57e674b0" y="317.32"/>
      </g>
     </g>
    </g>
    <g id="xtick_28">
     <g id="line2d_55">
      <path clip-path="url(#pf4dcde4af7)" d="M 295.0655 317.32 
L 295.0655 14.76 
" style="fill:none;stroke:#bbbbbb;stroke-linecap:square;stroke-width:0.8;"/>
     </g>
     <g id="line2d_56">
      <g>
       <use style="stroke:#000000;stroke-width:0.6;" x="295.0655" xlink:href="#mcd57e674b0" y="317.32"/>
      </g>
     </g>
    </g>
    <g id="xtick_29">
     <g id="line2d_57">
      <path clip-path="url(#pf4dcde4af7)" d="M 306.064 317.32 
L 306.064 14.76 
" style="fill:none;stroke:#bbbbbb;stroke-linecap:square;stroke-width:0.8;"/>
     </g>
     <g id="line2d_58">
      <g>
       <use style="stroke:#000000;stroke-width:0.6;" x="306.064" xlink:href="#mcd57e674b0" y="317.32"/>
      </g>
     </g>
    </g>
    <g id="xtick_30">
     <g id="line2d_59">
      <path clip-path="url(#pf4dcde4af7)" d="M 328.061 317.32 
L 328.061 14.76 
" style="fill:none;stroke:#bbbbbb;stroke-linecap:square;stroke-width:0.8;"/>
     </g>
     <g id="line2d_60">
      <g>
       <use style="stroke:#000000;stroke-width:0.6;" x="328.061" xlink:href="#mcd57e674b0" y="317.32"/>
      </g>
     </g>
    </g>
    <g id="xtick_31">
     <g id="line2d_61">
      <path clip-path="url(#pf4dcde4af7)" d="M 339.0595 317.32 
L 339.0595 14.76 
" style="fill:none;stroke:#bbbbbb;stroke-linecap:square;stroke-width:0.8;"/>
     </g>
     <g id="line2d_62">
      <g>
       <use style="stroke:#000000;stroke-width:0.6;" x="339.0595" xlink:href="#mcd57e674b0" y="317.32"/>
      </g>
     </g>
    </g>
    <g id="xtick_32">
     <g id="line2d_63">
      <path clip-path="url(#pf4dcde4af7)" d="M 350.058 317.32 
L 350.058 14.76 
" style="fill:none;stroke:#bbbbbb;stroke-linecap:square;stroke-width:0.8;"/>
     </g>
     <g id="line2d_64">
      <g>
       <use style="stroke:#000000;stroke-width:0.6;" x="350.058" xlink:href="#mcd57e674b0" y="317.32"/>
      </g>
     </g>
    </g>
    <g id="xtick_33">
     <g id="line2d_65">
      <path clip-path="url(#pf4dcde4af7)" d="M 361.0565 317.32 
L 361.0565 14.76 
" style="fill:none;stroke:#bbbbbb;stroke-linecap:square;stroke-width:0.8;"/>
     </g>
     <g id="line2d_66">
      <g>
       <use style="stroke:#000000;stroke-width:0.6;" x="361.0565" xlink:href="#mcd57e674b0" y="317.32"/>
      </g>
     </g>
    </g>
    <g id="xtick_34">
     <g id="line2d_67">
      <path clip-path="url(#pf4dcde4af7)" d="M 383.0535 317.32 
L 383.0535 14.76 
" style="fill:none;stroke:#bbbbbb;stroke-linecap:square;stroke-width:0.8;"/>
     </g>
     <g id="line2d_68">
      <g>
       <use style="stroke:#000000;stroke-width:0.6;" x="383.0535" xlink:href="#mcd57e674b0" y="317.32"/>
      </g>
     </g>
    </g>
    <g id="xtick_35">
     <g id="line2d_69">
      <path clip-path="url(#pf4dcde4af7)" d="M 394.052 317.32 
L 394.052 14.76 
" style="fill:none;stroke:#bbbbbb;stroke-linecap:square;stroke-width:0.8;"/>
     </g>
     <g id="line2d_70">
      <g>
       <use style="stroke:#000000;stroke-width:0.6;" x="394.052" xlink:href="#mcd57e674b0" y="317.32"/>
      </g>
     </g>
    </g>
    <g id="xtick_36">
     <g id="line2d_71">
      <path clip-path="url(#pf4dcde4af7)" d="M 405.0505 317.32 
L 405.0505 14.76 
" style="fill:none;stroke:#bbbbbb;stroke-linecap:square;stroke-width:0.8;"/>
     </g>
     <g id="line2d_72">
      <g>
       <use style="stroke:#000000;stroke-width:0.6;" x="405.0505" xlink:href="#mcd57e674b0" y="317.32"/>
      </g>
     </g>
    </g>
    <g id="xtick_37">
     <g id="line2d_73">
      <path clip-path="url(#pf4dcde4af7)" d="M 416.049 317.32 
L 416.049 14.76 
" style="fill:none;stroke:#bbbbbb;stroke-linecap:square;stroke-width:0.8;"/>
     </g>
     <g id="line2d_74">
      <g>
       <use style="stroke:#000000;stroke-width:0.6;" x="416.049" xlink:href="#mcd57e674b0" y="317.32"/>
      </g>
     </g>
    </g>
    <g id="xtick_38">
     <g id="line2d_75">
      <path clip-path="url(#pf4dcde4af7)" d="M 438.046 317.32 
L 438.046 14.76 
" style="fill:none;stroke:#bbbbbb;stroke-linecap:square;stroke-width:0.8;"/>
     </g>
     <g id="line2d_76">
      <g>
       <use style="stroke:#000000;stroke-width:0.6;" x="438.046" xlink:href="#mcd57e674b0" y="317.32"/>
      </g>
     </g>
    </g>
    <g id="xtick_39">
     <g id="line2d_77">
      <path clip-path="url(#pf4dcde4af7)" d="M 449.0445 317.32 
L 449.0445 14.76 
" style="fill:none;stroke:#bbbbbb;stroke-linecap:square;stroke-width:0.8;"/>
     </g>
     <g id="line2d_78">
      <g>
       <use style="stroke:#000000;stroke-width:0.6;" x="449.0445" xlink:href="#mcd57e674b0" y="317.32"/>
      </g>
     </g>
    </g>
    <g id="xtick_40">
     <g id="line2d_79">
      <path clip-path="url(#pf4dcde4af7)" d="M 460.043 317.32 
L 460.043 14.76 
" style="fill:none;stroke:#bbbbbb;stroke-linecap:square;stroke-width:0.8;"/>
     </g>
     <g id="line2d_80">
      <g>
       <use style="stroke:#000000;stroke-width:0.6;" x="460.043" xlink:href="#mcd57e674b0" y="317.32"/>
      </g>
     </g>
    </g>
    <g id="xtick_41">
     <g id="line2d_81">
      <path clip-path="url(#pf4dcde4af7)" d="M 471.0415 317.32 
L 471.0415 14.76 
" style="fill:none;stroke:#bbbbbb;stroke-linecap:square;stroke-width:0.8;"/>
     </g>
     <g id="line2d_82">
      <g>
       <use style="stroke:#000000;stroke-width:0.6;" x="471.0415" xlink:href="#mcd57e674b0" y="317.32"/>
      </g>
     </g>
    </g>
    <g id="text_10">
     <!-- $t$ in ms -->
     <defs>
      <path d="M 42.28125 54.6875 
L 40.921875 47.703125 
L 23 47.703125 
L 17.1875 18.015625 
Q 16.890625 16.359375 16.75 15.234375 
Q 16.609375 14.109375 16.609375 13.484375 
Q 16.609375 10.359375 18.484375 8.9375 
Q 20.359375 7.515625 24.515625 7.515625 
L 33.59375 7.515625 
L 32.078125 0 
L 23.484375 0 
Q 15.484375 0 11.546875 3.125 
Q 7.625 6.25 7.625 12.59375 
Q 7.625 13.71875 7.765625 15.0625 
Q 7.90625 16.40625 8.203125 18.015625 
L 14.015625 47.703125 
L 6.390625 47.703125 
L 7.8125 54.6875 
L 15.28125 54.6875 
L 18.3125 70.21875 
L 27.296875 70.21875 
L 24.3125 54.6875 
z
" id="DejaVuSans-Oblique-116"/>
      <path id="DejaVuSans-32"/>
      <path d="M 9.421875 54.6875 
L 18.40625 54.6875 
L 18.40625 0 
L 9.421875 0 
z
M 9.421875 75.984375 
L 18.40625 75.984375 
L 18.40625 64.59375 
L 9.421875 64.59375 
z
" id="DejaVuSans-105"/>
      <path d="M 54.890625 33.015625 
L 54.890625 0 
L 45.90625 0 
L 45.90625 32.71875 
Q 45.90625 40.484375 42.875 44.328125 
Q 39.84375 48.1875 33.796875 48.1875 
Q 26.515625 48.1875 22.3125 43.546875 
Q 18.109375 38.921875 18.109375 30.90625 
L 18.109375 0 
L 9.078125 0 
L 9.078125 54.6875 
L 18.109375 54.6875 
L 18.109375 46.1875 
Q 21.34375 51.125 25.703125 53.5625 
Q 30.078125 56 35.796875 56 
Q 45.21875 56 50.046875 50.171875 
Q 54.890625 44.34375 54.890625 33.015625 
z
" id="DejaVuSans-110"/>
      <path d="M 52 44.1875 
Q 55.375 50.25 60.0625 53.125 
Q 64.75 56 71.09375 56 
Q 79.640625 56 84.28125 50.015625 
Q 88.921875 44.046875 88.921875 33.015625 
L 88.921875 0 
L 79.890625 0 
L 79.890625 32.71875 
Q 79.890625 40.578125 77.09375 44.375 
Q 74.3125 48.1875 68.609375 48.1875 
Q 61.625 48.1875 57.5625 43.546875 
Q 53.515625 38.921875 53.515625 30.90625 
L 53.515625 0 
L 44.484375 0 
L 44.484375 32.71875 
Q 44.484375 40.625 41.703125 44.40625 
Q 38.921875 48.1875 33.109375 48.1875 
Q 26.21875 48.1875 22.15625 43.53125 
Q 18.109375 38.875 18.109375 30.90625 
L 18.109375 0 
L 9.078125 0 
L 9.078125 54.6875 
L 18.109375 54.6875 
L 18.109375 46.1875 
Q 21.1875 51.21875 25.484375 53.609375 
Q 29.78125 56 35.6875 56 
Q 41.65625 56 45.828125 52.96875 
Q 50 49.953125 52 44.1875 
z
" id="DejaVuSans-109"/>
      <path d="M 44.28125 53.078125 
L 44.28125 44.578125 
Q 40.484375 46.53125 36.375 47.5 
Q 32.28125 48.484375 27.875 48.484375 
Q 21.1875 48.484375 17.84375 46.4375 
Q 14.5 44.390625 14.5 40.28125 
Q 14.5 37.15625 16.890625 35.375 
Q 19.28125 33.59375 26.515625 31.984375 
L 29.59375 31.296875 
Q 39.15625 29.25 43.1875 25.515625 
Q 47.21875 21.78125 47.21875 15.09375 
Q 47.21875 7.46875 41.1875 3.015625 
Q 35.15625 -1.421875 24.609375 -1.421875 
Q 20.21875 -1.421875 15.453125 -0.5625 
Q 10.6875 0.296875 5.421875 2 
L 5.421875 11.28125 
Q 10.40625 8.6875 15.234375 7.390625 
Q 20.0625 6.109375 24.8125 6.109375 
Q 31.15625 6.109375 34.5625 8.28125 
Q 37.984375 10.453125 37.984375 14.40625 
Q 37.984375 18.0625 35.515625 20.015625 
Q 33.0625 21.96875 24.703125 23.78125 
L 21.578125 24.515625 
Q 13.234375 26.265625 9.515625 29.90625 
Q 5.8125 33.546875 5.8125 39.890625 
Q 5.8125 47.609375 11.28125 51.796875 
Q 16.75 56 26.8125 56 
Q 31.78125 56 36.171875 55.265625 
Q 40.578125 54.546875 44.28125 53.078125 
z
" id="DejaVuSans-115"/>
     </defs>
     <g transform="translate(244.87 345.596563)scale(0.1 -0.1)">
      <use transform="translate(0 0.015625)" xlink:href="#DejaVuSans-Oblique-116"/>
      <use transform="translate(39.208984 0.015625)" xlink:href="#DejaVuSans-32"/>
      <use transform="translate(70.996094 0.015625)" xlink:href="#DejaVuSans-105"/>
      <use transform="translate(98.779297 0.015625)" xlink:href="#DejaVuSans-110"/>
      <use transform="translate(162.158203 0.015625)" xlink:href="#DejaVuSans-32"/>
      <use transform="translate(193.945312 0.015625)" xlink:href="#DejaVuSans-109"/>
      <use transform="translate(291.357422 0.015625)" xlink:href="#DejaVuSans-115"/>
     </g>
    </g>
   </g>
   <g id="matplotlib.axis_2">
    <g id="ytick_1">
     <g id="line2d_83">
      <path clip-path="url(#pf4dcde4af7)" d="M 42.1 317.32 
L 482.04 317.32 
" style="fill:none;stroke:#666666;stroke-linecap:square;stroke-width:0.8;"/>
     </g>
     <g id="line2d_84">
      <defs>
       <path d="M 0 0 
L -3.5 0 
" id="m08e7fa3ba7" style="stroke:#000000;stroke-width:0.8;"/>
      </defs>
      <g>
       <use style="stroke:#000000;stroke-width:0.8;" x="42.1" xlink:href="#m08e7fa3ba7" y="317.32"/>
      </g>
     </g>
     <g id="text_11">
      <!-- −1.5 -->
      <defs>
       <path d="M 10.59375 35.5 
L 73.1875 35.5 
L 73.1875 27.203125 
L 10.59375 27.203125 
z
" id="DejaVuSans-8722"/>
      </defs>
      <g transform="translate(10.817187 321.119219)scale(0.1 -0.1)">
       <use xlink:href="#DejaVuSans-8722"/>
       <use x="83.789062" xlink:href="#DejaVuSans-49"/>
       <use x="147.412109" xlink:href="#DejaVuSans-46"/>
       <use x="179.199219" xlink:href="#DejaVuSans-53"/>
      </g>
     </g>
    </g>
    <g id="ytick_2">
     <g id="line2d_85">
      <path clip-path="url(#pf4dcde4af7)" d="M 42.1 266.893333 
L 482.04 266.893333 
" style="fill:none;stroke:#666666;stroke-linecap:square;stroke-width:0.8;"/>
     </g>
     <g id="line2d_86">
      <g>
       <use style="stroke:#000000;stroke-width:0.8;" x="42.1" xlink:href="#m08e7fa3ba7" y="266.893333"/>
      </g>
     </g>
     <g id="text_12">
      <!-- −1.0 -->
      <g transform="translate(10.817187 270.692552)scale(0.1 -0.1)">
       <use xlink:href="#DejaVuSans-8722"/>
       <use x="83.789062" xlink:href="#DejaVuSans-49"/>
       <use x="147.412109" xlink:href="#DejaVuSans-46"/>
       <use x="179.199219" xlink:href="#DejaVuSans-48"/>
      </g>
     </g>
    </g>
    <g id="ytick_3">
     <g id="line2d_87">
      <path clip-path="url(#pf4dcde4af7)" d="M 42.1 216.466667 
L 482.04 216.466667 
" style="fill:none;stroke:#666666;stroke-linecap:square;stroke-width:0.8;"/>
     </g>
     <g id="line2d_88">
      <g>
       <use style="stroke:#000000;stroke-width:0.8;" x="42.1" xlink:href="#m08e7fa3ba7" y="216.466667"/>
      </g>
     </g>
     <g id="text_13">
      <!-- −0.5 -->
      <g transform="translate(10.817187 220.265885)scale(0.1 -0.1)">
       <use xlink:href="#DejaVuSans-8722"/>
       <use x="83.789062" xlink:href="#DejaVuSans-48"/>
       <use x="147.412109" xlink:href="#DejaVuSans-46"/>
       <use x="179.199219" xlink:href="#DejaVuSans-53"/>
      </g>
     </g>
    </g>
    <g id="ytick_4">
     <g id="line2d_89">
      <path clip-path="url(#pf4dcde4af7)" d="M 42.1 166.04 
L 482.04 166.04 
" style="fill:none;stroke:#666666;stroke-linecap:square;stroke-width:0.8;"/>
     </g>
     <g id="line2d_90">
      <g>
       <use style="stroke:#000000;stroke-width:0.8;" x="42.1" xlink:href="#m08e7fa3ba7" y="166.04"/>
      </g>
     </g>
     <g id="text_14">
      <!-- 0.0 -->
      <g transform="translate(19.196875 169.839219)scale(0.1 -0.1)">
       <use xlink:href="#DejaVuSans-48"/>
       <use x="63.623047" xlink:href="#DejaVuSans-46"/>
       <use x="95.410156" xlink:href="#DejaVuSans-48"/>
      </g>
     </g>
    </g>
    <g id="ytick_5">
     <g id="line2d_91">
      <path clip-path="url(#pf4dcde4af7)" d="M 42.1 115.613333 
L 482.04 115.613333 
" style="fill:none;stroke:#666666;stroke-linecap:square;stroke-width:0.8;"/>
     </g>
     <g id="line2d_92">
      <g>
       <use style="stroke:#000000;stroke-width:0.8;" x="42.1" xlink:href="#m08e7fa3ba7" y="115.613333"/>
      </g>
     </g>
     <g id="text_15">
      <!-- 0.5 -->
      <g transform="translate(19.196875 119.412552)scale(0.1 -0.1)">
       <use xlink:href="#DejaVuSans-48"/>
       <use x="63.623047" xlink:href="#DejaVuSans-46"/>
       <use x="95.410156" xlink:href="#DejaVuSans-53"/>
      </g>
     </g>
    </g>
    <g id="ytick_6">
     <g id="line2d_93">
      <path clip-path="url(#pf4dcde4af7)" d="M 42.1 65.186667 
L 482.04 65.186667 
" style="fill:none;stroke:#666666;stroke-linecap:square;stroke-width:0.8;"/>
     </g>
     <g id="line2d_94">
      <g>
       <use style="stroke:#000000;stroke-width:0.8;" x="42.1" xlink:href="#m08e7fa3ba7" y="65.186667"/>
      </g>
     </g>
     <g id="text_16">
      <!-- 1.0 -->
      <g transform="translate(19.196875 68.985885)scale(0.1 -0.1)">
       <use xlink:href="#DejaVuSans-49"/>
       <use x="63.623047" xlink:href="#DejaVuSans-46"/>
       <use x="95.410156" xlink:href="#DejaVuSans-48"/>
      </g>
     </g>
    </g>
    <g id="ytick_7">
     <g id="line2d_95">
      <path clip-path="url(#pf4dcde4af7)" d="M 42.1 14.76 
L 482.04 14.76 
" style="fill:none;stroke:#666666;stroke-linecap:square;stroke-width:0.8;"/>
     </g>
     <g id="line2d_96">
      <g>
       <use style="stroke:#000000;stroke-width:0.8;" x="42.1" xlink:href="#m08e7fa3ba7" y="14.76"/>
      </g>
     </g>
     <g id="text_17">
      <!-- 1.5 -->
      <g transform="translate(19.196875 18.559219)scale(0.1 -0.1)">
       <use xlink:href="#DejaVuSans-49"/>
       <use x="63.623047" xlink:href="#DejaVuSans-46"/>
       <use x="95.410156" xlink:href="#DejaVuSans-53"/>
      </g>
     </g>
    </g>
    <g id="ytick_8">
     <g id="line2d_97">
      <path clip-path="url(#pf4dcde4af7)" d="M 42.1 307.234667 
L 482.04 307.234667 
" style="fill:none;stroke:#bbbbbb;stroke-linecap:square;stroke-width:0.8;"/>
     </g>
     <g id="line2d_98">
      <defs>
       <path d="M 0 0 
L -2 0 
" id="mfff488213b" style="stroke:#000000;stroke-width:0.6;"/>
      </defs>
      <g>
       <use style="stroke:#000000;stroke-width:0.6;" x="42.1" xlink:href="#mfff488213b" y="307.234667"/>
      </g>
     </g>
    </g>
    <g id="ytick_9">
     <g id="line2d_99">
      <path clip-path="url(#pf4dcde4af7)" d="M 42.1 297.149333 
L 482.04 297.149333 
" style="fill:none;stroke:#bbbbbb;stroke-linecap:square;stroke-width:0.8;"/>
     </g>
     <g id="line2d_100">
      <g>
       <use style="stroke:#000000;stroke-width:0.6;" x="42.1" xlink:href="#mfff488213b" y="297.149333"/>
      </g>
     </g>
    </g>
    <g id="ytick_10">
     <g id="line2d_101">
      <path clip-path="url(#pf4dcde4af7)" d="M 42.1 287.064 
L 482.04 287.064 
" style="fill:none;stroke:#bbbbbb;stroke-linecap:square;stroke-width:0.8;"/>
     </g>
     <g id="line2d_102">
      <g>
       <use style="stroke:#000000;stroke-width:0.6;" x="42.1" xlink:href="#mfff488213b" y="287.064"/>
      </g>
     </g>
    </g>
    <g id="ytick_11">
     <g id="line2d_103">
      <path clip-path="url(#pf4dcde4af7)" d="M 42.1 276.978667 
L 482.04 276.978667 
" style="fill:none;stroke:#bbbbbb;stroke-linecap:square;stroke-width:0.8;"/>
     </g>
     <g id="line2d_104">
      <g>
       <use style="stroke:#000000;stroke-width:0.6;" x="42.1" xlink:href="#mfff488213b" y="276.978667"/>
      </g>
     </g>
    </g>
    <g id="ytick_12">
     <g id="line2d_105">
      <path clip-path="url(#pf4dcde4af7)" d="M 42.1 256.808 
L 482.04 256.808 
" style="fill:none;stroke:#bbbbbb;stroke-linecap:square;stroke-width:0.8;"/>
     </g>
     <g id="line2d_106">
      <g>
       <use style="stroke:#000000;stroke-width:0.6;" x="42.1" xlink:href="#mfff488213b" y="256.808"/>
      </g>
     </g>
    </g>
    <g id="ytick_13">
     <g id="line2d_107">
      <path clip-path="url(#pf4dcde4af7)" d="M 42.1 246.722667 
L 482.04 246.722667 
" style="fill:none;stroke:#bbbbbb;stroke-linecap:square;stroke-width:0.8;"/>
     </g>
     <g id="line2d_108">
      <g>
       <use style="stroke:#000000;stroke-width:0.6;" x="42.1" xlink:href="#mfff488213b" y="246.722667"/>
      </g>
     </g>
    </g>
    <g id="ytick_14">
     <g id="line2d_109">
      <path clip-path="url(#pf4dcde4af7)" d="M 42.1 236.637333 
L 482.04 236.637333 
" style="fill:none;stroke:#bbbbbb;stroke-linecap:square;stroke-width:0.8;"/>
     </g>
     <g id="line2d_110">
      <g>
       <use style="stroke:#000000;stroke-width:0.6;" x="42.1" xlink:href="#mfff488213b" y="236.637333"/>
      </g>
     </g>
    </g>
    <g id="ytick_15">
     <g id="line2d_111">
      <path clip-path="url(#pf4dcde4af7)" d="M 42.1 226.552 
L 482.04 226.552 
" style="fill:none;stroke:#bbbbbb;stroke-linecap:square;stroke-width:0.8;"/>
     </g>
     <g id="line2d_112">
      <g>
       <use style="stroke:#000000;stroke-width:0.6;" x="42.1" xlink:href="#mfff488213b" y="226.552"/>
      </g>
     </g>
    </g>
    <g id="ytick_16">
     <g id="line2d_113">
      <path clip-path="url(#pf4dcde4af7)" d="M 42.1 206.381333 
L 482.04 206.381333 
" style="fill:none;stroke:#bbbbbb;stroke-linecap:square;stroke-width:0.8;"/>
     </g>
     <g id="line2d_114">
      <g>
       <use style="stroke:#000000;stroke-width:0.6;" x="42.1" xlink:href="#mfff488213b" y="206.381333"/>
      </g>
     </g>
    </g>
    <g id="ytick_17">
     <g id="line2d_115">
      <path clip-path="url(#pf4dcde4af7)" d="M 42.1 196.296 
L 482.04 196.296 
" style="fill:none;stroke:#bbbbbb;stroke-linecap:square;stroke-width:0.8;"/>
     </g>
     <g id="line2d_116">
      <g>
       <use style="stroke:#000000;stroke-width:0.6;" x="42.1" xlink:href="#mfff488213b" y="196.296"/>
      </g>
     </g>
    </g>
    <g id="ytick_18">
     <g id="line2d_117">
      <path clip-path="url(#pf4dcde4af7)" d="M 42.1 186.210667 
L 482.04 186.210667 
" style="fill:none;stroke:#bbbbbb;stroke-linecap:square;stroke-width:0.8;"/>
     </g>
     <g id="line2d_118">
      <g>
       <use style="stroke:#000000;stroke-width:0.6;" x="42.1" xlink:href="#mfff488213b" y="186.210667"/>
      </g>
     </g>
    </g>
    <g id="ytick_19">
     <g id="line2d_119">
      <path clip-path="url(#pf4dcde4af7)" d="M 42.1 176.125333 
L 482.04 176.125333 
" style="fill:none;stroke:#bbbbbb;stroke-linecap:square;stroke-width:0.8;"/>
     </g>
     <g id="line2d_120">
      <g>
       <use style="stroke:#000000;stroke-width:0.6;" x="42.1" xlink:href="#mfff488213b" y="176.125333"/>
      </g>
     </g>
    </g>
    <g id="ytick_20">
     <g id="line2d_121">
      <path clip-path="url(#pf4dcde4af7)" d="M 42.1 155.954667 
L 482.04 155.954667 
" style="fill:none;stroke:#bbbbbb;stroke-linecap:square;stroke-width:0.8;"/>
     </g>
     <g id="line2d_122">
      <g>
       <use style="stroke:#000000;stroke-width:0.6;" x="42.1" xlink:href="#mfff488213b" y="155.954667"/>
      </g>
     </g>
    </g>
    <g id="ytick_21">
     <g id="line2d_123">
      <path clip-path="url(#pf4dcde4af7)" d="M 42.1 145.869333 
L 482.04 145.869333 
" style="fill:none;stroke:#bbbbbb;stroke-linecap:square;stroke-width:0.8;"/>
     </g>
     <g id="line2d_124">
      <g>
       <use style="stroke:#000000;stroke-width:0.6;" x="42.1" xlink:href="#mfff488213b" y="145.869333"/>
      </g>
     </g>
    </g>
    <g id="ytick_22">
     <g id="line2d_125">
      <path clip-path="url(#pf4dcde4af7)" d="M 42.1 135.784 
L 482.04 135.784 
" style="fill:none;stroke:#bbbbbb;stroke-linecap:square;stroke-width:0.8;"/>
     </g>
     <g id="line2d_126">
      <g>
       <use style="stroke:#000000;stroke-width:0.6;" x="42.1" xlink:href="#mfff488213b" y="135.784"/>
      </g>
     </g>
    </g>
    <g id="ytick_23">
     <g id="line2d_127">
      <path clip-path="url(#pf4dcde4af7)" d="M 42.1 125.698667 
L 482.04 125.698667 
" style="fill:none;stroke:#bbbbbb;stroke-linecap:square;stroke-width:0.8;"/>
     </g>
     <g id="line2d_128">
      <g>
       <use style="stroke:#000000;stroke-width:0.6;" x="42.1" xlink:href="#mfff488213b" y="125.698667"/>
      </g>
     </g>
    </g>
    <g id="ytick_24">
     <g id="line2d_129">
      <path clip-path="url(#pf4dcde4af7)" d="M 42.1 105.528 
L 482.04 105.528 
" style="fill:none;stroke:#bbbbbb;stroke-linecap:square;stroke-width:0.8;"/>
     </g>
     <g id="line2d_130">
      <g>
       <use style="stroke:#000000;stroke-width:0.6;" x="42.1" xlink:href="#mfff488213b" y="105.528"/>
      </g>
     </g>
    </g>
    <g id="ytick_25">
     <g id="line2d_131">
      <path clip-path="url(#pf4dcde4af7)" d="M 42.1 95.442667 
L 482.04 95.442667 
" style="fill:none;stroke:#bbbbbb;stroke-linecap:square;stroke-width:0.8;"/>
     </g>
     <g id="line2d_132">
      <g>
       <use style="stroke:#000000;stroke-width:0.6;" x="42.1" xlink:href="#mfff488213b" y="95.442667"/>
      </g>
     </g>
    </g>
    <g id="ytick_26">
     <g id="line2d_133">
      <path clip-path="url(#pf4dcde4af7)" d="M 42.1 85.357333 
L 482.04 85.357333 
" style="fill:none;stroke:#bbbbbb;stroke-linecap:square;stroke-width:0.8;"/>
     </g>
     <g id="line2d_134">
      <g>
       <use style="stroke:#000000;stroke-width:0.6;" x="42.1" xlink:href="#mfff488213b" y="85.357333"/>
      </g>
     </g>
    </g>
    <g id="ytick_27">
     <g id="line2d_135">
      <path clip-path="url(#pf4dcde4af7)" d="M 42.1 75.272 
L 482.04 75.272 
" style="fill:none;stroke:#bbbbbb;stroke-linecap:square;stroke-width:0.8;"/>
     </g>
     <g id="line2d_136">
      <g>
       <use style="stroke:#000000;stroke-width:0.6;" x="42.1" xlink:href="#mfff488213b" y="75.272"/>
      </g>
     </g>
    </g>
    <g id="ytick_28">
     <g id="line2d_137">
      <path clip-path="url(#pf4dcde4af7)" d="M 42.1 55.101333 
L 482.04 55.101333 
" style="fill:none;stroke:#bbbbbb;stroke-linecap:square;stroke-width:0.8;"/>
     </g>
     <g id="line2d_138">
      <g>
       <use style="stroke:#000000;stroke-width:0.6;" x="42.1" xlink:href="#mfff488213b" y="55.101333"/>
      </g>
     </g>
    </g>
    <g id="ytick_29">
     <g id="line2d_139">
      <path clip-path="url(#pf4dcde4af7)" d="M 42.1 45.016 
L 482.04 45.016 
" style="fill:none;stroke:#bbbbbb;stroke-linecap:square;stroke-width:0.8;"/>
     </g>
     <g id="line2d_140">
      <g>
       <use style="stroke:#000000;stroke-width:0.6;" x="42.1" xlink:href="#mfff488213b" y="45.016"/>
      </g>
     </g>
    </g>
    <g id="ytick_30">
     <g id="line2d_141">
      <path clip-path="url(#pf4dcde4af7)" d="M 42.1 34.930667 
L 482.04 34.930667 
" style="fill:none;stroke:#bbbbbb;stroke-linecap:square;stroke-width:0.8;"/>
     </g>
     <g id="line2d_142">
      <g>
       <use style="stroke:#000000;stroke-width:0.6;" x="42.1" xlink:href="#mfff488213b" y="34.930667"/>
      </g>
     </g>
    </g>
    <g id="ytick_31">
     <g id="line2d_143">
      <path clip-path="url(#pf4dcde4af7)" d="M 42.1 24.845333 
L 482.04 24.845333 
" style="fill:none;stroke:#bbbbbb;stroke-linecap:square;stroke-width:0.8;"/>
     </g>
     <g id="line2d_144">
      <g>
       <use style="stroke:#000000;stroke-width:0.6;" x="42.1" xlink:href="#mfff488213b" y="24.845333"/>
      </g>
     </g>
    </g>
   </g>
   <g id="line2d_145">
    <path clip-path="url(#pf4dcde4af7)" d="M 42.1 166.04 
L 48.705706 128.542292 
L 52.228749 109.689612 
L 55.311411 94.330866 
L 57.953694 82.23624 
L 60.155596 73.032604 
L 62.357497 64.709399 
L 64.559399 57.333981 
L 66.320921 52.15342 
L 68.082442 47.637034 
L 69.843964 43.801502 
L 71.165105 41.378552 
L 72.486246 39.347548 
L 73.807387 37.70932 
L 75.128529 36.462927 
L 76.44967 35.605681 
L 77.33043 35.248269 
L 78.211191 35.060164 
L 79.091952 35.039316 
L 79.972713 35.183358 
L 80.853473 35.489609 
L 82.174615 36.246518 
L 83.495756 37.350311 
L 84.816897 38.788267 
L 86.138038 40.54633 
L 87.89956 43.361744 
L 89.661081 46.679489 
L 91.422603 50.456941 
L 93.624505 55.75586 
L 96.266787 62.836919 
L 99.349449 71.879892 
L 103.312873 84.319043 
L 113.441622 116.528346 
L 116.524284 125.496329 
L 119.166567 132.605381 
L 121.808849 139.086021 
L 124.010751 143.957489 
L 126.212653 148.319168 
L 128.414555 152.156051 
L 130.176076 154.844951 
L 131.937598 157.198924 
L 133.699119 159.22591 
L 135.460641 160.938212 
L 137.222162 162.352288 
L 138.983684 163.4885 
L 140.745205 164.370817 
L 142.506727 165.026488 
L 144.708629 165.573542 
L 146.910531 165.878068 
L 149.552813 166.020944 
L 157.92004 166.271858 
L 160.121942 166.642078 
L 161.883463 167.124081 
L 163.644985 167.806489 
L 165.406507 168.719117 
L 167.168028 169.888822 
L 168.92955 171.33914 
L 170.691071 173.089961 
L 172.452593 175.157235 
L 174.214114 177.552731 
L 175.975636 180.283832 
L 178.177538 184.173542 
L 180.379439 188.587064 
L 182.581341 193.508244 
L 185.223624 200.044125 
L 187.865906 207.201815 
L 190.948569 216.215824 
L 194.911992 228.573255 
L 205.921502 263.510627 
L 209.004164 272.279701 
L 211.206066 277.976301 
L 213.407968 283.09065 
L 215.169489 286.700892 
L 216.931011 289.835095 
L 218.692533 292.451787 
L 220.013674 294.051633 
L 221.334815 295.324183 
L 222.655956 296.256038 
L 223.977097 296.835175 
L 224.857858 297.020032 
L 225.738619 297.040642 
L 226.619379 296.894555 
L 227.50014 296.579645 
L 228.380901 296.094104 
L 229.702042 295.042728 
L 231.023183 293.600645 
L 232.344324 291.766037 
L 233.665465 289.538845 
L 234.986607 286.920788 
L 236.748128 282.828334 
L 238.50965 278.06063 
L 240.271171 272.636428 
L 242.032693 266.579914 
L 244.234595 258.165437 
L 246.436496 248.877917 
L 249.078779 236.693932 
L 252.161441 221.248648 
L 255.684484 202.323144 
L 260.528669 174.913233 
L 268.895896 127.331417 
L 272.418939 108.553373 
L 275.501602 93.2826 
L 278.143884 81.27842 
L 280.345786 72.159459 
L 282.547688 63.928201 
L 284.74959 56.650794 
L 286.511111 51.552155 
L 288.272633 47.120077 
L 290.034154 43.370547 
L 291.355295 41.012788 
L 292.676436 39.047238 
L 293.997578 37.474428 
L 295.318719 36.293127 
L 296.63986 35.500355 
L 297.520621 35.185445 
L 298.401381 35.039358 
L 299.282142 35.059968 
L 300.162903 35.244825 
L 301.043664 35.591173 
L 302.364805 36.406721 
L 303.685946 37.567128 
L 305.007087 39.059446 
L 306.328228 40.869405 
L 308.08975 43.749836 
L 309.851271 47.127436 
L 311.612793 50.959213 
L 313.814695 56.317788 
L 316.456977 63.457735 
L 319.53964 72.551266 
L 323.503063 85.026398 
L 333.191431 115.864176 
L 336.274094 124.878185 
L 338.916376 132.035875 
L 341.558659 138.571756 
L 343.760561 143.492936 
L 345.962462 147.906458 
L 348.164364 151.796168 
L 350.366266 155.157395 
L 352.127788 157.469969 
L 353.889309 159.456859 
L 355.650831 161.1309 
L 357.412352 162.509052 
L 359.173874 163.612146 
L 360.935395 164.464579 
L 362.696917 165.093984 
L 364.898819 165.613801 
L 367.100721 165.897808 
L 370.183383 166.032301 
L 377.229469 166.201932 
L 379.431371 166.506458 
L 381.633273 167.053512 
L 383.394795 167.709183 
L 385.156316 168.5915 
L 386.917838 169.727712 
L 388.679359 171.141788 
L 390.440881 172.85409 
L 392.202402 174.881076 
L 393.963924 177.235049 
L 395.725445 179.923949 
L 397.927347 183.760832 
L 400.129249 188.122511 
L 402.331151 192.993979 
L 404.973433 199.474619 
L 407.615716 206.583671 
L 410.698378 215.551654 
L 414.661802 227.870745 
L 426.111692 264.162753 
L 429.194354 272.87284 
L 431.396256 278.515496 
L 433.598158 283.566471 
L 435.35968 287.119581 
L 437.121201 290.191298 
L 438.882723 292.740549 
L 440.203864 294.286832 
L 441.525005 295.503494 
L 442.846146 296.377359 
L 444.167287 296.896642 
L 445.048048 297.040684 
L 445.928809 297.019836 
L 446.80957 296.831731 
L 447.69033 296.474319 
L 448.571091 295.945878 
L 449.892232 294.829584 
L 451.213373 293.322159 
L 452.534515 291.422077 
L 453.855656 289.129574 
L 455.176797 286.446664 
L 456.938318 282.268967 
L 458.69984 277.418063 
L 460.461361 271.91339 
L 462.663263 264.151551 
L 464.865165 255.467422 
L 467.067067 245.933101 
L 469.709349 233.487681 
L 472.792012 217.791505 
L 476.315055 198.658508 
L 481.59962 168.577091 
L 482.04 166.04 
L 482.04 166.04 
" style="fill:none;stroke:#114da1;stroke-linecap:square;stroke-width:1.5;"/>
   </g>
   <g id="line2d_146">
    <path clip-path="url(#pf4dcde4af7)" d="M 42.1 166.04 
L 48.705706 128.542292 
L 52.228749 109.689612 
L 55.311411 94.330866 
L 55.751792 92.241366 
L 56.192172 166.04 
L 69.403584 166.04 
L 69.843964 43.801502 
L 71.165105 41.378552 
L 72.486246 39.347548 
L 73.807387 37.70932 
L 75.128529 36.462927 
L 76.44967 35.605681 
L 77.33043 35.248269 
L 78.211191 35.060164 
L 79.091952 35.039316 
L 79.972713 35.183358 
L 80.853473 35.489609 
L 82.174615 36.246518 
L 83.055375 36.944594 
L 83.495756 166.04 
L 96.707167 166.04 
L 97.147548 65.34537 
L 100.23021 74.58211 
L 104.634014 88.576998 
L 110.799339 108.39106 
L 111.23972 166.04 
L 124.451131 166.04 
L 124.891512 145.764433 
L 127.093413 149.91735 
L 129.295315 153.542688 
L 131.056837 156.063412 
L 132.818358 158.252622 
L 134.57988 160.120463 
L 136.341401 161.681344 
L 138.102923 162.95371 
L 138.543303 166.04 
L 156.598899 166.147636 
L 159.241181 166.466199 
L 161.443083 166.986016 
L 163.204605 167.615421 
L 164.966126 168.467854 
L 165.406507 168.719117 
L 165.846887 166.04 
L 179.498679 166.04 
L 179.939059 187.663065 
L 182.140961 192.484557 
L 184.342863 197.792539 
L 186.985145 204.752006 
L 190.067808 213.576542 
L 193.15047 222.998289 
L 193.590851 166.04 
L 206.802262 166.04 
L 207.242643 267.36794 
L 209.884925 274.622118 
L 212.086827 280.09718 
L 214.288729 284.952564 
L 216.05025 288.330164 
L 217.811772 291.210595 
L 219.132913 293.020554 
L 220.454054 294.512872 
L 220.894434 166.04 
L 234.546226 166.04 
L 234.986607 286.920788 
L 236.748128 282.828334 
L 238.50965 278.06063 
L 240.271171 272.636428 
L 242.032693 266.579914 
L 244.234595 258.165437 
L 246.436496 248.877917 
L 248.198018 240.87274 
L 248.638398 166.04 
L 261.84981 166.04 
L 262.29019 164.771392 
L 268.895896 127.331417 
L 272.418939 108.553373 
L 275.501602 93.2826 
L 275.941982 166.04 
L 289.153393 166.04 
L 289.593774 44.243276 
L 290.914915 41.755206 
L 292.236056 39.658773 
L 293.557197 37.9551 
L 294.878338 36.643541 
L 296.199479 35.721697 
L 297.08024 35.321676 
L 297.961001 35.091424 
L 298.841762 35.028972 
L 299.722523 35.13203 
L 300.603283 35.397997 
L 301.924424 36.095954 
L 303.245566 37.142779 
L 303.685946 166.04 
L 316.897357 166.04 
L 317.337738 65.982644 
L 320.4204 75.264294 
L 325.264585 90.714919 
L 330.549149 107.698468 
L 330.98953 166.04 
L 344.200941 166.04 
L 344.641321 145.320426 
L 346.843223 149.525718 
L 349.045125 153.203955 
L 350.806647 155.766611 
L 352.568168 157.996795 
L 354.32969 159.904105 
L 356.091211 161.502428 
L 357.852733 162.809718 
L 358.293113 163.093536 
L 358.733493 166.04 
L 376.348709 166.132677 
L 378.990991 166.428302 
L 381.192893 166.921532 
L 382.954414 167.525148 
L 384.715936 168.348129 
L 385.596697 168.850755 
L 386.037077 166.04 
L 399.248488 166.04 
L 399.688869 187.208746 
L 401.890771 191.980008 
L 404.092673 197.240804 
L 406.734955 204.149228 
L 409.817618 212.924203 
L 412.90028 222.309659 
L 413.340661 166.04 
L 426.992452 166.04 
L 427.432833 267.997185 
L 430.075115 275.194839 
L 432.277017 280.612131 
L 434.478919 285.400511 
L 436.24044 288.718256 
L 438.001962 291.53367 
L 439.323103 293.291733 
L 440.644244 294.729689 
L 441.084625 166.04 
L 454.296036 166.04 
L 454.736416 287.384148 
L 456.497938 283.377143 
L 458.259459 278.692933 
L 460.020981 273.349581 
L 461.782503 267.370601 
L 463.984404 259.047396 
L 466.186306 249.84376 
L 467.947828 241.899624 
L 468.388208 166.04 
L 482.04 166.04 
L 482.04 166.04 
" style="fill:none;stroke:#b33333;stroke-linecap:square;stroke-width:1.5;"/>
   </g>
   <g id="patch_3">
    <path d="M 42.1 317.32 
L 42.1 14.76 
" style="fill:none;stroke:#000000;stroke-linecap:square;stroke-linejoin:miter;stroke-width:0.8;"/>
   </g>
   <g id="patch_4">
    <path d="M 482.04 317.32 
L 482.04 14.76 
" style="fill:none;stroke:#000000;stroke-linecap:square;stroke-linejoin:miter;stroke-width:0.8;"/>
   </g>
   <g id="patch_5">
    <path d="M 42.1 317.32 
L 482.04 317.32 
" style="fill:none;stroke:#000000;stroke-linecap:square;stroke-linejoin:miter;stroke-width:0.8;"/>
   </g>
   <g id="patch_6">
    <path d="M 42.1 14.76 
L 482.04 14.76 
" style="fill:none;stroke:#000000;stroke-linecap:square;stroke-linejoin:miter;stroke-width:0.8;"/>
   </g>
   <g id="legend_1">
    <g id="patch_7">
     <path d="M 383.14 58.16 
L 475.04 58.16 
Q 477.04 58.16 477.04 56.16 
L 477.04 21.76 
Q 477.04 19.76 475.04 19.76 
L 383.14 19.76 
Q 381.14 19.76 381.14 21.76 
L 381.14 56.16 
Q 381.14 58.16 383.14 58.16 
z
" style="fill:#ffffff;opacity:0.8;stroke:#cccccc;stroke-linejoin:miter;"/>
    </g>
    <g id="line2d_147">
     <path d="M 385.14 30.680313 
L 405.14 30.680313 
" style="fill:none;stroke:#114da1;stroke-linecap:square;stroke-width:1.5;"/>
    </g>
    <g id="line2d_148"/>
    <g id="text_18">
     <!-- $x(t)$ in $\sqrt{\mathrm{W}}$ -->
     <defs>
      <path d="M 60.015625 54.6875 
L 34.90625 27.875 
L 50.296875 0 
L 39.984375 0 
L 28.421875 21.6875 
L 8.296875 0 
L -2.59375 0 
L 24.3125 28.8125 
L 10.015625 54.6875 
L 20.3125 54.6875 
L 30.8125 34.90625 
L 49.125 54.6875 
z
" id="DejaVuSans-Oblique-120"/>
      <path d="M 31 75.875 
Q 24.46875 64.65625 21.28125 53.65625 
Q 18.109375 42.671875 18.109375 31.390625 
Q 18.109375 20.125 21.3125 9.0625 
Q 24.515625 -2 31 -13.1875 
L 23.1875 -13.1875 
Q 15.875 -1.703125 12.234375 9.375 
Q 8.59375 20.453125 8.59375 31.390625 
Q 8.59375 42.28125 12.203125 53.3125 
Q 15.828125 64.359375 23.1875 75.875 
z
" id="DejaVuSans-40"/>
      <path d="M 8.015625 75.875 
L 15.828125 75.875 
Q 23.140625 64.359375 26.78125 53.3125 
Q 30.421875 42.28125 30.421875 31.390625 
Q 30.421875 20.453125 26.78125 9.375 
Q 23.140625 -1.703125 15.828125 -13.1875 
L 8.015625 -13.1875 
Q 14.5 -2 17.703125 9.0625 
Q 20.90625 20.125 20.90625 31.390625 
Q 20.90625 42.671875 17.703125 53.65625 
Q 14.5 64.65625 8.015625 75.875 
z
" id="DejaVuSans-41"/>
      <path d="M 108.90625 155.203125 
L 52.703125 -29.5 
L 48.5 -29.5 
L 25.40625 45.59375 
Q 24.296875 49.203125 22.890625 50.796875 
Q 21.5 52.40625 19.203125 52.40625 
Q 15.796875 52.40625 12.40625 49.703125 
L 11.203125 51.703125 
L 27.59375 64.296875 
L 30.09375 64.296875 
L 52.796875 -9.40625 
L 53.203125 -9.40625 
L 103.203125 155.203125 
z
" id="STIXSizeOneSym-Regular-8730"/>
      <path d="M 3.328125 72.90625 
L 13.28125 72.90625 
L 28.609375 11.28125 
L 43.890625 72.90625 
L 54.984375 72.90625 
L 70.3125 11.28125 
L 85.59375 72.90625 
L 95.609375 72.90625 
L 77.296875 0 
L 64.890625 0 
L 49.515625 63.28125 
L 33.984375 0 
L 21.578125 0 
z
" id="DejaVuSans-87"/>
     </defs>
     <g transform="translate(413.14 34.180313)scale(0.1 -0.1)">
      <use transform="translate(0 0.84375)" xlink:href="#DejaVuSans-Oblique-120"/>
      <use transform="translate(59.179688 0.84375)" xlink:href="#DejaVuSans-40"/>
      <use transform="translate(98.193359 0.84375)" xlink:href="#DejaVuSans-Oblique-116"/>
      <use transform="translate(137.402344 0.84375)" xlink:href="#DejaVuSans-41"/>
      <use transform="translate(176.416016 0.84375)" xlink:href="#DejaVuSans-32"/>
      <use transform="translate(208.203125 0.84375)" xlink:href="#DejaVuSans-105"/>
      <use transform="translate(235.986328 0.84375)" xlink:href="#DejaVuSans-110"/>
      <use transform="translate(299.365234 0.84375)" xlink:href="#DejaVuSans-32"/>
      <use transform="translate(331.152344 17.484375)scale(0.563912)" xlink:href="#STIXSizeOneSym-Regular-8730"/>
      <use transform="translate(403.257217 0.84375)" xlink:href="#DejaVuSans-87"/>
      <path d="M 390.757217 98.5 
L 390.757217 104.75 
L 514.634171 104.75 
L 514.634171 98.5 
L 390.757217 98.5 
z
"/>
     </g>
    </g>
    <g id="line2d_149">
     <path d="M 385.14 48.580312 
L 405.14 48.580312 
" style="fill:none;stroke:#b33333;stroke-linecap:square;stroke-width:1.5;"/>
    </g>
    <g id="line2d_150"/>
    <g id="text_19">
     <!-- $x_\mathrm{ns}(t)$ in $\sqrt{\mathrm{W}}$ -->
     <g transform="translate(413.14 52.080312)scale(0.1 -0.1)">
      <use transform="translate(0 0.84375)" xlink:href="#DejaVuSans-Oblique-120"/>
      <use transform="translate(59.179688 -15.5625)scale(0.7)" xlink:href="#DejaVuSans-110"/>
      <use transform="translate(103.544922 -15.5625)scale(0.7)" xlink:href="#DejaVuSans-115"/>
      <use transform="translate(142.749023 0.84375)" xlink:href="#DejaVuSans-40"/>
      <use transform="translate(181.762695 0.84375)" xlink:href="#DejaVuSans-Oblique-116"/>
      <use transform="translate(220.97168 0.84375)" xlink:href="#DejaVuSans-41"/>
      <use transform="translate(259.985352 0.84375)" xlink:href="#DejaVuSans-32"/>
      <use transform="translate(291.772461 0.84375)" xlink:href="#DejaVuSans-105"/>
      <use transform="translate(319.555664 0.84375)" xlink:href="#DejaVuSans-110"/>
      <use transform="translate(382.93457 0.84375)" xlink:href="#DejaVuSans-32"/>
      <use transform="translate(414.72168 17.484375)scale(0.563912)" xlink:href="#STIXSizeOneSym-Regular-8730"/>
      <use transform="translate(486.826553 0.84375)" xlink:href="#DejaVuSans-87"/>
      <path d="M 474.326553 98.5 
L 474.326553 104.75 
L 598.203506 104.75 
L 598.203506 98.5 
L 474.326553 98.5 
z
"/>
     </g>
    </g>
   </g>
  </g>
 </g>
 <defs>
  <clipPath id="pf4dcde4af7">
   <rect height="302.56" width="439.94" x="42.1" y="14.76"/>
  </clipPath>
 </defs>
</svg>
