<?xml version="1.0" encoding="utf-8" standalone="no"?>
<!DOCTYPE svg PUBLIC "-//W3C//DTD SVG 1.1//EN"
  "http://www.w3.org/Graphics/SVG/1.1/DTD/svg11.dtd">
<!-- Created with matplotlib (https://matplotlib.org/) -->
<svg height="360pt" version="1.1" viewBox="0 0 504 360" width="504pt" xmlns="http://www.w3.org/2000/svg" xmlns:xlink="http://www.w3.org/1999/xlink">
 <defs>
  <style type="text/css">
*{stroke-linecap:butt;stroke-linejoin:round;}
  </style>
 </defs>
 <g id="figure_1">
  <g id="patch_1">
   <path d="M 0 360 
L 504 360 
L 504 0 
L 0 0 
z
" style="fill:#ffffff;"/>
  </g>
  <g id="axes_1">
   <g id="patch_2">
    <path d="M 63 320.4 
L 453.6 320.4 
L 453.6 43.2 
L 63 43.2 
z
" style="fill:#ffffff;"/>
   </g>
   <g id="matplotlib.axis_1">
    <g id="xtick_1">
     <g id="line2d_1">
      <path clip-path="url(#pf0c197f905)" d="M 63 320.4 
L 63 43.2 
" style="fill:none;stroke:#666666;stroke-linecap:square;stroke-width:0.8;"/>
     </g>
     <g id="line2d_2">
      <defs>
       <path d="M 0 0 
L 0 3.5 
" id="m49991ef593" style="stroke:#000000;stroke-width:0.8;"/>
      </defs>
      <g>
       <use style="stroke:#000000;stroke-width:0.8;" x="63" xlink:href="#m49991ef593" y="320.4"/>
      </g>
     </g>
     <g id="text_1">
      <!-- 0.0 -->
      <defs>
       <path d="M 31.78125 66.40625 
Q 24.171875 66.40625 20.328125 58.90625 
Q 16.5 51.421875 16.5 36.375 
Q 16.5 21.390625 20.328125 13.890625 
Q 24.171875 6.390625 31.78125 6.390625 
Q 39.453125 6.390625 43.28125 13.890625 
Q 47.125 21.390625 47.125 36.375 
Q 47.125 51.421875 43.28125 58.90625 
Q 39.453125 66.40625 31.78125 66.40625 
z
M 31.78125 74.21875 
Q 44.046875 74.21875 50.515625 64.515625 
Q 56.984375 54.828125 56.984375 36.375 
Q 56.984375 17.96875 50.515625 8.265625 
Q 44.046875 -1.421875 31.78125 -1.421875 
Q 19.53125 -1.421875 13.0625 8.265625 
Q 6.59375 17.96875 6.59375 36.375 
Q 6.59375 54.828125 13.0625 64.515625 
Q 19.53125 74.21875 31.78125 74.21875 
z
" id="DejaVuSans-48"/>
       <path d="M 10.6875 12.40625 
L 21 12.40625 
L 21 0 
L 10.6875 0 
z
" id="DejaVuSans-46"/>
      </defs>
      <g transform="translate(55.048437 334.998438)scale(0.1 -0.1)">
       <use xlink:href="#DejaVuSans-48"/>
       <use x="63.623047" xlink:href="#DejaVuSans-46"/>
       <use x="95.410156" xlink:href="#DejaVuSans-48"/>
      </g>
     </g>
    </g>
    <g id="xtick_2">
     <g id="line2d_3">
      <path clip-path="url(#pf0c197f905)" d="M 111.825 320.4 
L 111.825 43.2 
" style="fill:none;stroke:#666666;stroke-linecap:square;stroke-width:0.8;"/>
     </g>
     <g id="line2d_4">
      <g>
       <use style="stroke:#000000;stroke-width:0.8;" x="111.825" xlink:href="#m49991ef593" y="320.4"/>
      </g>
     </g>
     <g id="text_2">
      <!-- 0.5 -->
      <defs>
       <path d="M 10.796875 72.90625 
L 49.515625 72.90625 
L 49.515625 64.59375 
L 19.828125 64.59375 
L 19.828125 46.734375 
Q 21.96875 47.46875 24.109375 47.828125 
Q 26.265625 48.1875 28.421875 48.1875 
Q 40.625 48.1875 47.75 41.5 
Q 54.890625 34.8125 54.890625 23.390625 
Q 54.890625 11.625 47.5625 5.09375 
Q 40.234375 -1.421875 26.90625 -1.421875 
Q 22.3125 -1.421875 17.546875 -0.640625 
Q 12.796875 0.140625 7.71875 1.703125 
L 7.71875 11.625 
Q 12.109375 9.234375 16.796875 8.0625 
Q 21.484375 6.890625 26.703125 6.890625 
Q 35.15625 6.890625 40.078125 11.328125 
Q 45.015625 15.765625 45.015625 23.390625 
Q 45.015625 31 40.078125 35.4375 
Q 35.15625 39.890625 26.703125 39.890625 
Q 22.75 39.890625 18.8125 39.015625 
Q 14.890625 38.140625 10.796875 36.28125 
z
" id="DejaVuSans-53"/>
      </defs>
      <g transform="translate(103.873438 334.998438)scale(0.1 -0.1)">
       <use xlink:href="#DejaVuSans-48"/>
       <use x="63.623047" xlink:href="#DejaVuSans-46"/>
       <use x="95.410156" xlink:href="#DejaVuSans-53"/>
      </g>
     </g>
    </g>
    <g id="xtick_3">
     <g id="line2d_5">
      <path clip-path="url(#pf0c197f905)" d="M 160.65 320.4 
L 160.65 43.2 
" style="fill:none;stroke:#666666;stroke-linecap:square;stroke-width:0.8;"/>
     </g>
     <g id="line2d_6">
      <g>
       <use style="stroke:#000000;stroke-width:0.8;" x="160.65" xlink:href="#m49991ef593" y="320.4"/>
      </g>
     </g>
     <g id="text_3">
      <!-- 1.0 -->
      <defs>
       <path d="M 12.40625 8.296875 
L 28.515625 8.296875 
L 28.515625 63.921875 
L 10.984375 60.40625 
L 10.984375 69.390625 
L 28.421875 72.90625 
L 38.28125 72.90625 
L 38.28125 8.296875 
L 54.390625 8.296875 
L 54.390625 0 
L 12.40625 0 
z
" id="DejaVuSans-49"/>
      </defs>
      <g transform="translate(152.698438 334.998438)scale(0.1 -0.1)">
       <use xlink:href="#DejaVuSans-49"/>
       <use x="63.623047" xlink:href="#DejaVuSans-46"/>
       <use x="95.410156" xlink:href="#DejaVuSans-48"/>
      </g>
     </g>
    </g>
    <g id="xtick_4">
     <g id="line2d_7">
      <path clip-path="url(#pf0c197f905)" d="M 209.475 320.4 
L 209.475 43.2 
" style="fill:none;stroke:#666666;stroke-linecap:square;stroke-width:0.8;"/>
     </g>
     <g id="line2d_8">
      <g>
       <use style="stroke:#000000;stroke-width:0.8;" x="209.475" xlink:href="#m49991ef593" y="320.4"/>
      </g>
     </g>
     <g id="text_4">
      <!-- 1.5 -->
      <g transform="translate(201.523438 334.998438)scale(0.1 -0.1)">
       <use xlink:href="#DejaVuSans-49"/>
       <use x="63.623047" xlink:href="#DejaVuSans-46"/>
       <use x="95.410156" xlink:href="#DejaVuSans-53"/>
      </g>
     </g>
    </g>
    <g id="xtick_5">
     <g id="line2d_9">
      <path clip-path="url(#pf0c197f905)" d="M 258.3 320.4 
L 258.3 43.2 
" style="fill:none;stroke:#666666;stroke-linecap:square;stroke-width:0.8;"/>
     </g>
     <g id="line2d_10">
      <g>
       <use style="stroke:#000000;stroke-width:0.8;" x="258.3" xlink:href="#m49991ef593" y="320.4"/>
      </g>
     </g>
     <g id="text_5">
      <!-- 2.0 -->
      <defs>
       <path d="M 19.1875 8.296875 
L 53.609375 8.296875 
L 53.609375 0 
L 7.328125 0 
L 7.328125 8.296875 
Q 12.9375 14.109375 22.625 23.890625 
Q 32.328125 33.6875 34.8125 36.53125 
Q 39.546875 41.84375 41.421875 45.53125 
Q 43.3125 49.21875 43.3125 52.78125 
Q 43.3125 58.59375 39.234375 62.25 
Q 35.15625 65.921875 28.609375 65.921875 
Q 23.96875 65.921875 18.8125 64.3125 
Q 13.671875 62.703125 7.8125 59.421875 
L 7.8125 69.390625 
Q 13.765625 71.78125 18.9375 73 
Q 24.125 74.21875 28.421875 74.21875 
Q 39.75 74.21875 46.484375 68.546875 
Q 53.21875 62.890625 53.21875 53.421875 
Q 53.21875 48.921875 51.53125 44.890625 
Q 49.859375 40.875 45.40625 35.40625 
Q 44.1875 33.984375 37.640625 27.21875 
Q 31.109375 20.453125 19.1875 8.296875 
z
" id="DejaVuSans-50"/>
      </defs>
      <g transform="translate(250.348438 334.998438)scale(0.1 -0.1)">
       <use xlink:href="#DejaVuSans-50"/>
       <use x="63.623047" xlink:href="#DejaVuSans-46"/>
       <use x="95.410156" xlink:href="#DejaVuSans-48"/>
      </g>
     </g>
    </g>
    <g id="xtick_6">
     <g id="line2d_11">
      <path clip-path="url(#pf0c197f905)" d="M 307.125 320.4 
L 307.125 43.2 
" style="fill:none;stroke:#666666;stroke-linecap:square;stroke-width:0.8;"/>
     </g>
     <g id="line2d_12">
      <g>
       <use style="stroke:#000000;stroke-width:0.8;" x="307.125" xlink:href="#m49991ef593" y="320.4"/>
      </g>
     </g>
     <g id="text_6">
      <!-- 2.5 -->
      <g transform="translate(299.173437 334.998438)scale(0.1 -0.1)">
       <use xlink:href="#DejaVuSans-50"/>
       <use x="63.623047" xlink:href="#DejaVuSans-46"/>
       <use x="95.410156" xlink:href="#DejaVuSans-53"/>
      </g>
     </g>
    </g>
    <g id="xtick_7">
     <g id="line2d_13">
      <path clip-path="url(#pf0c197f905)" d="M 355.95 320.4 
L 355.95 43.2 
" style="fill:none;stroke:#666666;stroke-linecap:square;stroke-width:0.8;"/>
     </g>
     <g id="line2d_14">
      <g>
       <use style="stroke:#000000;stroke-width:0.8;" x="355.95" xlink:href="#m49991ef593" y="320.4"/>
      </g>
     </g>
     <g id="text_7">
      <!-- 3.0 -->
      <defs>
       <path d="M 40.578125 39.3125 
Q 47.65625 37.796875 51.625 33 
Q 55.609375 28.21875 55.609375 21.1875 
Q 55.609375 10.40625 48.1875 4.484375 
Q 40.765625 -1.421875 27.09375 -1.421875 
Q 22.515625 -1.421875 17.65625 -0.515625 
Q 12.796875 0.390625 7.625 2.203125 
L 7.625 11.71875 
Q 11.71875 9.328125 16.59375 8.109375 
Q 21.484375 6.890625 26.8125 6.890625 
Q 36.078125 6.890625 40.9375 10.546875 
Q 45.796875 14.203125 45.796875 21.1875 
Q 45.796875 27.640625 41.28125 31.265625 
Q 36.765625 34.90625 28.71875 34.90625 
L 20.21875 34.90625 
L 20.21875 43.015625 
L 29.109375 43.015625 
Q 36.375 43.015625 40.234375 45.921875 
Q 44.09375 48.828125 44.09375 54.296875 
Q 44.09375 59.90625 40.109375 62.90625 
Q 36.140625 65.921875 28.71875 65.921875 
Q 24.65625 65.921875 20.015625 65.03125 
Q 15.375 64.15625 9.8125 62.3125 
L 9.8125 71.09375 
Q 15.4375 72.65625 20.34375 73.4375 
Q 25.25 74.21875 29.59375 74.21875 
Q 40.828125 74.21875 47.359375 69.109375 
Q 53.90625 64.015625 53.90625 55.328125 
Q 53.90625 49.265625 50.4375 45.09375 
Q 46.96875 40.921875 40.578125 39.3125 
z
" id="DejaVuSans-51"/>
      </defs>
      <g transform="translate(347.998438 334.998438)scale(0.1 -0.1)">
       <use xlink:href="#DejaVuSans-51"/>
       <use x="63.623047" xlink:href="#DejaVuSans-46"/>
       <use x="95.410156" xlink:href="#DejaVuSans-48"/>
      </g>
     </g>
    </g>
    <g id="xtick_8">
     <g id="line2d_15">
      <path clip-path="url(#pf0c197f905)" d="M 404.775 320.4 
L 404.775 43.2 
" style="fill:none;stroke:#666666;stroke-linecap:square;stroke-width:0.8;"/>
     </g>
     <g id="line2d_16">
      <g>
       <use style="stroke:#000000;stroke-width:0.8;" x="404.775" xlink:href="#m49991ef593" y="320.4"/>
      </g>
     </g>
     <g id="text_8">
      <!-- 3.5 -->
      <g transform="translate(396.823438 334.998438)scale(0.1 -0.1)">
       <use xlink:href="#DejaVuSans-51"/>
       <use x="63.623047" xlink:href="#DejaVuSans-46"/>
       <use x="95.410156" xlink:href="#DejaVuSans-53"/>
      </g>
     </g>
    </g>
    <g id="xtick_9">
     <g id="line2d_17">
      <path clip-path="url(#pf0c197f905)" d="M 453.6 320.4 
L 453.6 43.2 
" style="fill:none;stroke:#666666;stroke-linecap:square;stroke-width:0.8;"/>
     </g>
     <g id="line2d_18">
      <g>
       <use style="stroke:#000000;stroke-width:0.8;" x="453.6" xlink:href="#m49991ef593" y="320.4"/>
      </g>
     </g>
     <g id="text_9">
      <!-- 4.0 -->
      <defs>
       <path d="M 37.796875 64.3125 
L 12.890625 25.390625 
L 37.796875 25.390625 
z
M 35.203125 72.90625 
L 47.609375 72.90625 
L 47.609375 25.390625 
L 58.015625 25.390625 
L 58.015625 17.1875 
L 47.609375 17.1875 
L 47.609375 0 
L 37.796875 0 
L 37.796875 17.1875 
L 4.890625 17.1875 
L 4.890625 26.703125 
z
" id="DejaVuSans-52"/>
      </defs>
      <g transform="translate(445.648438 334.998438)scale(0.1 -0.1)">
       <use xlink:href="#DejaVuSans-52"/>
       <use x="63.623047" xlink:href="#DejaVuSans-46"/>
       <use x="95.410156" xlink:href="#DejaVuSans-48"/>
      </g>
     </g>
    </g>
    <g id="xtick_10">
     <g id="line2d_19">
      <path clip-path="url(#pf0c197f905)" d="M 72.765 320.4 
L 72.765 43.2 
" style="fill:none;stroke:#bbbbbb;stroke-linecap:square;stroke-width:0.8;"/>
     </g>
     <g id="line2d_20">
      <defs>
       <path d="M 0 0 
L 0 2 
" id="mcc73cf29d7" style="stroke:#000000;stroke-width:0.6;"/>
      </defs>
      <g>
       <use style="stroke:#000000;stroke-width:0.6;" x="72.765" xlink:href="#mcc73cf29d7" y="320.4"/>
      </g>
     </g>
    </g>
    <g id="xtick_11">
     <g id="line2d_21">
      <path clip-path="url(#pf0c197f905)" d="M 82.53 320.4 
L 82.53 43.2 
" style="fill:none;stroke:#bbbbbb;stroke-linecap:square;stroke-width:0.8;"/>
     </g>
     <g id="line2d_22">
      <g>
       <use style="stroke:#000000;stroke-width:0.6;" x="82.53" xlink:href="#mcc73cf29d7" y="320.4"/>
      </g>
     </g>
    </g>
    <g id="xtick_12">
     <g id="line2d_23">
      <path clip-path="url(#pf0c197f905)" d="M 92.295 320.4 
L 92.295 43.2 
" style="fill:none;stroke:#bbbbbb;stroke-linecap:square;stroke-width:0.8;"/>
     </g>
     <g id="line2d_24">
      <g>
       <use style="stroke:#000000;stroke-width:0.6;" x="92.295" xlink:href="#mcc73cf29d7" y="320.4"/>
      </g>
     </g>
    </g>
    <g id="xtick_13">
     <g id="line2d_25">
      <path clip-path="url(#pf0c197f905)" d="M 102.06 320.4 
L 102.06 43.2 
" style="fill:none;stroke:#bbbbbb;stroke-linecap:square;stroke-width:0.8;"/>
     </g>
     <g id="line2d_26">
      <g>
       <use style="stroke:#000000;stroke-width:0.6;" x="102.06" xlink:href="#mcc73cf29d7" y="320.4"/>
      </g>
     </g>
    </g>
    <g id="xtick_14">
     <g id="line2d_27">
      <path clip-path="url(#pf0c197f905)" d="M 121.59 320.4 
L 121.59 43.2 
" style="fill:none;stroke:#bbbbbb;stroke-linecap:square;stroke-width:0.8;"/>
     </g>
     <g id="line2d_28">
      <g>
       <use style="stroke:#000000;stroke-width:0.6;" x="121.59" xlink:href="#mcc73cf29d7" y="320.4"/>
      </g>
     </g>
    </g>
    <g id="xtick_15">
     <g id="line2d_29">
      <path clip-path="url(#pf0c197f905)" d="M 131.355 320.4 
L 131.355 43.2 
" style="fill:none;stroke:#bbbbbb;stroke-linecap:square;stroke-width:0.8;"/>
     </g>
     <g id="line2d_30">
      <g>
       <use style="stroke:#000000;stroke-width:0.6;" x="131.355" xlink:href="#mcc73cf29d7" y="320.4"/>
      </g>
     </g>
    </g>
    <g id="xtick_16">
     <g id="line2d_31">
      <path clip-path="url(#pf0c197f905)" d="M 141.12 320.4 
L 141.12 43.2 
" style="fill:none;stroke:#bbbbbb;stroke-linecap:square;stroke-width:0.8;"/>
     </g>
     <g id="line2d_32">
      <g>
       <use style="stroke:#000000;stroke-width:0.6;" x="141.12" xlink:href="#mcc73cf29d7" y="320.4"/>
      </g>
     </g>
    </g>
    <g id="xtick_17">
     <g id="line2d_33">
      <path clip-path="url(#pf0c197f905)" d="M 150.885 320.4 
L 150.885 43.2 
" style="fill:none;stroke:#bbbbbb;stroke-linecap:square;stroke-width:0.8;"/>
     </g>
     <g id="line2d_34">
      <g>
       <use style="stroke:#000000;stroke-width:0.6;" x="150.885" xlink:href="#mcc73cf29d7" y="320.4"/>
      </g>
     </g>
    </g>
    <g id="xtick_18">
     <g id="line2d_35">
      <path clip-path="url(#pf0c197f905)" d="M 170.415 320.4 
L 170.415 43.2 
" style="fill:none;stroke:#bbbbbb;stroke-linecap:square;stroke-width:0.8;"/>
     </g>
     <g id="line2d_36">
      <g>
       <use style="stroke:#000000;stroke-width:0.6;" x="170.415" xlink:href="#mcc73cf29d7" y="320.4"/>
      </g>
     </g>
    </g>
    <g id="xtick_19">
     <g id="line2d_37">
      <path clip-path="url(#pf0c197f905)" d="M 180.18 320.4 
L 180.18 43.2 
" style="fill:none;stroke:#bbbbbb;stroke-linecap:square;stroke-width:0.8;"/>
     </g>
     <g id="line2d_38">
      <g>
       <use style="stroke:#000000;stroke-width:0.6;" x="180.18" xlink:href="#mcc73cf29d7" y="320.4"/>
      </g>
     </g>
    </g>
    <g id="xtick_20">
     <g id="line2d_39">
      <path clip-path="url(#pf0c197f905)" d="M 189.945 320.4 
L 189.945 43.2 
" style="fill:none;stroke:#bbbbbb;stroke-linecap:square;stroke-width:0.8;"/>
     </g>
     <g id="line2d_40">
      <g>
       <use style="stroke:#000000;stroke-width:0.6;" x="189.945" xlink:href="#mcc73cf29d7" y="320.4"/>
      </g>
     </g>
    </g>
    <g id="xtick_21">
     <g id="line2d_41">
      <path clip-path="url(#pf0c197f905)" d="M 199.71 320.4 
L 199.71 43.2 
" style="fill:none;stroke:#bbbbbb;stroke-linecap:square;stroke-width:0.8;"/>
     </g>
     <g id="line2d_42">
      <g>
       <use style="stroke:#000000;stroke-width:0.6;" x="199.71" xlink:href="#mcc73cf29d7" y="320.4"/>
      </g>
     </g>
    </g>
    <g id="xtick_22">
     <g id="line2d_43">
      <path clip-path="url(#pf0c197f905)" d="M 219.24 320.4 
L 219.24 43.2 
" style="fill:none;stroke:#bbbbbb;stroke-linecap:square;stroke-width:0.8;"/>
     </g>
     <g id="line2d_44">
      <g>
       <use style="stroke:#000000;stroke-width:0.6;" x="219.24" xlink:href="#mcc73cf29d7" y="320.4"/>
      </g>
     </g>
    </g>
    <g id="xtick_23">
     <g id="line2d_45">
      <path clip-path="url(#pf0c197f905)" d="M 229.005 320.4 
L 229.005 43.2 
" style="fill:none;stroke:#bbbbbb;stroke-linecap:square;stroke-width:0.8;"/>
     </g>
     <g id="line2d_46">
      <g>
       <use style="stroke:#000000;stroke-width:0.6;" x="229.005" xlink:href="#mcc73cf29d7" y="320.4"/>
      </g>
     </g>
    </g>
    <g id="xtick_24">
     <g id="line2d_47">
      <path clip-path="url(#pf0c197f905)" d="M 238.77 320.4 
L 238.77 43.2 
" style="fill:none;stroke:#bbbbbb;stroke-linecap:square;stroke-width:0.8;"/>
     </g>
     <g id="line2d_48">
      <g>
       <use style="stroke:#000000;stroke-width:0.6;" x="238.77" xlink:href="#mcc73cf29d7" y="320.4"/>
      </g>
     </g>
    </g>
    <g id="xtick_25">
     <g id="line2d_49">
      <path clip-path="url(#pf0c197f905)" d="M 248.535 320.4 
L 248.535 43.2 
" style="fill:none;stroke:#bbbbbb;stroke-linecap:square;stroke-width:0.8;"/>
     </g>
     <g id="line2d_50">
      <g>
       <use style="stroke:#000000;stroke-width:0.6;" x="248.535" xlink:href="#mcc73cf29d7" y="320.4"/>
      </g>
     </g>
    </g>
    <g id="xtick_26">
     <g id="line2d_51">
      <path clip-path="url(#pf0c197f905)" d="M 268.065 320.4 
L 268.065 43.2 
" style="fill:none;stroke:#bbbbbb;stroke-linecap:square;stroke-width:0.8;"/>
     </g>
     <g id="line2d_52">
      <g>
       <use style="stroke:#000000;stroke-width:0.6;" x="268.065" xlink:href="#mcc73cf29d7" y="320.4"/>
      </g>
     </g>
    </g>
    <g id="xtick_27">
     <g id="line2d_53">
      <path clip-path="url(#pf0c197f905)" d="M 277.83 320.4 
L 277.83 43.2 
" style="fill:none;stroke:#bbbbbb;stroke-linecap:square;stroke-width:0.8;"/>
     </g>
     <g id="line2d_54">
      <g>
       <use style="stroke:#000000;stroke-width:0.6;" x="277.83" xlink:href="#mcc73cf29d7" y="320.4"/>
      </g>
     </g>
    </g>
    <g id="xtick_28">
     <g id="line2d_55">
      <path clip-path="url(#pf0c197f905)" d="M 287.595 320.4 
L 287.595 43.2 
" style="fill:none;stroke:#bbbbbb;stroke-linecap:square;stroke-width:0.8;"/>
     </g>
     <g id="line2d_56">
      <g>
       <use style="stroke:#000000;stroke-width:0.6;" x="287.595" xlink:href="#mcc73cf29d7" y="320.4"/>
      </g>
     </g>
    </g>
    <g id="xtick_29">
     <g id="line2d_57">
      <path clip-path="url(#pf0c197f905)" d="M 297.36 320.4 
L 297.36 43.2 
" style="fill:none;stroke:#bbbbbb;stroke-linecap:square;stroke-width:0.8;"/>
     </g>
     <g id="line2d_58">
      <g>
       <use style="stroke:#000000;stroke-width:0.6;" x="297.36" xlink:href="#mcc73cf29d7" y="320.4"/>
      </g>
     </g>
    </g>
    <g id="xtick_30">
     <g id="line2d_59">
      <path clip-path="url(#pf0c197f905)" d="M 316.89 320.4 
L 316.89 43.2 
" style="fill:none;stroke:#bbbbbb;stroke-linecap:square;stroke-width:0.8;"/>
     </g>
     <g id="line2d_60">
      <g>
       <use style="stroke:#000000;stroke-width:0.6;" x="316.89" xlink:href="#mcc73cf29d7" y="320.4"/>
      </g>
     </g>
    </g>
    <g id="xtick_31">
     <g id="line2d_61">
      <path clip-path="url(#pf0c197f905)" d="M 326.655 320.4 
L 326.655 43.2 
" style="fill:none;stroke:#bbbbbb;stroke-linecap:square;stroke-width:0.8;"/>
     </g>
     <g id="line2d_62">
      <g>
       <use style="stroke:#000000;stroke-width:0.6;" x="326.655" xlink:href="#mcc73cf29d7" y="320.4"/>
      </g>
     </g>
    </g>
    <g id="xtick_32">
     <g id="line2d_63">
      <path clip-path="url(#pf0c197f905)" d="M 336.42 320.4 
L 336.42 43.2 
" style="fill:none;stroke:#bbbbbb;stroke-linecap:square;stroke-width:0.8;"/>
     </g>
     <g id="line2d_64">
      <g>
       <use style="stroke:#000000;stroke-width:0.6;" x="336.42" xlink:href="#mcc73cf29d7" y="320.4"/>
      </g>
     </g>
    </g>
    <g id="xtick_33">
     <g id="line2d_65">
      <path clip-path="url(#pf0c197f905)" d="M 346.185 320.4 
L 346.185 43.2 
" style="fill:none;stroke:#bbbbbb;stroke-linecap:square;stroke-width:0.8;"/>
     </g>
     <g id="line2d_66">
      <g>
       <use style="stroke:#000000;stroke-width:0.6;" x="346.185" xlink:href="#mcc73cf29d7" y="320.4"/>
      </g>
     </g>
    </g>
    <g id="xtick_34">
     <g id="line2d_67">
      <path clip-path="url(#pf0c197f905)" d="M 365.715 320.4 
L 365.715 43.2 
" style="fill:none;stroke:#bbbbbb;stroke-linecap:square;stroke-width:0.8;"/>
     </g>
     <g id="line2d_68">
      <g>
       <use style="stroke:#000000;stroke-width:0.6;" x="365.715" xlink:href="#mcc73cf29d7" y="320.4"/>
      </g>
     </g>
    </g>
    <g id="xtick_35">
     <g id="line2d_69">
      <path clip-path="url(#pf0c197f905)" d="M 375.48 320.4 
L 375.48 43.2 
" style="fill:none;stroke:#bbbbbb;stroke-linecap:square;stroke-width:0.8;"/>
     </g>
     <g id="line2d_70">
      <g>
       <use style="stroke:#000000;stroke-width:0.6;" x="375.48" xlink:href="#mcc73cf29d7" y="320.4"/>
      </g>
     </g>
    </g>
    <g id="xtick_36">
     <g id="line2d_71">
      <path clip-path="url(#pf0c197f905)" d="M 385.245 320.4 
L 385.245 43.2 
" style="fill:none;stroke:#bbbbbb;stroke-linecap:square;stroke-width:0.8;"/>
     </g>
     <g id="line2d_72">
      <g>
       <use style="stroke:#000000;stroke-width:0.6;" x="385.245" xlink:href="#mcc73cf29d7" y="320.4"/>
      </g>
     </g>
    </g>
    <g id="xtick_37">
     <g id="line2d_73">
      <path clip-path="url(#pf0c197f905)" d="M 395.01 320.4 
L 395.01 43.2 
" style="fill:none;stroke:#bbbbbb;stroke-linecap:square;stroke-width:0.8;"/>
     </g>
     <g id="line2d_74">
      <g>
       <use style="stroke:#000000;stroke-width:0.6;" x="395.01" xlink:href="#mcc73cf29d7" y="320.4"/>
      </g>
     </g>
    </g>
    <g id="xtick_38">
     <g id="line2d_75">
      <path clip-path="url(#pf0c197f905)" d="M 414.54 320.4 
L 414.54 43.2 
" style="fill:none;stroke:#bbbbbb;stroke-linecap:square;stroke-width:0.8;"/>
     </g>
     <g id="line2d_76">
      <g>
       <use style="stroke:#000000;stroke-width:0.6;" x="414.54" xlink:href="#mcc73cf29d7" y="320.4"/>
      </g>
     </g>
    </g>
    <g id="xtick_39">
     <g id="line2d_77">
      <path clip-path="url(#pf0c197f905)" d="M 424.305 320.4 
L 424.305 43.2 
" style="fill:none;stroke:#bbbbbb;stroke-linecap:square;stroke-width:0.8;"/>
     </g>
     <g id="line2d_78">
      <g>
       <use style="stroke:#000000;stroke-width:0.6;" x="424.305" xlink:href="#mcc73cf29d7" y="320.4"/>
      </g>
     </g>
    </g>
    <g id="xtick_40">
     <g id="line2d_79">
      <path clip-path="url(#pf0c197f905)" d="M 434.07 320.4 
L 434.07 43.2 
" style="fill:none;stroke:#bbbbbb;stroke-linecap:square;stroke-width:0.8;"/>
     </g>
     <g id="line2d_80">
      <g>
       <use style="stroke:#000000;stroke-width:0.6;" x="434.07" xlink:href="#mcc73cf29d7" y="320.4"/>
      </g>
     </g>
    </g>
    <g id="xtick_41">
     <g id="line2d_81">
      <path clip-path="url(#pf0c197f905)" d="M 443.835 320.4 
L 443.835 43.2 
" style="fill:none;stroke:#bbbbbb;stroke-linecap:square;stroke-width:0.8;"/>
     </g>
     <g id="line2d_82">
      <g>
       <use style="stroke:#000000;stroke-width:0.6;" x="443.835" xlink:href="#mcc73cf29d7" y="320.4"/>
      </g>
     </g>
    </g>
    <g id="text_10">
     <!-- $t/T$ -->
     <defs>
      <path d="M 42.28125 54.6875 
L 40.921875 47.703125 
L 23 47.703125 
L 17.1875 18.015625 
Q 16.890625 16.359375 16.75 15.234375 
Q 16.609375 14.109375 16.609375 13.484375 
Q 16.609375 10.359375 18.484375 8.9375 
Q 20.359375 7.515625 24.515625 7.515625 
L 33.59375 7.515625 
L 32.078125 0 
L 23.484375 0 
Q 15.484375 0 11.546875 3.125 
Q 7.625 6.25 7.625 12.59375 
Q 7.625 13.71875 7.765625 15.0625 
Q 7.90625 16.40625 8.203125 18.015625 
L 14.015625 47.703125 
L 6.390625 47.703125 
L 7.8125 54.6875 
L 15.28125 54.6875 
L 18.3125 70.21875 
L 27.296875 70.21875 
L 24.3125 54.6875 
z
" id="DejaVuSans-Oblique-116"/>
      <path d="M 25.390625 72.90625 
L 33.6875 72.90625 
L 8.296875 -9.28125 
L 0 -9.28125 
z
" id="DejaVuSans-47"/>
      <path d="M 5.90625 72.90625 
L 67.578125 72.90625 
L 66.015625 64.59375 
L 39.984375 64.59375 
L 27.484375 0 
L 17.578125 0 
L 30.078125 64.59375 
L 4.296875 64.59375 
z
" id="DejaVuSans-Oblique-84"/>
     </defs>
     <g transform="translate(251.6 348.676562)scale(0.1 -0.1)">
      <use transform="translate(0 0.09375)" xlink:href="#DejaVuSans-Oblique-116"/>
      <use transform="translate(39.208984 0.09375)" xlink:href="#DejaVuSans-47"/>
      <use transform="translate(72.900391 0.09375)" xlink:href="#DejaVuSans-Oblique-84"/>
     </g>
    </g>
   </g>
   <g id="matplotlib.axis_2">
    <g id="ytick_1">
     <g id="line2d_83">
      <path clip-path="url(#pf0c197f905)" d="M 63 299.076923 
L 453.6 299.076923 
" style="fill:none;stroke:#666666;stroke-linecap:square;stroke-width:0.8;"/>
     </g>
     <g id="line2d_84">
      <defs>
       <path d="M 0 0 
L -3.5 0 
" id="mb7e1b59f46" style="stroke:#000000;stroke-width:0.8;"/>
      </defs>
      <g>
       <use style="stroke:#000000;stroke-width:0.8;" x="63" xlink:href="#mb7e1b59f46" y="299.076923"/>
      </g>
     </g>
     <g id="text_11">
      <!-- −1.0 -->
      <defs>
       <path d="M 10.59375 35.5 
L 73.1875 35.5 
L 73.1875 27.203125 
L 10.59375 27.203125 
z
" id="DejaVuSans-8722"/>
      </defs>
      <g transform="translate(31.717187 302.876142)scale(0.1 -0.1)">
       <use xlink:href="#DejaVuSans-8722"/>
       <use x="83.789062" xlink:href="#DejaVuSans-49"/>
       <use x="147.412109" xlink:href="#DejaVuSans-46"/>
       <use x="179.199219" xlink:href="#DejaVuSans-48"/>
      </g>
     </g>
    </g>
    <g id="ytick_2">
     <g id="line2d_85">
      <path clip-path="url(#pf0c197f905)" d="M 63 245.769231 
L 453.6 245.769231 
" style="fill:none;stroke:#666666;stroke-linecap:square;stroke-width:0.8;"/>
     </g>
     <g id="line2d_86">
      <g>
       <use style="stroke:#000000;stroke-width:0.8;" x="63" xlink:href="#mb7e1b59f46" y="245.769231"/>
      </g>
     </g>
     <g id="text_12">
      <!-- −0.5 -->
      <g transform="translate(31.717187 249.56845)scale(0.1 -0.1)">
       <use xlink:href="#DejaVuSans-8722"/>
       <use x="83.789062" xlink:href="#DejaVuSans-48"/>
       <use x="147.412109" xlink:href="#DejaVuSans-46"/>
       <use x="179.199219" xlink:href="#DejaVuSans-53"/>
      </g>
     </g>
    </g>
    <g id="ytick_3">
     <g id="line2d_87">
      <path clip-path="url(#pf0c197f905)" d="M 63 192.461538 
L 453.6 192.461538 
" style="fill:none;stroke:#666666;stroke-linecap:square;stroke-width:0.8;"/>
     </g>
     <g id="line2d_88">
      <g>
       <use style="stroke:#000000;stroke-width:0.8;" x="63" xlink:href="#mb7e1b59f46" y="192.461538"/>
      </g>
     </g>
     <g id="text_13">
      <!-- 0.0 -->
      <g transform="translate(40.096875 196.260757)scale(0.1 -0.1)">
       <use xlink:href="#DejaVuSans-48"/>
       <use x="63.623047" xlink:href="#DejaVuSans-46"/>
       <use x="95.410156" xlink:href="#DejaVuSans-48"/>
      </g>
     </g>
    </g>
    <g id="ytick_4">
     <g id="line2d_89">
      <path clip-path="url(#pf0c197f905)" d="M 63 139.153846 
L 453.6 139.153846 
" style="fill:none;stroke:#666666;stroke-linecap:square;stroke-width:0.8;"/>
     </g>
     <g id="line2d_90">
      <g>
       <use style="stroke:#000000;stroke-width:0.8;" x="63" xlink:href="#mb7e1b59f46" y="139.153846"/>
      </g>
     </g>
     <g id="text_14">
      <!-- 0.5 -->
      <g transform="translate(40.096875 142.953065)scale(0.1 -0.1)">
       <use xlink:href="#DejaVuSans-48"/>
       <use x="63.623047" xlink:href="#DejaVuSans-46"/>
       <use x="95.410156" xlink:href="#DejaVuSans-53"/>
      </g>
     </g>
    </g>
    <g id="ytick_5">
     <g id="line2d_91">
      <path clip-path="url(#pf0c197f905)" d="M 63 85.846154 
L 453.6 85.846154 
" style="fill:none;stroke:#666666;stroke-linecap:square;stroke-width:0.8;"/>
     </g>
     <g id="line2d_92">
      <g>
       <use style="stroke:#000000;stroke-width:0.8;" x="63" xlink:href="#mb7e1b59f46" y="85.846154"/>
      </g>
     </g>
     <g id="text_15">
      <!-- 1.0 -->
      <g transform="translate(40.096875 89.645373)scale(0.1 -0.1)">
       <use xlink:href="#DejaVuSans-49"/>
       <use x="63.623047" xlink:href="#DejaVuSans-46"/>
       <use x="95.410156" xlink:href="#DejaVuSans-48"/>
      </g>
     </g>
    </g>
    <g id="ytick_6">
     <g id="line2d_93">
      <path clip-path="url(#pf0c197f905)" d="M 63 309.738462 
L 453.6 309.738462 
" style="fill:none;stroke:#bbbbbb;stroke-linecap:square;stroke-width:0.8;"/>
     </g>
     <g id="line2d_94">
      <defs>
       <path d="M 0 0 
L -2 0 
" id="m8ac6667c14" style="stroke:#000000;stroke-width:0.6;"/>
      </defs>
      <g>
       <use style="stroke:#000000;stroke-width:0.6;" x="63" xlink:href="#m8ac6667c14" y="309.738462"/>
      </g>
     </g>
    </g>
    <g id="ytick_7">
     <g id="line2d_95">
      <path clip-path="url(#pf0c197f905)" d="M 63 288.415385 
L 453.6 288.415385 
" style="fill:none;stroke:#bbbbbb;stroke-linecap:square;stroke-width:0.8;"/>
     </g>
     <g id="line2d_96">
      <g>
       <use style="stroke:#000000;stroke-width:0.6;" x="63" xlink:href="#m8ac6667c14" y="288.415385"/>
      </g>
     </g>
    </g>
    <g id="ytick_8">
     <g id="line2d_97">
      <path clip-path="url(#pf0c197f905)" d="M 63 277.753846 
L 453.6 277.753846 
" style="fill:none;stroke:#bbbbbb;stroke-linecap:square;stroke-width:0.8;"/>
     </g>
     <g id="line2d_98">
      <g>
       <use style="stroke:#000000;stroke-width:0.6;" x="63" xlink:href="#m8ac6667c14" y="277.753846"/>
      </g>
     </g>
    </g>
    <g id="ytick_9">
     <g id="line2d_99">
      <path clip-path="url(#pf0c197f905)" d="M 63 267.092308 
L 453.6 267.092308 
" style="fill:none;stroke:#bbbbbb;stroke-linecap:square;stroke-width:0.8;"/>
     </g>
     <g id="line2d_100">
      <g>
       <use style="stroke:#000000;stroke-width:0.6;" x="63" xlink:href="#m8ac6667c14" y="267.092308"/>
      </g>
     </g>
    </g>
    <g id="ytick_10">
     <g id="line2d_101">
      <path clip-path="url(#pf0c197f905)" d="M 63 256.430769 
L 453.6 256.430769 
" style="fill:none;stroke:#bbbbbb;stroke-linecap:square;stroke-width:0.8;"/>
     </g>
     <g id="line2d_102">
      <g>
       <use style="stroke:#000000;stroke-width:0.6;" x="63" xlink:href="#m8ac6667c14" y="256.430769"/>
      </g>
     </g>
    </g>
    <g id="ytick_11">
     <g id="line2d_103">
      <path clip-path="url(#pf0c197f905)" d="M 63 235.107692 
L 453.6 235.107692 
" style="fill:none;stroke:#bbbbbb;stroke-linecap:square;stroke-width:0.8;"/>
     </g>
     <g id="line2d_104">
      <g>
       <use style="stroke:#000000;stroke-width:0.6;" x="63" xlink:href="#m8ac6667c14" y="235.107692"/>
      </g>
     </g>
    </g>
    <g id="ytick_12">
     <g id="line2d_105">
      <path clip-path="url(#pf0c197f905)" d="M 63 224.446154 
L 453.6 224.446154 
" style="fill:none;stroke:#bbbbbb;stroke-linecap:square;stroke-width:0.8;"/>
     </g>
     <g id="line2d_106">
      <g>
       <use style="stroke:#000000;stroke-width:0.6;" x="63" xlink:href="#m8ac6667c14" y="224.446154"/>
      </g>
     </g>
    </g>
    <g id="ytick_13">
     <g id="line2d_107">
      <path clip-path="url(#pf0c197f905)" d="M 63 213.784615 
L 453.6 213.784615 
" style="fill:none;stroke:#bbbbbb;stroke-linecap:square;stroke-width:0.8;"/>
     </g>
     <g id="line2d_108">
      <g>
       <use style="stroke:#000000;stroke-width:0.6;" x="63" xlink:href="#m8ac6667c14" y="213.784615"/>
      </g>
     </g>
    </g>
    <g id="ytick_14">
     <g id="line2d_109">
      <path clip-path="url(#pf0c197f905)" d="M 63 203.123077 
L 453.6 203.123077 
" style="fill:none;stroke:#bbbbbb;stroke-linecap:square;stroke-width:0.8;"/>
     </g>
     <g id="line2d_110">
      <g>
       <use style="stroke:#000000;stroke-width:0.6;" x="63" xlink:href="#m8ac6667c14" y="203.123077"/>
      </g>
     </g>
    </g>
    <g id="ytick_15">
     <g id="line2d_111">
      <path clip-path="url(#pf0c197f905)" d="M 63 181.8 
L 453.6 181.8 
" style="fill:none;stroke:#bbbbbb;stroke-linecap:square;stroke-width:0.8;"/>
     </g>
     <g id="line2d_112">
      <g>
       <use style="stroke:#000000;stroke-width:0.6;" x="63" xlink:href="#m8ac6667c14" y="181.8"/>
      </g>
     </g>
    </g>
    <g id="ytick_16">
     <g id="line2d_113">
      <path clip-path="url(#pf0c197f905)" d="M 63 171.138462 
L 453.6 171.138462 
" style="fill:none;stroke:#bbbbbb;stroke-linecap:square;stroke-width:0.8;"/>
     </g>
     <g id="line2d_114">
      <g>
       <use style="stroke:#000000;stroke-width:0.6;" x="63" xlink:href="#m8ac6667c14" y="171.138462"/>
      </g>
     </g>
    </g>
    <g id="ytick_17">
     <g id="line2d_115">
      <path clip-path="url(#pf0c197f905)" d="M 63 160.476923 
L 453.6 160.476923 
" style="fill:none;stroke:#bbbbbb;stroke-linecap:square;stroke-width:0.8;"/>
     </g>
     <g id="line2d_116">
      <g>
       <use style="stroke:#000000;stroke-width:0.6;" x="63" xlink:href="#m8ac6667c14" y="160.476923"/>
      </g>
     </g>
    </g>
    <g id="ytick_18">
     <g id="line2d_117">
      <path clip-path="url(#pf0c197f905)" d="M 63 149.815385 
L 453.6 149.815385 
" style="fill:none;stroke:#bbbbbb;stroke-linecap:square;stroke-width:0.8;"/>
     </g>
     <g id="line2d_118">
      <g>
       <use style="stroke:#000000;stroke-width:0.6;" x="63" xlink:href="#m8ac6667c14" y="149.815385"/>
      </g>
     </g>
    </g>
    <g id="ytick_19">
     <g id="line2d_119">
      <path clip-path="url(#pf0c197f905)" d="M 63 128.492308 
L 453.6 128.492308 
" style="fill:none;stroke:#bbbbbb;stroke-linecap:square;stroke-width:0.8;"/>
     </g>
     <g id="line2d_120">
      <g>
       <use style="stroke:#000000;stroke-width:0.6;" x="63" xlink:href="#m8ac6667c14" y="128.492308"/>
      </g>
     </g>
    </g>
    <g id="ytick_20">
     <g id="line2d_121">
      <path clip-path="url(#pf0c197f905)" d="M 63 117.830769 
L 453.6 117.830769 
" style="fill:none;stroke:#bbbbbb;stroke-linecap:square;stroke-width:0.8;"/>
     </g>
     <g id="line2d_122">
      <g>
       <use style="stroke:#000000;stroke-width:0.6;" x="63" xlink:href="#m8ac6667c14" y="117.830769"/>
      </g>
     </g>
    </g>
    <g id="ytick_21">
     <g id="line2d_123">
      <path clip-path="url(#pf0c197f905)" d="M 63 107.169231 
L 453.6 107.169231 
" style="fill:none;stroke:#bbbbbb;stroke-linecap:square;stroke-width:0.8;"/>
     </g>
     <g id="line2d_124">
      <g>
       <use style="stroke:#000000;stroke-width:0.6;" x="63" xlink:href="#m8ac6667c14" y="107.169231"/>
      </g>
     </g>
    </g>
    <g id="ytick_22">
     <g id="line2d_125">
      <path clip-path="url(#pf0c197f905)" d="M 63 96.507692 
L 453.6 96.507692 
" style="fill:none;stroke:#bbbbbb;stroke-linecap:square;stroke-width:0.8;"/>
     </g>
     <g id="line2d_126">
      <g>
       <use style="stroke:#000000;stroke-width:0.6;" x="63" xlink:href="#m8ac6667c14" y="96.507692"/>
      </g>
     </g>
    </g>
    <g id="ytick_23">
     <g id="line2d_127">
      <path clip-path="url(#pf0c197f905)" d="M 63 75.184615 
L 453.6 75.184615 
" style="fill:none;stroke:#bbbbbb;stroke-linecap:square;stroke-width:0.8;"/>
     </g>
     <g id="line2d_128">
      <g>
       <use style="stroke:#000000;stroke-width:0.6;" x="63" xlink:href="#m8ac6667c14" y="75.184615"/>
      </g>
     </g>
    </g>
    <g id="ytick_24">
     <g id="line2d_129">
      <path clip-path="url(#pf0c197f905)" d="M 63 64.523077 
L 453.6 64.523077 
" style="fill:none;stroke:#bbbbbb;stroke-linecap:square;stroke-width:0.8;"/>
     </g>
     <g id="line2d_130">
      <g>
       <use style="stroke:#000000;stroke-width:0.6;" x="63" xlink:href="#m8ac6667c14" y="64.523077"/>
      </g>
     </g>
    </g>
    <g id="ytick_25">
     <g id="line2d_131">
      <path clip-path="url(#pf0c197f905)" d="M 63 53.861538 
L 453.6 53.861538 
" style="fill:none;stroke:#bbbbbb;stroke-linecap:square;stroke-width:0.8;"/>
     </g>
     <g id="line2d_132">
      <g>
       <use style="stroke:#000000;stroke-width:0.6;" x="63" xlink:href="#m8ac6667c14" y="53.861538"/>
      </g>
     </g>
    </g>
    <g id="ytick_26">
     <g id="line2d_133">
      <path clip-path="url(#pf0c197f905)" d="M 63 43.2 
L 453.6 43.2 
" style="fill:none;stroke:#bbbbbb;stroke-linecap:square;stroke-width:0.8;"/>
     </g>
     <g id="line2d_134">
      <g>
       <use style="stroke:#000000;stroke-width:0.6;" x="63" xlink:href="#m8ac6667c14" y="43.2"/>
      </g>
     </g>
    </g>
    <g id="text_16">
     <!-- $s(t)/D$ -->
     <defs>
      <path d="M 50 53.078125 
L 48.296875 44.578125 
Q 44.734375 46.53125 40.765625 47.5 
Q 36.8125 48.484375 32.625 48.484375 
Q 25.53125 48.484375 21.453125 46.0625 
Q 17.390625 43.65625 17.390625 39.5 
Q 17.390625 34.671875 26.859375 32.078125 
Q 27.59375 31.890625 27.9375 31.78125 
L 30.8125 30.90625 
Q 39.796875 28.421875 42.796875 25.6875 
Q 45.796875 22.953125 45.796875 18.21875 
Q 45.796875 9.515625 38.890625 4.046875 
Q 31.984375 -1.421875 20.796875 -1.421875 
Q 16.453125 -1.421875 11.671875 -0.578125 
Q 6.890625 0.25 1.125 2 
L 2.875 11.28125 
Q 7.8125 8.734375 12.59375 7.421875 
Q 17.390625 6.109375 21.78125 6.109375 
Q 28.375 6.109375 32.5 8.9375 
Q 36.625 11.765625 36.625 16.109375 
Q 36.625 20.796875 25.78125 23.6875 
L 24.859375 23.921875 
L 21.78125 24.703125 
Q 14.9375 26.515625 11.765625 29.46875 
Q 8.59375 32.421875 8.59375 37.015625 
Q 8.59375 45.75 15.15625 50.875 
Q 21.734375 56 33.015625 56 
Q 37.453125 56 41.671875 55.265625 
Q 45.90625 54.546875 50 53.078125 
z
" id="DejaVuSans-Oblique-115"/>
      <path d="M 31 75.875 
Q 24.46875 64.65625 21.28125 53.65625 
Q 18.109375 42.671875 18.109375 31.390625 
Q 18.109375 20.125 21.3125 9.0625 
Q 24.515625 -2 31 -13.1875 
L 23.1875 -13.1875 
Q 15.875 -1.703125 12.234375 9.375 
Q 8.59375 20.453125 8.59375 31.390625 
Q 8.59375 42.28125 12.203125 53.3125 
Q 15.828125 64.359375 23.1875 75.875 
z
" id="DejaVuSans-40"/>
      <path d="M 8.015625 75.875 
L 15.828125 75.875 
Q 23.140625 64.359375 26.78125 53.3125 
Q 30.421875 42.28125 30.421875 31.390625 
Q 30.421875 20.453125 26.78125 9.375 
Q 23.140625 -1.703125 15.828125 -13.1875 
L 8.015625 -13.1875 
Q 14.5 -2 17.703125 9.0625 
Q 20.90625 20.125 20.90625 31.390625 
Q 20.90625 42.671875 17.703125 53.65625 
Q 14.5 64.65625 8.015625 75.875 
z
" id="DejaVuSans-41"/>
      <path d="M 16.890625 72.90625 
L 38.09375 72.90625 
Q 54.984375 72.90625 63.59375 65.75 
Q 72.21875 58.59375 72.21875 44.484375 
Q 72.21875 35.15625 68.9375 26.53125 
Q 65.671875 17.921875 59.90625 12.015625 
Q 54.109375 5.953125 45.171875 2.96875 
Q 36.234375 0 24.03125 0 
L 2.6875 0 
z
M 25.203125 64.796875 
L 14.203125 8.109375 
L 27.09375 8.109375 
Q 43.65625 8.109375 52.734375 17.625 
Q 61.8125 27.15625 61.8125 44.484375 
Q 61.8125 54.984375 55.953125 59.890625 
Q 50.09375 64.796875 37.59375 64.796875 
z
" id="DejaVuSans-Oblique-68"/>
     </defs>
     <g transform="translate(25.6375 195.85)rotate(-90)scale(0.1 -0.1)">
      <use transform="translate(0 0.125)" xlink:href="#DejaVuSans-Oblique-115"/>
      <use transform="translate(52.099609 0.125)" xlink:href="#DejaVuSans-40"/>
      <use transform="translate(91.113281 0.125)" xlink:href="#DejaVuSans-Oblique-116"/>
      <use transform="translate(130.322266 0.125)" xlink:href="#DejaVuSans-41"/>
      <use transform="translate(169.335938 0.125)" xlink:href="#DejaVuSans-47"/>
      <use transform="translate(203.027344 0.125)" xlink:href="#DejaVuSans-Oblique-68"/>
     </g>
    </g>
   </g>
   <g id="line2d_135">
    <path clip-path="url(#pf0c197f905)" d="M 63 192.461538 
L 66.418605 147.024448 
L 68.176744 126.532324 
L 69.64186 111.986889 
L 70.813953 102.385749 
L 71.888372 95.379733 
L 72.767442 91.02292 
L 73.548837 88.239111 
L 74.134884 86.842155 
L 74.623256 86.137156 
L 75.013953 85.875806 
L 75.404651 85.88424 
L 75.795349 86.162437 
L 76.283721 86.888399 
L 76.772093 88.031844 
L 77.35814 89.948574 
L 78.04186 92.921496 
L 78.92093 97.873193 
L 79.897674 104.792115 
L 81.069767 114.912318 
L 82.437209 128.929791 
L 84.097674 148.546528 
L 86.344186 178.088507 
L 91.130233 241.802533 
L 92.790698 260.735411 
L 94.15814 274.025804 
L 95.330233 283.422984 
L 96.306977 289.681445 
L 97.186047 294.002861 
L 97.967442 296.754087 
L 98.553488 298.126121 
L 99.04186 298.81015 
L 99.432558 299.054651 
L 99.823256 299.029349 
L 100.213953 298.734308 
L 100.702326 297.98739 
L 101.288372 296.540634 
L 101.972093 294.10456 
L 102.753488 290.357502 
L 103.632558 284.960352 
L 104.609302 277.578095 
L 105.781395 266.95574 
L 107.148837 252.440951 
L 108.809302 232.369276 
L 111.251163 199.831758 
L 115.255814 146.418741 
L 117.013953 126.006659 
L 118.381395 112.428322 
L 119.553488 102.74626 
L 120.627907 95.658814 
L 121.506977 91.231335 
L 122.288372 88.382443 
L 122.874419 86.935687 
L 123.362791 86.188769 
L 123.753488 85.893728 
L 124.144186 85.868426 
L 124.534884 86.112927 
L 124.925581 86.626612 
L 125.413953 87.645212 
L 126 89.414189 
L 126.683721 92.218636 
L 127.465116 96.373245 
L 128.44186 102.927847 
L 129.516279 111.767366 
L 130.786047 124.187666 
L 132.348837 141.935631 
L 134.302326 166.896728 
L 140.748837 251.606727 
L 142.311628 268.145763 
L 143.581395 279.360875 
L 144.655814 287.049884 
L 145.632558 292.474107 
L 146.413953 295.678873 
L 147.097674 297.627182 
L 147.683721 298.649008 
L 148.172093 299.038837 
L 148.562791 299.047271 
L 148.953488 298.785921 
L 149.344186 298.255448 
L 149.832558 297.216014 
L 150.418605 295.422366 
L 151.102326 292.589769 
L 151.883721 288.404089 
L 152.860465 281.812758 
L 153.934884 272.936188 
L 155.204651 260.47756 
L 156.767442 242.69196 
L 158.72093 217.700727 
L 160.576744 192.461538 
L 160.674419 299.076923 
L 160.772093 299.068488 
L 161.162791 298.866121 
L 161.553488 298.394428 
L 162.04186 297.427956 
L 162.627907 295.720731 
L 163.311628 292.98678 
L 164.093023 288.910028 
L 164.972093 283.159639 
L 166.046512 274.563067 
L 167.316279 262.394871 
L 168.781395 246.059325 
L 170.637209 222.717833 
L 174.348837 172.299409 
L 176.790698 140.905384 
L 178.451163 122.27548 
L 179.818605 109.30074 
L 180.990698 100.21384 
L 181.967442 94.236612 
L 182.846512 90.182017 
L 183.530233 87.931695 
L 184.116279 86.64699 
L 184.604651 86.036409 
L 184.995349 85.850898 
L 185.386047 85.935235 
L 185.776744 86.289205 
L 186.265116 87.10941 
L 186.851163 88.643178 
L 187.534884 91.178856 
L 188.316279 95.036283 
L 189.195349 100.551853 
L 190.269767 108.882774 
L 191.44186 119.78681 
L 192.906977 135.708321 
L 194.665116 157.418293 
L 197.497674 195.6462 
L 200.72093 238.353079 
L 202.47907 258.785247 
L 203.944186 273.265174 
L 205.116279 282.805373 
L 206.093023 289.193894 
L 206.972093 293.639012 
L 207.753488 296.504157 
L 208.339535 297.963355 
L 208.827907 298.720748 
L 209.218605 299.024209 
L 209.609302 299.057945 
L 210 298.82187 
L 210.390698 298.316581 
L 210.87907 297.308402 
L 211.465116 295.551766 
L 212.148837 292.761405 
L 212.930233 288.622347 
L 213.906977 282.086134 
L 214.981395 273.265174 
L 216.251163 260.864083 
L 217.716279 244.310907 
L 219.669767 219.488473 
L 226.409302 131.240824 
L 227.874419 115.955414 
L 229.144186 104.88762 
L 230.218605 97.337494 
L 231.097674 92.507172 
L 231.87907 89.286318 
L 232.562791 87.323577 
L 233.148837 86.289205 
L 233.637209 85.888853 
L 234.027907 85.871985 
L 234.418605 86.12491 
L 234.809302 86.64699 
L 235.297674 87.676008 
L 235.883721 89.457323 
L 236.567442 92.275848 
L 237.348837 96.445998 
L 238.325581 103.018972 
L 239.4 111.877028 
L 240.669767 124.316507 
L 242.232558 142.083312 
L 244.186047 167.059507 
L 250.632558 251.746132 
L 252.195349 268.263741 
L 253.465116 279.45789 
L 254.539535 287.127116 
L 255.516279 292.532062 
L 256.297674 295.720731 
L 256.981395 297.654603 
L 257.567442 298.663881 
L 257.95814 299.001018 
L 258.251163 299.076923 
L 258.348837 192.461538 
L 258.446512 193.802613 
L 261.767442 237.898629 
L 263.525581 258.390753 
L 264.990698 272.936188 
L 266.162791 282.537328 
L 267.237209 289.543344 
L 268.116279 293.900157 
L 268.897674 296.683966 
L 269.483721 298.080922 
L 269.972093 298.785921 
L 270.362791 299.047271 
L 270.753488 299.038837 
L 271.144186 298.76064 
L 271.632558 298.034678 
L 272.12093 296.891233 
L 272.706977 294.974503 
L 273.390698 292.001581 
L 274.269767 287.049884 
L 275.246512 280.130962 
L 276.418605 270.010759 
L 277.786047 255.993286 
L 279.446512 236.376548 
L 281.693023 206.83457 
L 286.47907 143.120544 
L 288.139535 124.187666 
L 289.506977 110.897273 
L 290.67907 101.500093 
L 291.655814 95.241632 
L 292.534884 90.920216 
L 293.316279 88.16899 
L 293.902326 86.796956 
L 294.390698 86.112927 
L 294.781395 85.868426 
L 295.172093 85.893728 
L 295.562791 86.188769 
L 296.051163 86.935687 
L 296.637209 88.382443 
L 297.32093 90.818517 
L 298.102326 94.565575 
L 298.981395 99.962725 
L 299.95814 107.344982 
L 301.130233 117.967337 
L 302.497674 132.482126 
L 304.15814 152.553801 
L 306.6 185.091319 
L 310.604651 238.504336 
L 312.362791 258.916418 
L 313.730233 272.494755 
L 314.902326 282.176817 
L 315.976744 289.264263 
L 316.855814 293.691742 
L 317.637209 296.540634 
L 318.223256 297.98739 
L 318.711628 298.734308 
L 319.102326 299.029349 
L 319.493023 299.054651 
L 319.883721 298.81015 
L 320.274419 298.296465 
L 320.762791 297.277865 
L 321.348837 295.508888 
L 322.032558 292.704441 
L 322.813953 288.549831 
L 323.790698 281.99523 
L 324.865116 273.155711 
L 326.134884 260.735411 
L 327.697674 242.987446 
L 329.651163 218.026349 
L 336.097674 133.31635 
L 337.660465 116.777314 
L 338.930233 105.562202 
L 340.004651 97.873193 
L 340.981395 92.44897 
L 341.762791 89.244204 
L 342.446512 87.295895 
L 343.032558 86.274069 
L 343.52093 85.88424 
L 343.911628 85.875806 
L 344.302326 86.137156 
L 344.693023 86.667629 
L 345.181395 87.707063 
L 345.767442 89.500711 
L 346.451163 92.333308 
L 347.232558 96.518988 
L 348.209302 103.110319 
L 349.283721 111.986889 
L 350.553488 124.445517 
L 352.116279 142.231117 
L 354.069767 167.222349 
L 355.925581 192.461538 
L 356.023256 85.846154 
L 356.12093 85.854589 
L 356.511628 86.056956 
L 356.902326 86.528649 
L 357.390698 87.495121 
L 357.976744 89.202346 
L 358.660465 91.936297 
L 359.44186 96.013049 
L 360.32093 101.763438 
L 361.395349 110.360009 
L 362.665116 122.528205 
L 364.130233 138.863751 
L 365.986047 162.205244 
L 369.697674 212.623668 
L 372.139535 244.017693 
L 373.8 262.647597 
L 375.167442 275.622337 
L 376.339535 284.709237 
L 377.316279 290.686465 
L 378.195349 294.74106 
L 378.87907 296.991382 
L 379.465116 298.276087 
L 379.953488 298.886668 
L 380.344186 299.072178 
L 380.734884 298.987842 
L 381.125581 298.633872 
L 381.613953 297.813667 
L 382.2 296.279899 
L 382.883721 293.744221 
L 383.665116 289.886793 
L 384.544186 284.371224 
L 385.618605 276.040303 
L 386.790698 265.136267 
L 388.255814 249.214756 
L 390.013953 227.504784 
L 392.846512 189.276877 
L 396.069767 146.569998 
L 397.827907 126.137829 
L 399.293023 111.657903 
L 400.465116 102.117704 
L 401.44186 95.729183 
L 402.32093 91.284065 
L 403.102326 88.41892 
L 403.688372 86.959722 
L 404.176744 86.202329 
L 404.567442 85.898867 
L 404.95814 85.865132 
L 405.348837 86.101207 
L 405.739535 86.606496 
L 406.227907 87.614675 
L 406.813953 89.371311 
L 407.497674 92.161672 
L 408.27907 96.30073 
L 409.255814 102.836943 
L 410.330233 111.657903 
L 411.6 124.058994 
L 413.065116 140.61217 
L 415.018605 165.434604 
L 421.75814 253.682253 
L 423.223256 268.967663 
L 424.493023 280.035457 
L 425.567442 287.585583 
L 426.446512 292.415905 
L 427.227907 295.636759 
L 427.911628 297.5995 
L 428.497674 298.633872 
L 428.986047 299.034224 
L 429.376744 299.051092 
L 429.767442 298.798167 
L 430.15814 298.276087 
L 430.646512 297.247069 
L 431.232558 295.465754 
L 431.916279 292.647229 
L 432.697674 288.477079 
L 433.674419 281.904104 
L 434.748837 273.046049 
L 436.018605 260.60657 
L 437.581395 242.839765 
L 439.534884 217.86357 
L 445.981395 133.176945 
L 447.544186 116.659336 
L 448.813953 105.465187 
L 449.888372 97.795961 
L 450.865116 92.391015 
L 451.646512 89.202346 
L 452.330233 87.268474 
L 452.916279 86.259196 
L 453.306977 85.922059 
L 453.6 85.846154 
L 453.6 85.846154 
" style="fill:none;stroke:#114da1;stroke-linecap:square;stroke-width:1.5;"/>
   </g>
   <g id="patch_3">
    <path d="M 63 320.4 
L 63 43.2 
" style="fill:none;stroke:#000000;stroke-linecap:square;stroke-linejoin:miter;stroke-width:0.8;"/>
   </g>
   <g id="patch_4">
    <path d="M 453.6 320.4 
L 453.6 43.2 
" style="fill:none;stroke:#000000;stroke-linecap:square;stroke-linejoin:miter;stroke-width:0.8;"/>
   </g>
   <g id="patch_5">
    <path d="M 63 320.4 
L 453.6 320.4 
" style="fill:none;stroke:#000000;stroke-linecap:square;stroke-linejoin:miter;stroke-width:0.8;"/>
   </g>
   <g id="patch_6">
    <path d="M 63 43.2 
L 453.6 43.2 
" style="fill:none;stroke:#000000;stroke-linecap:square;stroke-linejoin:miter;stroke-width:0.8;"/>
   </g>
   <g id="text_17">
    <!-- $(u[0]u[1])_2=10$ -->
    <defs>
     <path d="M 6.6875 21.6875 
L 13.09375 54.6875 
L 22.125 54.6875 
L 15.71875 22.015625 
Q 15.234375 19.625 15.015625 17.921875 
Q 14.796875 16.21875 14.796875 15.09375 
Q 14.796875 10.9375 17.328125 8.65625 
Q 19.875 6.390625 24.515625 6.390625 
Q 31.734375 6.390625 37 11.265625 
Q 42.28125 16.15625 43.890625 24.421875 
L 49.90625 54.6875 
L 58.890625 54.6875 
L 48.296875 0 
L 39.3125 0 
L 41.109375 8.59375 
Q 37.3125 3.8125 32.0625 1.1875 
Q 26.8125 -1.421875 20.90625 -1.421875 
Q 13.71875 -1.421875 9.71875 2.515625 
Q 5.71875 6.453125 5.71875 13.484375 
Q 5.71875 14.9375 5.953125 17.140625 
Q 6.203125 19.34375 6.6875 21.6875 
z
" id="DejaVuSans-Oblique-117"/>
     <path d="M 8.59375 75.984375 
L 29.296875 75.984375 
L 29.296875 69 
L 17.578125 69 
L 17.578125 -6.203125 
L 29.296875 -6.203125 
L 29.296875 -13.1875 
L 8.59375 -13.1875 
z
" id="DejaVuSans-91"/>
     <path d="M 30.421875 75.984375 
L 30.421875 -13.1875 
L 9.71875 -13.1875 
L 9.71875 -6.203125 
L 21.390625 -6.203125 
L 21.390625 69 
L 9.71875 69 
L 9.71875 75.984375 
z
" id="DejaVuSans-93"/>
     <path d="M 10.59375 45.40625 
L 73.1875 45.40625 
L 73.1875 37.203125 
L 10.59375 37.203125 
z
M 10.59375 25.484375 
L 73.1875 25.484375 
L 73.1875 17.1875 
L 10.59375 17.1875 
z
" id="DejaVuSans-61"/>
    </defs>
    <g style="fill:#114da1;" transform="translate(72.765 75.184615)scale(0.1 -0.1)">
     <use transform="translate(0 0.015625)" xlink:href="#DejaVuSans-40"/>
     <use transform="translate(39.013672 0.015625)" xlink:href="#DejaVuSans-Oblique-117"/>
     <use transform="translate(102.392578 0.015625)" xlink:href="#DejaVuSans-91"/>
     <use transform="translate(141.40625 0.015625)" xlink:href="#DejaVuSans-48"/>
     <use transform="translate(205.029297 0.015625)" xlink:href="#DejaVuSans-93"/>
     <use transform="translate(244.042969 0.015625)" xlink:href="#DejaVuSans-Oblique-117"/>
     <use transform="translate(307.421875 0.015625)" xlink:href="#DejaVuSans-91"/>
     <use transform="translate(346.435547 0.015625)" xlink:href="#DejaVuSans-49"/>
     <use transform="translate(410.058594 0.015625)" xlink:href="#DejaVuSans-93"/>
     <use transform="translate(449.072266 0.015625)" xlink:href="#DejaVuSans-41"/>
     <use transform="translate(489.042969 -16.390625)scale(0.7)" xlink:href="#DejaVuSans-50"/>
     <use transform="translate(555.795898 0.015625)" xlink:href="#DejaVuSans-61"/>
     <use transform="translate(659.067383 0.015625)" xlink:href="#DejaVuSans-49"/>
     <use transform="translate(722.69043 0.015625)" xlink:href="#DejaVuSans-48"/>
    </g>
   </g>
   <g id="text_18">
    <!-- $(u[2]u[3])_2=11$ -->
    <g style="fill:#114da1;" transform="translate(170.415 75.184615)scale(0.1 -0.1)">
     <use transform="translate(0 0.015625)" xlink:href="#DejaVuSans-40"/>
     <use transform="translate(39.013672 0.015625)" xlink:href="#DejaVuSans-Oblique-117"/>
     <use transform="translate(102.392578 0.015625)" xlink:href="#DejaVuSans-91"/>
     <use transform="translate(141.40625 0.015625)" xlink:href="#DejaVuSans-50"/>
     <use transform="translate(205.029297 0.015625)" xlink:href="#DejaVuSans-93"/>
     <use transform="translate(244.042969 0.015625)" xlink:href="#DejaVuSans-Oblique-117"/>
     <use transform="translate(307.421875 0.015625)" xlink:href="#DejaVuSans-91"/>
     <use transform="translate(346.435547 0.015625)" xlink:href="#DejaVuSans-51"/>
     <use transform="translate(410.058594 0.015625)" xlink:href="#DejaVuSans-93"/>
     <use transform="translate(449.072266 0.015625)" xlink:href="#DejaVuSans-41"/>
     <use transform="translate(489.042969 -16.390625)scale(0.7)" xlink:href="#DejaVuSans-50"/>
     <use transform="translate(555.795898 0.015625)" xlink:href="#DejaVuSans-61"/>
     <use transform="translate(659.067383 0.015625)" xlink:href="#DejaVuSans-49"/>
     <use transform="translate(722.69043 0.015625)" xlink:href="#DejaVuSans-49"/>
    </g>
   </g>
   <g id="text_19">
    <!-- $(u[4]u[5])_2=01$ -->
    <g style="fill:#114da1;" transform="translate(268.065 75.184615)scale(0.1 -0.1)">
     <use transform="translate(0 0.015625)" xlink:href="#DejaVuSans-40"/>
     <use transform="translate(39.013672 0.015625)" xlink:href="#DejaVuSans-Oblique-117"/>
     <use transform="translate(102.392578 0.015625)" xlink:href="#DejaVuSans-91"/>
     <use transform="translate(141.40625 0.015625)" xlink:href="#DejaVuSans-52"/>
     <use transform="translate(205.029297 0.015625)" xlink:href="#DejaVuSans-93"/>
     <use transform="translate(244.042969 0.015625)" xlink:href="#DejaVuSans-Oblique-117"/>
     <use transform="translate(307.421875 0.015625)" xlink:href="#DejaVuSans-91"/>
     <use transform="translate(346.435547 0.015625)" xlink:href="#DejaVuSans-53"/>
     <use transform="translate(410.058594 0.015625)" xlink:href="#DejaVuSans-93"/>
     <use transform="translate(449.072266 0.015625)" xlink:href="#DejaVuSans-41"/>
     <use transform="translate(489.042969 -16.390625)scale(0.7)" xlink:href="#DejaVuSans-50"/>
     <use transform="translate(555.795898 0.015625)" xlink:href="#DejaVuSans-61"/>
     <use transform="translate(659.067383 0.015625)" xlink:href="#DejaVuSans-48"/>
     <use transform="translate(722.69043 0.015625)" xlink:href="#DejaVuSans-49"/>
    </g>
   </g>
   <g id="text_20">
    <!-- $(u[6]u[7])_2=00$ -->
    <defs>
     <path d="M 33.015625 40.375 
Q 26.375 40.375 22.484375 35.828125 
Q 18.609375 31.296875 18.609375 23.390625 
Q 18.609375 15.53125 22.484375 10.953125 
Q 26.375 6.390625 33.015625 6.390625 
Q 39.65625 6.390625 43.53125 10.953125 
Q 47.40625 15.53125 47.40625 23.390625 
Q 47.40625 31.296875 43.53125 35.828125 
Q 39.65625 40.375 33.015625 40.375 
z
M 52.59375 71.296875 
L 52.59375 62.3125 
Q 48.875 64.0625 45.09375 64.984375 
Q 41.3125 65.921875 37.59375 65.921875 
Q 27.828125 65.921875 22.671875 59.328125 
Q 17.53125 52.734375 16.796875 39.40625 
Q 19.671875 43.65625 24.015625 45.921875 
Q 28.375 48.1875 33.59375 48.1875 
Q 44.578125 48.1875 50.953125 41.515625 
Q 57.328125 34.859375 57.328125 23.390625 
Q 57.328125 12.15625 50.6875 5.359375 
Q 44.046875 -1.421875 33.015625 -1.421875 
Q 20.359375 -1.421875 13.671875 8.265625 
Q 6.984375 17.96875 6.984375 36.375 
Q 6.984375 53.65625 15.1875 63.9375 
Q 23.390625 74.21875 37.203125 74.21875 
Q 40.921875 74.21875 44.703125 73.484375 
Q 48.484375 72.75 52.59375 71.296875 
z
" id="DejaVuSans-54"/>
     <path d="M 8.203125 72.90625 
L 55.078125 72.90625 
L 55.078125 68.703125 
L 28.609375 0 
L 18.3125 0 
L 43.21875 64.59375 
L 8.203125 64.59375 
z
" id="DejaVuSans-55"/>
    </defs>
    <g style="fill:#114da1;" transform="translate(365.715 75.184615)scale(0.1 -0.1)">
     <use transform="translate(0 0.015625)" xlink:href="#DejaVuSans-40"/>
     <use transform="translate(39.013672 0.015625)" xlink:href="#DejaVuSans-Oblique-117"/>
     <use transform="translate(102.392578 0.015625)" xlink:href="#DejaVuSans-91"/>
     <use transform="translate(141.40625 0.015625)" xlink:href="#DejaVuSans-54"/>
     <use transform="translate(205.029297 0.015625)" xlink:href="#DejaVuSans-93"/>
     <use transform="translate(244.042969 0.015625)" xlink:href="#DejaVuSans-Oblique-117"/>
     <use transform="translate(307.421875 0.015625)" xlink:href="#DejaVuSans-91"/>
     <use transform="translate(346.435547 0.015625)" xlink:href="#DejaVuSans-55"/>
     <use transform="translate(410.058594 0.015625)" xlink:href="#DejaVuSans-93"/>
     <use transform="translate(449.072266 0.015625)" xlink:href="#DejaVuSans-41"/>
     <use transform="translate(489.042969 -16.390625)scale(0.7)" xlink:href="#DejaVuSans-50"/>
     <use transform="translate(555.795898 0.015625)" xlink:href="#DejaVuSans-61"/>
     <use transform="translate(659.067383 0.015625)" xlink:href="#DejaVuSans-48"/>
     <use transform="translate(722.69043 0.015625)" xlink:href="#DejaVuSans-48"/>
    </g>
   </g>
  </g>
 </g>
 <defs>
  <clipPath id="pf0c197f905">
   <rect height="277.2" width="390.6" x="63" y="43.2"/>
  </clipPath>
 </defs>
</svg>
