<?xml version="1.0" encoding="utf-8" standalone="no"?>
<!DOCTYPE svg PUBLIC "-//W3C//DTD SVG 1.1//EN"
  "http://www.w3.org/Graphics/SVG/1.1/DTD/svg11.dtd">
<!-- Created with matplotlib (https://matplotlib.org/) -->
<svg height="360pt" version="1.1" viewBox="0 0 504 360" width="504pt" xmlns="http://www.w3.org/2000/svg" xmlns:xlink="http://www.w3.org/1999/xlink">
 <defs>
  <style type="text/css">
*{stroke-linecap:butt;stroke-linejoin:round;}
  </style>
 </defs>
 <g id="figure_1">
  <g id="patch_1">
   <path d="M 0 360 
L 504 360 
L 504 0 
L 0 0 
z
" style="fill:#ffffff;"/>
  </g>
  <g id="axes_1">
   <g id="patch_2">
    <path d="M 51.05 318.04 
L 482.04 318.04 
L 482.04 10.8 
L 51.05 10.8 
z
" style="fill:#ffffff;"/>
   </g>
   <g id="matplotlib.axis_1">
    <g id="xtick_1">
     <g id="line2d_1">
      <path clip-path="url(#p4c4c9f6751)" d="M 51.05 318.04 
L 51.05 10.8 
" style="fill:none;stroke:#b0b0b0;stroke-linecap:square;stroke-width:0.8;"/>
     </g>
     <g id="line2d_2">
      <defs>
       <path d="M 0 0 
L 0 3.5 
" id="m70384a3d7f" style="stroke:#000000;stroke-width:0.8;"/>
      </defs>
      <g>
       <use style="stroke:#000000;stroke-width:0.8;" x="51.05" xlink:href="#m70384a3d7f" y="318.04"/>
      </g>
     </g>
     <g id="text_1">
      <!-- −1.00 -->
      <defs>
       <path d="M 10.59375 35.5 
L 73.1875 35.5 
L 73.1875 27.203125 
L 10.59375 27.203125 
z
" id="DejaVuSans-8722"/>
       <path d="M 12.40625 8.296875 
L 28.515625 8.296875 
L 28.515625 63.921875 
L 10.984375 60.40625 
L 10.984375 69.390625 
L 28.421875 72.90625 
L 38.28125 72.90625 
L 38.28125 8.296875 
L 54.390625 8.296875 
L 54.390625 0 
L 12.40625 0 
z
" id="DejaVuSans-49"/>
       <path d="M 10.6875 12.40625 
L 21 12.40625 
L 21 0 
L 10.6875 0 
z
" id="DejaVuSans-46"/>
       <path d="M 31.78125 66.40625 
Q 24.171875 66.40625 20.328125 58.90625 
Q 16.5 51.421875 16.5 36.375 
Q 16.5 21.390625 20.328125 13.890625 
Q 24.171875 6.390625 31.78125 6.390625 
Q 39.453125 6.390625 43.28125 13.890625 
Q 47.125 21.390625 47.125 36.375 
Q 47.125 51.421875 43.28125 58.90625 
Q 39.453125 66.40625 31.78125 66.40625 
z
M 31.78125 74.21875 
Q 44.046875 74.21875 50.515625 64.515625 
Q 56.984375 54.828125 56.984375 36.375 
Q 56.984375 17.96875 50.515625 8.265625 
Q 44.046875 -1.421875 31.78125 -1.421875 
Q 19.53125 -1.421875 13.0625 8.265625 
Q 6.59375 17.96875 6.59375 36.375 
Q 6.59375 54.828125 13.0625 64.515625 
Q 19.53125 74.21875 31.78125 74.21875 
z
" id="DejaVuSans-48"/>
      </defs>
      <g transform="translate(35.727344 332.638437)scale(0.1 -0.1)">
       <use xlink:href="#DejaVuSans-8722"/>
       <use x="83.789062" xlink:href="#DejaVuSans-49"/>
       <use x="147.412109" xlink:href="#DejaVuSans-46"/>
       <use x="179.199219" xlink:href="#DejaVuSans-48"/>
       <use x="242.822266" xlink:href="#DejaVuSans-48"/>
      </g>
     </g>
    </g>
    <g id="xtick_2">
     <g id="line2d_3">
      <path clip-path="url(#p4c4c9f6751)" d="M 104.92375 318.04 
L 104.92375 10.8 
" style="fill:none;stroke:#b0b0b0;stroke-linecap:square;stroke-width:0.8;"/>
     </g>
     <g id="line2d_4">
      <g>
       <use style="stroke:#000000;stroke-width:0.8;" x="104.92375" xlink:href="#m70384a3d7f" y="318.04"/>
      </g>
     </g>
     <g id="text_2">
      <!-- −0.75 -->
      <defs>
       <path d="M 8.203125 72.90625 
L 55.078125 72.90625 
L 55.078125 68.703125 
L 28.609375 0 
L 18.3125 0 
L 43.21875 64.59375 
L 8.203125 64.59375 
z
" id="DejaVuSans-55"/>
       <path d="M 10.796875 72.90625 
L 49.515625 72.90625 
L 49.515625 64.59375 
L 19.828125 64.59375 
L 19.828125 46.734375 
Q 21.96875 47.46875 24.109375 47.828125 
Q 26.265625 48.1875 28.421875 48.1875 
Q 40.625 48.1875 47.75 41.5 
Q 54.890625 34.8125 54.890625 23.390625 
Q 54.890625 11.625 47.5625 5.09375 
Q 40.234375 -1.421875 26.90625 -1.421875 
Q 22.3125 -1.421875 17.546875 -0.640625 
Q 12.796875 0.140625 7.71875 1.703125 
L 7.71875 11.625 
Q 12.109375 9.234375 16.796875 8.0625 
Q 21.484375 6.890625 26.703125 6.890625 
Q 35.15625 6.890625 40.078125 11.328125 
Q 45.015625 15.765625 45.015625 23.390625 
Q 45.015625 31 40.078125 35.4375 
Q 35.15625 39.890625 26.703125 39.890625 
Q 22.75 39.890625 18.8125 39.015625 
Q 14.890625 38.140625 10.796875 36.28125 
z
" id="DejaVuSans-53"/>
      </defs>
      <g transform="translate(89.601094 332.638437)scale(0.1 -0.1)">
       <use xlink:href="#DejaVuSans-8722"/>
       <use x="83.789062" xlink:href="#DejaVuSans-48"/>
       <use x="147.412109" xlink:href="#DejaVuSans-46"/>
       <use x="179.199219" xlink:href="#DejaVuSans-55"/>
       <use x="242.822266" xlink:href="#DejaVuSans-53"/>
      </g>
     </g>
    </g>
    <g id="xtick_3">
     <g id="line2d_5">
      <path clip-path="url(#p4c4c9f6751)" d="M 158.7975 318.04 
L 158.7975 10.8 
" style="fill:none;stroke:#b0b0b0;stroke-linecap:square;stroke-width:0.8;"/>
     </g>
     <g id="line2d_6">
      <g>
       <use style="stroke:#000000;stroke-width:0.8;" x="158.7975" xlink:href="#m70384a3d7f" y="318.04"/>
      </g>
     </g>
     <g id="text_3">
      <!-- −0.50 -->
      <g transform="translate(143.474844 332.638437)scale(0.1 -0.1)">
       <use xlink:href="#DejaVuSans-8722"/>
       <use x="83.789062" xlink:href="#DejaVuSans-48"/>
       <use x="147.412109" xlink:href="#DejaVuSans-46"/>
       <use x="179.199219" xlink:href="#DejaVuSans-53"/>
       <use x="242.822266" xlink:href="#DejaVuSans-48"/>
      </g>
     </g>
    </g>
    <g id="xtick_4">
     <g id="line2d_7">
      <path clip-path="url(#p4c4c9f6751)" d="M 212.67125 318.04 
L 212.67125 10.8 
" style="fill:none;stroke:#b0b0b0;stroke-linecap:square;stroke-width:0.8;"/>
     </g>
     <g id="line2d_8">
      <g>
       <use style="stroke:#000000;stroke-width:0.8;" x="212.67125" xlink:href="#m70384a3d7f" y="318.04"/>
      </g>
     </g>
     <g id="text_4">
      <!-- −0.25 -->
      <defs>
       <path d="M 19.1875 8.296875 
L 53.609375 8.296875 
L 53.609375 0 
L 7.328125 0 
L 7.328125 8.296875 
Q 12.9375 14.109375 22.625 23.890625 
Q 32.328125 33.6875 34.8125 36.53125 
Q 39.546875 41.84375 41.421875 45.53125 
Q 43.3125 49.21875 43.3125 52.78125 
Q 43.3125 58.59375 39.234375 62.25 
Q 35.15625 65.921875 28.609375 65.921875 
Q 23.96875 65.921875 18.8125 64.3125 
Q 13.671875 62.703125 7.8125 59.421875 
L 7.8125 69.390625 
Q 13.765625 71.78125 18.9375 73 
Q 24.125 74.21875 28.421875 74.21875 
Q 39.75 74.21875 46.484375 68.546875 
Q 53.21875 62.890625 53.21875 53.421875 
Q 53.21875 48.921875 51.53125 44.890625 
Q 49.859375 40.875 45.40625 35.40625 
Q 44.1875 33.984375 37.640625 27.21875 
Q 31.109375 20.453125 19.1875 8.296875 
z
" id="DejaVuSans-50"/>
      </defs>
      <g transform="translate(197.348594 332.638437)scale(0.1 -0.1)">
       <use xlink:href="#DejaVuSans-8722"/>
       <use x="83.789062" xlink:href="#DejaVuSans-48"/>
       <use x="147.412109" xlink:href="#DejaVuSans-46"/>
       <use x="179.199219" xlink:href="#DejaVuSans-50"/>
       <use x="242.822266" xlink:href="#DejaVuSans-53"/>
      </g>
     </g>
    </g>
    <g id="xtick_5">
     <g id="line2d_9">
      <path clip-path="url(#p4c4c9f6751)" d="M 266.545 318.04 
L 266.545 10.8 
" style="fill:none;stroke:#b0b0b0;stroke-linecap:square;stroke-width:0.8;"/>
     </g>
     <g id="line2d_10">
      <g>
       <use style="stroke:#000000;stroke-width:0.8;" x="266.545" xlink:href="#m70384a3d7f" y="318.04"/>
      </g>
     </g>
     <g id="text_5">
      <!-- 0.00 -->
      <g transform="translate(255.412188 332.638437)scale(0.1 -0.1)">
       <use xlink:href="#DejaVuSans-48"/>
       <use x="63.623047" xlink:href="#DejaVuSans-46"/>
       <use x="95.410156" xlink:href="#DejaVuSans-48"/>
       <use x="159.033203" xlink:href="#DejaVuSans-48"/>
      </g>
     </g>
    </g>
    <g id="xtick_6">
     <g id="line2d_11">
      <path clip-path="url(#p4c4c9f6751)" d="M 320.41875 318.04 
L 320.41875 10.8 
" style="fill:none;stroke:#b0b0b0;stroke-linecap:square;stroke-width:0.8;"/>
     </g>
     <g id="line2d_12">
      <g>
       <use style="stroke:#000000;stroke-width:0.8;" x="320.41875" xlink:href="#m70384a3d7f" y="318.04"/>
      </g>
     </g>
     <g id="text_6">
      <!-- 0.25 -->
      <g transform="translate(309.285938 332.638437)scale(0.1 -0.1)">
       <use xlink:href="#DejaVuSans-48"/>
       <use x="63.623047" xlink:href="#DejaVuSans-46"/>
       <use x="95.410156" xlink:href="#DejaVuSans-50"/>
       <use x="159.033203" xlink:href="#DejaVuSans-53"/>
      </g>
     </g>
    </g>
    <g id="xtick_7">
     <g id="line2d_13">
      <path clip-path="url(#p4c4c9f6751)" d="M 374.2925 318.04 
L 374.2925 10.8 
" style="fill:none;stroke:#b0b0b0;stroke-linecap:square;stroke-width:0.8;"/>
     </g>
     <g id="line2d_14">
      <g>
       <use style="stroke:#000000;stroke-width:0.8;" x="374.2925" xlink:href="#m70384a3d7f" y="318.04"/>
      </g>
     </g>
     <g id="text_7">
      <!-- 0.50 -->
      <g transform="translate(363.159688 332.638437)scale(0.1 -0.1)">
       <use xlink:href="#DejaVuSans-48"/>
       <use x="63.623047" xlink:href="#DejaVuSans-46"/>
       <use x="95.410156" xlink:href="#DejaVuSans-53"/>
       <use x="159.033203" xlink:href="#DejaVuSans-48"/>
      </g>
     </g>
    </g>
    <g id="xtick_8">
     <g id="line2d_15">
      <path clip-path="url(#p4c4c9f6751)" d="M 428.16625 318.04 
L 428.16625 10.8 
" style="fill:none;stroke:#b0b0b0;stroke-linecap:square;stroke-width:0.8;"/>
     </g>
     <g id="line2d_16">
      <g>
       <use style="stroke:#000000;stroke-width:0.8;" x="428.16625" xlink:href="#m70384a3d7f" y="318.04"/>
      </g>
     </g>
     <g id="text_8">
      <!-- 0.75 -->
      <g transform="translate(417.033437 332.638437)scale(0.1 -0.1)">
       <use xlink:href="#DejaVuSans-48"/>
       <use x="63.623047" xlink:href="#DejaVuSans-46"/>
       <use x="95.410156" xlink:href="#DejaVuSans-55"/>
       <use x="159.033203" xlink:href="#DejaVuSans-53"/>
      </g>
     </g>
    </g>
    <g id="xtick_9">
     <g id="line2d_17">
      <path clip-path="url(#p4c4c9f6751)" d="M 482.04 318.04 
L 482.04 10.8 
" style="fill:none;stroke:#b0b0b0;stroke-linecap:square;stroke-width:0.8;"/>
     </g>
     <g id="line2d_18">
      <g>
       <use style="stroke:#000000;stroke-width:0.8;" x="482.04" xlink:href="#m70384a3d7f" y="318.04"/>
      </g>
     </g>
     <g id="text_9">
      <!-- 1.00 -->
      <g transform="translate(470.907188 332.638437)scale(0.1 -0.1)">
       <use xlink:href="#DejaVuSans-49"/>
       <use x="63.623047" xlink:href="#DejaVuSans-46"/>
       <use x="95.410156" xlink:href="#DejaVuSans-48"/>
       <use x="159.033203" xlink:href="#DejaVuSans-48"/>
      </g>
     </g>
    </g>
    <g id="xtick_10">
     <g id="line2d_19">
      <path clip-path="url(#p4c4c9f6751)" d="M 61.82475 318.04 
L 61.82475 10.8 
" style="fill:none;stroke:#b0b0b0;stroke-linecap:square;stroke-width:0.8;"/>
     </g>
     <g id="line2d_20">
      <defs>
       <path d="M 0 0 
L 0 2 
" id="me835d33d9c" style="stroke:#000000;stroke-width:0.6;"/>
      </defs>
      <g>
       <use style="stroke:#000000;stroke-width:0.6;" x="61.82475" xlink:href="#me835d33d9c" y="318.04"/>
      </g>
     </g>
    </g>
    <g id="xtick_11">
     <g id="line2d_21">
      <path clip-path="url(#p4c4c9f6751)" d="M 72.5995 318.04 
L 72.5995 10.8 
" style="fill:none;stroke:#b0b0b0;stroke-linecap:square;stroke-width:0.8;"/>
     </g>
     <g id="line2d_22">
      <g>
       <use style="stroke:#000000;stroke-width:0.6;" x="72.5995" xlink:href="#me835d33d9c" y="318.04"/>
      </g>
     </g>
    </g>
    <g id="xtick_12">
     <g id="line2d_23">
      <path clip-path="url(#p4c4c9f6751)" d="M 83.37425 318.04 
L 83.37425 10.8 
" style="fill:none;stroke:#b0b0b0;stroke-linecap:square;stroke-width:0.8;"/>
     </g>
     <g id="line2d_24">
      <g>
       <use style="stroke:#000000;stroke-width:0.6;" x="83.37425" xlink:href="#me835d33d9c" y="318.04"/>
      </g>
     </g>
    </g>
    <g id="xtick_13">
     <g id="line2d_25">
      <path clip-path="url(#p4c4c9f6751)" d="M 94.149 318.04 
L 94.149 10.8 
" style="fill:none;stroke:#b0b0b0;stroke-linecap:square;stroke-width:0.8;"/>
     </g>
     <g id="line2d_26">
      <g>
       <use style="stroke:#000000;stroke-width:0.6;" x="94.149" xlink:href="#me835d33d9c" y="318.04"/>
      </g>
     </g>
    </g>
    <g id="xtick_14">
     <g id="line2d_27">
      <path clip-path="url(#p4c4c9f6751)" d="M 115.6985 318.04 
L 115.6985 10.8 
" style="fill:none;stroke:#b0b0b0;stroke-linecap:square;stroke-width:0.8;"/>
     </g>
     <g id="line2d_28">
      <g>
       <use style="stroke:#000000;stroke-width:0.6;" x="115.6985" xlink:href="#me835d33d9c" y="318.04"/>
      </g>
     </g>
    </g>
    <g id="xtick_15">
     <g id="line2d_29">
      <path clip-path="url(#p4c4c9f6751)" d="M 126.47325 318.04 
L 126.47325 10.8 
" style="fill:none;stroke:#b0b0b0;stroke-linecap:square;stroke-width:0.8;"/>
     </g>
     <g id="line2d_30">
      <g>
       <use style="stroke:#000000;stroke-width:0.6;" x="126.47325" xlink:href="#me835d33d9c" y="318.04"/>
      </g>
     </g>
    </g>
    <g id="xtick_16">
     <g id="line2d_31">
      <path clip-path="url(#p4c4c9f6751)" d="M 137.248 318.04 
L 137.248 10.8 
" style="fill:none;stroke:#b0b0b0;stroke-linecap:square;stroke-width:0.8;"/>
     </g>
     <g id="line2d_32">
      <g>
       <use style="stroke:#000000;stroke-width:0.6;" x="137.248" xlink:href="#me835d33d9c" y="318.04"/>
      </g>
     </g>
    </g>
    <g id="xtick_17">
     <g id="line2d_33">
      <path clip-path="url(#p4c4c9f6751)" d="M 148.02275 318.04 
L 148.02275 10.8 
" style="fill:none;stroke:#b0b0b0;stroke-linecap:square;stroke-width:0.8;"/>
     </g>
     <g id="line2d_34">
      <g>
       <use style="stroke:#000000;stroke-width:0.6;" x="148.02275" xlink:href="#me835d33d9c" y="318.04"/>
      </g>
     </g>
    </g>
    <g id="xtick_18">
     <g id="line2d_35">
      <path clip-path="url(#p4c4c9f6751)" d="M 169.57225 318.04 
L 169.57225 10.8 
" style="fill:none;stroke:#b0b0b0;stroke-linecap:square;stroke-width:0.8;"/>
     </g>
     <g id="line2d_36">
      <g>
       <use style="stroke:#000000;stroke-width:0.6;" x="169.57225" xlink:href="#me835d33d9c" y="318.04"/>
      </g>
     </g>
    </g>
    <g id="xtick_19">
     <g id="line2d_37">
      <path clip-path="url(#p4c4c9f6751)" d="M 180.347 318.04 
L 180.347 10.8 
" style="fill:none;stroke:#b0b0b0;stroke-linecap:square;stroke-width:0.8;"/>
     </g>
     <g id="line2d_38">
      <g>
       <use style="stroke:#000000;stroke-width:0.6;" x="180.347" xlink:href="#me835d33d9c" y="318.04"/>
      </g>
     </g>
    </g>
    <g id="xtick_20">
     <g id="line2d_39">
      <path clip-path="url(#p4c4c9f6751)" d="M 191.12175 318.04 
L 191.12175 10.8 
" style="fill:none;stroke:#b0b0b0;stroke-linecap:square;stroke-width:0.8;"/>
     </g>
     <g id="line2d_40">
      <g>
       <use style="stroke:#000000;stroke-width:0.6;" x="191.12175" xlink:href="#me835d33d9c" y="318.04"/>
      </g>
     </g>
    </g>
    <g id="xtick_21">
     <g id="line2d_41">
      <path clip-path="url(#p4c4c9f6751)" d="M 201.8965 318.04 
L 201.8965 10.8 
" style="fill:none;stroke:#b0b0b0;stroke-linecap:square;stroke-width:0.8;"/>
     </g>
     <g id="line2d_42">
      <g>
       <use style="stroke:#000000;stroke-width:0.6;" x="201.8965" xlink:href="#me835d33d9c" y="318.04"/>
      </g>
     </g>
    </g>
    <g id="xtick_22">
     <g id="line2d_43">
      <path clip-path="url(#p4c4c9f6751)" d="M 223.446 318.04 
L 223.446 10.8 
" style="fill:none;stroke:#b0b0b0;stroke-linecap:square;stroke-width:0.8;"/>
     </g>
     <g id="line2d_44">
      <g>
       <use style="stroke:#000000;stroke-width:0.6;" x="223.446" xlink:href="#me835d33d9c" y="318.04"/>
      </g>
     </g>
    </g>
    <g id="xtick_23">
     <g id="line2d_45">
      <path clip-path="url(#p4c4c9f6751)" d="M 234.22075 318.04 
L 234.22075 10.8 
" style="fill:none;stroke:#b0b0b0;stroke-linecap:square;stroke-width:0.8;"/>
     </g>
     <g id="line2d_46">
      <g>
       <use style="stroke:#000000;stroke-width:0.6;" x="234.22075" xlink:href="#me835d33d9c" y="318.04"/>
      </g>
     </g>
    </g>
    <g id="xtick_24">
     <g id="line2d_47">
      <path clip-path="url(#p4c4c9f6751)" d="M 244.9955 318.04 
L 244.9955 10.8 
" style="fill:none;stroke:#b0b0b0;stroke-linecap:square;stroke-width:0.8;"/>
     </g>
     <g id="line2d_48">
      <g>
       <use style="stroke:#000000;stroke-width:0.6;" x="244.9955" xlink:href="#me835d33d9c" y="318.04"/>
      </g>
     </g>
    </g>
    <g id="xtick_25">
     <g id="line2d_49">
      <path clip-path="url(#p4c4c9f6751)" d="M 255.77025 318.04 
L 255.77025 10.8 
" style="fill:none;stroke:#b0b0b0;stroke-linecap:square;stroke-width:0.8;"/>
     </g>
     <g id="line2d_50">
      <g>
       <use style="stroke:#000000;stroke-width:0.6;" x="255.77025" xlink:href="#me835d33d9c" y="318.04"/>
      </g>
     </g>
    </g>
    <g id="xtick_26">
     <g id="line2d_51">
      <path clip-path="url(#p4c4c9f6751)" d="M 277.31975 318.04 
L 277.31975 10.8 
" style="fill:none;stroke:#b0b0b0;stroke-linecap:square;stroke-width:0.8;"/>
     </g>
     <g id="line2d_52">
      <g>
       <use style="stroke:#000000;stroke-width:0.6;" x="277.31975" xlink:href="#me835d33d9c" y="318.04"/>
      </g>
     </g>
    </g>
    <g id="xtick_27">
     <g id="line2d_53">
      <path clip-path="url(#p4c4c9f6751)" d="M 288.0945 318.04 
L 288.0945 10.8 
" style="fill:none;stroke:#b0b0b0;stroke-linecap:square;stroke-width:0.8;"/>
     </g>
     <g id="line2d_54">
      <g>
       <use style="stroke:#000000;stroke-width:0.6;" x="288.0945" xlink:href="#me835d33d9c" y="318.04"/>
      </g>
     </g>
    </g>
    <g id="xtick_28">
     <g id="line2d_55">
      <path clip-path="url(#p4c4c9f6751)" d="M 298.86925 318.04 
L 298.86925 10.8 
" style="fill:none;stroke:#b0b0b0;stroke-linecap:square;stroke-width:0.8;"/>
     </g>
     <g id="line2d_56">
      <g>
       <use style="stroke:#000000;stroke-width:0.6;" x="298.86925" xlink:href="#me835d33d9c" y="318.04"/>
      </g>
     </g>
    </g>
    <g id="xtick_29">
     <g id="line2d_57">
      <path clip-path="url(#p4c4c9f6751)" d="M 309.644 318.04 
L 309.644 10.8 
" style="fill:none;stroke:#b0b0b0;stroke-linecap:square;stroke-width:0.8;"/>
     </g>
     <g id="line2d_58">
      <g>
       <use style="stroke:#000000;stroke-width:0.6;" x="309.644" xlink:href="#me835d33d9c" y="318.04"/>
      </g>
     </g>
    </g>
    <g id="xtick_30">
     <g id="line2d_59">
      <path clip-path="url(#p4c4c9f6751)" d="M 331.1935 318.04 
L 331.1935 10.8 
" style="fill:none;stroke:#b0b0b0;stroke-linecap:square;stroke-width:0.8;"/>
     </g>
     <g id="line2d_60">
      <g>
       <use style="stroke:#000000;stroke-width:0.6;" x="331.1935" xlink:href="#me835d33d9c" y="318.04"/>
      </g>
     </g>
    </g>
    <g id="xtick_31">
     <g id="line2d_61">
      <path clip-path="url(#p4c4c9f6751)" d="M 341.96825 318.04 
L 341.96825 10.8 
" style="fill:none;stroke:#b0b0b0;stroke-linecap:square;stroke-width:0.8;"/>
     </g>
     <g id="line2d_62">
      <g>
       <use style="stroke:#000000;stroke-width:0.6;" x="341.96825" xlink:href="#me835d33d9c" y="318.04"/>
      </g>
     </g>
    </g>
    <g id="xtick_32">
     <g id="line2d_63">
      <path clip-path="url(#p4c4c9f6751)" d="M 352.743 318.04 
L 352.743 10.8 
" style="fill:none;stroke:#b0b0b0;stroke-linecap:square;stroke-width:0.8;"/>
     </g>
     <g id="line2d_64">
      <g>
       <use style="stroke:#000000;stroke-width:0.6;" x="352.743" xlink:href="#me835d33d9c" y="318.04"/>
      </g>
     </g>
    </g>
    <g id="xtick_33">
     <g id="line2d_65">
      <path clip-path="url(#p4c4c9f6751)" d="M 363.51775 318.04 
L 363.51775 10.8 
" style="fill:none;stroke:#b0b0b0;stroke-linecap:square;stroke-width:0.8;"/>
     </g>
     <g id="line2d_66">
      <g>
       <use style="stroke:#000000;stroke-width:0.6;" x="363.51775" xlink:href="#me835d33d9c" y="318.04"/>
      </g>
     </g>
    </g>
    <g id="xtick_34">
     <g id="line2d_67">
      <path clip-path="url(#p4c4c9f6751)" d="M 385.06725 318.04 
L 385.06725 10.8 
" style="fill:none;stroke:#b0b0b0;stroke-linecap:square;stroke-width:0.8;"/>
     </g>
     <g id="line2d_68">
      <g>
       <use style="stroke:#000000;stroke-width:0.6;" x="385.06725" xlink:href="#me835d33d9c" y="318.04"/>
      </g>
     </g>
    </g>
    <g id="xtick_35">
     <g id="line2d_69">
      <path clip-path="url(#p4c4c9f6751)" d="M 395.842 318.04 
L 395.842 10.8 
" style="fill:none;stroke:#b0b0b0;stroke-linecap:square;stroke-width:0.8;"/>
     </g>
     <g id="line2d_70">
      <g>
       <use style="stroke:#000000;stroke-width:0.6;" x="395.842" xlink:href="#me835d33d9c" y="318.04"/>
      </g>
     </g>
    </g>
    <g id="xtick_36">
     <g id="line2d_71">
      <path clip-path="url(#p4c4c9f6751)" d="M 406.61675 318.04 
L 406.61675 10.8 
" style="fill:none;stroke:#b0b0b0;stroke-linecap:square;stroke-width:0.8;"/>
     </g>
     <g id="line2d_72">
      <g>
       <use style="stroke:#000000;stroke-width:0.6;" x="406.61675" xlink:href="#me835d33d9c" y="318.04"/>
      </g>
     </g>
    </g>
    <g id="xtick_37">
     <g id="line2d_73">
      <path clip-path="url(#p4c4c9f6751)" d="M 417.3915 318.04 
L 417.3915 10.8 
" style="fill:none;stroke:#b0b0b0;stroke-linecap:square;stroke-width:0.8;"/>
     </g>
     <g id="line2d_74">
      <g>
       <use style="stroke:#000000;stroke-width:0.6;" x="417.3915" xlink:href="#me835d33d9c" y="318.04"/>
      </g>
     </g>
    </g>
    <g id="xtick_38">
     <g id="line2d_75">
      <path clip-path="url(#p4c4c9f6751)" d="M 438.941 318.04 
L 438.941 10.8 
" style="fill:none;stroke:#b0b0b0;stroke-linecap:square;stroke-width:0.8;"/>
     </g>
     <g id="line2d_76">
      <g>
       <use style="stroke:#000000;stroke-width:0.6;" x="438.941" xlink:href="#me835d33d9c" y="318.04"/>
      </g>
     </g>
    </g>
    <g id="xtick_39">
     <g id="line2d_77">
      <path clip-path="url(#p4c4c9f6751)" d="M 449.71575 318.04 
L 449.71575 10.8 
" style="fill:none;stroke:#b0b0b0;stroke-linecap:square;stroke-width:0.8;"/>
     </g>
     <g id="line2d_78">
      <g>
       <use style="stroke:#000000;stroke-width:0.6;" x="449.71575" xlink:href="#me835d33d9c" y="318.04"/>
      </g>
     </g>
    </g>
    <g id="xtick_40">
     <g id="line2d_79">
      <path clip-path="url(#p4c4c9f6751)" d="M 460.4905 318.04 
L 460.4905 10.8 
" style="fill:none;stroke:#b0b0b0;stroke-linecap:square;stroke-width:0.8;"/>
     </g>
     <g id="line2d_80">
      <g>
       <use style="stroke:#000000;stroke-width:0.6;" x="460.4905" xlink:href="#me835d33d9c" y="318.04"/>
      </g>
     </g>
    </g>
    <g id="xtick_41">
     <g id="line2d_81">
      <path clip-path="url(#p4c4c9f6751)" d="M 471.26525 318.04 
L 471.26525 10.8 
" style="fill:none;stroke:#b0b0b0;stroke-linecap:square;stroke-width:0.8;"/>
     </g>
     <g id="line2d_82">
      <g>
       <use style="stroke:#000000;stroke-width:0.6;" x="471.26525" xlink:href="#me835d33d9c" y="318.04"/>
      </g>
     </g>
    </g>
    <g id="text_10">
     <!-- Sinusoidal Signal Value -->
     <defs>
      <path d="M 53.515625 70.515625 
L 53.515625 60.890625 
Q 47.90625 63.578125 42.921875 64.890625 
Q 37.9375 66.21875 33.296875 66.21875 
Q 25.25 66.21875 20.875 63.09375 
Q 16.5 59.96875 16.5 54.203125 
Q 16.5 49.359375 19.40625 46.890625 
Q 22.3125 44.4375 30.421875 42.921875 
L 36.375 41.703125 
Q 47.40625 39.59375 52.65625 34.296875 
Q 57.90625 29 57.90625 20.125 
Q 57.90625 9.515625 50.796875 4.046875 
Q 43.703125 -1.421875 29.984375 -1.421875 
Q 24.8125 -1.421875 18.96875 -0.25 
Q 13.140625 0.921875 6.890625 3.21875 
L 6.890625 13.375 
Q 12.890625 10.015625 18.65625 8.296875 
Q 24.421875 6.59375 29.984375 6.59375 
Q 38.421875 6.59375 43.015625 9.90625 
Q 47.609375 13.234375 47.609375 19.390625 
Q 47.609375 24.75 44.3125 27.78125 
Q 41.015625 30.8125 33.5 32.328125 
L 27.484375 33.5 
Q 16.453125 35.6875 11.515625 40.375 
Q 6.59375 45.0625 6.59375 53.421875 
Q 6.59375 63.09375 13.40625 68.65625 
Q 20.21875 74.21875 32.171875 74.21875 
Q 37.3125 74.21875 42.625 73.28125 
Q 47.953125 72.359375 53.515625 70.515625 
z
" id="DejaVuSans-83"/>
      <path d="M 9.421875 54.6875 
L 18.40625 54.6875 
L 18.40625 0 
L 9.421875 0 
z
M 9.421875 75.984375 
L 18.40625 75.984375 
L 18.40625 64.59375 
L 9.421875 64.59375 
z
" id="DejaVuSans-105"/>
      <path d="M 54.890625 33.015625 
L 54.890625 0 
L 45.90625 0 
L 45.90625 32.71875 
Q 45.90625 40.484375 42.875 44.328125 
Q 39.84375 48.1875 33.796875 48.1875 
Q 26.515625 48.1875 22.3125 43.546875 
Q 18.109375 38.921875 18.109375 30.90625 
L 18.109375 0 
L 9.078125 0 
L 9.078125 54.6875 
L 18.109375 54.6875 
L 18.109375 46.1875 
Q 21.34375 51.125 25.703125 53.5625 
Q 30.078125 56 35.796875 56 
Q 45.21875 56 50.046875 50.171875 
Q 54.890625 44.34375 54.890625 33.015625 
z
" id="DejaVuSans-110"/>
      <path d="M 8.5 21.578125 
L 8.5 54.6875 
L 17.484375 54.6875 
L 17.484375 21.921875 
Q 17.484375 14.15625 20.5 10.265625 
Q 23.53125 6.390625 29.59375 6.390625 
Q 36.859375 6.390625 41.078125 11.03125 
Q 45.3125 15.671875 45.3125 23.6875 
L 45.3125 54.6875 
L 54.296875 54.6875 
L 54.296875 0 
L 45.3125 0 
L 45.3125 8.40625 
Q 42.046875 3.421875 37.71875 1 
Q 33.40625 -1.421875 27.6875 -1.421875 
Q 18.265625 -1.421875 13.375 4.4375 
Q 8.5 10.296875 8.5 21.578125 
z
M 31.109375 56 
z
" id="DejaVuSans-117"/>
      <path d="M 44.28125 53.078125 
L 44.28125 44.578125 
Q 40.484375 46.53125 36.375 47.5 
Q 32.28125 48.484375 27.875 48.484375 
Q 21.1875 48.484375 17.84375 46.4375 
Q 14.5 44.390625 14.5 40.28125 
Q 14.5 37.15625 16.890625 35.375 
Q 19.28125 33.59375 26.515625 31.984375 
L 29.59375 31.296875 
Q 39.15625 29.25 43.1875 25.515625 
Q 47.21875 21.78125 47.21875 15.09375 
Q 47.21875 7.46875 41.1875 3.015625 
Q 35.15625 -1.421875 24.609375 -1.421875 
Q 20.21875 -1.421875 15.453125 -0.5625 
Q 10.6875 0.296875 5.421875 2 
L 5.421875 11.28125 
Q 10.40625 8.6875 15.234375 7.390625 
Q 20.0625 6.109375 24.8125 6.109375 
Q 31.15625 6.109375 34.5625 8.28125 
Q 37.984375 10.453125 37.984375 14.40625 
Q 37.984375 18.0625 35.515625 20.015625 
Q 33.0625 21.96875 24.703125 23.78125 
L 21.578125 24.515625 
Q 13.234375 26.265625 9.515625 29.90625 
Q 5.8125 33.546875 5.8125 39.890625 
Q 5.8125 47.609375 11.28125 51.796875 
Q 16.75 56 26.8125 56 
Q 31.78125 56 36.171875 55.265625 
Q 40.578125 54.546875 44.28125 53.078125 
z
" id="DejaVuSans-115"/>
      <path d="M 30.609375 48.390625 
Q 23.390625 48.390625 19.1875 42.75 
Q 14.984375 37.109375 14.984375 27.296875 
Q 14.984375 17.484375 19.15625 11.84375 
Q 23.34375 6.203125 30.609375 6.203125 
Q 37.796875 6.203125 41.984375 11.859375 
Q 46.1875 17.53125 46.1875 27.296875 
Q 46.1875 37.015625 41.984375 42.703125 
Q 37.796875 48.390625 30.609375 48.390625 
z
M 30.609375 56 
Q 42.328125 56 49.015625 48.375 
Q 55.71875 40.765625 55.71875 27.296875 
Q 55.71875 13.875 49.015625 6.21875 
Q 42.328125 -1.421875 30.609375 -1.421875 
Q 18.84375 -1.421875 12.171875 6.21875 
Q 5.515625 13.875 5.515625 27.296875 
Q 5.515625 40.765625 12.171875 48.375 
Q 18.84375 56 30.609375 56 
z
" id="DejaVuSans-111"/>
      <path d="M 45.40625 46.390625 
L 45.40625 75.984375 
L 54.390625 75.984375 
L 54.390625 0 
L 45.40625 0 
L 45.40625 8.203125 
Q 42.578125 3.328125 38.25 0.953125 
Q 33.9375 -1.421875 27.875 -1.421875 
Q 17.96875 -1.421875 11.734375 6.484375 
Q 5.515625 14.40625 5.515625 27.296875 
Q 5.515625 40.1875 11.734375 48.09375 
Q 17.96875 56 27.875 56 
Q 33.9375 56 38.25 53.625 
Q 42.578125 51.265625 45.40625 46.390625 
z
M 14.796875 27.296875 
Q 14.796875 17.390625 18.875 11.75 
Q 22.953125 6.109375 30.078125 6.109375 
Q 37.203125 6.109375 41.296875 11.75 
Q 45.40625 17.390625 45.40625 27.296875 
Q 45.40625 37.203125 41.296875 42.84375 
Q 37.203125 48.484375 30.078125 48.484375 
Q 22.953125 48.484375 18.875 42.84375 
Q 14.796875 37.203125 14.796875 27.296875 
z
" id="DejaVuSans-100"/>
      <path d="M 34.28125 27.484375 
Q 23.390625 27.484375 19.1875 25 
Q 14.984375 22.515625 14.984375 16.5 
Q 14.984375 11.71875 18.140625 8.90625 
Q 21.296875 6.109375 26.703125 6.109375 
Q 34.1875 6.109375 38.703125 11.40625 
Q 43.21875 16.703125 43.21875 25.484375 
L 43.21875 27.484375 
z
M 52.203125 31.203125 
L 52.203125 0 
L 43.21875 0 
L 43.21875 8.296875 
Q 40.140625 3.328125 35.546875 0.953125 
Q 30.953125 -1.421875 24.3125 -1.421875 
Q 15.921875 -1.421875 10.953125 3.296875 
Q 6 8.015625 6 15.921875 
Q 6 25.140625 12.171875 29.828125 
Q 18.359375 34.515625 30.609375 34.515625 
L 43.21875 34.515625 
L 43.21875 35.40625 
Q 43.21875 41.609375 39.140625 45 
Q 35.0625 48.390625 27.6875 48.390625 
Q 23 48.390625 18.546875 47.265625 
Q 14.109375 46.140625 10.015625 43.890625 
L 10.015625 52.203125 
Q 14.9375 54.109375 19.578125 55.046875 
Q 24.21875 56 28.609375 56 
Q 40.484375 56 46.34375 49.84375 
Q 52.203125 43.703125 52.203125 31.203125 
z
" id="DejaVuSans-97"/>
      <path d="M 9.421875 75.984375 
L 18.40625 75.984375 
L 18.40625 0 
L 9.421875 0 
z
" id="DejaVuSans-108"/>
      <path id="DejaVuSans-32"/>
      <path d="M 45.40625 27.984375 
Q 45.40625 37.75 41.375 43.109375 
Q 37.359375 48.484375 30.078125 48.484375 
Q 22.859375 48.484375 18.828125 43.109375 
Q 14.796875 37.75 14.796875 27.984375 
Q 14.796875 18.265625 18.828125 12.890625 
Q 22.859375 7.515625 30.078125 7.515625 
Q 37.359375 7.515625 41.375 12.890625 
Q 45.40625 18.265625 45.40625 27.984375 
z
M 54.390625 6.78125 
Q 54.390625 -7.171875 48.1875 -13.984375 
Q 42 -20.796875 29.203125 -20.796875 
Q 24.46875 -20.796875 20.265625 -20.09375 
Q 16.0625 -19.390625 12.109375 -17.921875 
L 12.109375 -9.1875 
Q 16.0625 -11.328125 19.921875 -12.34375 
Q 23.78125 -13.375 27.78125 -13.375 
Q 36.625 -13.375 41.015625 -8.765625 
Q 45.40625 -4.15625 45.40625 5.171875 
L 45.40625 9.625 
Q 42.625 4.78125 38.28125 2.390625 
Q 33.9375 0 27.875 0 
Q 17.828125 0 11.671875 7.65625 
Q 5.515625 15.328125 5.515625 27.984375 
Q 5.515625 40.671875 11.671875 48.328125 
Q 17.828125 56 27.875 56 
Q 33.9375 56 38.28125 53.609375 
Q 42.625 51.21875 45.40625 46.390625 
L 45.40625 54.6875 
L 54.390625 54.6875 
z
" id="DejaVuSans-103"/>
      <path d="M 28.609375 0 
L 0.78125 72.90625 
L 11.078125 72.90625 
L 34.1875 11.53125 
L 57.328125 72.90625 
L 67.578125 72.90625 
L 39.796875 0 
z
" id="DejaVuSans-86"/>
      <path d="M 56.203125 29.59375 
L 56.203125 25.203125 
L 14.890625 25.203125 
Q 15.484375 15.921875 20.484375 11.0625 
Q 25.484375 6.203125 34.421875 6.203125 
Q 39.59375 6.203125 44.453125 7.46875 
Q 49.3125 8.734375 54.109375 11.28125 
L 54.109375 2.78125 
Q 49.265625 0.734375 44.1875 -0.34375 
Q 39.109375 -1.421875 33.890625 -1.421875 
Q 20.796875 -1.421875 13.15625 6.1875 
Q 5.515625 13.8125 5.515625 26.8125 
Q 5.515625 40.234375 12.765625 48.109375 
Q 20.015625 56 32.328125 56 
Q 43.359375 56 49.78125 48.890625 
Q 56.203125 41.796875 56.203125 29.59375 
z
M 47.21875 32.234375 
Q 47.125 39.59375 43.09375 43.984375 
Q 39.0625 48.390625 32.421875 48.390625 
Q 24.90625 48.390625 20.390625 44.140625 
Q 15.875 39.890625 15.1875 32.171875 
z
" id="DejaVuSans-101"/>
     </defs>
     <g transform="translate(208.312969 346.316562)scale(0.1 -0.1)">
      <use xlink:href="#DejaVuSans-83"/>
      <use x="63.476562" xlink:href="#DejaVuSans-105"/>
      <use x="91.259766" xlink:href="#DejaVuSans-110"/>
      <use x="154.638672" xlink:href="#DejaVuSans-117"/>
      <use x="218.017578" xlink:href="#DejaVuSans-115"/>
      <use x="270.117188" xlink:href="#DejaVuSans-111"/>
      <use x="331.298828" xlink:href="#DejaVuSans-105"/>
      <use x="359.082031" xlink:href="#DejaVuSans-100"/>
      <use x="422.558594" xlink:href="#DejaVuSans-97"/>
      <use x="483.837891" xlink:href="#DejaVuSans-108"/>
      <use x="511.621094" xlink:href="#DejaVuSans-32"/>
      <use x="543.408203" xlink:href="#DejaVuSans-83"/>
      <use x="606.884766" xlink:href="#DejaVuSans-105"/>
      <use x="634.667969" xlink:href="#DejaVuSans-103"/>
      <use x="698.144531" xlink:href="#DejaVuSans-110"/>
      <use x="761.523438" xlink:href="#DejaVuSans-97"/>
      <use x="822.802734" xlink:href="#DejaVuSans-108"/>
      <use x="850.585938" xlink:href="#DejaVuSans-32"/>
      <use x="882.373047" xlink:href="#DejaVuSans-86"/>
      <use x="950.671875" xlink:href="#DejaVuSans-97"/>
      <use x="1011.951172" xlink:href="#DejaVuSans-108"/>
      <use x="1039.734375" xlink:href="#DejaVuSans-117"/>
      <use x="1103.113281" xlink:href="#DejaVuSans-101"/>
     </g>
    </g>
   </g>
   <g id="matplotlib.axis_2">
    <g id="ytick_1">
     <g id="line2d_83">
      <path clip-path="url(#p4c4c9f6751)" d="M 51.05 318.04 
L 482.04 318.04 
" style="fill:none;stroke:#b0b0b0;stroke-linecap:square;stroke-width:0.8;"/>
     </g>
     <g id="line2d_84">
      <defs>
       <path d="M 0 0 
L -3.5 0 
" id="m658451a24f" style="stroke:#000000;stroke-width:0.8;"/>
      </defs>
      <g>
       <use style="stroke:#000000;stroke-width:0.8;" x="51.05" xlink:href="#m658451a24f" y="318.04"/>
      </g>
     </g>
     <g id="text_11">
      <!-- 0 -->
      <g transform="translate(37.6875 321.839219)scale(0.1 -0.1)">
       <use xlink:href="#DejaVuSans-48"/>
      </g>
     </g>
    </g>
    <g id="ytick_2">
     <g id="line2d_85">
      <path clip-path="url(#p4c4c9f6751)" d="M 51.05 260.09752 
L 482.04 260.09752 
" style="fill:none;stroke:#b0b0b0;stroke-linecap:square;stroke-width:0.8;"/>
     </g>
     <g id="line2d_86">
      <g>
       <use style="stroke:#000000;stroke-width:0.8;" x="51.05" xlink:href="#m658451a24f" y="260.09752"/>
      </g>
     </g>
     <g id="text_12">
      <!-- 20 -->
      <g transform="translate(31.325 263.896739)scale(0.1 -0.1)">
       <use xlink:href="#DejaVuSans-50"/>
       <use x="63.623047" xlink:href="#DejaVuSans-48"/>
      </g>
     </g>
    </g>
    <g id="ytick_3">
     <g id="line2d_87">
      <path clip-path="url(#p4c4c9f6751)" d="M 51.05 202.15504 
L 482.04 202.15504 
" style="fill:none;stroke:#b0b0b0;stroke-linecap:square;stroke-width:0.8;"/>
     </g>
     <g id="line2d_88">
      <g>
       <use style="stroke:#000000;stroke-width:0.8;" x="51.05" xlink:href="#m658451a24f" y="202.15504"/>
      </g>
     </g>
     <g id="text_13">
      <!-- 40 -->
      <defs>
       <path d="M 37.796875 64.3125 
L 12.890625 25.390625 
L 37.796875 25.390625 
z
M 35.203125 72.90625 
L 47.609375 72.90625 
L 47.609375 25.390625 
L 58.015625 25.390625 
L 58.015625 17.1875 
L 47.609375 17.1875 
L 47.609375 0 
L 37.796875 0 
L 37.796875 17.1875 
L 4.890625 17.1875 
L 4.890625 26.703125 
z
" id="DejaVuSans-52"/>
      </defs>
      <g transform="translate(31.325 205.954259)scale(0.1 -0.1)">
       <use xlink:href="#DejaVuSans-52"/>
       <use x="63.623047" xlink:href="#DejaVuSans-48"/>
      </g>
     </g>
    </g>
    <g id="ytick_4">
     <g id="line2d_89">
      <path clip-path="url(#p4c4c9f6751)" d="M 51.05 144.21256 
L 482.04 144.21256 
" style="fill:none;stroke:#b0b0b0;stroke-linecap:square;stroke-width:0.8;"/>
     </g>
     <g id="line2d_90">
      <g>
       <use style="stroke:#000000;stroke-width:0.8;" x="51.05" xlink:href="#m658451a24f" y="144.21256"/>
      </g>
     </g>
     <g id="text_14">
      <!-- 60 -->
      <defs>
       <path d="M 33.015625 40.375 
Q 26.375 40.375 22.484375 35.828125 
Q 18.609375 31.296875 18.609375 23.390625 
Q 18.609375 15.53125 22.484375 10.953125 
Q 26.375 6.390625 33.015625 6.390625 
Q 39.65625 6.390625 43.53125 10.953125 
Q 47.40625 15.53125 47.40625 23.390625 
Q 47.40625 31.296875 43.53125 35.828125 
Q 39.65625 40.375 33.015625 40.375 
z
M 52.59375 71.296875 
L 52.59375 62.3125 
Q 48.875 64.0625 45.09375 64.984375 
Q 41.3125 65.921875 37.59375 65.921875 
Q 27.828125 65.921875 22.671875 59.328125 
Q 17.53125 52.734375 16.796875 39.40625 
Q 19.671875 43.65625 24.015625 45.921875 
Q 28.375 48.1875 33.59375 48.1875 
Q 44.578125 48.1875 50.953125 41.515625 
Q 57.328125 34.859375 57.328125 23.390625 
Q 57.328125 12.15625 50.6875 5.359375 
Q 44.046875 -1.421875 33.015625 -1.421875 
Q 20.359375 -1.421875 13.671875 8.265625 
Q 6.984375 17.96875 6.984375 36.375 
Q 6.984375 53.65625 15.1875 63.9375 
Q 23.390625 74.21875 37.203125 74.21875 
Q 40.921875 74.21875 44.703125 73.484375 
Q 48.484375 72.75 52.59375 71.296875 
z
" id="DejaVuSans-54"/>
      </defs>
      <g transform="translate(31.325 148.011779)scale(0.1 -0.1)">
       <use xlink:href="#DejaVuSans-54"/>
       <use x="63.623047" xlink:href="#DejaVuSans-48"/>
      </g>
     </g>
    </g>
    <g id="ytick_5">
     <g id="line2d_91">
      <path clip-path="url(#p4c4c9f6751)" d="M 51.05 86.27008 
L 482.04 86.27008 
" style="fill:none;stroke:#b0b0b0;stroke-linecap:square;stroke-width:0.8;"/>
     </g>
     <g id="line2d_92">
      <g>
       <use style="stroke:#000000;stroke-width:0.8;" x="51.05" xlink:href="#m658451a24f" y="86.27008"/>
      </g>
     </g>
     <g id="text_15">
      <!-- 80 -->
      <defs>
       <path d="M 31.78125 34.625 
Q 24.75 34.625 20.71875 30.859375 
Q 16.703125 27.09375 16.703125 20.515625 
Q 16.703125 13.921875 20.71875 10.15625 
Q 24.75 6.390625 31.78125 6.390625 
Q 38.8125 6.390625 42.859375 10.171875 
Q 46.921875 13.96875 46.921875 20.515625 
Q 46.921875 27.09375 42.890625 30.859375 
Q 38.875 34.625 31.78125 34.625 
z
M 21.921875 38.8125 
Q 15.578125 40.375 12.03125 44.71875 
Q 8.5 49.078125 8.5 55.328125 
Q 8.5 64.0625 14.71875 69.140625 
Q 20.953125 74.21875 31.78125 74.21875 
Q 42.671875 74.21875 48.875 69.140625 
Q 55.078125 64.0625 55.078125 55.328125 
Q 55.078125 49.078125 51.53125 44.71875 
Q 48 40.375 41.703125 38.8125 
Q 48.828125 37.15625 52.796875 32.3125 
Q 56.78125 27.484375 56.78125 20.515625 
Q 56.78125 9.90625 50.3125 4.234375 
Q 43.84375 -1.421875 31.78125 -1.421875 
Q 19.734375 -1.421875 13.25 4.234375 
Q 6.78125 9.90625 6.78125 20.515625 
Q 6.78125 27.484375 10.78125 32.3125 
Q 14.796875 37.15625 21.921875 38.8125 
z
M 18.3125 54.390625 
Q 18.3125 48.734375 21.84375 45.5625 
Q 25.390625 42.390625 31.78125 42.390625 
Q 38.140625 42.390625 41.71875 45.5625 
Q 45.3125 48.734375 45.3125 54.390625 
Q 45.3125 60.0625 41.71875 63.234375 
Q 38.140625 66.40625 31.78125 66.40625 
Q 25.390625 66.40625 21.84375 63.234375 
Q 18.3125 60.0625 18.3125 54.390625 
z
" id="DejaVuSans-56"/>
      </defs>
      <g transform="translate(31.325 90.069299)scale(0.1 -0.1)">
       <use xlink:href="#DejaVuSans-56"/>
       <use x="63.623047" xlink:href="#DejaVuSans-48"/>
      </g>
     </g>
    </g>
    <g id="ytick_6">
     <g id="line2d_93">
      <path clip-path="url(#p4c4c9f6751)" d="M 51.05 28.3276 
L 482.04 28.3276 
" style="fill:none;stroke:#b0b0b0;stroke-linecap:square;stroke-width:0.8;"/>
     </g>
     <g id="line2d_94">
      <g>
       <use style="stroke:#000000;stroke-width:0.8;" x="51.05" xlink:href="#m658451a24f" y="28.3276"/>
      </g>
     </g>
     <g id="text_16">
      <!-- 100 -->
      <g transform="translate(24.9625 32.126819)scale(0.1 -0.1)">
       <use xlink:href="#DejaVuSans-49"/>
       <use x="63.623047" xlink:href="#DejaVuSans-48"/>
       <use x="127.246094" xlink:href="#DejaVuSans-48"/>
      </g>
     </g>
    </g>
    <g id="ytick_7">
     <g id="line2d_95">
      <path clip-path="url(#p4c4c9f6751)" d="M 51.05 303.55438 
L 482.04 303.55438 
" style="fill:none;stroke:#b0b0b0;stroke-linecap:square;stroke-width:0.8;"/>
     </g>
     <g id="line2d_96">
      <defs>
       <path d="M 0 0 
L -2 0 
" id="m8b0b3cc034" style="stroke:#000000;stroke-width:0.6;"/>
      </defs>
      <g>
       <use style="stroke:#000000;stroke-width:0.6;" x="51.05" xlink:href="#m8b0b3cc034" y="303.55438"/>
      </g>
     </g>
    </g>
    <g id="ytick_8">
     <g id="line2d_97">
      <path clip-path="url(#p4c4c9f6751)" d="M 51.05 289.06876 
L 482.04 289.06876 
" style="fill:none;stroke:#b0b0b0;stroke-linecap:square;stroke-width:0.8;"/>
     </g>
     <g id="line2d_98">
      <g>
       <use style="stroke:#000000;stroke-width:0.6;" x="51.05" xlink:href="#m8b0b3cc034" y="289.06876"/>
      </g>
     </g>
    </g>
    <g id="ytick_9">
     <g id="line2d_99">
      <path clip-path="url(#p4c4c9f6751)" d="M 51.05 274.58314 
L 482.04 274.58314 
" style="fill:none;stroke:#b0b0b0;stroke-linecap:square;stroke-width:0.8;"/>
     </g>
     <g id="line2d_100">
      <g>
       <use style="stroke:#000000;stroke-width:0.6;" x="51.05" xlink:href="#m8b0b3cc034" y="274.58314"/>
      </g>
     </g>
    </g>
    <g id="ytick_10">
     <g id="line2d_101">
      <path clip-path="url(#p4c4c9f6751)" d="M 51.05 245.6119 
L 482.04 245.6119 
" style="fill:none;stroke:#b0b0b0;stroke-linecap:square;stroke-width:0.8;"/>
     </g>
     <g id="line2d_102">
      <g>
       <use style="stroke:#000000;stroke-width:0.6;" x="51.05" xlink:href="#m8b0b3cc034" y="245.6119"/>
      </g>
     </g>
    </g>
    <g id="ytick_11">
     <g id="line2d_103">
      <path clip-path="url(#p4c4c9f6751)" d="M 51.05 231.12628 
L 482.04 231.12628 
" style="fill:none;stroke:#b0b0b0;stroke-linecap:square;stroke-width:0.8;"/>
     </g>
     <g id="line2d_104">
      <g>
       <use style="stroke:#000000;stroke-width:0.6;" x="51.05" xlink:href="#m8b0b3cc034" y="231.12628"/>
      </g>
     </g>
    </g>
    <g id="ytick_12">
     <g id="line2d_105">
      <path clip-path="url(#p4c4c9f6751)" d="M 51.05 216.64066 
L 482.04 216.64066 
" style="fill:none;stroke:#b0b0b0;stroke-linecap:square;stroke-width:0.8;"/>
     </g>
     <g id="line2d_106">
      <g>
       <use style="stroke:#000000;stroke-width:0.6;" x="51.05" xlink:href="#m8b0b3cc034" y="216.64066"/>
      </g>
     </g>
    </g>
    <g id="ytick_13">
     <g id="line2d_107">
      <path clip-path="url(#p4c4c9f6751)" d="M 51.05 187.66942 
L 482.04 187.66942 
" style="fill:none;stroke:#b0b0b0;stroke-linecap:square;stroke-width:0.8;"/>
     </g>
     <g id="line2d_108">
      <g>
       <use style="stroke:#000000;stroke-width:0.6;" x="51.05" xlink:href="#m8b0b3cc034" y="187.66942"/>
      </g>
     </g>
    </g>
    <g id="ytick_14">
     <g id="line2d_109">
      <path clip-path="url(#p4c4c9f6751)" d="M 51.05 173.1838 
L 482.04 173.1838 
" style="fill:none;stroke:#b0b0b0;stroke-linecap:square;stroke-width:0.8;"/>
     </g>
     <g id="line2d_110">
      <g>
       <use style="stroke:#000000;stroke-width:0.6;" x="51.05" xlink:href="#m8b0b3cc034" y="173.1838"/>
      </g>
     </g>
    </g>
    <g id="ytick_15">
     <g id="line2d_111">
      <path clip-path="url(#p4c4c9f6751)" d="M 51.05 158.69818 
L 482.04 158.69818 
" style="fill:none;stroke:#b0b0b0;stroke-linecap:square;stroke-width:0.8;"/>
     </g>
     <g id="line2d_112">
      <g>
       <use style="stroke:#000000;stroke-width:0.6;" x="51.05" xlink:href="#m8b0b3cc034" y="158.69818"/>
      </g>
     </g>
    </g>
    <g id="ytick_16">
     <g id="line2d_113">
      <path clip-path="url(#p4c4c9f6751)" d="M 51.05 129.72694 
L 482.04 129.72694 
" style="fill:none;stroke:#b0b0b0;stroke-linecap:square;stroke-width:0.8;"/>
     </g>
     <g id="line2d_114">
      <g>
       <use style="stroke:#000000;stroke-width:0.6;" x="51.05" xlink:href="#m8b0b3cc034" y="129.72694"/>
      </g>
     </g>
    </g>
    <g id="ytick_17">
     <g id="line2d_115">
      <path clip-path="url(#p4c4c9f6751)" d="M 51.05 115.24132 
L 482.04 115.24132 
" style="fill:none;stroke:#b0b0b0;stroke-linecap:square;stroke-width:0.8;"/>
     </g>
     <g id="line2d_116">
      <g>
       <use style="stroke:#000000;stroke-width:0.6;" x="51.05" xlink:href="#m8b0b3cc034" y="115.24132"/>
      </g>
     </g>
    </g>
    <g id="ytick_18">
     <g id="line2d_117">
      <path clip-path="url(#p4c4c9f6751)" d="M 51.05 100.7557 
L 482.04 100.7557 
" style="fill:none;stroke:#b0b0b0;stroke-linecap:square;stroke-width:0.8;"/>
     </g>
     <g id="line2d_118">
      <g>
       <use style="stroke:#000000;stroke-width:0.6;" x="51.05" xlink:href="#m8b0b3cc034" y="100.7557"/>
      </g>
     </g>
    </g>
    <g id="ytick_19">
     <g id="line2d_119">
      <path clip-path="url(#p4c4c9f6751)" d="M 51.05 71.78446 
L 482.04 71.78446 
" style="fill:none;stroke:#b0b0b0;stroke-linecap:square;stroke-width:0.8;"/>
     </g>
     <g id="line2d_120">
      <g>
       <use style="stroke:#000000;stroke-width:0.6;" x="51.05" xlink:href="#m8b0b3cc034" y="71.78446"/>
      </g>
     </g>
    </g>
    <g id="ytick_20">
     <g id="line2d_121">
      <path clip-path="url(#p4c4c9f6751)" d="M 51.05 57.29884 
L 482.04 57.29884 
" style="fill:none;stroke:#b0b0b0;stroke-linecap:square;stroke-width:0.8;"/>
     </g>
     <g id="line2d_122">
      <g>
       <use style="stroke:#000000;stroke-width:0.6;" x="51.05" xlink:href="#m8b0b3cc034" y="57.29884"/>
      </g>
     </g>
    </g>
    <g id="ytick_21">
     <g id="line2d_123">
      <path clip-path="url(#p4c4c9f6751)" d="M 51.05 42.81322 
L 482.04 42.81322 
" style="fill:none;stroke:#b0b0b0;stroke-linecap:square;stroke-width:0.8;"/>
     </g>
     <g id="line2d_124">
      <g>
       <use style="stroke:#000000;stroke-width:0.6;" x="51.05" xlink:href="#m8b0b3cc034" y="42.81322"/>
      </g>
     </g>
    </g>
    <g id="ytick_22">
     <g id="line2d_125">
      <path clip-path="url(#p4c4c9f6751)" d="M 51.05 13.84198 
L 482.04 13.84198 
" style="fill:none;stroke:#b0b0b0;stroke-linecap:square;stroke-width:0.8;"/>
     </g>
     <g id="line2d_126">
      <g>
       <use style="stroke:#000000;stroke-width:0.6;" x="51.05" xlink:href="#m8b0b3cc034" y="13.84198"/>
      </g>
     </g>
    </g>
    <g id="text_17">
     <!-- Absolute Frequency -->
     <defs>
      <path d="M 34.1875 63.1875 
L 20.796875 26.90625 
L 47.609375 26.90625 
z
M 28.609375 72.90625 
L 39.796875 72.90625 
L 67.578125 0 
L 57.328125 0 
L 50.6875 18.703125 
L 17.828125 18.703125 
L 11.1875 0 
L 0.78125 0 
z
" id="DejaVuSans-65"/>
      <path d="M 48.6875 27.296875 
Q 48.6875 37.203125 44.609375 42.84375 
Q 40.53125 48.484375 33.40625 48.484375 
Q 26.265625 48.484375 22.1875 42.84375 
Q 18.109375 37.203125 18.109375 27.296875 
Q 18.109375 17.390625 22.1875 11.75 
Q 26.265625 6.109375 33.40625 6.109375 
Q 40.53125 6.109375 44.609375 11.75 
Q 48.6875 17.390625 48.6875 27.296875 
z
M 18.109375 46.390625 
Q 20.953125 51.265625 25.265625 53.625 
Q 29.59375 56 35.59375 56 
Q 45.5625 56 51.78125 48.09375 
Q 58.015625 40.1875 58.015625 27.296875 
Q 58.015625 14.40625 51.78125 6.484375 
Q 45.5625 -1.421875 35.59375 -1.421875 
Q 29.59375 -1.421875 25.265625 0.953125 
Q 20.953125 3.328125 18.109375 8.203125 
L 18.109375 0 
L 9.078125 0 
L 9.078125 75.984375 
L 18.109375 75.984375 
z
" id="DejaVuSans-98"/>
      <path d="M 18.3125 70.21875 
L 18.3125 54.6875 
L 36.8125 54.6875 
L 36.8125 47.703125 
L 18.3125 47.703125 
L 18.3125 18.015625 
Q 18.3125 11.328125 20.140625 9.421875 
Q 21.96875 7.515625 27.59375 7.515625 
L 36.8125 7.515625 
L 36.8125 0 
L 27.59375 0 
Q 17.1875 0 13.234375 3.875 
Q 9.28125 7.765625 9.28125 18.015625 
L 9.28125 47.703125 
L 2.6875 47.703125 
L 2.6875 54.6875 
L 9.28125 54.6875 
L 9.28125 70.21875 
z
" id="DejaVuSans-116"/>
      <path d="M 9.8125 72.90625 
L 51.703125 72.90625 
L 51.703125 64.59375 
L 19.671875 64.59375 
L 19.671875 43.109375 
L 48.578125 43.109375 
L 48.578125 34.8125 
L 19.671875 34.8125 
L 19.671875 0 
L 9.8125 0 
z
" id="DejaVuSans-70"/>
      <path d="M 41.109375 46.296875 
Q 39.59375 47.171875 37.8125 47.578125 
Q 36.03125 48 33.890625 48 
Q 26.265625 48 22.1875 43.046875 
Q 18.109375 38.09375 18.109375 28.8125 
L 18.109375 0 
L 9.078125 0 
L 9.078125 54.6875 
L 18.109375 54.6875 
L 18.109375 46.1875 
Q 20.953125 51.171875 25.484375 53.578125 
Q 30.03125 56 36.53125 56 
Q 37.453125 56 38.578125 55.875 
Q 39.703125 55.765625 41.0625 55.515625 
z
" id="DejaVuSans-114"/>
      <path d="M 14.796875 27.296875 
Q 14.796875 17.390625 18.875 11.75 
Q 22.953125 6.109375 30.078125 6.109375 
Q 37.203125 6.109375 41.296875 11.75 
Q 45.40625 17.390625 45.40625 27.296875 
Q 45.40625 37.203125 41.296875 42.84375 
Q 37.203125 48.484375 30.078125 48.484375 
Q 22.953125 48.484375 18.875 42.84375 
Q 14.796875 37.203125 14.796875 27.296875 
z
M 45.40625 8.203125 
Q 42.578125 3.328125 38.25 0.953125 
Q 33.9375 -1.421875 27.875 -1.421875 
Q 17.96875 -1.421875 11.734375 6.484375 
Q 5.515625 14.40625 5.515625 27.296875 
Q 5.515625 40.1875 11.734375 48.09375 
Q 17.96875 56 27.875 56 
Q 33.9375 56 38.25 53.625 
Q 42.578125 51.265625 45.40625 46.390625 
L 45.40625 54.6875 
L 54.390625 54.6875 
L 54.390625 -20.796875 
L 45.40625 -20.796875 
z
" id="DejaVuSans-113"/>
      <path d="M 48.78125 52.59375 
L 48.78125 44.1875 
Q 44.96875 46.296875 41.140625 47.34375 
Q 37.3125 48.390625 33.40625 48.390625 
Q 24.65625 48.390625 19.8125 42.84375 
Q 14.984375 37.3125 14.984375 27.296875 
Q 14.984375 17.28125 19.8125 11.734375 
Q 24.65625 6.203125 33.40625 6.203125 
Q 37.3125 6.203125 41.140625 7.25 
Q 44.96875 8.296875 48.78125 10.40625 
L 48.78125 2.09375 
Q 45.015625 0.34375 40.984375 -0.53125 
Q 36.96875 -1.421875 32.421875 -1.421875 
Q 20.0625 -1.421875 12.78125 6.34375 
Q 5.515625 14.109375 5.515625 27.296875 
Q 5.515625 40.671875 12.859375 48.328125 
Q 20.21875 56 33.015625 56 
Q 37.15625 56 41.109375 55.140625 
Q 45.0625 54.296875 48.78125 52.59375 
z
" id="DejaVuSans-99"/>
      <path d="M 32.171875 -5.078125 
Q 28.375 -14.84375 24.75 -17.8125 
Q 21.140625 -20.796875 15.09375 -20.796875 
L 7.90625 -20.796875 
L 7.90625 -13.28125 
L 13.1875 -13.28125 
Q 16.890625 -13.28125 18.9375 -11.515625 
Q 21 -9.765625 23.484375 -3.21875 
L 25.09375 0.875 
L 2.984375 54.6875 
L 12.5 54.6875 
L 29.59375 11.921875 
L 46.6875 54.6875 
L 56.203125 54.6875 
z
" id="DejaVuSans-121"/>
     </defs>
     <g transform="translate(18.882812 214.159844)rotate(-90)scale(0.1 -0.1)">
      <use xlink:href="#DejaVuSans-65"/>
      <use x="68.408203" xlink:href="#DejaVuSans-98"/>
      <use x="131.884766" xlink:href="#DejaVuSans-115"/>
      <use x="183.984375" xlink:href="#DejaVuSans-111"/>
      <use x="245.166016" xlink:href="#DejaVuSans-108"/>
      <use x="272.949219" xlink:href="#DejaVuSans-117"/>
      <use x="336.328125" xlink:href="#DejaVuSans-116"/>
      <use x="375.537109" xlink:href="#DejaVuSans-101"/>
      <use x="437.060547" xlink:href="#DejaVuSans-32"/>
      <use x="468.847656" xlink:href="#DejaVuSans-70"/>
      <use x="526.257812" xlink:href="#DejaVuSans-114"/>
      <use x="567.339844" xlink:href="#DejaVuSans-101"/>
      <use x="628.863281" xlink:href="#DejaVuSans-113"/>
      <use x="692.339844" xlink:href="#DejaVuSans-117"/>
      <use x="755.71875" xlink:href="#DejaVuSans-101"/>
      <use x="817.242188" xlink:href="#DejaVuSans-110"/>
      <use x="880.621094" xlink:href="#DejaVuSans-99"/>
      <use x="935.601562" xlink:href="#DejaVuSans-121"/>
     </g>
    </g>
   </g>
   <g id="patch_3">
    <path d="M 51.05 318.04 
L 51.05 10.8 
" style="fill:none;stroke:#000000;stroke-linecap:square;stroke-linejoin:miter;stroke-width:0.8;"/>
   </g>
   <g id="patch_4">
    <path d="M 482.04 318.04 
L 482.04 10.8 
" style="fill:none;stroke:#000000;stroke-linecap:square;stroke-linejoin:miter;stroke-width:0.8;"/>
   </g>
   <g id="patch_5">
    <path d="M 51.05 318.04 
L 482.04 318.04 
" style="fill:none;stroke:#000000;stroke-linecap:square;stroke-linejoin:miter;stroke-width:0.8;"/>
   </g>
   <g id="patch_6">
    <path d="M 51.05 10.8 
L 482.04 10.8 
" style="fill:none;stroke:#000000;stroke-linecap:square;stroke-linejoin:miter;stroke-width:0.8;"/>
   </g>
   <g id="patch_7">
    <path clip-path="url(#p4c4c9f6751)" d="M 51.050266 318.04 
L 61.825003 318.04 
L 61.825003 25.430476 
L 51.050266 25.430476 
z
" style="fill:#114da1;"/>
   </g>
   <g id="patch_8">
    <path clip-path="url(#p4c4c9f6751)" d="M 61.825003 318.04 
L 72.59974 318.04 
L 72.59974 196.360792 
L 61.825003 196.360792 
z
" style="fill:#114da1;"/>
   </g>
   <g id="patch_9">
    <path clip-path="url(#p4c4c9f6751)" d="M 72.59974 318.04 
L 83.374476 318.04 
L 83.374476 222.434908 
L 72.59974 222.434908 
z
" style="fill:#114da1;"/>
   </g>
   <g id="patch_10">
    <path clip-path="url(#p4c4c9f6751)" d="M 83.374476 318.04 
L 94.149213 318.04 
L 94.149213 234.023404 
L 83.374476 234.023404 
z
" style="fill:#114da1;"/>
   </g>
   <g id="patch_11">
    <path clip-path="url(#p4c4c9f6751)" d="M 94.149213 318.04 
L 104.92395 318.04 
L 104.92395 245.6119 
L 94.149213 245.6119 
z
" style="fill:#114da1;"/>
   </g>
   <g id="patch_12">
    <path clip-path="url(#p4c4c9f6751)" d="M 104.92395 318.04 
L 115.698686 318.04 
L 115.698686 251.406148 
L 104.92395 251.406148 
z
" style="fill:#114da1;"/>
   </g>
   <g id="patch_13">
    <path clip-path="url(#p4c4c9f6751)" d="M 115.698686 318.04 
L 126.473423 318.04 
L 126.473423 257.200396 
L 115.698686 257.200396 
z
" style="fill:#114da1;"/>
   </g>
   <g id="patch_14">
    <path clip-path="url(#p4c4c9f6751)" d="M 126.473423 318.04 
L 137.24816 318.04 
L 137.24816 257.200396 
L 126.473423 257.200396 
z
" style="fill:#114da1;"/>
   </g>
   <g id="patch_15">
    <path clip-path="url(#p4c4c9f6751)" d="M 137.24816 318.04 
L 148.022897 318.04 
L 148.022897 262.994644 
L 137.24816 262.994644 
z
" style="fill:#114da1;"/>
   </g>
   <g id="patch_16">
    <path clip-path="url(#p4c4c9f6751)" d="M 148.022897 318.04 
L 158.797633 318.04 
L 158.797633 262.994644 
L 148.022897 262.994644 
z
" style="fill:#114da1;"/>
   </g>
   <g id="patch_17">
    <path clip-path="url(#p4c4c9f6751)" d="M 158.797633 318.04 
L 169.57237 318.04 
L 169.57237 265.891768 
L 158.797633 265.891768 
z
" style="fill:#114da1;"/>
   </g>
   <g id="patch_18">
    <path clip-path="url(#p4c4c9f6751)" d="M 169.57237 318.04 
L 180.347107 318.04 
L 180.347107 265.891768 
L 169.57237 265.891768 
z
" style="fill:#114da1;"/>
   </g>
   <g id="patch_19">
    <path clip-path="url(#p4c4c9f6751)" d="M 180.347107 318.04 
L 191.121843 318.04 
L 191.121843 268.788892 
L 180.347107 268.788892 
z
" style="fill:#114da1;"/>
   </g>
   <g id="patch_20">
    <path clip-path="url(#p4c4c9f6751)" d="M 191.121843 318.04 
L 201.89658 318.04 
L 201.89658 268.788892 
L 191.121843 268.788892 
z
" style="fill:#114da1;"/>
   </g>
   <g id="patch_21">
    <path clip-path="url(#p4c4c9f6751)" d="M 201.89658 318.04 
L 212.671317 318.04 
L 212.671317 271.686016 
L 201.89658 271.686016 
z
" style="fill:#114da1;"/>
   </g>
   <g id="patch_22">
    <path clip-path="url(#p4c4c9f6751)" d="M 212.671317 318.04 
L 223.446053 318.04 
L 223.446053 271.686016 
L 212.671317 271.686016 
z
" style="fill:#114da1;"/>
   </g>
   <g id="patch_23">
    <path clip-path="url(#p4c4c9f6751)" d="M 223.446053 318.04 
L 234.22079 318.04 
L 234.22079 268.788892 
L 223.446053 268.788892 
z
" style="fill:#114da1;"/>
   </g>
   <g id="patch_24">
    <path clip-path="url(#p4c4c9f6751)" d="M 234.22079 318.04 
L 244.995527 318.04 
L 244.995527 271.686016 
L 234.22079 271.686016 
z
" style="fill:#114da1;"/>
   </g>
   <g id="patch_25">
    <path clip-path="url(#p4c4c9f6751)" d="M 244.995527 318.04 
L 255.770263 318.04 
L 255.770263 271.686016 
L 244.995527 271.686016 
z
" style="fill:#114da1;"/>
   </g>
   <g id="patch_26">
    <path clip-path="url(#p4c4c9f6751)" d="M 255.770263 318.04 
L 266.545 318.04 
L 266.545 271.686016 
L 255.770263 271.686016 
z
" style="fill:#114da1;"/>
   </g>
   <g id="patch_27">
    <path clip-path="url(#p4c4c9f6751)" d="M 266.545 318.04 
L 277.319737 318.04 
L 277.319737 271.686016 
L 266.545 271.686016 
z
" style="fill:#114da1;"/>
   </g>
   <g id="patch_28">
    <path clip-path="url(#p4c4c9f6751)" d="M 277.319737 318.04 
L 288.094473 318.04 
L 288.094473 271.686016 
L 277.319737 271.686016 
z
" style="fill:#114da1;"/>
   </g>
   <g id="patch_29">
    <path clip-path="url(#p4c4c9f6751)" d="M 288.094473 318.04 
L 298.86921 318.04 
L 298.86921 271.686016 
L 288.094473 271.686016 
z
" style="fill:#114da1;"/>
   </g>
   <g id="patch_30">
    <path clip-path="url(#p4c4c9f6751)" d="M 298.86921 318.04 
L 309.643947 318.04 
L 309.643947 268.788892 
L 298.86921 268.788892 
z
" style="fill:#114da1;"/>
   </g>
   <g id="patch_31">
    <path clip-path="url(#p4c4c9f6751)" d="M 309.643947 318.04 
L 320.418683 318.04 
L 320.418683 271.686016 
L 309.643947 271.686016 
z
" style="fill:#114da1;"/>
   </g>
   <g id="patch_32">
    <path clip-path="url(#p4c4c9f6751)" d="M 320.418683 318.04 
L 331.19342 318.04 
L 331.19342 271.686016 
L 320.418683 271.686016 
z
" style="fill:#114da1;"/>
   </g>
   <g id="patch_33">
    <path clip-path="url(#p4c4c9f6751)" d="M 331.19342 318.04 
L 341.968157 318.04 
L 341.968157 268.788892 
L 331.19342 268.788892 
z
" style="fill:#114da1;"/>
   </g>
   <g id="patch_34">
    <path clip-path="url(#p4c4c9f6751)" d="M 341.968157 318.04 
L 352.742893 318.04 
L 352.742893 268.788892 
L 341.968157 268.788892 
z
" style="fill:#114da1;"/>
   </g>
   <g id="patch_35">
    <path clip-path="url(#p4c4c9f6751)" d="M 352.742893 318.04 
L 363.51763 318.04 
L 363.51763 265.891768 
L 352.742893 265.891768 
z
" style="fill:#114da1;"/>
   </g>
   <g id="patch_36">
    <path clip-path="url(#p4c4c9f6751)" d="M 363.51763 318.04 
L 374.292367 318.04 
L 374.292367 265.891768 
L 363.51763 265.891768 
z
" style="fill:#114da1;"/>
   </g>
   <g id="patch_37">
    <path clip-path="url(#p4c4c9f6751)" d="M 374.292367 318.04 
L 385.067103 318.04 
L 385.067103 262.994644 
L 374.292367 262.994644 
z
" style="fill:#114da1;"/>
   </g>
   <g id="patch_38">
    <path clip-path="url(#p4c4c9f6751)" d="M 385.067103 318.04 
L 395.84184 318.04 
L 395.84184 262.994644 
L 385.067103 262.994644 
z
" style="fill:#114da1;"/>
   </g>
   <g id="patch_39">
    <path clip-path="url(#p4c4c9f6751)" d="M 395.84184 318.04 
L 406.616577 318.04 
L 406.616577 257.200396 
L 395.84184 257.200396 
z
" style="fill:#114da1;"/>
   </g>
   <g id="patch_40">
    <path clip-path="url(#p4c4c9f6751)" d="M 406.616577 318.04 
L 417.391314 318.04 
L 417.391314 257.200396 
L 406.616577 257.200396 
z
" style="fill:#114da1;"/>
   </g>
   <g id="patch_41">
    <path clip-path="url(#p4c4c9f6751)" d="M 417.391314 318.04 
L 428.16605 318.04 
L 428.16605 251.406148 
L 417.391314 251.406148 
z
" style="fill:#114da1;"/>
   </g>
   <g id="patch_42">
    <path clip-path="url(#p4c4c9f6751)" d="M 428.16605 318.04 
L 438.940787 318.04 
L 438.940787 245.6119 
L 428.16605 245.6119 
z
" style="fill:#114da1;"/>
   </g>
   <g id="patch_43">
    <path clip-path="url(#p4c4c9f6751)" d="M 438.940787 318.04 
L 449.715524 318.04 
L 449.715524 234.023404 
L 438.940787 234.023404 
z
" style="fill:#114da1;"/>
   </g>
   <g id="patch_44">
    <path clip-path="url(#p4c4c9f6751)" d="M 449.715524 318.04 
L 460.49026 318.04 
L 460.49026 222.434908 
L 449.715524 222.434908 
z
" style="fill:#114da1;"/>
   </g>
   <g id="patch_45">
    <path clip-path="url(#p4c4c9f6751)" d="M 460.49026 318.04 
L 471.264997 318.04 
L 471.264997 196.360792 
L 460.49026 196.360792 
z
" style="fill:#114da1;"/>
   </g>
   <g id="patch_46">
    <path clip-path="url(#p4c4c9f6751)" d="M 471.264997 318.04 
L 482.039734 318.04 
L 482.039734 25.430476 
L 471.264997 25.430476 
z
" style="fill:#114da1;"/>
   </g>
  </g>
 </g>
 <defs>
  <clipPath id="p4c4c9f6751">
   <rect height="307.24" width="430.99" x="51.05" y="10.8"/>
  </clipPath>
 </defs>
</svg>
