<?xml version="1.0" encoding="utf-8" standalone="no"?>
<!DOCTYPE svg PUBLIC "-//W3C//DTD SVG 1.1//EN"
  "http://www.w3.org/Graphics/SVG/1.1/DTD/svg11.dtd">
<!-- Created with matplotlib (https://matplotlib.org/) -->
<svg height="360pt" version="1.1" viewBox="0 0 504 360" width="504pt" xmlns="http://www.w3.org/2000/svg" xmlns:xlink="http://www.w3.org/1999/xlink">
 <defs>
  <style type="text/css">
*{stroke-linecap:butt;stroke-linejoin:round;}
  </style>
 </defs>
 <g id="figure_1">
  <g id="patch_1">
   <path d="M 0 360 
L 504 360 
L 504 0 
L 0 0 
z
" style="fill:#ffffff;"/>
  </g>
  <g id="axes_1">
   <g id="patch_2">
    <path d="M 62.54 317.32 
L 486.81 317.32 
L 486.81 14.76 
L 62.54 14.76 
z
" style="fill:#ffffff;"/>
   </g>
   <g id="matplotlib.axis_1">
    <g id="xtick_1">
     <g id="line2d_1">
      <path clip-path="url(#p5e11e04f07)" d="M 117.879565 317.32 
L 117.879565 14.76 
" style="fill:none;stroke:#666666;stroke-linecap:square;stroke-width:0.8;"/>
     </g>
     <g id="line2d_2">
      <defs>
       <path d="M 0 0 
L 0 3.5 
" id="me368478946" style="stroke:#000000;stroke-width:0.8;"/>
      </defs>
      <g>
       <use style="stroke:#000000;stroke-width:0.8;" x="117.879565" xlink:href="#me368478946" y="317.32"/>
      </g>
     </g>
     <g id="text_1">
      <!-- 0 -->
      <defs>
       <path d="M 31.78125 66.40625 
Q 24.171875 66.40625 20.328125 58.90625 
Q 16.5 51.421875 16.5 36.375 
Q 16.5 21.390625 20.328125 13.890625 
Q 24.171875 6.390625 31.78125 6.390625 
Q 39.453125 6.390625 43.28125 13.890625 
Q 47.125 21.390625 47.125 36.375 
Q 47.125 51.421875 43.28125 58.90625 
Q 39.453125 66.40625 31.78125 66.40625 
z
M 31.78125 74.21875 
Q 44.046875 74.21875 50.515625 64.515625 
Q 56.984375 54.828125 56.984375 36.375 
Q 56.984375 17.96875 50.515625 8.265625 
Q 44.046875 -1.421875 31.78125 -1.421875 
Q 19.53125 -1.421875 13.0625 8.265625 
Q 6.59375 17.96875 6.59375 36.375 
Q 6.59375 54.828125 13.0625 64.515625 
Q 19.53125 74.21875 31.78125 74.21875 
z
" id="DejaVuSans-48"/>
      </defs>
      <g transform="translate(114.698315 331.918437)scale(0.1 -0.1)">
       <use xlink:href="#DejaVuSans-48"/>
      </g>
     </g>
    </g>
    <g id="xtick_2">
     <g id="line2d_3">
      <path clip-path="url(#p5e11e04f07)" d="M 210.112174 317.32 
L 210.112174 14.76 
" style="fill:none;stroke:#666666;stroke-linecap:square;stroke-width:0.8;"/>
     </g>
     <g id="line2d_4">
      <g>
       <use style="stroke:#000000;stroke-width:0.8;" x="210.112174" xlink:href="#me368478946" y="317.32"/>
      </g>
     </g>
     <g id="text_2">
      <!-- 5 -->
      <defs>
       <path d="M 10.796875 72.90625 
L 49.515625 72.90625 
L 49.515625 64.59375 
L 19.828125 64.59375 
L 19.828125 46.734375 
Q 21.96875 47.46875 24.109375 47.828125 
Q 26.265625 48.1875 28.421875 48.1875 
Q 40.625 48.1875 47.75 41.5 
Q 54.890625 34.8125 54.890625 23.390625 
Q 54.890625 11.625 47.5625 5.09375 
Q 40.234375 -1.421875 26.90625 -1.421875 
Q 22.3125 -1.421875 17.546875 -0.640625 
Q 12.796875 0.140625 7.71875 1.703125 
L 7.71875 11.625 
Q 12.109375 9.234375 16.796875 8.0625 
Q 21.484375 6.890625 26.703125 6.890625 
Q 35.15625 6.890625 40.078125 11.328125 
Q 45.015625 15.765625 45.015625 23.390625 
Q 45.015625 31 40.078125 35.4375 
Q 35.15625 39.890625 26.703125 39.890625 
Q 22.75 39.890625 18.8125 39.015625 
Q 14.890625 38.140625 10.796875 36.28125 
z
" id="DejaVuSans-53"/>
      </defs>
      <g transform="translate(206.930924 331.918437)scale(0.1 -0.1)">
       <use xlink:href="#DejaVuSans-53"/>
      </g>
     </g>
    </g>
    <g id="xtick_3">
     <g id="line2d_5">
      <path clip-path="url(#p5e11e04f07)" d="M 302.344783 317.32 
L 302.344783 14.76 
" style="fill:none;stroke:#666666;stroke-linecap:square;stroke-width:0.8;"/>
     </g>
     <g id="line2d_6">
      <g>
       <use style="stroke:#000000;stroke-width:0.8;" x="302.344783" xlink:href="#me368478946" y="317.32"/>
      </g>
     </g>
     <g id="text_3">
      <!-- 10 -->
      <defs>
       <path d="M 12.40625 8.296875 
L 28.515625 8.296875 
L 28.515625 63.921875 
L 10.984375 60.40625 
L 10.984375 69.390625 
L 28.421875 72.90625 
L 38.28125 72.90625 
L 38.28125 8.296875 
L 54.390625 8.296875 
L 54.390625 0 
L 12.40625 0 
z
" id="DejaVuSans-49"/>
      </defs>
      <g transform="translate(295.982283 331.918437)scale(0.1 -0.1)">
       <use xlink:href="#DejaVuSans-49"/>
       <use x="63.623047" xlink:href="#DejaVuSans-48"/>
      </g>
     </g>
    </g>
    <g id="xtick_4">
     <g id="line2d_7">
      <path clip-path="url(#p5e11e04f07)" d="M 394.577391 317.32 
L 394.577391 14.76 
" style="fill:none;stroke:#666666;stroke-linecap:square;stroke-width:0.8;"/>
     </g>
     <g id="line2d_8">
      <g>
       <use style="stroke:#000000;stroke-width:0.8;" x="394.577391" xlink:href="#me368478946" y="317.32"/>
      </g>
     </g>
     <g id="text_4">
      <!-- 15 -->
      <g transform="translate(388.214891 331.918437)scale(0.1 -0.1)">
       <use xlink:href="#DejaVuSans-49"/>
       <use x="63.623047" xlink:href="#DejaVuSans-53"/>
      </g>
     </g>
    </g>
    <g id="xtick_5">
     <g id="line2d_9">
      <path clip-path="url(#p5e11e04f07)" d="M 486.81 317.32 
L 486.81 14.76 
" style="fill:none;stroke:#666666;stroke-linecap:square;stroke-width:0.8;"/>
     </g>
     <g id="line2d_10">
      <g>
       <use style="stroke:#000000;stroke-width:0.8;" x="486.81" xlink:href="#me368478946" y="317.32"/>
      </g>
     </g>
     <g id="text_5">
      <!-- 20 -->
      <defs>
       <path d="M 19.1875 8.296875 
L 53.609375 8.296875 
L 53.609375 0 
L 7.328125 0 
L 7.328125 8.296875 
Q 12.9375 14.109375 22.625 23.890625 
Q 32.328125 33.6875 34.8125 36.53125 
Q 39.546875 41.84375 41.421875 45.53125 
Q 43.3125 49.21875 43.3125 52.78125 
Q 43.3125 58.59375 39.234375 62.25 
Q 35.15625 65.921875 28.609375 65.921875 
Q 23.96875 65.921875 18.8125 64.3125 
Q 13.671875 62.703125 7.8125 59.421875 
L 7.8125 69.390625 
Q 13.765625 71.78125 18.9375 73 
Q 24.125 74.21875 28.421875 74.21875 
Q 39.75 74.21875 46.484375 68.546875 
Q 53.21875 62.890625 53.21875 53.421875 
Q 53.21875 48.921875 51.53125 44.890625 
Q 49.859375 40.875 45.40625 35.40625 
Q 44.1875 33.984375 37.640625 27.21875 
Q 31.109375 20.453125 19.1875 8.296875 
z
" id="DejaVuSans-50"/>
      </defs>
      <g transform="translate(480.4475 331.918437)scale(0.1 -0.1)">
       <use xlink:href="#DejaVuSans-50"/>
       <use x="63.623047" xlink:href="#DejaVuSans-48"/>
      </g>
     </g>
    </g>
    <g id="xtick_6">
     <g id="line2d_11">
      <path clip-path="url(#p5e11e04f07)" d="M 80.986522 317.32 
L 80.986522 14.76 
" style="fill:none;stroke:#bbbbbb;stroke-linecap:square;stroke-width:0.8;"/>
     </g>
     <g id="line2d_12">
      <defs>
       <path d="M 0 0 
L 0 2 
" id="me68e9c03d9" style="stroke:#000000;stroke-width:0.6;"/>
      </defs>
      <g>
       <use style="stroke:#000000;stroke-width:0.6;" x="80.986522" xlink:href="#me68e9c03d9" y="317.32"/>
      </g>
     </g>
    </g>
    <g id="xtick_7">
     <g id="line2d_13">
      <path clip-path="url(#p5e11e04f07)" d="M 99.433043 317.32 
L 99.433043 14.76 
" style="fill:none;stroke:#bbbbbb;stroke-linecap:square;stroke-width:0.8;"/>
     </g>
     <g id="line2d_14">
      <g>
       <use style="stroke:#000000;stroke-width:0.6;" x="99.433043" xlink:href="#me68e9c03d9" y="317.32"/>
      </g>
     </g>
    </g>
    <g id="xtick_8">
     <g id="line2d_15">
      <path clip-path="url(#p5e11e04f07)" d="M 136.326087 317.32 
L 136.326087 14.76 
" style="fill:none;stroke:#bbbbbb;stroke-linecap:square;stroke-width:0.8;"/>
     </g>
     <g id="line2d_16">
      <g>
       <use style="stroke:#000000;stroke-width:0.6;" x="136.326087" xlink:href="#me68e9c03d9" y="317.32"/>
      </g>
     </g>
    </g>
    <g id="xtick_9">
     <g id="line2d_17">
      <path clip-path="url(#p5e11e04f07)" d="M 154.772609 317.32 
L 154.772609 14.76 
" style="fill:none;stroke:#bbbbbb;stroke-linecap:square;stroke-width:0.8;"/>
     </g>
     <g id="line2d_18">
      <g>
       <use style="stroke:#000000;stroke-width:0.6;" x="154.772609" xlink:href="#me68e9c03d9" y="317.32"/>
      </g>
     </g>
    </g>
    <g id="xtick_10">
     <g id="line2d_19">
      <path clip-path="url(#p5e11e04f07)" d="M 173.21913 317.32 
L 173.21913 14.76 
" style="fill:none;stroke:#bbbbbb;stroke-linecap:square;stroke-width:0.8;"/>
     </g>
     <g id="line2d_20">
      <g>
       <use style="stroke:#000000;stroke-width:0.6;" x="173.21913" xlink:href="#me68e9c03d9" y="317.32"/>
      </g>
     </g>
    </g>
    <g id="xtick_11">
     <g id="line2d_21">
      <path clip-path="url(#p5e11e04f07)" d="M 191.665652 317.32 
L 191.665652 14.76 
" style="fill:none;stroke:#bbbbbb;stroke-linecap:square;stroke-width:0.8;"/>
     </g>
     <g id="line2d_22">
      <g>
       <use style="stroke:#000000;stroke-width:0.6;" x="191.665652" xlink:href="#me68e9c03d9" y="317.32"/>
      </g>
     </g>
    </g>
    <g id="xtick_12">
     <g id="line2d_23">
      <path clip-path="url(#p5e11e04f07)" d="M 228.558696 317.32 
L 228.558696 14.76 
" style="fill:none;stroke:#bbbbbb;stroke-linecap:square;stroke-width:0.8;"/>
     </g>
     <g id="line2d_24">
      <g>
       <use style="stroke:#000000;stroke-width:0.6;" x="228.558696" xlink:href="#me68e9c03d9" y="317.32"/>
      </g>
     </g>
    </g>
    <g id="xtick_13">
     <g id="line2d_25">
      <path clip-path="url(#p5e11e04f07)" d="M 247.005217 317.32 
L 247.005217 14.76 
" style="fill:none;stroke:#bbbbbb;stroke-linecap:square;stroke-width:0.8;"/>
     </g>
     <g id="line2d_26">
      <g>
       <use style="stroke:#000000;stroke-width:0.6;" x="247.005217" xlink:href="#me68e9c03d9" y="317.32"/>
      </g>
     </g>
    </g>
    <g id="xtick_14">
     <g id="line2d_27">
      <path clip-path="url(#p5e11e04f07)" d="M 265.451739 317.32 
L 265.451739 14.76 
" style="fill:none;stroke:#bbbbbb;stroke-linecap:square;stroke-width:0.8;"/>
     </g>
     <g id="line2d_28">
      <g>
       <use style="stroke:#000000;stroke-width:0.6;" x="265.451739" xlink:href="#me68e9c03d9" y="317.32"/>
      </g>
     </g>
    </g>
    <g id="xtick_15">
     <g id="line2d_29">
      <path clip-path="url(#p5e11e04f07)" d="M 283.898261 317.32 
L 283.898261 14.76 
" style="fill:none;stroke:#bbbbbb;stroke-linecap:square;stroke-width:0.8;"/>
     </g>
     <g id="line2d_30">
      <g>
       <use style="stroke:#000000;stroke-width:0.6;" x="283.898261" xlink:href="#me68e9c03d9" y="317.32"/>
      </g>
     </g>
    </g>
    <g id="xtick_16">
     <g id="line2d_31">
      <path clip-path="url(#p5e11e04f07)" d="M 320.791304 317.32 
L 320.791304 14.76 
" style="fill:none;stroke:#bbbbbb;stroke-linecap:square;stroke-width:0.8;"/>
     </g>
     <g id="line2d_32">
      <g>
       <use style="stroke:#000000;stroke-width:0.6;" x="320.791304" xlink:href="#me68e9c03d9" y="317.32"/>
      </g>
     </g>
    </g>
    <g id="xtick_17">
     <g id="line2d_33">
      <path clip-path="url(#p5e11e04f07)" d="M 339.237826 317.32 
L 339.237826 14.76 
" style="fill:none;stroke:#bbbbbb;stroke-linecap:square;stroke-width:0.8;"/>
     </g>
     <g id="line2d_34">
      <g>
       <use style="stroke:#000000;stroke-width:0.6;" x="339.237826" xlink:href="#me68e9c03d9" y="317.32"/>
      </g>
     </g>
    </g>
    <g id="xtick_18">
     <g id="line2d_35">
      <path clip-path="url(#p5e11e04f07)" d="M 357.684348 317.32 
L 357.684348 14.76 
" style="fill:none;stroke:#bbbbbb;stroke-linecap:square;stroke-width:0.8;"/>
     </g>
     <g id="line2d_36">
      <g>
       <use style="stroke:#000000;stroke-width:0.6;" x="357.684348" xlink:href="#me68e9c03d9" y="317.32"/>
      </g>
     </g>
    </g>
    <g id="xtick_19">
     <g id="line2d_37">
      <path clip-path="url(#p5e11e04f07)" d="M 376.13087 317.32 
L 376.13087 14.76 
" style="fill:none;stroke:#bbbbbb;stroke-linecap:square;stroke-width:0.8;"/>
     </g>
     <g id="line2d_38">
      <g>
       <use style="stroke:#000000;stroke-width:0.6;" x="376.13087" xlink:href="#me68e9c03d9" y="317.32"/>
      </g>
     </g>
    </g>
    <g id="xtick_20">
     <g id="line2d_39">
      <path clip-path="url(#p5e11e04f07)" d="M 413.023913 317.32 
L 413.023913 14.76 
" style="fill:none;stroke:#bbbbbb;stroke-linecap:square;stroke-width:0.8;"/>
     </g>
     <g id="line2d_40">
      <g>
       <use style="stroke:#000000;stroke-width:0.6;" x="413.023913" xlink:href="#me68e9c03d9" y="317.32"/>
      </g>
     </g>
    </g>
    <g id="xtick_21">
     <g id="line2d_41">
      <path clip-path="url(#p5e11e04f07)" d="M 431.470435 317.32 
L 431.470435 14.76 
" style="fill:none;stroke:#bbbbbb;stroke-linecap:square;stroke-width:0.8;"/>
     </g>
     <g id="line2d_42">
      <g>
       <use style="stroke:#000000;stroke-width:0.6;" x="431.470435" xlink:href="#me68e9c03d9" y="317.32"/>
      </g>
     </g>
    </g>
    <g id="xtick_22">
     <g id="line2d_43">
      <path clip-path="url(#p5e11e04f07)" d="M 449.916957 317.32 
L 449.916957 14.76 
" style="fill:none;stroke:#bbbbbb;stroke-linecap:square;stroke-width:0.8;"/>
     </g>
     <g id="line2d_44">
      <g>
       <use style="stroke:#000000;stroke-width:0.6;" x="449.916957" xlink:href="#me68e9c03d9" y="317.32"/>
      </g>
     </g>
    </g>
    <g id="xtick_23">
     <g id="line2d_45">
      <path clip-path="url(#p5e11e04f07)" d="M 468.363478 317.32 
L 468.363478 14.76 
" style="fill:none;stroke:#bbbbbb;stroke-linecap:square;stroke-width:0.8;"/>
     </g>
     <g id="line2d_46">
      <g>
       <use style="stroke:#000000;stroke-width:0.6;" x="468.363478" xlink:href="#me68e9c03d9" y="317.32"/>
      </g>
     </g>
    </g>
    <g id="text_6">
     <!-- $f$ in kHz -->
     <defs>
      <path d="M 47.796875 75.984375 
L 46.390625 68.5 
L 37.796875 68.5 
Q 32.90625 68.5 30.6875 66.578125 
Q 28.46875 64.65625 27.390625 59.515625 
L 26.421875 54.6875 
L 41.21875 54.6875 
L 39.890625 47.703125 
L 25.09375 47.703125 
L 15.828125 0 
L 6.78125 0 
L 16.109375 47.703125 
L 7.515625 47.703125 
L 8.796875 54.6875 
L 17.390625 54.6875 
L 18.109375 58.5 
Q 19.96875 68.171875 24.625 72.078125 
Q 29.296875 75.984375 39.3125 75.984375 
z
" id="DejaVuSans-Oblique-102"/>
      <path id="DejaVuSans-32"/>
      <path d="M 9.421875 54.6875 
L 18.40625 54.6875 
L 18.40625 0 
L 9.421875 0 
z
M 9.421875 75.984375 
L 18.40625 75.984375 
L 18.40625 64.59375 
L 9.421875 64.59375 
z
" id="DejaVuSans-105"/>
      <path d="M 54.890625 33.015625 
L 54.890625 0 
L 45.90625 0 
L 45.90625 32.71875 
Q 45.90625 40.484375 42.875 44.328125 
Q 39.84375 48.1875 33.796875 48.1875 
Q 26.515625 48.1875 22.3125 43.546875 
Q 18.109375 38.921875 18.109375 30.90625 
L 18.109375 0 
L 9.078125 0 
L 9.078125 54.6875 
L 18.109375 54.6875 
L 18.109375 46.1875 
Q 21.34375 51.125 25.703125 53.5625 
Q 30.078125 56 35.796875 56 
Q 45.21875 56 50.046875 50.171875 
Q 54.890625 44.34375 54.890625 33.015625 
z
" id="DejaVuSans-110"/>
      <path d="M 9.078125 75.984375 
L 18.109375 75.984375 
L 18.109375 31.109375 
L 44.921875 54.6875 
L 56.390625 54.6875 
L 27.390625 29.109375 
L 57.625 0 
L 45.90625 0 
L 18.109375 26.703125 
L 18.109375 0 
L 9.078125 0 
z
" id="DejaVuSans-107"/>
      <path d="M 9.8125 72.90625 
L 19.671875 72.90625 
L 19.671875 43.015625 
L 55.515625 43.015625 
L 55.515625 72.90625 
L 65.375 72.90625 
L 65.375 0 
L 55.515625 0 
L 55.515625 34.71875 
L 19.671875 34.71875 
L 19.671875 0 
L 9.8125 0 
z
" id="DejaVuSans-72"/>
      <path d="M 5.515625 54.6875 
L 48.1875 54.6875 
L 48.1875 46.484375 
L 14.40625 7.171875 
L 48.1875 7.171875 
L 48.1875 0 
L 4.296875 0 
L 4.296875 8.203125 
L 38.09375 47.515625 
L 5.515625 47.515625 
z
" id="DejaVuSans-122"/>
     </defs>
     <g transform="translate(255.875 345.596563)scale(0.1 -0.1)">
      <use transform="translate(0 0.015625)" xlink:href="#DejaVuSans-Oblique-102"/>
      <use transform="translate(35.205078 0.015625)" xlink:href="#DejaVuSans-32"/>
      <use transform="translate(66.992188 0.015625)" xlink:href="#DejaVuSans-105"/>
      <use transform="translate(94.775391 0.015625)" xlink:href="#DejaVuSans-110"/>
      <use transform="translate(158.154297 0.015625)" xlink:href="#DejaVuSans-32"/>
      <use transform="translate(189.941406 0.015625)" xlink:href="#DejaVuSans-107"/>
      <use transform="translate(247.851562 0.015625)" xlink:href="#DejaVuSans-72"/>
      <use transform="translate(323.046875 0.015625)" xlink:href="#DejaVuSans-122"/>
     </g>
    </g>
   </g>
   <g id="matplotlib.axis_2">
    <g id="ytick_1">
     <g id="line2d_47">
      <path clip-path="url(#p5e11e04f07)" d="M 62.54 317.32 
L 486.81 317.32 
" style="fill:none;stroke:#666666;stroke-linecap:square;stroke-width:0.8;"/>
     </g>
     <g id="line2d_48">
      <defs>
       <path d="M 0 0 
L -3.5 0 
" id="m6a9c27c0a5" style="stroke:#000000;stroke-width:0.8;"/>
      </defs>
      <g>
       <use style="stroke:#000000;stroke-width:0.8;" x="62.54" xlink:href="#m6a9c27c0a5" y="317.32"/>
      </g>
     </g>
     <g id="text_7">
      <!-- −0.6 -->
      <defs>
       <path d="M 10.59375 35.5 
L 73.1875 35.5 
L 73.1875 27.203125 
L 10.59375 27.203125 
z
" id="DejaVuSans-8722"/>
       <path d="M 10.6875 12.40625 
L 21 12.40625 
L 21 0 
L 10.6875 0 
z
" id="DejaVuSans-46"/>
       <path d="M 33.015625 40.375 
Q 26.375 40.375 22.484375 35.828125 
Q 18.609375 31.296875 18.609375 23.390625 
Q 18.609375 15.53125 22.484375 10.953125 
Q 26.375 6.390625 33.015625 6.390625 
Q 39.65625 6.390625 43.53125 10.953125 
Q 47.40625 15.53125 47.40625 23.390625 
Q 47.40625 31.296875 43.53125 35.828125 
Q 39.65625 40.375 33.015625 40.375 
z
M 52.59375 71.296875 
L 52.59375 62.3125 
Q 48.875 64.0625 45.09375 64.984375 
Q 41.3125 65.921875 37.59375 65.921875 
Q 27.828125 65.921875 22.671875 59.328125 
Q 17.53125 52.734375 16.796875 39.40625 
Q 19.671875 43.65625 24.015625 45.921875 
Q 28.375 48.1875 33.59375 48.1875 
Q 44.578125 48.1875 50.953125 41.515625 
Q 57.328125 34.859375 57.328125 23.390625 
Q 57.328125 12.15625 50.6875 5.359375 
Q 44.046875 -1.421875 33.015625 -1.421875 
Q 20.359375 -1.421875 13.671875 8.265625 
Q 6.984375 17.96875 6.984375 36.375 
Q 6.984375 53.65625 15.1875 63.9375 
Q 23.390625 74.21875 37.203125 74.21875 
Q 40.921875 74.21875 44.703125 73.484375 
Q 48.484375 72.75 52.59375 71.296875 
z
" id="DejaVuSans-54"/>
      </defs>
      <g transform="translate(31.257188 321.119219)scale(0.1 -0.1)">
       <use xlink:href="#DejaVuSans-8722"/>
       <use x="83.789062" xlink:href="#DejaVuSans-48"/>
       <use x="147.412109" xlink:href="#DejaVuSans-46"/>
       <use x="179.199219" xlink:href="#DejaVuSans-54"/>
      </g>
     </g>
    </g>
    <g id="ytick_2">
     <g id="line2d_49">
      <path clip-path="url(#p5e11e04f07)" d="M 62.54 266.893333 
L 486.81 266.893333 
" style="fill:none;stroke:#666666;stroke-linecap:square;stroke-width:0.8;"/>
     </g>
     <g id="line2d_50">
      <g>
       <use style="stroke:#000000;stroke-width:0.8;" x="62.54" xlink:href="#m6a9c27c0a5" y="266.893333"/>
      </g>
     </g>
     <g id="text_8">
      <!-- −0.4 -->
      <defs>
       <path d="M 37.796875 64.3125 
L 12.890625 25.390625 
L 37.796875 25.390625 
z
M 35.203125 72.90625 
L 47.609375 72.90625 
L 47.609375 25.390625 
L 58.015625 25.390625 
L 58.015625 17.1875 
L 47.609375 17.1875 
L 47.609375 0 
L 37.796875 0 
L 37.796875 17.1875 
L 4.890625 17.1875 
L 4.890625 26.703125 
z
" id="DejaVuSans-52"/>
      </defs>
      <g transform="translate(31.257188 270.692552)scale(0.1 -0.1)">
       <use xlink:href="#DejaVuSans-8722"/>
       <use x="83.789062" xlink:href="#DejaVuSans-48"/>
       <use x="147.412109" xlink:href="#DejaVuSans-46"/>
       <use x="179.199219" xlink:href="#DejaVuSans-52"/>
      </g>
     </g>
    </g>
    <g id="ytick_3">
     <g id="line2d_51">
      <path clip-path="url(#p5e11e04f07)" d="M 62.54 216.466667 
L 486.81 216.466667 
" style="fill:none;stroke:#666666;stroke-linecap:square;stroke-width:0.8;"/>
     </g>
     <g id="line2d_52">
      <g>
       <use style="stroke:#000000;stroke-width:0.8;" x="62.54" xlink:href="#m6a9c27c0a5" y="216.466667"/>
      </g>
     </g>
     <g id="text_9">
      <!-- −0.2 -->
      <g transform="translate(31.257188 220.265885)scale(0.1 -0.1)">
       <use xlink:href="#DejaVuSans-8722"/>
       <use x="83.789062" xlink:href="#DejaVuSans-48"/>
       <use x="147.412109" xlink:href="#DejaVuSans-46"/>
       <use x="179.199219" xlink:href="#DejaVuSans-50"/>
      </g>
     </g>
    </g>
    <g id="ytick_4">
     <g id="line2d_53">
      <path clip-path="url(#p5e11e04f07)" d="M 62.54 166.04 
L 486.81 166.04 
" style="fill:none;stroke:#666666;stroke-linecap:square;stroke-width:0.8;"/>
     </g>
     <g id="line2d_54">
      <g>
       <use style="stroke:#000000;stroke-width:0.8;" x="62.54" xlink:href="#m6a9c27c0a5" y="166.04"/>
      </g>
     </g>
     <g id="text_10">
      <!-- 0.0 -->
      <g transform="translate(39.636875 169.839219)scale(0.1 -0.1)">
       <use xlink:href="#DejaVuSans-48"/>
       <use x="63.623047" xlink:href="#DejaVuSans-46"/>
       <use x="95.410156" xlink:href="#DejaVuSans-48"/>
      </g>
     </g>
    </g>
    <g id="ytick_5">
     <g id="line2d_55">
      <path clip-path="url(#p5e11e04f07)" d="M 62.54 115.613333 
L 486.81 115.613333 
" style="fill:none;stroke:#666666;stroke-linecap:square;stroke-width:0.8;"/>
     </g>
     <g id="line2d_56">
      <g>
       <use style="stroke:#000000;stroke-width:0.8;" x="62.54" xlink:href="#m6a9c27c0a5" y="115.613333"/>
      </g>
     </g>
     <g id="text_11">
      <!-- 0.2 -->
      <g transform="translate(39.636875 119.412552)scale(0.1 -0.1)">
       <use xlink:href="#DejaVuSans-48"/>
       <use x="63.623047" xlink:href="#DejaVuSans-46"/>
       <use x="95.410156" xlink:href="#DejaVuSans-50"/>
      </g>
     </g>
    </g>
    <g id="ytick_6">
     <g id="line2d_57">
      <path clip-path="url(#p5e11e04f07)" d="M 62.54 65.186667 
L 486.81 65.186667 
" style="fill:none;stroke:#666666;stroke-linecap:square;stroke-width:0.8;"/>
     </g>
     <g id="line2d_58">
      <g>
       <use style="stroke:#000000;stroke-width:0.8;" x="62.54" xlink:href="#m6a9c27c0a5" y="65.186667"/>
      </g>
     </g>
     <g id="text_12">
      <!-- 0.4 -->
      <g transform="translate(39.636875 68.985885)scale(0.1 -0.1)">
       <use xlink:href="#DejaVuSans-48"/>
       <use x="63.623047" xlink:href="#DejaVuSans-46"/>
       <use x="95.410156" xlink:href="#DejaVuSans-52"/>
      </g>
     </g>
    </g>
    <g id="ytick_7">
     <g id="line2d_59">
      <path clip-path="url(#p5e11e04f07)" d="M 62.54 14.76 
L 486.81 14.76 
" style="fill:none;stroke:#666666;stroke-linecap:square;stroke-width:0.8;"/>
     </g>
     <g id="line2d_60">
      <g>
       <use style="stroke:#000000;stroke-width:0.8;" x="62.54" xlink:href="#m6a9c27c0a5" y="14.76"/>
      </g>
     </g>
     <g id="text_13">
      <!-- 0.6 -->
      <g transform="translate(39.636875 18.559219)scale(0.1 -0.1)">
       <use xlink:href="#DejaVuSans-48"/>
       <use x="63.623047" xlink:href="#DejaVuSans-46"/>
       <use x="95.410156" xlink:href="#DejaVuSans-54"/>
      </g>
     </g>
    </g>
    <g id="ytick_8">
     <g id="line2d_61">
      <path clip-path="url(#p5e11e04f07)" d="M 62.54 304.713333 
L 486.81 304.713333 
" style="fill:none;stroke:#bbbbbb;stroke-linecap:square;stroke-width:0.8;"/>
     </g>
     <g id="line2d_62">
      <defs>
       <path d="M 0 0 
L -2 0 
" id="m9fbe31570a" style="stroke:#000000;stroke-width:0.6;"/>
      </defs>
      <g>
       <use style="stroke:#000000;stroke-width:0.6;" x="62.54" xlink:href="#m9fbe31570a" y="304.713333"/>
      </g>
     </g>
    </g>
    <g id="ytick_9">
     <g id="line2d_63">
      <path clip-path="url(#p5e11e04f07)" d="M 62.54 292.106667 
L 486.81 292.106667 
" style="fill:none;stroke:#bbbbbb;stroke-linecap:square;stroke-width:0.8;"/>
     </g>
     <g id="line2d_64">
      <g>
       <use style="stroke:#000000;stroke-width:0.6;" x="62.54" xlink:href="#m9fbe31570a" y="292.106667"/>
      </g>
     </g>
    </g>
    <g id="ytick_10">
     <g id="line2d_65">
      <path clip-path="url(#p5e11e04f07)" d="M 62.54 279.5 
L 486.81 279.5 
" style="fill:none;stroke:#bbbbbb;stroke-linecap:square;stroke-width:0.8;"/>
     </g>
     <g id="line2d_66">
      <g>
       <use style="stroke:#000000;stroke-width:0.6;" x="62.54" xlink:href="#m9fbe31570a" y="279.5"/>
      </g>
     </g>
    </g>
    <g id="ytick_11">
     <g id="line2d_67">
      <path clip-path="url(#p5e11e04f07)" d="M 62.54 254.286667 
L 486.81 254.286667 
" style="fill:none;stroke:#bbbbbb;stroke-linecap:square;stroke-width:0.8;"/>
     </g>
     <g id="line2d_68">
      <g>
       <use style="stroke:#000000;stroke-width:0.6;" x="62.54" xlink:href="#m9fbe31570a" y="254.286667"/>
      </g>
     </g>
    </g>
    <g id="ytick_12">
     <g id="line2d_69">
      <path clip-path="url(#p5e11e04f07)" d="M 62.54 241.68 
L 486.81 241.68 
" style="fill:none;stroke:#bbbbbb;stroke-linecap:square;stroke-width:0.8;"/>
     </g>
     <g id="line2d_70">
      <g>
       <use style="stroke:#000000;stroke-width:0.6;" x="62.54" xlink:href="#m9fbe31570a" y="241.68"/>
      </g>
     </g>
    </g>
    <g id="ytick_13">
     <g id="line2d_71">
      <path clip-path="url(#p5e11e04f07)" d="M 62.54 229.073333 
L 486.81 229.073333 
" style="fill:none;stroke:#bbbbbb;stroke-linecap:square;stroke-width:0.8;"/>
     </g>
     <g id="line2d_72">
      <g>
       <use style="stroke:#000000;stroke-width:0.6;" x="62.54" xlink:href="#m9fbe31570a" y="229.073333"/>
      </g>
     </g>
    </g>
    <g id="ytick_14">
     <g id="line2d_73">
      <path clip-path="url(#p5e11e04f07)" d="M 62.54 203.86 
L 486.81 203.86 
" style="fill:none;stroke:#bbbbbb;stroke-linecap:square;stroke-width:0.8;"/>
     </g>
     <g id="line2d_74">
      <g>
       <use style="stroke:#000000;stroke-width:0.6;" x="62.54" xlink:href="#m9fbe31570a" y="203.86"/>
      </g>
     </g>
    </g>
    <g id="ytick_15">
     <g id="line2d_75">
      <path clip-path="url(#p5e11e04f07)" d="M 62.54 191.253333 
L 486.81 191.253333 
" style="fill:none;stroke:#bbbbbb;stroke-linecap:square;stroke-width:0.8;"/>
     </g>
     <g id="line2d_76">
      <g>
       <use style="stroke:#000000;stroke-width:0.6;" x="62.54" xlink:href="#m9fbe31570a" y="191.253333"/>
      </g>
     </g>
    </g>
    <g id="ytick_16">
     <g id="line2d_77">
      <path clip-path="url(#p5e11e04f07)" d="M 62.54 178.646667 
L 486.81 178.646667 
" style="fill:none;stroke:#bbbbbb;stroke-linecap:square;stroke-width:0.8;"/>
     </g>
     <g id="line2d_78">
      <g>
       <use style="stroke:#000000;stroke-width:0.6;" x="62.54" xlink:href="#m9fbe31570a" y="178.646667"/>
      </g>
     </g>
    </g>
    <g id="ytick_17">
     <g id="line2d_79">
      <path clip-path="url(#p5e11e04f07)" d="M 62.54 153.433333 
L 486.81 153.433333 
" style="fill:none;stroke:#bbbbbb;stroke-linecap:square;stroke-width:0.8;"/>
     </g>
     <g id="line2d_80">
      <g>
       <use style="stroke:#000000;stroke-width:0.6;" x="62.54" xlink:href="#m9fbe31570a" y="153.433333"/>
      </g>
     </g>
    </g>
    <g id="ytick_18">
     <g id="line2d_81">
      <path clip-path="url(#p5e11e04f07)" d="M 62.54 140.826667 
L 486.81 140.826667 
" style="fill:none;stroke:#bbbbbb;stroke-linecap:square;stroke-width:0.8;"/>
     </g>
     <g id="line2d_82">
      <g>
       <use style="stroke:#000000;stroke-width:0.6;" x="62.54" xlink:href="#m9fbe31570a" y="140.826667"/>
      </g>
     </g>
    </g>
    <g id="ytick_19">
     <g id="line2d_83">
      <path clip-path="url(#p5e11e04f07)" d="M 62.54 128.22 
L 486.81 128.22 
" style="fill:none;stroke:#bbbbbb;stroke-linecap:square;stroke-width:0.8;"/>
     </g>
     <g id="line2d_84">
      <g>
       <use style="stroke:#000000;stroke-width:0.6;" x="62.54" xlink:href="#m9fbe31570a" y="128.22"/>
      </g>
     </g>
    </g>
    <g id="ytick_20">
     <g id="line2d_85">
      <path clip-path="url(#p5e11e04f07)" d="M 62.54 103.006667 
L 486.81 103.006667 
" style="fill:none;stroke:#bbbbbb;stroke-linecap:square;stroke-width:0.8;"/>
     </g>
     <g id="line2d_86">
      <g>
       <use style="stroke:#000000;stroke-width:0.6;" x="62.54" xlink:href="#m9fbe31570a" y="103.006667"/>
      </g>
     </g>
    </g>
    <g id="ytick_21">
     <g id="line2d_87">
      <path clip-path="url(#p5e11e04f07)" d="M 62.54 90.4 
L 486.81 90.4 
" style="fill:none;stroke:#bbbbbb;stroke-linecap:square;stroke-width:0.8;"/>
     </g>
     <g id="line2d_88">
      <g>
       <use style="stroke:#000000;stroke-width:0.6;" x="62.54" xlink:href="#m9fbe31570a" y="90.4"/>
      </g>
     </g>
    </g>
    <g id="ytick_22">
     <g id="line2d_89">
      <path clip-path="url(#p5e11e04f07)" d="M 62.54 77.793333 
L 486.81 77.793333 
" style="fill:none;stroke:#bbbbbb;stroke-linecap:square;stroke-width:0.8;"/>
     </g>
     <g id="line2d_90">
      <g>
       <use style="stroke:#000000;stroke-width:0.6;" x="62.54" xlink:href="#m9fbe31570a" y="77.793333"/>
      </g>
     </g>
    </g>
    <g id="ytick_23">
     <g id="line2d_91">
      <path clip-path="url(#p5e11e04f07)" d="M 62.54 52.58 
L 486.81 52.58 
" style="fill:none;stroke:#bbbbbb;stroke-linecap:square;stroke-width:0.8;"/>
     </g>
     <g id="line2d_92">
      <g>
       <use style="stroke:#000000;stroke-width:0.6;" x="62.54" xlink:href="#m9fbe31570a" y="52.58"/>
      </g>
     </g>
    </g>
    <g id="ytick_24">
     <g id="line2d_93">
      <path clip-path="url(#p5e11e04f07)" d="M 62.54 39.973333 
L 486.81 39.973333 
" style="fill:none;stroke:#bbbbbb;stroke-linecap:square;stroke-width:0.8;"/>
     </g>
     <g id="line2d_94">
      <g>
       <use style="stroke:#000000;stroke-width:0.6;" x="62.54" xlink:href="#m9fbe31570a" y="39.973333"/>
      </g>
     </g>
    </g>
    <g id="ytick_25">
     <g id="line2d_95">
      <path clip-path="url(#p5e11e04f07)" d="M 62.54 27.366667 
L 486.81 27.366667 
" style="fill:none;stroke:#bbbbbb;stroke-linecap:square;stroke-width:0.8;"/>
     </g>
     <g id="line2d_96">
      <g>
       <use style="stroke:#000000;stroke-width:0.6;" x="62.54" xlink:href="#m9fbe31570a" y="27.366667"/>
      </g>
     </g>
    </g>
    <g id="text_14">
     <!-- in $j\sqrt{\mathrm{W}}$ -->
     <defs>
      <path d="M 14.5 54.6875 
L 23.484375 54.6875 
L 12.703125 -0.984375 
L 12.640625 -1.21875 
Q 10.84375 -10.546875 8.5 -14.015625 
Q 6.296875 -17.28125 2.0625 -19.03125 
Q -2.15625 -20.796875 -7.90625 -20.796875 
L -11.28125 -20.796875 
L -9.8125 -13.1875 
L -7.515625 -13.1875 
Q -2.25 -13.1875 -0.015625 -10.984375 
Q 2.203125 -8.796875 3.71875 -0.984375 
z
M 18.703125 75.984375 
L 27.6875 75.984375 
L 25.484375 64.59375 
L 16.5 64.59375 
z
" id="DejaVuSans-Oblique-106"/>
      <path d="M 108.90625 155.203125 
L 52.703125 -29.5 
L 48.5 -29.5 
L 25.40625 45.59375 
Q 24.296875 49.203125 22.890625 50.796875 
Q 21.5 52.40625 19.203125 52.40625 
Q 15.796875 52.40625 12.40625 49.703125 
L 11.203125 51.703125 
L 27.59375 64.296875 
L 30.09375 64.296875 
L 52.796875 -9.40625 
L 53.203125 -9.40625 
L 103.203125 155.203125 
z
" id="STIXSizeOneSym-Regular-8730"/>
      <path d="M 3.328125 72.90625 
L 13.28125 72.90625 
L 28.609375 11.28125 
L 43.890625 72.90625 
L 54.984375 72.90625 
L 70.3125 11.28125 
L 85.59375 72.90625 
L 95.609375 72.90625 
L 77.296875 0 
L 64.890625 0 
L 49.515625 63.28125 
L 33.984375 0 
L 21.578125 0 
z
" id="DejaVuSans-87"/>
     </defs>
     <g transform="translate(25.157188 182.79)rotate(-90)scale(0.1 -0.1)">
      <use transform="translate(0 0.84375)" xlink:href="#DejaVuSans-105"/>
      <use transform="translate(27.783203 0.84375)" xlink:href="#DejaVuSans-110"/>
      <use transform="translate(91.162109 0.84375)" xlink:href="#DejaVuSans-32"/>
      <use transform="translate(122.949219 0.84375)" xlink:href="#DejaVuSans-Oblique-106"/>
      <use transform="translate(150.732422 17.484375)scale(0.563912)" xlink:href="#STIXSizeOneSym-Regular-8730"/>
      <use transform="translate(222.837296 0.84375)" xlink:href="#DejaVuSans-87"/>
      <path d="M 210.337296 98.5 
L 210.337296 104.75 
L 334.214249 104.75 
L 334.214249 98.5 
L 210.337296 98.5 
z
"/>
     </g>
    </g>
   </g>
   <g id="line2d_97">
    <path clip-path="url(#p5e11e04f07)" style="fill:none;stroke:#114da1;stroke-linecap:square;stroke-width:1.5;"/>
   </g>
   <g id="line2d_98">
    <path clip-path="url(#p5e11e04f07)" style="fill:none;stroke:#b33333;stroke-linecap:square;stroke-width:1.5;"/>
   </g>
   <g id="patch_3">
    <path d="M 62.54 317.32 
L 62.54 14.76 
" style="fill:none;stroke:#000000;stroke-linecap:square;stroke-linejoin:miter;stroke-width:0.8;"/>
   </g>
   <g id="patch_4">
    <path d="M 486.81 317.32 
L 486.81 14.76 
" style="fill:none;stroke:#000000;stroke-linecap:square;stroke-linejoin:miter;stroke-width:0.8;"/>
   </g>
   <g id="patch_5">
    <path d="M 62.54 317.32 
L 486.81 317.32 
" style="fill:none;stroke:#000000;stroke-linecap:square;stroke-linejoin:miter;stroke-width:0.8;"/>
   </g>
   <g id="patch_6">
    <path d="M 62.54 14.76 
L 486.81 14.76 
" style="fill:none;stroke:#000000;stroke-linecap:square;stroke-linejoin:miter;stroke-width:0.8;"/>
   </g>
   <g id="legend_1">
    <g id="patch_7">
     <path d="M 425.71 52.11625 
L 479.81 52.11625 
Q 481.81 52.11625 481.81 50.11625 
L 481.81 21.76 
Q 481.81 19.76 479.81 19.76 
L 425.71 19.76 
Q 423.71 19.76 423.71 21.76 
L 423.71 50.11625 
Q 423.71 52.11625 425.71 52.11625 
z
" style="fill:#ffffff;opacity:0.8;stroke:#cccccc;stroke-linejoin:miter;"/>
    </g>
    <g id="line2d_99">
     <path d="M 427.71 27.858437 
L 447.71 27.858437 
" style="fill:none;stroke:#114da1;stroke-linecap:square;stroke-width:1.5;"/>
    </g>
    <g id="line2d_100"/>
    <g id="text_15">
     <!-- $X(f)$ -->
     <defs>
      <path d="M 13.71875 72.90625 
L 23.6875 72.90625 
L 36.1875 46.578125 
L 58.796875 72.90625 
L 70.3125 72.90625 
L 40.28125 38.09375 
L 58.40625 0 
L 48.484375 0 
L 33.796875 30.71875 
L 7.171875 0 
L -4.296875 0 
L 29.78125 39.203125 
z
" id="DejaVuSans-Oblique-88"/>
      <path d="M 31 75.875 
Q 24.46875 64.65625 21.28125 53.65625 
Q 18.109375 42.671875 18.109375 31.390625 
Q 18.109375 20.125 21.3125 9.0625 
Q 24.515625 -2 31 -13.1875 
L 23.1875 -13.1875 
Q 15.875 -1.703125 12.234375 9.375 
Q 8.59375 20.453125 8.59375 31.390625 
Q 8.59375 42.28125 12.203125 53.3125 
Q 15.828125 64.359375 23.1875 75.875 
z
" id="DejaVuSans-40"/>
      <path d="M 8.015625 75.875 
L 15.828125 75.875 
Q 23.140625 64.359375 26.78125 53.3125 
Q 30.421875 42.28125 30.421875 31.390625 
Q 30.421875 20.453125 26.78125 9.375 
Q 23.140625 -1.703125 15.828125 -13.1875 
L 8.015625 -13.1875 
Q 14.5 -2 17.703125 9.0625 
Q 20.90625 20.125 20.90625 31.390625 
Q 20.90625 42.671875 17.703125 53.65625 
Q 14.5 64.65625 8.015625 75.875 
z
" id="DejaVuSans-41"/>
     </defs>
     <g transform="translate(455.71 31.358437)scale(0.1 -0.1)">
      <use transform="translate(0 0.015625)" xlink:href="#DejaVuSans-Oblique-88"/>
      <use transform="translate(68.505859 0.015625)" xlink:href="#DejaVuSans-40"/>
      <use transform="translate(107.519531 0.015625)" xlink:href="#DejaVuSans-Oblique-102"/>
      <use transform="translate(142.724609 0.015625)" xlink:href="#DejaVuSans-41"/>
     </g>
    </g>
    <g id="line2d_101">
     <path d="M 427.71 42.536563 
L 447.71 42.536563 
" style="fill:none;stroke:#b33333;stroke-linecap:square;stroke-width:1.5;"/>
    </g>
    <g id="line2d_102"/>
    <g id="text_16">
     <!-- $X_\mathrm{s}(f)$ -->
     <defs>
      <path d="M 44.28125 53.078125 
L 44.28125 44.578125 
Q 40.484375 46.53125 36.375 47.5 
Q 32.28125 48.484375 27.875 48.484375 
Q 21.1875 48.484375 17.84375 46.4375 
Q 14.5 44.390625 14.5 40.28125 
Q 14.5 37.15625 16.890625 35.375 
Q 19.28125 33.59375 26.515625 31.984375 
L 29.59375 31.296875 
Q 39.15625 29.25 43.1875 25.515625 
Q 47.21875 21.78125 47.21875 15.09375 
Q 47.21875 7.46875 41.1875 3.015625 
Q 35.15625 -1.421875 24.609375 -1.421875 
Q 20.21875 -1.421875 15.453125 -0.5625 
Q 10.6875 0.296875 5.421875 2 
L 5.421875 11.28125 
Q 10.40625 8.6875 15.234375 7.390625 
Q 20.0625 6.109375 24.8125 6.109375 
Q 31.15625 6.109375 34.5625 8.28125 
Q 37.984375 10.453125 37.984375 14.40625 
Q 37.984375 18.0625 35.515625 20.015625 
Q 33.0625 21.96875 24.703125 23.78125 
L 21.578125 24.515625 
Q 13.234375 26.265625 9.515625 29.90625 
Q 5.8125 33.546875 5.8125 39.890625 
Q 5.8125 47.609375 11.28125 51.796875 
Q 16.75 56 26.8125 56 
Q 31.78125 56 36.171875 55.265625 
Q 40.578125 54.546875 44.28125 53.078125 
z
" id="DejaVuSans-115"/>
     </defs>
     <g transform="translate(455.71 46.036563)scale(0.1 -0.1)">
      <use transform="translate(0 0.015625)" xlink:href="#DejaVuSans-Oblique-88"/>
      <use transform="translate(68.505859 -16.390625)scale(0.7)" xlink:href="#DejaVuSans-115"/>
      <use transform="translate(107.709961 0.015625)" xlink:href="#DejaVuSans-40"/>
      <use transform="translate(146.723633 0.015625)" xlink:href="#DejaVuSans-Oblique-102"/>
      <use transform="translate(181.928711 0.015625)" xlink:href="#DejaVuSans-41"/>
     </g>
    </g>
   </g>
   <g id="patch_8">
    <path clip-path="url(#p5e11e04f07)" d="M -177.264783 103.006667 
L -173.022083 118.134667 
L -177.255559 118.134667 
L -177.255559 166.04 
L -177.274006 166.04 
L -177.274006 118.134667 
L -181.507483 118.134667 
z
" style="fill:#b33333;stroke:#b33333;stroke-linejoin:miter;"/>
   </g>
   <g id="patch_9">
    <path clip-path="url(#p5e11e04f07)" d="M -158.818261 39.973333 
L -154.575561 55.101333 
L -158.809038 55.101333 
L -158.809038 166.04 
L -158.827484 166.04 
L -158.827484 55.101333 
L -163.060961 55.101333 
z
" style="fill:#b33333;stroke:#b33333;stroke-linejoin:miter;"/>
   </g>
   <g id="patch_10">
    <path clip-path="url(#p5e11e04f07)" d="M -121.925217 292.106667 
L -126.167917 276.978667 
L -121.934441 276.978667 
L -121.934441 166.04 
L -121.915994 166.04 
L -121.915994 276.978667 
L -117.682517 276.978667 
z
" style="fill:#b33333;stroke:#b33333;stroke-linejoin:miter;"/>
   </g>
   <g id="patch_11">
    <path clip-path="url(#p5e11e04f07)" d="M -103.478696 229.073333 
L -107.721396 213.945333 
L -103.487919 213.945333 
L -103.487919 166.04 
L -103.469472 166.04 
L -103.469472 213.945333 
L -99.235996 213.945333 
z
" style="fill:#b33333;stroke:#b33333;stroke-linejoin:miter;"/>
   </g>
   <g id="patch_12">
    <path clip-path="url(#p5e11e04f07)" d="M -112.701957 103.006667 
L -108.459257 118.134667 
L -112.692733 118.134667 
L -112.692733 166.04 
L -112.71118 166.04 
L -112.71118 118.134667 
L -116.944657 118.134667 
z
" style="fill:#b33333;stroke:#b33333;stroke-linejoin:miter;"/>
   </g>
   <g id="patch_13">
    <path clip-path="url(#p5e11e04f07)" d="M -94.255435 39.973333 
L -90.012735 55.101333 
L -94.246212 55.101333 
L -94.246212 166.04 
L -94.264658 166.04 
L -94.264658 55.101333 
L -98.498135 55.101333 
z
" style="fill:#b33333;stroke:#b33333;stroke-linejoin:miter;"/>
   </g>
   <g id="patch_14">
    <path clip-path="url(#p5e11e04f07)" d="M -57.362391 292.106667 
L -61.605091 276.978667 
L -57.371615 276.978667 
L -57.371615 166.04 
L -57.353168 166.04 
L -57.353168 276.978667 
L -53.119691 276.978667 
z
" style="fill:#b33333;stroke:#b33333;stroke-linejoin:miter;"/>
   </g>
   <g id="patch_15">
    <path clip-path="url(#p5e11e04f07)" d="M -38.91587 229.073333 
L -43.15857 213.945333 
L -38.925093 213.945333 
L -38.925093 166.04 
L -38.906646 166.04 
L -38.906646 213.945333 
L -34.67317 213.945333 
z
" style="fill:#b33333;stroke:#b33333;stroke-linejoin:miter;"/>
   </g>
   <g id="patch_16">
    <path clip-path="url(#p5e11e04f07)" d="M -48.13913 103.006667 
L -43.89643 118.134667 
L -48.129907 118.134667 
L -48.129907 166.04 
L -48.148354 166.04 
L -48.148354 118.134667 
L -52.38183 118.134667 
z
" style="fill:#b33333;stroke:#b33333;stroke-linejoin:miter;"/>
   </g>
   <g id="patch_17">
    <path clip-path="url(#p5e11e04f07)" d="M -29.692609 39.973333 
L -25.449909 55.101333 
L -29.683385 55.101333 
L -29.683385 166.04 
L -29.701832 166.04 
L -29.701832 55.101333 
L -33.935309 55.101333 
z
" style="fill:#b33333;stroke:#b33333;stroke-linejoin:miter;"/>
   </g>
   <g id="patch_18">
    <path clip-path="url(#p5e11e04f07)" d="M 7.200435 292.106667 
L 2.957735 276.978667 
L 7.191212 276.978667 
L 7.191212 166.04 
L 7.209658 166.04 
L 7.209658 276.978667 
L 11.443135 276.978667 
z
" style="fill:#b33333;stroke:#b33333;stroke-linejoin:miter;"/>
   </g>
   <g id="patch_19">
    <path clip-path="url(#p5e11e04f07)" d="M 25.646957 229.073333 
L 21.404257 213.945333 
L 25.637733 213.945333 
L 25.637733 166.04 
L 25.65618 166.04 
L 25.65618 213.945333 
L 29.889657 213.945333 
z
" style="fill:#b33333;stroke:#b33333;stroke-linejoin:miter;"/>
   </g>
   <g id="patch_20">
    <path clip-path="url(#p5e11e04f07)" d="M 16.423696 103.006667 
L 20.666396 118.134667 
L 16.432919 118.134667 
L 16.432919 166.04 
L 16.414472 166.04 
L 16.414472 118.134667 
L 12.180996 118.134667 
z
" style="fill:#b33333;stroke:#b33333;stroke-linejoin:miter;"/>
   </g>
   <g id="patch_21">
    <path clip-path="url(#p5e11e04f07)" d="M 34.870217 39.973333 
L 39.112917 55.101333 
L 34.879441 55.101333 
L 34.879441 166.04 
L 34.860994 166.04 
L 34.860994 55.101333 
L 30.627517 55.101333 
z
" style="fill:#b33333;stroke:#b33333;stroke-linejoin:miter;"/>
   </g>
   <g id="patch_22">
    <path clip-path="url(#p5e11e04f07)" d="M 71.763261 292.106667 
L 67.520561 276.978667 
L 71.754038 276.978667 
L 71.754038 166.04 
L 71.772484 166.04 
L 71.772484 276.978667 
L 76.005961 276.978667 
z
" style="fill:#b33333;stroke:#b33333;stroke-linejoin:miter;"/>
   </g>
   <g id="patch_23">
    <path clip-path="url(#p5e11e04f07)" d="M 90.209783 229.073333 
L 85.967083 213.945333 
L 90.200559 213.945333 
L 90.200559 166.04 
L 90.219006 166.04 
L 90.219006 213.945333 
L 94.452483 213.945333 
z
" style="fill:#b33333;stroke:#b33333;stroke-linejoin:miter;"/>
   </g>
   <g id="patch_24">
    <path clip-path="url(#p5e11e04f07)" d="M 80.986522 103.006667 
L 85.229222 118.134667 
L 80.995745 118.134667 
L 80.995745 166.04 
L 80.977298 166.04 
L 80.977298 118.134667 
L 76.743822 118.134667 
z
" style="fill:#b33333;stroke:#b33333;stroke-linejoin:miter;"/>
   </g>
   <g id="patch_25">
    <path clip-path="url(#p5e11e04f07)" d="M 99.433043 39.973333 
L 103.675743 55.101333 
L 99.442267 55.101333 
L 99.442267 166.04 
L 99.42382 166.04 
L 99.42382 55.101333 
L 95.190343 55.101333 
z
" style="fill:#b33333;stroke:#b33333;stroke-linejoin:miter;"/>
   </g>
   <g id="patch_26">
    <path clip-path="url(#p5e11e04f07)" d="M 136.326087 292.106667 
L 132.083387 276.978667 
L 136.316864 276.978667 
L 136.316864 166.04 
L 136.33531 166.04 
L 136.33531 276.978667 
L 140.568787 276.978667 
z
" style="fill:#b33333;stroke:#b33333;stroke-linejoin:miter;"/>
   </g>
   <g id="patch_27">
    <path clip-path="url(#p5e11e04f07)" d="M 154.772609 229.073333 
L 150.529909 213.945333 
L 154.763385 213.945333 
L 154.763385 166.04 
L 154.781832 166.04 
L 154.781832 213.945333 
L 159.015309 213.945333 
z
" style="fill:#b33333;stroke:#b33333;stroke-linejoin:miter;"/>
   </g>
   <g id="patch_28">
    <path clip-path="url(#p5e11e04f07)" d="M 145.549348 103.006667 
L 149.792048 118.134667 
L 145.558571 118.134667 
L 145.558571 166.04 
L 145.540125 166.04 
L 145.540125 118.134667 
L 141.306648 118.134667 
z
" style="fill:#b33333;stroke:#b33333;stroke-linejoin:miter;"/>
   </g>
   <g id="patch_29">
    <path clip-path="url(#p5e11e04f07)" d="M 163.99587 39.973333 
L 168.23857 55.101333 
L 164.005093 55.101333 
L 164.005093 166.04 
L 163.986646 166.04 
L 163.986646 55.101333 
L 159.75317 55.101333 
z
" style="fill:#b33333;stroke:#b33333;stroke-linejoin:miter;"/>
   </g>
   <g id="patch_30">
    <path clip-path="url(#p5e11e04f07)" d="M 200.888913 292.106667 
L 196.646213 276.978667 
L 200.87969 276.978667 
L 200.87969 166.04 
L 200.898136 166.04 
L 200.898136 276.978667 
L 205.131613 276.978667 
z
" style="fill:#b33333;stroke:#b33333;stroke-linejoin:miter;"/>
   </g>
   <g id="patch_31">
    <path clip-path="url(#p5e11e04f07)" d="M 219.335435 229.073333 
L 215.092735 213.945333 
L 219.326212 213.945333 
L 219.326212 166.04 
L 219.344658 166.04 
L 219.344658 213.945333 
L 223.578135 213.945333 
z
" style="fill:#b33333;stroke:#b33333;stroke-linejoin:miter;"/>
   </g>
   <g id="patch_32">
    <path clip-path="url(#p5e11e04f07)" d="M 210.112174 103.006667 
L 214.354874 118.134667 
L 210.121397 118.134667 
L 210.121397 166.04 
L 210.102951 166.04 
L 210.102951 118.134667 
L 205.869474 118.134667 
z
" style="fill:#b33333;stroke:#b33333;stroke-linejoin:miter;"/>
   </g>
   <g id="patch_33">
    <path clip-path="url(#p5e11e04f07)" d="M 228.558696 39.973333 
L 232.801396 55.101333 
L 228.567919 55.101333 
L 228.567919 166.04 
L 228.549472 166.04 
L 228.549472 55.101333 
L 224.315996 55.101333 
z
" style="fill:#b33333;stroke:#b33333;stroke-linejoin:miter;"/>
   </g>
   <g id="patch_34">
    <path clip-path="url(#p5e11e04f07)" d="M 265.451739 292.106667 
L 261.209039 276.978667 
L 265.442516 276.978667 
L 265.442516 166.04 
L 265.460962 166.04 
L 265.460962 276.978667 
L 269.694439 276.978667 
z
" style="fill:#b33333;stroke:#b33333;stroke-linejoin:miter;"/>
   </g>
   <g id="patch_35">
    <path clip-path="url(#p5e11e04f07)" d="M 283.898261 229.073333 
L 279.655561 213.945333 
L 283.889038 213.945333 
L 283.889038 166.04 
L 283.907484 166.04 
L 283.907484 213.945333 
L 288.140961 213.945333 
z
" style="fill:#b33333;stroke:#b33333;stroke-linejoin:miter;"/>
   </g>
   <g id="patch_36">
    <path clip-path="url(#p5e11e04f07)" d="M 274.675 103.006667 
L 278.9177 118.134667 
L 274.684223 118.134667 
L 274.684223 166.04 
L 274.665777 166.04 
L 274.665777 118.134667 
L 270.4323 118.134667 
z
" style="fill:#b33333;stroke:#b33333;stroke-linejoin:miter;"/>
   </g>
   <g id="patch_37">
    <path clip-path="url(#p5e11e04f07)" d="M 293.121522 39.973333 
L 297.364222 55.101333 
L 293.130745 55.101333 
L 293.130745 166.04 
L 293.112298 166.04 
L 293.112298 55.101333 
L 288.878822 55.101333 
z
" style="fill:#b33333;stroke:#b33333;stroke-linejoin:miter;"/>
   </g>
   <g id="patch_38">
    <path clip-path="url(#p5e11e04f07)" d="M 330.014565 292.106667 
L 325.771865 276.978667 
L 330.005342 276.978667 
L 330.005342 166.04 
L 330.023788 166.04 
L 330.023788 276.978667 
L 334.257265 276.978667 
z
" style="fill:#b33333;stroke:#b33333;stroke-linejoin:miter;"/>
   </g>
   <g id="patch_39">
    <path clip-path="url(#p5e11e04f07)" d="M 348.461087 229.073333 
L 344.218387 213.945333 
L 348.451864 213.945333 
L 348.451864 166.04 
L 348.47031 166.04 
L 348.47031 213.945333 
L 352.703787 213.945333 
z
" style="fill:#b33333;stroke:#b33333;stroke-linejoin:miter;"/>
   </g>
   <g id="patch_40">
    <path clip-path="url(#p5e11e04f07)" d="M 339.237826 103.006667 
L 343.480526 118.134667 
L 339.247049 118.134667 
L 339.247049 166.04 
L 339.228603 166.04 
L 339.228603 118.134667 
L 334.995126 118.134667 
z
" style="fill:#b33333;stroke:#b33333;stroke-linejoin:miter;"/>
   </g>
   <g id="patch_41">
    <path clip-path="url(#p5e11e04f07)" d="M 357.684348 39.973333 
L 361.927048 55.101333 
L 357.693571 55.101333 
L 357.693571 166.04 
L 357.675125 166.04 
L 357.675125 55.101333 
L 353.441648 55.101333 
z
" style="fill:#b33333;stroke:#b33333;stroke-linejoin:miter;"/>
   </g>
   <g id="patch_42">
    <path clip-path="url(#p5e11e04f07)" d="M 394.577391 292.106667 
L 390.334691 276.978667 
L 394.568168 276.978667 
L 394.568168 166.04 
L 394.586615 166.04 
L 394.586615 276.978667 
L 398.820091 276.978667 
z
" style="fill:#b33333;stroke:#b33333;stroke-linejoin:miter;"/>
   </g>
   <g id="patch_43">
    <path clip-path="url(#p5e11e04f07)" d="M 413.023913 229.073333 
L 408.781213 213.945333 
L 413.01469 213.945333 
L 413.01469 166.04 
L 413.033136 166.04 
L 413.033136 213.945333 
L 417.266613 213.945333 
z
" style="fill:#b33333;stroke:#b33333;stroke-linejoin:miter;"/>
   </g>
   <g id="patch_44">
    <path clip-path="url(#p5e11e04f07)" d="M 403.800652 103.006667 
L 408.043352 118.134667 
L 403.809875 118.134667 
L 403.809875 166.04 
L 403.791429 166.04 
L 403.791429 118.134667 
L 399.557952 118.134667 
z
" style="fill:#b33333;stroke:#b33333;stroke-linejoin:miter;"/>
   </g>
   <g id="patch_45">
    <path clip-path="url(#p5e11e04f07)" d="M 422.247174 39.973333 
L 426.489874 55.101333 
L 422.256397 55.101333 
L 422.256397 166.04 
L 422.237951 166.04 
L 422.237951 55.101333 
L 418.004474 55.101333 
z
" style="fill:#b33333;stroke:#b33333;stroke-linejoin:miter;"/>
   </g>
   <g id="patch_46">
    <path clip-path="url(#p5e11e04f07)" d="M 459.140217 292.106667 
L 454.897517 276.978667 
L 459.130994 276.978667 
L 459.130994 166.04 
L 459.149441 166.04 
L 459.149441 276.978667 
L 463.382917 276.978667 
z
" style="fill:#b33333;stroke:#b33333;stroke-linejoin:miter;"/>
   </g>
   <g id="patch_47">
    <path clip-path="url(#p5e11e04f07)" d="M 477.586739 229.073333 
L 473.344039 213.945333 
L 477.577516 213.945333 
L 477.577516 166.04 
L 477.595962 166.04 
L 477.595962 213.945333 
L 481.829439 213.945333 
z
" style="fill:#b33333;stroke:#b33333;stroke-linejoin:miter;"/>
   </g>
   <g id="patch_48">
    <path clip-path="url(#p5e11e04f07)" d="M 468.363478 103.006667 
L 472.606178 118.134667 
L 468.372702 118.134667 
L 468.372702 166.04 
L 468.354255 166.04 
L 468.354255 118.134667 
L 464.120778 118.134667 
z
" style="fill:#b33333;stroke:#b33333;stroke-linejoin:miter;"/>
   </g>
   <g id="patch_49">
    <path clip-path="url(#p5e11e04f07)" d="M 486.81 39.973333 
L 491.0527 55.101333 
L 486.819223 55.101333 
L 486.819223 166.04 
L 486.800777 166.04 
L 486.800777 55.101333 
L 482.5673 55.101333 
z
" style="fill:#b33333;stroke:#b33333;stroke-linejoin:miter;"/>
   </g>
   <g id="patch_50">
    <path clip-path="url(#p5e11e04f07)" d="M 523.703043 292.106667 
L 519.460343 276.978667 
L 523.69382 276.978667 
L 523.69382 166.04 
L 523.712267 166.04 
L 523.712267 276.978667 
L 527.945743 276.978667 
z
" style="fill:#b33333;stroke:#b33333;stroke-linejoin:miter;"/>
   </g>
   <g id="patch_51">
    <path clip-path="url(#p5e11e04f07)" d="M 542.149565 229.073333 
L 537.906865 213.945333 
L 542.140342 213.945333 
L 542.140342 166.04 
L 542.158788 166.04 
L 542.158788 213.945333 
L 546.392265 213.945333 
z
" style="fill:#b33333;stroke:#b33333;stroke-linejoin:miter;"/>
   </g>
   <g id="patch_52">
    <path clip-path="url(#p5e11e04f07)" d="M 532.926304 103.006667 
L 537.169004 118.134667 
L 532.935528 118.134667 
L 532.935528 166.04 
L 532.917081 166.04 
L 532.917081 118.134667 
L 528.683604 118.134667 
z
" style="fill:#b33333;stroke:#b33333;stroke-linejoin:miter;"/>
   </g>
   <g id="patch_53">
    <path clip-path="url(#p5e11e04f07)" d="M 551.372826 39.973333 
L 555.615526 55.101333 
L 551.382049 55.101333 
L 551.382049 166.04 
L 551.363603 166.04 
L 551.363603 55.101333 
L 547.130126 55.101333 
z
" style="fill:#b33333;stroke:#b33333;stroke-linejoin:miter;"/>
   </g>
   <g id="patch_54">
    <path clip-path="url(#p5e11e04f07)" d="M 588.26587 292.106667 
L 584.02317 276.978667 
L 588.256646 276.978667 
L 588.256646 166.04 
L 588.275093 166.04 
L 588.275093 276.978667 
L 592.50857 276.978667 
z
" style="fill:#b33333;stroke:#b33333;stroke-linejoin:miter;"/>
   </g>
   <g id="patch_55">
    <path clip-path="url(#p5e11e04f07)" d="M 606.712391 229.073333 
L 602.469691 213.945333 
L 606.703168 213.945333 
L 606.703168 166.04 
L 606.721615 166.04 
L 606.721615 213.945333 
L 610.955091 213.945333 
z
" style="fill:#b33333;stroke:#b33333;stroke-linejoin:miter;"/>
   </g>
   <g id="patch_56">
    <path clip-path="url(#p5e11e04f07)" d="M 597.48913 103.006667 
L 601.73183 118.134667 
L 597.498354 118.134667 
L 597.498354 166.04 
L 597.479907 166.04 
L 597.479907 118.134667 
L 593.24643 118.134667 
z
" style="fill:#b33333;stroke:#b33333;stroke-linejoin:miter;"/>
   </g>
   <g id="patch_57">
    <path clip-path="url(#p5e11e04f07)" d="M 615.935652 39.973333 
L 620.178352 55.101333 
L 615.944875 55.101333 
L 615.944875 166.04 
L 615.926429 166.04 
L 615.926429 55.101333 
L 611.692952 55.101333 
z
" style="fill:#b33333;stroke:#b33333;stroke-linejoin:miter;"/>
   </g>
   <g id="patch_58">
    <path clip-path="url(#p5e11e04f07)" d="M 652.828696 292.106667 
L 648.585996 276.978667 
L 652.819472 276.978667 
L 652.819472 166.04 
L 652.837919 166.04 
L 652.837919 276.978667 
L 657.071396 276.978667 
z
" style="fill:#b33333;stroke:#b33333;stroke-linejoin:miter;"/>
   </g>
   <g id="patch_59">
    <path clip-path="url(#p5e11e04f07)" d="M 671.275217 229.073333 
L 667.032517 213.945333 
L 671.265994 213.945333 
L 671.265994 166.04 
L 671.284441 166.04 
L 671.284441 213.945333 
L 675.517917 213.945333 
z
" style="fill:#b33333;stroke:#b33333;stroke-linejoin:miter;"/>
   </g>
   <g id="patch_60">
    <path clip-path="url(#p5e11e04f07)" d="M 662.051957 103.006667 
L 666.294657 118.134667 
L 662.06118 118.134667 
L 662.06118 166.04 
L 662.042733 166.04 
L 662.042733 118.134667 
L 657.809257 118.134667 
z
" style="fill:#b33333;stroke:#b33333;stroke-linejoin:miter;"/>
   </g>
   <g id="patch_61">
    <path clip-path="url(#p5e11e04f07)" d="M 680.498478 39.973333 
L 684.741178 55.101333 
L 680.507702 55.101333 
L 680.507702 166.04 
L 680.489255 166.04 
L 680.489255 55.101333 
L 676.255778 55.101333 
z
" style="fill:#b33333;stroke:#b33333;stroke-linejoin:miter;"/>
   </g>
   <g id="patch_62">
    <path clip-path="url(#p5e11e04f07)" d="M 717.391522 292.106667 
L 713.148822 276.978667 
L 717.382298 276.978667 
L 717.382298 166.04 
L 717.400745 166.04 
L 717.400745 276.978667 
L 721.634222 276.978667 
z
" style="fill:#b33333;stroke:#b33333;stroke-linejoin:miter;"/>
   </g>
   <g id="patch_63">
    <path clip-path="url(#p5e11e04f07)" d="M 735.838043 229.073333 
L 731.595343 213.945333 
L 735.82882 213.945333 
L 735.82882 166.04 
L 735.847267 166.04 
L 735.847267 213.945333 
L 740.080743 213.945333 
z
" style="fill:#b33333;stroke:#b33333;stroke-linejoin:miter;"/>
   </g>
   <g id="patch_64">
    <path clip-path="url(#p5e11e04f07)" d="M 80.986522 103.006667 
L 85.229222 118.134667 
L 80.995745 118.134667 
L 80.995745 166.04 
L 80.977298 166.04 
L 80.977298 118.134667 
L 76.743822 118.134667 
z
" style="fill:#114da1;stroke:#114da1;stroke-linejoin:miter;"/>
   </g>
   <g id="patch_65">
    <path clip-path="url(#p5e11e04f07)" d="M 99.433043 39.973333 
L 103.675743 55.101333 
L 99.442267 55.101333 
L 99.442267 166.04 
L 99.42382 166.04 
L 99.42382 55.101333 
L 95.190343 55.101333 
z
" style="fill:#114da1;stroke:#114da1;stroke-linejoin:miter;"/>
   </g>
   <g id="patch_66">
    <path clip-path="url(#p5e11e04f07)" d="M 136.326087 292.106667 
L 132.083387 276.978667 
L 136.316864 276.978667 
L 136.316864 166.04 
L 136.33531 166.04 
L 136.33531 276.978667 
L 140.568787 276.978667 
z
" style="fill:#114da1;stroke:#114da1;stroke-linejoin:miter;"/>
   </g>
   <g id="patch_67">
    <path clip-path="url(#p5e11e04f07)" d="M 154.772609 229.073333 
L 150.529909 213.945333 
L 154.763385 213.945333 
L 154.763385 166.04 
L 154.781832 166.04 
L 154.781832 213.945333 
L 159.015309 213.945333 
z
" style="fill:#114da1;stroke:#114da1;stroke-linejoin:miter;"/>
   </g>
  </g>
 </g>
 <defs>
  <clipPath id="p5e11e04f07">
   <rect height="302.56" width="424.27" x="62.54" y="14.76"/>
  </clipPath>
 </defs>
</svg>
